<?xml version="1.0" encoding="UTF-8" standalone="no"?>
<!-- Created with Inkscape (http://www.inkscape.org/) -->
<svg
   xmlns:dc="http://purl.org/dc/elements/1.1/"
   xmlns:cc="http://creativecommons.org/ns#"
   xmlns:rdf="http://www.w3.org/1999/02/22-rdf-syntax-ns#"
   xmlns:svg="http://www.w3.org/2000/svg"
   xmlns="http://www.w3.org/2000/svg"
   xmlns:sodipodi="http://sodipodi.sourceforge.net/DTD/sodipodi-0.dtd"
   xmlns:inkscape="http://www.inkscape.org/namespaces/inkscape"
   width="990"
   height="765"
   id="svg2481"
   sodipodi:version="0.32"
   inkscape:version="0.46"
   sodipodi:docname="ttc40.svg"
   inkscape:output_extension="org.inkscape.output.svg.inkscape"
   version="1.0">
  <defs
     id="defs2483">
    <inkscape:perspective
       sodipodi:type="inkscape:persp3d"
       inkscape:vp_x="0 : 526.18109 : 1"
       inkscape:vp_y="0 : 1000 : 0"
       inkscape:vp_z="744.09448 : 526.18109 : 1"
       inkscape:persp3d-origin="372.04724 : 350.78739 : 1"
       id="perspective2489" />
    <inkscape:perspective
       id="perspective2546"
       inkscape:persp3d-origin="372.04724 : 350.78739 : 1"
       inkscape:vp_z="744.09448 : 526.18109 : 1"
       inkscape:vp_y="0 : 1000 : 0"
       inkscape:vp_x="0 : 526.18109 : 1"
       sodipodi:type="inkscape:persp3d" />
    <inkscape:perspective
       id="perspective2559"
       inkscape:persp3d-origin="372.04724 : 350.78739 : 1"
       inkscape:vp_z="744.09448 : 526.18109 : 1"
       inkscape:vp_y="0 : 1000 : 0"
       inkscape:vp_x="0 : 526.18109 : 1"
       sodipodi:type="inkscape:persp3d" />
    <inkscape:perspective
       id="perspective2576"
       inkscape:persp3d-origin="372.04724 : 350.78739 : 1"
       inkscape:vp_z="744.09448 : 526.18109 : 1"
       inkscape:vp_y="0 : 1000 : 0"
       inkscape:vp_x="0 : 526.18109 : 1"
       sodipodi:type="inkscape:persp3d" />
    <inkscape:perspective
       id="perspective2929"
       inkscape:persp3d-origin="372.04724 : 350.78739 : 1"
       inkscape:vp_z="744.09448 : 526.18109 : 1"
       inkscape:vp_y="0 : 1000 : 0"
       inkscape:vp_x="0 : 526.18109 : 1"
       sodipodi:type="inkscape:persp3d" />
    <inkscape:perspective
       id="perspective2942"
       inkscape:persp3d-origin="372.04724 : 350.78739 : 1"
       inkscape:vp_z="744.09448 : 526.18109 : 1"
       inkscape:vp_y="0 : 1000 : 0"
       inkscape:vp_x="0 : 526.18109 : 1"
       sodipodi:type="inkscape:persp3d" />
    <inkscape:perspective
       id="perspective2955"
       inkscape:persp3d-origin="372.04724 : 350.78739 : 1"
       inkscape:vp_z="744.09448 : 526.18109 : 1"
       inkscape:vp_y="0 : 1000 : 0"
       inkscape:vp_x="0 : 526.18109 : 1"
       sodipodi:type="inkscape:persp3d" />
    <inkscape:perspective
       id="perspective2968"
       inkscape:persp3d-origin="372.04724 : 350.78739 : 1"
       inkscape:vp_z="744.09448 : 526.18109 : 1"
       inkscape:vp_y="0 : 1000 : 0"
       inkscape:vp_x="0 : 526.18109 : 1"
       sodipodi:type="inkscape:persp3d" />
    <inkscape:perspective
       id="perspective2981"
       inkscape:persp3d-origin="372.04724 : 350.78739 : 1"
       inkscape:vp_z="744.09448 : 526.18109 : 1"
       inkscape:vp_y="0 : 1000 : 0"
       inkscape:vp_x="0 : 526.18109 : 1"
       sodipodi:type="inkscape:persp3d" />
    <inkscape:perspective
       id="perspective4362"
       inkscape:persp3d-origin="372.04724 : 350.78739 : 1"
       inkscape:vp_z="744.09448 : 526.18109 : 1"
       inkscape:vp_y="0 : 1000 : 0"
       inkscape:vp_x="0 : 526.18109 : 1"
       sodipodi:type="inkscape:persp3d" />
    <inkscape:perspective
       id="perspective4375"
       inkscape:persp3d-origin="372.04724 : 350.78739 : 1"
       inkscape:vp_z="744.09448 : 526.18109 : 1"
       inkscape:vp_y="0 : 1000 : 0"
       inkscape:vp_x="0 : 526.18109 : 1"
       sodipodi:type="inkscape:persp3d" />
    <inkscape:perspective
       id="perspective4388"
       inkscape:persp3d-origin="372.04724 : 350.78739 : 1"
       inkscape:vp_z="744.09448 : 526.18109 : 1"
       inkscape:vp_y="0 : 1000 : 0"
       inkscape:vp_x="0 : 526.18109 : 1"
       sodipodi:type="inkscape:persp3d" />
    <inkscape:perspective
       id="perspective2776"
       inkscape:persp3d-origin="372.04724 : 350.78739 : 1"
       inkscape:vp_z="744.09448 : 526.18109 : 1"
       inkscape:vp_y="0 : 1000 : 0"
       inkscape:vp_x="0 : 526.18109 : 1"
       sodipodi:type="inkscape:persp3d" />
    <inkscape:perspective
       id="perspective2789"
       inkscape:persp3d-origin="372.04724 : 350.78739 : 1"
       inkscape:vp_z="744.09448 : 526.18109 : 1"
       inkscape:vp_y="0 : 1000 : 0"
       inkscape:vp_x="0 : 526.18109 : 1"
       sodipodi:type="inkscape:persp3d" />
    <inkscape:perspective
       id="perspective2802"
       inkscape:persp3d-origin="372.04724 : 350.78739 : 1"
       inkscape:vp_z="744.09448 : 526.18109 : 1"
       inkscape:vp_y="0 : 1000 : 0"
       inkscape:vp_x="0 : 526.18109 : 1"
       sodipodi:type="inkscape:persp3d" />
    <inkscape:perspective
       id="perspective2815"
       inkscape:persp3d-origin="372.04724 : 350.78739 : 1"
       inkscape:vp_z="744.09448 : 526.18109 : 1"
       inkscape:vp_y="0 : 1000 : 0"
       inkscape:vp_x="0 : 526.18109 : 1"
       sodipodi:type="inkscape:persp3d" />
    <inkscape:perspective
       id="perspective6882"
       inkscape:persp3d-origin="372.04724 : 350.78739 : 1"
       inkscape:vp_z="744.09448 : 526.18109 : 1"
       inkscape:vp_y="0 : 1000 : 0"
       inkscape:vp_x="0 : 526.18109 : 1"
       sodipodi:type="inkscape:persp3d" />
    <inkscape:perspective
       id="perspective6895"
       inkscape:persp3d-origin="372.04724 : 350.78739 : 1"
       inkscape:vp_z="744.09448 : 526.18109 : 1"
       inkscape:vp_y="0 : 1000 : 0"
       inkscape:vp_x="0 : 526.18109 : 1"
       sodipodi:type="inkscape:persp3d" />
    <inkscape:perspective
       id="perspective3288"
       inkscape:persp3d-origin="372.04724 : 350.78739 : 1"
       inkscape:vp_z="744.09448 : 526.18109 : 1"
       inkscape:vp_y="0 : 1000 : 0"
       inkscape:vp_x="0 : 526.18109 : 1"
       sodipodi:type="inkscape:persp3d" />
  </defs>
  <sodipodi:namedview
     id="base"
     pagecolor="#ffffff"
     bordercolor="#666666"
     borderopacity="1.0"
     gridtolerance="10000"
     guidetolerance="10"
     objecttolerance="10"
     inkscape:pageopacity="0.0"
     inkscape:pageshadow="2"
     inkscape:zoom="0.98994949"
     inkscape:cx="489.22705"
     inkscape:cy="370.47095"
     inkscape:document-units="px"
     inkscape:current-layer="layer2"
     showgrid="false"
     inkscape:window-width="1181"
     inkscape:window-height="936"
     inkscape:window-x="50"
     inkscape:window-y="30" />
  <metadata
     id="metadata2486">
    <rdf:RDF>
      <cc:Work
         rdf:about="">
        <dc:format>image/svg+xml</dc:format>
        <dc:type
           rdf:resource="http://purl.org/dc/dcmitype/StillImage" />
      </cc:Work>
    </rdf:RDF>
  </metadata>
  <g
     inkscape:label="seal"
     inkscape:groupmode="layer"
     id="layer1"
     style="display:inline">
    <rect
       style="opacity:0.6;fill:#769402;fill-opacity:1;stroke:none;stroke-width:1;stroke-miterlimit:4;stroke-dasharray:none;stroke-opacity:1"
       id="rect2586"
       width="569.72601"
       height="70.812202"
       x="348.00653"
       y="42.635239"
       rx="37.857143"
       ry="25.035894" />
    <text
       xml:space="preserve"
       style="font-size:48px;font-style:normal;font-variant:normal;font-weight:normal;font-stretch:normal;text-align:center;line-height:100%;writing-mode:lr-tb;text-anchor:middle;opacity:1;fill:#b3b3b3;fill-opacity:1;fill-rule:nonzero;stroke:none;stroke-width:1px;stroke-linecap:butt;stroke-linejoin:miter;marker:none;marker-start:none;marker-mid:none;marker-end:none;stroke-miterlimit:4;stroke-dasharray:none;stroke-dashoffset:0;stroke-opacity:1;visibility:visible;display:inline;overflow:visible;enable-background:accumulate;font-family:Hobo Std;-inkscape-font-specification:Hobo Std"
       x="285.69693"
       y="118.85566"
       id="text2660"
       sodipodi:linespacing="100%"><tspan
         sodipodi:role="line"
         id="tspan2662"
         x="285.69693"
         y="118.85566">40</tspan></text>
    <path
       style="fill:#000000;display:inline"
       d="M 411.14923,163.00014 C 410.81501,163.02447 410.4302,163.09081 409.99298,163.15639 C 409.39601,163.24593 408.99299,167.71472 408.99298,174.28139 L 408.99298,185.28139 L 406.43048,185.28139 C 401.78021,185.28139 400.14694,183.74054 400.68048,179.78139 C 401.19031,175.99821 399.7599,173.28139 397.24298,173.28139 C 396.01413,173.28139 395.83911,174.48253 396.24298,179.84389 C 396.51385,183.43987 396.9098,186.49499 397.11798,186.65639 C 400.09114,188.96131 402.90679,190.31208 404.96173,190.40639 C 407.01758,190.50075 407.11979,190.61274 405.49298,191.00014 C 402.17024,191.7914 397.12787,198.26062 395.61798,203.68764 C 393.71899,210.51318 392.77036,225.00515 394.05548,227.40639 C 394.61222,228.44667 395.50406,229.2814 396.02423,229.28139 C 397.30306,229.28139 397.81362,226.34413 398.36798,216.28139 C 398.81666,208.13703 400.45428,200.28139 401.68048,200.28139 C 401.99992,200.28139 401.97157,202.10137 401.61798,204.31264 C 400.86434,209.02563 402.90309,213.83344 406.30548,215.37514 C 407.63706,215.97851 410.07402,216.03522 412.49298,215.53139 C 417.44167,214.50066 419.18085,211.42975 419.36798,203.28139 C 419.66177,190.48891 423.00785,203.81801 423.30548,218.96889 C 423.48648,228.18227 423.61581,228.76153 425.49298,228.43764 C 426.59298,228.24785 427.69513,227.91653 427.93048,227.68764 C 428.16583,227.45874 427.90038,221.26155 427.33673,213.90639 C 426.48072,202.73643 425.90211,199.88528 423.93048,196.65639 C 422.63221,194.53025 421.21016,192.65222 420.77423,192.46889 C 419.38806,191.88592 419.92846,190.15138 422.02423,188.43764 C 424.3046,186.57296 425.58927,180.74458 424.58673,176.75014 C 424.07789,174.72274 423.61599,174.35937 422.61798,175.18764 C 421.90253,175.78141 421.0253,176.00121 420.68048,175.65639 C 420.33567,175.31158 420.32348,177.28093 420.64923,180.03139 C 421.2269,184.90884 421.15785,185.06195 417.96173,186.65639 C 416.1594,187.55551 414.26559,188.28139 413.74298,188.28139 C 413.17393,188.28139 412.93732,183.16724 413.14923,175.53139 C 413.46244,164.24448 413.48877,162.82986 411.14923,163.00014 z M 552.93048,163.28139 C 551.83048,163.28139 550.65712,163.97776 550.33673,164.81264 C 549.60924,166.70846 551.76247,172.08302 553.68048,173.15639 C 554.82856,173.79889 554.51041,174.59087 552.05548,177.21889 C 550.37023,179.02296 548.99299,180.88451 548.99298,181.34389 C 548.99298,184.78432 556.11267,180.90542 558.11798,176.37514 C 558.87022,174.67572 559.93975,173.30422 560.49298,173.31264 C 562.14729,173.33783 564.57517,175.41215 563.49298,175.87514 C 558.88902,177.84488 555.99299,180.51229 555.99298,182.78139 C 555.99298,184.77735 555.48307,185.28139 553.55548,185.28139 C 549.82399,185.28139 547.82309,182.67498 548.46173,178.65639 C 548.86439,176.12274 548.59233,175.07099 547.43048,174.62514 C 544.77509,173.60617 543.69425,175.80924 544.43048,180.71889 C 545.26705,186.29752 546.94662,188.08945 552.05548,188.90639 C 556.32873,189.58971 557.44084,191.28139 553.61798,191.28139 C 549.8971,191.28139 545.99299,194.96204 545.99298,198.43764 C 545.99298,200.54833 545.64466,201.19435 544.77423,200.65639 C 544.09686,200.23775 544.52311,201.16806 545.74298,202.71889 C 546.96286,204.26972 547.80175,205.80853 547.58673,206.15639 C 547.37173,206.50424 549.27673,206.67899 551.83673,206.53139 L 556.49298,206.25014 L 553.99298,208.00014 C 549.70444,210.98849 545.81528,215.80715 544.39923,219.87514 C 542.54243,225.20937 542.61604,227.52383 544.64923,227.12514 C 545.64776,226.92935 547.0036,224.63734 548.08673,221.31264 C 550.39882,214.21557 555.39998,210.00238 556.74298,214.03139 C 556.94746,214.64483 555.85059,215.29171 554.30548,215.46889 C 550.88449,215.86117 550.35906,218.86771 553.74298,218.68764 C 557.39558,218.49327 556.31191,221.02199 552.43048,221.75014 C 550.31756,222.14652 549.03483,222.88688 549.27423,223.59389 C 549.54738,224.40059 552.61199,224.7814 558.77423,224.78139 C 566.80738,224.78139 567.94131,225.02042 568.36798,226.65639 C 568.95268,228.89831 571.35397,228.33421 571.83673,225.84389 C 572.49662,222.43975 570.86898,215.4129 568.68048,212.18764 C 567.47064,210.40465 564.91799,208.37809 562.99298,207.68764 L 559.49298,206.43764 L 563.02423,206.37514 C 568.56112,206.25572 570.99299,203.94904 570.99298,198.87514 C 570.99298,193.75322 568.76773,191.28279 563.24298,190.28139 L 559.49298,189.62514 L 563.49298,188.84389 C 568.96574,187.77117 572.99299,183.83776 572.99298,179.59389 C 572.99298,177.77179 572.62048,176.28139 572.18048,176.28139 C 570.7779,176.28139 568.99299,178.64342 568.99298,180.46889 C 568.99298,182.57247 566.09867,184.28139 562.58673,184.28139 C 559.24979,184.28139 560.07373,182.06145 563.96173,180.59389 C 567.68526,179.18841 568.86702,175.26154 566.58673,171.78139 C 565.25973,169.75612 564.12467,169.28139 560.58673,169.28139 C 555.94869,169.28139 553.334,167.42572 554.33673,164.81264 C 554.73565,163.77307 554.30489,163.28139 552.93048,163.28139 z M 425.05548,167.28139 C 423.67429,167.28139 417.45418,170.77456 415.18048,172.81264 C 414.54419,173.383 414.06455,182.83967 414.58673,184.53139 C 415.1759,186.4401 416.54555,186.8263 417.46173,185.34389 C 417.7806,184.82794 418.28993,182.46543 418.58673,180.09389 C 419.37848,173.76751 419.65933,173.29818 422.71173,173.28139 C 424.24149,173.27297 426.09038,172.87931 426.83673,172.40639 C 428.70532,171.22241 427.33765,167.28139 425.05548,167.28139 z M 398.52423,168.31264 C 395.85786,168.41186 393.49299,169.21039 393.49298,170.65639 C 393.49298,172.11671 394.32776,172.56745 397.33673,172.75014 C 401.67601,173.01359 402.97078,174.40725 402.99298,178.87514 C 403.0014,180.57098 403.29479,182.2707 403.68048,182.65639 C 404.06616,183.04207 405.07865,183.23138 405.93048,183.06264 C 408.23255,182.60659 407.85971,172.90315 405.43048,170.21889 C 404.1645,168.82001 401.1906,168.21342 398.52423,168.31264 z M 459.08673,168.31264 C 457.86919,168.70596 456.99299,173.38914 456.99298,180.96889 C 456.99298,186.53538 457.35227,187.73442 459.58673,189.96889 C 463.09544,193.4776 465.18312,191.61558 462.11798,187.71889 C 460.94721,186.23049 459.99299,184.21014 459.99298,183.21889 C 459.99298,181.71763 460.57756,181.52703 463.49298,182.00014 C 467.76758,182.69382 468.15381,181.0338 464.24298,178.78139 L 461.49298,177.18764 L 464.24298,177.75014 C 467.86191,178.50151 467.94141,176.13133 464.36798,174.21889 C 462.93153,173.45013 461.37417,171.81181 460.89923,170.56264 C 460.24766,168.8489 459.64016,168.13386 459.08673,168.31264 z M 586.33673,168.87514 C 585.1167,169.00455 584.01832,170.36889 581.96173,173.75014 C 579.55323,177.70997 579.09491,182.4187 580.27423,191.03139 C 580.58924,193.33193 580.33692,194.28139 579.36798,194.28139 C 578.58432,194.28139 577.99299,193.23788 577.99298,191.84389 C 577.99298,190.50469 577.53216,188.18802 576.96173,186.68764 C 575.11872,181.84016 573.96147,185.49302 573.58673,197.37514 C 573.38846,203.66171 572.9062,210.69389 572.49298,213.03139 C 571.8821,216.48707 572.01493,217.2814 573.24298,217.28139 C 575.23536,217.28139 576.76725,213.21822 577.71173,205.50014 C 578.13468,202.04395 578.95029,199.24904 579.49298,199.28139 C 580.7637,199.35713 580.29209,204.20478 578.30548,211.78139 C 577.44021,215.08139 576.50981,219.0189 576.24298,220.53139 C 575.2098,226.38821 580.18028,222.19251 581.86798,215.78139 C 582.75593,212.4083 583.69454,205.42689 583.93048,200.53139 C 583.96362,199.84389 584.66799,199.28139 585.49298,199.28139 C 587.32769,199.28139 587.44202,203.46285 585.89923,213.40639 C 585.30213,217.25483 585.08816,221.13932 585.43048,222.03139 C 585.99443,223.50103 586.20402,223.50786 587.61798,222.09389 C 589.46398,220.24789 590.78119,209.88932 591.05548,195.12514 C 591.23251,185.59625 591.10339,184.78139 589.36798,184.78139 C 587.85631,184.78139 587.39432,185.73034 586.99298,189.56264 C 586.18619,197.26677 584.49299,195.08857 584.49298,186.34389 C 584.49298,179.06238 584.71571,178.19856 587.24298,175.56264 C 590.4531,172.2145 590.67092,170.73922 588.18048,169.40639 C 587.46831,169.02525 586.89129,168.81632 586.33673,168.87514 z M 516.49298,169.28139 C 515.66798,169.28139 514.93141,169.84389 514.86798,170.53139 C 514.80454,171.21889 514.68213,172.23139 514.58673,172.78139 C 514.49133,173.33139 514.04465,181.31889 513.58673,190.53139 C 512.81993,205.95857 512.59826,207.28139 510.86798,207.28139 C 509.83473,207.28139 508.03247,206.35213 506.86798,205.18764 C 504.8783,203.19796 504.77285,202.24891 505.11798,189.43764 C 505.47058,176.34915 505.41315,175.78139 503.49298,175.78139 C 501.84447,175.78139 501.39233,176.66011 500.86798,180.78139 C 499.97324,187.81391 500.79874,207.32961 502.05548,208.84389 C 502.63111,209.53749 505.36061,210.65115 508.11798,211.31264 C 511.83948,212.20541 512.97335,212.9112 512.55548,214.00014 C 512.24588,214.80697 511.99299,216.02038 511.99298,216.71889 C 511.99298,217.59064 509.42054,218.19215 503.80548,218.62514 C 495.94797,219.23107 492.6125,220.77674 495.30548,222.53139 C 495.96394,222.96042 504.5036,223.19325 514.30548,223.06264 C 527.76512,222.88328 532.40157,222.48272 533.24298,221.46889 C 535.05533,219.28514 532.26836,218.32954 524.11798,218.31264 L 516.71173,218.28139 L 517.36798,213.65639 C 517.71773,211.10462 517.99299,208.40462 517.99298,207.65639 C 517.99298,206.90815 518.90656,206.28139 520.02423,206.28139 C 523.56329,206.28139 528.76226,203.55107 530.61798,200.71889 C 532.09669,198.4621 532.37242,196.15905 532.18048,187.53139 C 531.94175,176.79973 530.75798,172.1414 528.74298,174.15639 C 528.0647,174.83467 527.74553,179.47007 527.89923,186.62514 C 528.14251,197.94956 528.11963,198.0411 525.43048,200.15639 C 523.94185,201.32735 521.61046,202.28139 520.24298,202.28139 L 517.74298,202.28139 L 518.02423,189.03139 C 518.40903,170.97952 518.28545,169.28139 516.49298,169.28139 z M 362.86798,170.31264 C 352.90297,170.19758 347.76273,171.35539 344.89923,174.21889 C 342.19977,176.91836 342.18136,177.12182 342.49298,187.87514 C 342.73774,196.32121 342.35983,200.36545 340.86798,205.78139 C 339.80748,209.63139 338.67718,214.7636 338.33673,217.15639 C 337.78333,221.04589 337.90259,221.44947 339.58673,221.12514 C 343.51445,220.36873 345.58568,211.1224 346.64923,189.53139 C 347.11284,180.11971 347.69872,175.93993 348.68048,175.12514 C 350.01499,174.0176 373.12628,173.63053 374.83673,174.68764 C 376.30613,175.59578 377.92936,173.76545 376.99298,172.25014 C 376.33607,171.1871 373.67465,170.69426 367.46173,170.43764 C 365.83375,170.3704 364.29155,170.32908 362.86798,170.31264 z M 477.27423,174.71889 C 477.16994,174.71676 477.06269,174.73831 476.99298,174.78139 C 475.41924,175.75401 475.76894,176.80736 478.61798,179.65639 C 481.32112,182.35953 483.99299,183.13611 483.99298,181.21889 C 483.99298,179.61063 478.83855,174.75085 477.27423,174.71889 z M 446.24298,178.28139 C 444.74981,178.28139 443.94931,179.39696 442.99298,182.81264 C 442.29605,185.30181 441.32025,187.57629 440.83673,187.87514 C 440.35321,188.17397 440.20779,188.86315 440.52423,189.37514 C 442.30377,192.2545 445.75272,188.13787 447.52423,181.03139 C 448.09866,178.72705 447.90082,178.28139 446.24298,178.28139 z M 361.24298,178.31264 C 357.31212,178.26138 353.22819,178.62476 351.33673,179.34389 C 347.1089,180.95131 349.91902,181.99641 359.14923,182.21889 C 368.21106,182.4373 371.99299,183.50524 371.99298,185.87514 C 371.99298,187.05886 371.5125,187.28321 370.24298,186.71889 C 367.27172,185.3981 351.91303,184.95508 350.71173,186.15639 C 349.07264,187.79547 349.82672,188.03765 358.21173,188.62514 C 372.47914,189.62477 374.01366,193.28827 360.18048,193.31264 C 351.41881,193.32808 348.18545,194.16118 349.39923,196.12514 C 349.81294,196.79452 353.96154,197.12929 360.52423,197.00014 C 366.28226,196.88682 371.04206,197.00639 371.08673,197.28139 C 371.33036,198.78093 371.8784,203.37773 372.36798,207.78139 C 373.14781,214.79572 373.88257,218.35076 375.14923,221.53139 C 376.5398,225.02318 379.99299,225.33884 379.99298,221.96889 C 379.99298,220.69023 378.87473,216.31266 377.49298,212.25014 C 375.37118,206.01179 374.99886,203.16732 375.08673,193.90639 C 375.18491,183.56021 375.04711,182.83137 372.86798,181.18764 C 371.59774,180.2295 369.24822,179.19494 367.64923,178.87514 C 365.91109,178.52751 363.60149,178.34339 361.24298,178.31264 z M 451.58673,178.68764 C 449.57428,178.9759 450.3147,191.86029 452.96173,198.78139 C 454.44735,202.66579 458.88141,207.28139 461.11798,207.28139 C 462.16033,207.28139 462.83928,207.98949 462.77423,209.03139 C 462.71413,209.99389 462.99772,211.86693 463.43048,213.18764 C 464.10991,215.26118 463.97877,215.5015 462.36798,214.87514 C 459.22694,213.65374 458.61952,213.7286 458.24298,215.43764 C 457.98128,216.62542 459.21607,217.57221 462.68048,218.84389 C 465.32238,219.81365 468.15638,221.20069 468.96173,221.93764 C 470.44893,223.29853 472.99299,223.77429 472.99298,222.68764 C 472.99298,222.36 472.24656,220.85289 471.33673,219.31264 C 469.76154,216.64606 469.78543,216.35792 471.83673,213.75014 C 473.02157,212.24385 473.99299,210.40722 473.99298,209.65639 C 473.99298,207.51672 471.40025,208.04725 469.74298,210.53139 L 468.24298,212.78139 L 466.24298,210.34389 L 464.24298,207.87514 L 467.96173,206.18764 C 473.48943,203.71281 475.28239,198.54099 474.39923,187.65639 C 473.92518,181.81404 473.33462,179.28139 472.43048,179.28139 C 471.71765,179.28139 470.9795,180.51889 470.80548,182.03139 C 470.52338,184.48312 470.14049,184.75898 467.24298,184.46889 C 462.87714,184.03182 463.05856,185.99621 467.55548,187.87514 C 470.71665,189.19596 471.08114,189.74271 470.80548,192.59389 L 470.49298,195.78139 L 464.14923,195.53139 C 454.99492,195.15125 454.36973,194.60714 453.55548,186.34389 C 453.17541,182.48682 452.49741,179.10508 452.02423,178.81264 C 451.86514,178.71432 451.72089,178.66842 451.58673,178.68764 z M 446.27423,192.68764 C 445.46105,192.75463 444.4238,193.42385 443.33673,194.68764 C 440.35325,198.15615 440.15674,201.74185 442.99298,201.00014 C 444.59148,200.58213 445.3693,201.34584 446.93048,204.87514 C 448.0297,207.36013 449.55258,209.28139 450.43048,209.28139 C 452.45116,209.28139 452.40096,208.39047 449.99298,202.28139 C 448.89298,199.49067 447.99299,196.35982 447.99298,195.31264 C 447.99298,193.50002 447.31974,192.6015 446.27423,192.68764 z M 414.21173,192.71889 C 414.68791,192.72937 414.99299,193.86561 414.99298,195.71889 C 414.99298,197.67635 414.83255,199.28139 414.64923,199.28139 C 412.88629,199.28139 412.33514,193.806 413.99298,192.78139 C 414.06737,192.73542 414.1437,192.71739 414.21173,192.71889 z M 478.24298,192.81264 C 477.34182,192.95932 477.15646,193.73262 477.86798,195.09389 C 478.35361,196.02301 478.54692,198.26748 478.27423,200.06264 C 478.00154,201.85781 478.31272,204.67032 478.99298,206.31264 C 480.20091,209.22884 482.30275,210.19988 483.43048,208.37514 C 483.74031,207.87384 483.25848,206.16871 482.33673,204.56264 C 480.24358,200.91553 481.12356,198.28139 484.46173,198.28139 C 488.17796,198.28139 487.55449,196.62444 482.96173,194.28139 C 480.76673,193.16159 479.14414,192.66596 478.24298,192.81264 z M 562.96173,194.31264 C 564.48252,194.32557 566.08288,194.6252 566.43048,195.18764 C 566.73233,195.67604 565.64048,196.25834 563.99298,196.50014 C 560.95276,196.94635 559.99299,196.62617 559.99298,195.12514 C 559.99298,194.56567 561.44094,194.29971 562.96173,194.31264 z M 555.08673,194.53139 C 555.67758,194.50947 555.99299,194.89675 555.99298,195.68764 C 555.99298,196.7351 555.12252,197.28139 553.49298,197.28139 C 552.11798,197.28139 550.99299,196.83139 550.99298,196.28139 C 550.99298,195.73139 551.39423,195.28139 551.89923,195.28139 C 552.40425,195.28139 553.52926,195.02149 554.39923,194.68764 C 554.65873,194.58806 554.88978,194.5387 555.08673,194.53139 z M 408.30548,195.37514 C 408.91137,195.32558 408.99299,195.70326 408.99298,196.71889 C 408.99298,198.82641 407.3999,199.48867 406.08673,197.90639 C 405.20989,196.84987 405.31794,196.38128 406.55548,195.90639 C 407.40066,195.58207 407.94195,195.40488 408.30548,195.37514 z M 458.80548,198.78139 C 459.6301,198.74694 460.7796,198.80672 462.24298,198.96889 C 468.51774,199.66423 469.67608,200.4733 467.49298,202.65639 C 465.29517,204.8542 462.7917,204.71533 459.61798,202.21889 C 456.68936,199.91524 456.33163,198.88474 458.80548,198.78139 z M 563.49298,200.28139 C 565.41798,200.28139 566.99299,200.73139 566.99298,201.28139 C 566.99298,201.83139 565.41799,202.28139 563.49298,202.28139 C 561.56798,202.28139 559.99299,201.83139 559.99298,201.28139 C 559.99298,200.73139 561.56799,200.28139 563.49298,200.28139 z M 554.21173,200.43764 C 555.79507,200.3357 556.30438,200.95657 555.52423,202.21889 C 554.76789,203.44267 554.25864,203.47107 551.49298,202.34389 C 549.66082,201.59716 549.74361,201.45441 552.30548,200.78139 C 553.06461,200.58196 553.68395,200.47162 554.21173,200.43764 z M 408.33673,201.65639 C 408.57548,201.65582 408.84974,201.67258 409.14923,201.68764 C 410.71376,201.76632 412.60295,202.71684 413.36798,203.81264 C 414.67358,205.68272 414.54585,205.80049 410.96173,205.84389 C 407.83805,205.88172 407.08414,205.50359 406.74298,203.71889 C 406.43561,202.11103 406.66549,201.66039 408.33673,201.65639 z M 410.49298,209.28139 C 412.41798,209.28139 413.99299,209.4945 413.99298,209.75014 C 413.99298,210.7074 410.42806,211.91508 408.74298,211.53139 C 405.66436,210.83038 406.86958,209.28139 410.49298,209.28139 z M 561.80548,211.28139 C 562.73158,211.28139 564.99299,213.41732 564.99298,214.28139 C 564.99298,214.60354 564.09299,214.87514 562.99298,214.87514 C 561.73965,214.87514 560.99299,214.18169 560.99298,213.06264 C 560.99298,212.0805 561.36547,211.28139 561.80548,211.28139 z M 563.99298,218.28139 C 566.52631,218.28139 566.99299,218.67029 566.99298,220.78139 C 566.99298,223.43293 566.50579,223.92014 565.49298,222.28139 C 565.15306,221.73139 563.99803,221.2814 562.93048,221.28139 C 561.86294,221.28139 560.99299,220.6064 560.99298,219.78139 C 560.99298,218.78139 561.99299,218.2814 563.99298,218.28139 z"
       id="path3294" />
    <path
       style="fill:#000000;display:inline"
       d="M 414.63925,272.99888 C 414.30503,273.0232 413.92022,273.08955 413.483,273.15513 C 412.88603,273.24468 412.48301,277.71347 412.483,284.28013 L 412.483,295.28013 L 409.9205,295.28013 C 405.27023,295.28013 403.63696,293.73927 404.1705,289.78013 C 404.68033,285.99695 403.24992,283.28014 400.733,283.28013 C 399.50415,283.28013 399.32913,284.48126 399.733,289.84263 C 400.00387,293.43861 400.39982,296.49374 400.608,296.65513 C 403.58116,298.96005 406.39681,300.31081 408.45175,300.40513 C 410.5076,300.49949 410.60981,300.61149 408.983,300.99888 C 406.08371,301.6893 400.63141,308.07592 399.4205,312.21763 C 397.59969,318.44544 396.34244,335.1218 397.51425,337.31138 C 398.09493,338.39639 398.99408,339.28014 399.51425,339.28013 C 400.79308,339.28013 401.30364,336.34287 401.858,326.28013 C 402.30668,318.13577 403.9443,310.28014 405.1705,310.28013 C 405.48994,310.28013 405.46159,312.1001 405.108,314.31138 C 404.35436,319.02437 406.39311,323.83219 409.7955,325.37388 C 411.12708,325.97725 413.56404,326.03396 415.983,325.53013 C 420.93169,324.4994 422.67087,321.42849 422.858,313.28013 C 423.15179,300.48765 426.49787,313.81675 426.7955,328.96763 C 426.9765,338.18101 427.10583,338.76027 428.983,338.43638 C 430.083,338.24659 431.18515,337.91527 431.4205,337.68638 C 431.65585,337.45748 431.3904,331.26029 430.82675,323.90513 C 429.97074,312.73517 429.39213,309.88403 427.4205,306.65513 C 426.12223,304.52899 424.70018,302.65096 424.26425,302.46763 C 422.87808,301.88466 423.41848,300.15012 425.51425,298.43638 C 427.79462,296.5717 429.07929,290.74331 428.07675,286.74888 C 427.56791,284.72148 427.10601,284.35813 426.108,285.18638 C 425.39255,285.78015 424.51532,285.99996 424.1705,285.65513 C 423.82569,285.31032 423.8135,287.27965 424.13925,290.03013 C 424.71692,294.90758 424.64787,295.06071 421.45175,296.65513 C 419.64942,297.55425 417.75561,298.28014 417.233,298.28013 C 416.66395,298.28013 416.42734,293.16599 416.63925,285.53013 C 416.95246,274.24322 416.97879,272.82861 414.63925,272.99888 z M 359.5455,276.53013 C 358.96242,276.55688 358.26457,277.0815 357.4205,278.12388 C 356.01395,279.8609 354.58139,280.28014 350.1705,280.28013 C 346.08119,280.28013 344.53191,280.6878 344.07675,281.87388 C 343.02533,284.61385 344.40505,285.28014 351.0455,285.28013 C 358.4455,285.28013 359.6166,286.75879 353.01425,287.74888 C 347.32626,288.60185 344.23805,292.10348 344.6705,297.24888 C 344.90386,300.02555 345.46419,300.84973 347.1705,301.09263 C 349.12714,301.37118 348.84135,301.89399 344.4205,306.15513 C 341.70704,308.77055 339.483,311.66653 339.483,312.59263 C 339.483,314.96774 339.81151,314.81722 345.483,309.78013 C 348.26972,307.30513 351.03416,305.28014 351.608,305.28013 C 352.18184,305.28013 351.19456,306.50609 349.4205,307.99888 C 346.0626,310.82437 340.483,317.96066 340.483,319.43638 C 340.483,321.2236 342.24285,320.11311 347.858,314.71763 C 351.05261,311.648 353.8674,309.35201 354.13925,309.62388 C 354.41111,309.89573 351.92062,313.36009 348.57675,317.34263 C 342.67351,324.37333 340.98366,328.28014 343.88925,328.28013 C 344.66939,328.28013 346.21817,326.81764 347.32675,325.03013 C 348.43532,323.24263 351.02215,320.20514 353.0455,318.28013 L 356.70175,314.78013 L 354.483,319.21763 C 352.18789,323.78721 350.71679,333.84972 351.88925,336.90513 C 353.0301,339.87813 354.74828,336.88876 355.63925,330.37388 C 356.57695,323.51727 362.02716,312.11683 366.233,308.24888 C 371.91882,303.01985 372.79264,303.09541 367.733,308.37388 C 364.8455,311.38627 362.48301,314.66408 362.483,315.65513 C 362.483,318.09721 363.18639,317.69932 370.483,311.06138 C 376.66905,305.43374 376.76363,305.27895 374.983,303.31138 C 373.38166,301.54192 373.36788,301.28014 374.7955,301.28013 C 376.54519,301.28013 378.48301,304.18269 378.483,306.78013 C 378.483,307.66539 377.87361,308.25424 377.13925,308.09263 C 375.12907,307.65024 361.48301,322.19355 361.483,324.78013 C 361.483,327.42372 364.92418,326.37608 367.20175,323.03013 C 370.38944,318.34713 379.10714,310.05366 377.45175,313.28013 C 376.74628,314.65513 375.37106,316.90514 374.38925,318.28013 C 371.89467,321.77365 369.96657,332.97138 371.5455,334.87388 C 373.39499,337.10238 375.48301,334.68985 375.483,330.31138 C 375.483,325.43329 377.18966,320.72024 380.6705,315.90513 C 385.4286,309.32315 384.09512,299.62868 378.07675,297.12388 C 376.46938,296.4549 373.60736,295.99764 371.733,296.12388 C 368.93733,296.31216 368.39177,296.05839 368.6705,294.59263 C 368.93837,293.18401 370.16369,292.71245 374.483,292.46763 C 382.19454,292.03057 383.87567,290.3042 383.1705,283.43638 C 382.52241,277.12445 382.28882,276.79961 379.63925,278.21763 C 377.08479,279.58473 369.96042,279.62273 367.45175,278.28013 C 365.85236,277.42417 365.43869,277.653 364.9205,279.71763 C 363.94663,283.59783 365.13019,284.28014 372.63925,284.28013 C 377.81214,284.28013 379.53693,284.60961 379.233,285.53013 C 378.97955,286.29778 376.5024,286.91274 372.82675,287.09263 C 367.07029,287.37433 366.81055,287.50234 365.6705,290.65513 C 363.91353,295.51396 364.1971,299.09081 366.45175,300.49888 C 368.39627,301.71325 368.38106,301.74566 366.26425,303.99888 C 365.08629,305.25276 363.85007,306.28014 363.483,306.28013 C 363.11593,306.28013 362.26444,304.50241 361.608,302.31138 C 360.21543,297.66339 358.15026,296.28014 352.5455,296.28013 C 348.44896,296.28013 347.14714,295.02934 350.07675,293.90513 C 350.94674,293.57128 353.03379,293.28014 354.733,293.28013 C 359.81343,293.28013 361.48301,290.91209 361.483,283.68638 C 361.483,278.85634 360.82827,276.47128 359.5455,276.53013 z M 428.5455,277.28013 C 427.16431,277.28013 420.9442,280.77329 418.6705,282.81138 C 418.03421,283.38174 417.55457,292.83842 418.07675,294.53013 C 418.66592,296.43884 420.03557,296.82504 420.95175,295.34263 C 421.27062,294.82668 421.77995,292.46417 422.07675,290.09263 C 422.8685,283.76625 423.14935,283.29692 426.20175,283.28013 C 427.73151,283.27171 429.5804,282.87804 430.32675,282.40513 C 432.19534,281.22115 430.82767,277.28014 428.5455,277.28013 z M 570.45175,278.21763 C 570.31962,278.21331 570.16732,278.25206 570.0455,278.37388 C 569.7517,278.66767 569.24599,282.70236 568.88925,287.34263 L 568.233,295.78013 L 563.45175,295.99888 L 558.6705,296.21763 L 557.95175,289.99888 C 557.30133,284.26901 556.16555,281.28216 554.608,281.28013 C 554.26284,281.27968 553.98301,287.01717 553.983,294.03013 C 553.983,308.8976 553.57729,316.41051 552.483,321.28013 C 552.05042,323.20513 551.42818,326.91764 551.108,329.53013 C 550.64787,333.28442 550.83463,334.28014 551.983,334.28013 C 553.91374,334.28013 556.25917,325.82693 556.983,316.28013 C 557.92404,303.86854 558.54753,300.30372 559.7955,300.18638 C 560.4493,300.1249 562.45752,299.89479 564.26425,299.68638 C 566.5268,299.4254 567.74188,299.77586 568.13925,300.81138 C 568.792,302.51241 566.80117,305.38605 565.108,305.18638 C 564.49387,305.11395 562.71547,305.12121 561.1705,305.18638 C 557.24139,305.3521 558.78021,307.15311 563.483,307.90513 C 567.46639,308.54209 568.88104,310.02544 567.5455,312.18638 C 566.75656,313.46291 564.72617,314.06505 560.483,314.24888 C 558.06675,314.35357 558.04441,314.39238 559.9205,315.81138 C 560.98812,316.61889 563.12563,317.28014 564.6705,317.28013 L 567.483,317.28013 L 567.51425,324.53013 C 567.52875,331.39269 568.59296,335.51393 570.01425,334.09263 C 570.36825,333.73864 570.89726,329.81646 571.20175,325.37388 C 571.50625,320.93131 571.83033,317.25678 571.88925,317.21763 C 571.94816,317.17849 574.72165,316.92171 578.07675,316.65513 L 584.1705,316.18638 L 584.7955,322.56138 C 585.40054,329.04064 587.10838,334.28014 588.63925,334.28013 C 589.46531,334.28013 589.99351,330.73628 589.45175,328.78013 C 589.29943,328.23013 589.12705,317.20514 589.07675,304.28013 C 588.9982,284.09856 588.7712,280.78014 587.483,280.78013 C 586.46548,280.78013 585.88436,282.02447 585.6705,284.62388 C 585.42832,287.56757 584.99176,288.32092 583.82675,287.87388 C 582.99266,287.55381 580.09428,287.28014 577.38925,287.28013 C 572.51031,287.28013 572.49818,287.25419 572.483,284.03013 C 572.46939,281.14351 571.37665,278.24789 570.45175,278.21763 z M 402.01425,278.31138 C 399.34788,278.4106 396.98301,279.20913 396.983,280.65513 C 396.983,282.11545 397.81778,282.56618 400.82675,282.74888 C 405.16603,283.01233 406.4608,284.40599 406.483,288.87388 C 406.49142,290.56972 406.78481,292.26944 407.1705,292.65513 C 407.55618,293.04081 408.56867,293.23013 409.4205,293.06138 C 411.72257,292.60533 411.34973,282.90189 408.9205,280.21763 C 407.65452,278.81874 404.68062,278.21216 402.01425,278.31138 z M 462.76425,278.65513 C 462.1195,278.75399 461.44682,279.6798 461.108,281.37388 C 460.75996,283.11411 460.48301,287.34806 460.483,290.78013 C 460.483,295.57892 460.95164,297.62889 462.5455,299.65513 C 466.15714,304.24659 468.93521,302.13426 465.5455,297.37388 C 462.364,292.90587 462.79272,291.31889 466.983,291.99888 C 471.2576,292.69255 471.64383,291.03254 467.733,288.78013 L 464.983,287.18638 L 467.733,287.74888 C 471.56048,288.54355 471.39548,285.87313 467.51425,284.15513 C 465.88619,283.43447 464.42369,281.97498 464.26425,280.90513 C 464.02501,279.2997 463.409,278.55627 462.76425,278.65513 z M 519.983,279.28013 C 519.158,279.28013 518.42143,279.84264 518.358,280.53013 C 518.29456,281.21763 518.17215,282.23014 518.07675,282.78013 C 517.98135,283.33013 517.53467,291.31764 517.07675,300.53013 C 516.30995,315.95731 516.08828,317.28014 514.358,317.28013 C 513.32475,317.28013 511.52249,316.35087 510.358,315.18638 C 508.36832,313.1967 508.26287,312.24765 508.608,299.43638 C 508.95958,286.38571 508.91262,285.78014 507.01425,285.78013 C 505.47724,285.78013 504.8689,286.67981 504.358,289.78013 C 503.3783,295.72534 504.21286,317.2497 505.483,318.78013 C 506.08661,319.50743 508.85063,320.64988 511.608,321.31138 C 515.3295,322.20415 516.46337,322.90996 516.0455,323.99888 C 515.7359,324.80571 515.48301,326.01912 515.483,326.71763 C 515.483,327.58938 512.91056,328.19089 507.2955,328.62388 C 499.43799,329.22981 496.10252,330.77548 498.7955,332.53013 C 499.45396,332.95916 507.99362,333.19199 517.7955,333.06138 C 531.25514,332.88202 535.89159,332.48146 536.733,331.46763 C 538.54535,329.28388 535.75838,328.32828 527.608,328.31138 L 520.20175,328.28013 L 520.858,323.65513 C 521.20775,321.10336 521.48301,318.40336 521.483,317.65513 C 521.483,316.90689 522.39658,316.28014 523.51425,316.28013 C 527.05331,316.28013 532.25228,313.54979 534.108,310.71763 C 535.58671,308.46084 535.86244,306.15779 535.6705,297.53013 C 535.43177,286.79847 534.248,282.14012 532.233,284.15513 C 531.55472,284.83341 531.23555,289.46882 531.38925,296.62388 C 531.63253,307.9483 531.60965,308.03984 528.9205,310.15513 C 527.43187,311.32609 525.10048,312.28014 523.733,312.28013 L 521.233,312.28013 L 521.51425,299.03013 C 521.89905,280.97826 521.77547,279.28014 519.983,279.28013 z M 480.76425,284.71763 C 480.65996,284.7155 480.55271,284.73705 480.483,284.78013 C 478.90926,285.75275 479.25896,286.8061 482.108,289.65513 C 484.81114,292.35827 487.48301,293.13485 487.483,291.21763 C 487.483,289.60937 482.32857,284.7496 480.76425,284.71763 z M 449.733,288.28013 C 448.23983,288.28013 447.43933,289.39569 446.483,292.81138 C 445.78607,295.30055 444.81027,297.57503 444.32675,297.87388 C 443.84323,298.17271 443.69781,298.86187 444.01425,299.37388 C 445.79379,302.25324 449.24274,298.13662 451.01425,291.03013 C 451.58868,288.72579 451.39084,288.28014 449.733,288.28013 z M 455.07675,288.68638 C 453.0643,288.97464 453.80472,301.85904 456.45175,308.78013 C 457.93737,312.66453 462.37143,317.28014 464.608,317.28013 C 465.65035,317.28013 466.3293,317.98824 466.26425,319.03013 C 466.20415,319.99263 466.48774,321.86569 466.9205,323.18638 C 467.59993,325.25992 467.46879,325.50026 465.858,324.87388 C 462.71696,323.65248 462.10954,323.72734 461.733,325.43638 C 461.4713,326.62416 462.70609,327.57095 466.1705,328.84263 C 468.8124,329.81239 471.6464,331.19943 472.45175,331.93638 C 473.93895,333.29727 476.48301,333.77303 476.483,332.68638 C 476.483,332.35874 475.73658,330.85163 474.82675,329.31138 C 473.25156,326.6448 473.27545,326.35668 475.32675,323.74888 C 476.51159,322.24259 477.48301,320.40597 477.483,319.65513 C 477.483,317.51546 474.89027,318.046 473.233,320.53013 L 471.733,322.78013 L 469.733,320.34263 L 467.733,317.87388 L 471.45175,316.18638 C 476.97945,313.71155 478.77241,308.53975 477.88925,297.65513 C 477.4152,291.81278 476.82464,289.28014 475.9205,289.28013 C 475.20767,289.28013 474.46952,290.51764 474.2955,292.03013 C 474.0134,294.48186 473.63051,294.7577 470.733,294.46763 C 466.36716,294.03056 466.54858,295.99495 471.0455,297.87388 C 474.20667,299.1947 474.57116,299.74147 474.2955,302.59263 L 473.983,305.78013 L 467.63925,305.53013 C 458.48494,305.14999 457.85975,304.60588 457.0455,296.34263 C 456.66543,292.48556 455.98743,289.10382 455.51425,288.81138 C 455.35516,288.71306 455.21091,288.66716 455.07675,288.68638 z M 579.38925,290.28013 L 585.358,290.28013 L 585.26425,293.28013 C 585.17942,296.26361 585.14233,296.28014 579.2955,296.28013 C 573.23206,296.28013 571.57826,295.11511 572.858,291.78013 C 573.28062,290.67879 575.00997,290.28014 579.38925,290.28013 z M 584.483,299.62388 L 584.483,306.24888 L 584.483,312.84263 L 578.108,313.09263 C 571.80371,313.32094 571.75699,313.30155 572.233,310.81138 C 572.64052,308.67959 573.27665,308.2931 576.358,308.28013 C 580.36153,308.26325 583.3747,306.84838 582.108,305.59263 C 581.66173,305.15023 580.55207,304.74245 579.63925,304.68638 C 578.72645,304.63031 576.72126,304.51781 575.1705,304.43638 C 572.88409,304.31632 572.41138,303.87446 572.6705,302.12388 C 572.9517,300.22421 573.67311,299.96517 578.733,299.81138 L 584.483,299.62388 z M 353.7955,301.21763 C 355.05674,301.11235 356.85924,302.19387 357.5455,303.99888 C 358.10878,305.48044 358.4599,308.04895 358.2955,309.71763 L 357.983,312.74888 L 356.733,309.96763 C 356.0455,308.4415 355.48301,306.25684 355.483,305.12388 C 355.483,303.70367 355.01717,303.25829 353.983,303.65513 C 353.06929,304.00575 352.48301,303.64348 352.483,302.74888 C 352.483,301.7653 353.03875,301.2808 353.7955,301.21763 z M 449.76425,302.68638 C 448.95107,302.75337 447.91382,303.42259 446.82675,304.68638 C 443.87418,308.11895 443.63577,311.69522 446.4205,310.81138 C 447.98475,310.3149 448.73051,311.06971 450.358,314.74888 C 451.50183,317.33471 453.0353,319.28014 453.9205,319.28013 C 455.94118,319.28013 455.89098,318.38922 453.483,312.28013 C 452.383,309.48941 451.48301,306.35857 451.483,305.31138 C 451.483,303.49876 450.80976,302.60024 449.76425,302.68638 z M 417.70175,302.71763 C 418.17793,302.72811 418.48301,303.86437 418.483,305.71763 C 418.483,307.67509 418.32257,309.28014 418.13925,309.28013 C 416.37631,309.28013 415.82516,303.80475 417.483,302.78013 C 417.55739,302.73416 417.63372,302.71613 417.70175,302.71763 z M 481.733,302.81138 C 480.83184,302.95806 480.64648,303.73136 481.358,305.09263 C 481.84363,306.02175 482.03694,308.26622 481.76425,310.06138 C 481.49156,311.85655 481.80274,314.66906 482.483,316.31138 C 483.69093,319.22758 485.79277,320.19863 486.9205,318.37388 C 487.23033,317.87258 486.7485,316.16745 485.82675,314.56138 C 483.7336,310.91427 484.61358,308.28014 487.95175,308.28013 C 491.66798,308.28013 491.04451,306.62318 486.45175,304.28013 C 484.25675,303.16033 482.63416,302.6647 481.733,302.81138 z M 411.7955,305.37388 C 412.40139,305.32432 412.48301,305.70201 412.483,306.71763 C 412.483,308.82515 410.88992,309.48743 409.57675,307.90513 C 408.69991,306.84861 408.80796,306.38002 410.0455,305.90513 C 410.89068,305.58081 411.43197,305.40362 411.7955,305.37388 z M 462.2955,308.78013 C 463.12012,308.74568 464.26962,308.80546 465.733,308.96763 C 472.00776,309.66297 473.1661,310.47203 470.983,312.65513 C 468.78519,314.85294 466.28172,314.71407 463.108,312.21763 C 460.17938,309.91398 459.82165,308.88348 462.2955,308.78013 z M 411.82675,311.65513 C 412.0655,311.65456 412.33976,311.67132 412.63925,311.68638 C 414.20378,311.76506 416.09297,312.71558 416.858,313.81138 C 418.1636,315.68146 418.03587,315.79923 414.45175,315.84263 C 411.32807,315.88046 410.57416,315.50231 410.233,313.71763 C 409.92563,312.10976 410.15551,311.65913 411.82675,311.65513 z M 413.983,319.28013 C 415.908,319.28013 417.48301,319.49322 417.483,319.74888 C 417.483,320.70614 413.91808,321.91383 412.233,321.53013 C 409.15438,320.82912 410.3596,319.28014 413.983,319.28013 z"
       id="path3310" />
    <path
       style="fill:#000000;display:inline"
       d="M 571.74733,384.26785 C 570.98087,384.2778 570.33734,384.91721 570.34108,386.33035 C 570.34447,387.60817 570.96704,389.83234 571.71608,391.26785 C 573.3466,394.39263 572.28662,396.82847 568.74733,398.1741 C 567.41673,398.67999 566.34109,399.80422 566.34108,400.64285 C 566.34108,402.87043 570.54677,402.54023 573.15358,400.1116 C 574.36441,398.98355 575.79819,398.3386 576.34108,398.6741 C 577.87589,399.62267 577.51524,402.14286 575.84108,402.14285 C 575.01608,402.14285 574.34109,402.52491 574.34108,402.9866 C 574.34108,403.44832 573.21609,404.36011 571.84108,404.9866 C 570.46608,405.61309 569.34109,406.58106 569.34108,407.14285 C 569.34108,409.1765 573.34395,408.07619 576.68483,405.14285 C 579.94586,402.27963 582.42943,401.28318 582.27858,402.89285 C 582.06743,405.14601 580.47496,407.34608 577.40358,409.6116 L 573.96608,412.14285 L 576.93483,412.14285 C 580.76899,412.14285 583.87543,409.91012 585.84108,405.76785 C 587.95417,401.31484 586.53643,397.80716 581.62233,395.2991 C 576.91111,392.89461 574.62669,390.39857 574.18483,387.1741 C 573.92836,385.30251 572.73278,384.25506 571.74733,384.26785 z M 553.65358,386.20535 C 552.84186,386.33681 552.34109,387.71392 552.34108,390.33035 C 552.34108,393.19733 551.67643,395.21541 550.24733,396.7366 C 548.80562,398.27123 547.99438,400.78987 547.62233,404.89285 C 547.11718,410.4637 547.26888,411.01154 549.96608,413.5491 C 552.71047,416.13106 552.76691,416.31824 550.99733,417.64285 C 549.97784,418.40601 548.02676,421.18264 546.68483,423.83035 C 543.43969,430.23327 544.17924,435.31492 549.02858,439.89285 C 552.70414,443.3627 555.34109,444.09176 555.34108,441.64285 C 555.34108,440.81785 554.9293,440.14286 554.43483,440.14285 C 553.07422,440.14285 549.34109,432.42052 549.34108,429.6116 C 549.34108,426.52654 551.08914,426.39957 552.34108,429.39285 C 553.82786,432.9476 556.11587,435.42395 557.27858,434.70535 C 558.77099,433.78299 558.61897,431.40991 556.99733,430.45535 C 555.3514,429.48651 552.96707,422.56897 553.80983,421.20535 C 554.80596,419.59357 557.08068,421.11825 558.37233,424.2366 C 559.10468,426.00464 560.3317,427.14286 561.46608,427.14285 C 563.86652,427.14285 563.87029,425.33838 561.46608,422.70535 C 558.21027,419.13972 558.02911,416.66629 560.80983,413.3616 C 564.0861,409.46797 564.23153,403.7317 561.15358,400.45535 C 558.98436,398.14633 556.34109,397.35474 556.34108,399.01785 C 556.34108,399.5005 557.01609,400.45817 557.84108,401.14285 C 558.76207,401.90721 559.34109,404.1055 559.34108,406.83035 L 559.34108,411.26785 L 555.59108,410.95535 C 551.9833,410.65675 551.84634,410.50964 551.55983,406.6116 C 551.3345,403.54593 551.76039,402.10758 553.30983,400.70535 C 554.43613,399.68606 555.34109,398.3893 555.34108,397.83035 C 555.34108,397.2714 556.09335,395.95752 557.02858,394.9241 C 558.6311,393.15334 558.62324,392.86289 556.87233,389.6116 C 555.57632,387.20504 554.4653,386.07389 553.65358,386.20535 z M 421.68483,386.2991 C 421.22823,386.31071 420.70419,386.3294 420.15358,386.3616 C 413.71578,386.73807 412.1192,389.14286 418.30983,389.14285 C 422.57673,389.14285 426.34109,390.53474 426.34108,392.1116 C 426.34108,392.60251 423.75359,392.76038 420.59108,392.45535 C 414.26467,391.84514 414.11494,393.30634 420.34108,394.89285 C 425.13437,396.11424 424.25115,397.65681 418.80983,397.58035 C 416.35093,397.54579 414.34109,397.8714 414.34108,398.2991 C 414.34108,399.65175 418.07772,401.14286 421.46608,401.14285 C 423.71376,401.14285 424.42737,401.46278 423.71608,402.1741 C 423.14767,402.74251 418.65142,403.4011 413.74733,403.6116 C 408.84325,403.82211 403.75415,404.14676 402.43483,404.33035 C 401.11549,404.51392 399.88368,404.17865 399.68483,403.6116 C 399.48598,403.04453 400.40186,402.50163 401.71608,402.39285 C 405.33657,402.09321 409.34109,400.32962 409.34108,399.0491 C 409.34108,398.24793 407.66017,398.11879 403.71608,398.6116 C 396.65679,399.4936 396.62026,397.45496 403.65358,395.1741 C 406.21986,394.34187 408.33829,393.08036 408.34108,392.39285 C 408.34852,390.56787 406.74011,390.85274 401.24733,393.6116 C 396.26987,396.11164 394.8855,395.42515 397.99733,391.9866 C 398.90757,390.98079 400.90253,390.14286 402.43483,390.14285 C 405.28396,390.14285 406.89593,388.82294 405.93483,387.26785 C 405.30617,386.25065 396.39446,388.98544 394.62233,390.7366 C 392.82983,392.50788 392.36427,396.61008 393.68483,398.89285 C 398.63062,407.44224 398.44846,406.73948 396.30983,409.20535 C 391.67676,414.54733 394.77861,418.97239 403.55983,419.58035 C 405.17971,419.6925 406.90969,420.41475 407.40358,421.20535 C 408.61069,423.13764 402.64066,424.27554 399.84108,422.64285 C 396.71977,420.82256 392.53066,420.02707 391.84108,421.14285 C 391.49752,421.69876 391.91871,422.40298 392.77858,422.6741 C 397.88896,424.28542 397.89888,424.32846 393.34108,426.4241 C 389.61238,428.13853 389.20698,428.57375 391.02858,428.89285 C 392.2377,429.10464 394.15021,428.77796 395.27858,428.1741 C 397.85589,426.79476 397.87567,427.72992 395.34108,433.64285 C 393.32243,438.35217 392.78726,442.27654 393.99733,443.4866 C 395.25381,444.74308 397.34109,441.89323 397.34108,438.9241 C 397.34108,434.87494 401.40011,426.26429 403.65358,425.5491 C 406.47845,424.65252 406.7833,425.79073 404.46608,428.7366 C 401.78962,432.13917 401.80068,433.42657 404.59108,436.64285 L 406.84108,439.2366 L 409.09108,436.95535 C 410.33612,435.69715 412.81111,432.39286 414.59108,429.64285 C 417.88298,424.55694 421.13878,423.02654 424.24733,425.0491 C 426.69825,426.64379 424.68089,429.14286 420.96608,429.14285 C 417.576,429.14285 416.34109,430.40937 416.34108,433.83035 C 416.34108,436.38949 419.65215,442.51753 422.30983,444.8616 C 423.69529,446.08356 425.17859,447.09425 425.59108,447.1116 C 427.14791,447.1772 426.2552,443.5922 424.43483,442.45535 C 421.39522,440.55708 419.18325,435.29393 420.43483,432.95535 C 421.01453,431.87218 422.09014,431.21047 422.80983,431.4866 C 424.92127,432.29684 428.34109,429.26966 428.34108,426.58035 C 428.34108,424.64078 427.71696,423.98676 425.37233,423.51785 C 423.67449,423.17828 422.66484,422.45017 423.02858,421.8616 C 423.45497,421.17169 422.51881,421.09454 420.24733,421.6116 C 413.59768,423.12526 411.33816,423.03714 410.34108,421.1741 C 409.45972,419.52727 410.02093,419.37368 417.05983,419.26785 C 426.51198,419.12577 429.34109,417.60354 429.34108,412.70535 C 429.34108,409.41517 427.7564,406.82443 425.12233,405.8616 C 424.23759,405.5382 424.52099,404.74725 426.09108,403.2366 C 427.32858,402.04595 428.34109,400.22021 428.34108,399.1741 C 428.34108,398.12799 428.79109,396.98278 429.34108,396.64285 C 431.18751,395.50169 430.37042,391.07845 427.84108,388.5491 C 425.97054,386.67856 424.88102,386.21784 421.68483,386.2991 z M 616.43483,386.4866 C 607.96615,386.42949 603.34106,387.56911 603.34108,389.7366 C 603.34108,390.87981 605.49031,391.14286 614.27858,391.14285 C 626.3678,391.14285 629.81216,391.9822 630.62233,395.08035 C 631.27158,397.56308 631.39936,397.54263 627.52858,395.6116 C 625.08795,394.39405 621.64422,394.12549 611.40358,394.3616 C 604.22976,394.52702 598.34203,394.96285 598.34108,395.33035 C 598.34012,395.69787 598.61869,396.73759 598.96608,397.64285 C 599.52174,399.09087 600.93454,399.19328 610.71608,398.6116 C 618.90918,398.12436 622.63037,398.30564 624.84108,399.26785 C 627.6023,400.46965 626.92576,400.63236 616.34108,401.1741 C 605.00028,401.7545 599.82809,403.14217 600.62233,405.45535 C 600.8456,406.10562 602.56219,406.59775 604.43483,406.51785 C 606.30748,406.43794 612.55451,406.2117 618.30983,406.01785 L 628.77858,405.64285 L 629.09108,412.64285 C 629.54692,423.11897 632.06236,437.68814 634.59108,444.45535 C 635.24535,446.20628 636.23953,447.12508 637.24733,446.9241 C 639.15543,446.54364 638.98901,444.40196 636.34108,435.14285 C 633.34871,424.67936 632.3746,409.72584 633.84108,396.64285 C 634.28123,392.71606 633.9962,391.14774 632.55983,389.33035 C 630.9053,387.2369 629.74757,386.97462 620.30983,386.58035 C 618.94571,386.52336 617.64464,386.49476 616.43483,386.4866 z M 300.05983,387.14285 C 297.47055,387.22734 295.79494,388.04398 294.74733,389.64285 C 292.21957,393.5007 293.5594,396.75864 298.09108,397.83035 C 303.87915,399.19919 303.01011,401.58581 296.59108,401.95535 C 293.70358,402.12159 291.34108,402.62322 291.34108,403.08035 C 291.34108,404.19104 295.1341,405.43713 298.84108,405.5491 C 301.48581,405.629 301.84108,406.00502 301.84108,408.64285 C 301.84108,411.31778 301.17901,411.9822 295.52858,414.7991 C 288.55735,418.27447 289.11586,419.59332 296.62233,417.39285 C 299.27481,416.6153 302.0445,416.20491 302.77858,416.4866 C 304.98292,417.33249 305.24836,423.93458 303.15358,425.83035 C 302.16247,426.72729 301.34108,428.05931 301.34108,428.7991 C 301.34108,429.53885 300.89108,430.14286 300.34108,430.14285 C 299.79108,430.14285 299.34447,430.70536 299.34108,431.39285 C 299.33769,432.08035 298.67338,433.91964 297.87233,435.45535 C 295.983,439.07747 294.8484,445.14286 296.05983,445.14285 C 297.68353,445.14285 301.05762,440.78292 302.24733,437.14285 C 302.87649,435.21785 304.24875,432.51786 305.30983,431.14285 C 307.21765,428.67061 307.26981,428.66507 308.74733,430.64285 C 310.19233,432.57712 310.72854,433.62798 314.15358,441.14285 C 315.03093,443.06785 316.38484,445.43036 317.18483,446.39285 C 319.42832,449.0921 319.68482,448.60195 318.96608,442.4866 C 318.36215,437.34814 312.95126,425.14286 311.27858,425.14285 C 310.94569,425.14285 310.58547,423.29831 310.49733,421.0491 C 310.4092,418.79986 310.08806,416.54983 309.77858,416.0491 C 308.95044,414.70915 310.80896,414.94823 315.27858,416.7366 C 322.72288,419.71522 322.91272,417.76322 315.52858,414.1741 C 309.30594,411.14956 308.34108,410.32193 308.34108,408.01785 C 308.34108,405.05168 309.87317,404.14286 314.87233,404.14285 C 316.71989,404.14285 318.48709,403.72757 318.80983,403.20535 C 319.54493,402.01593 313.17927,400.75891 310.59108,401.58035 C 309.20697,402.01965 308.38695,401.53976 307.62233,399.8616 C 306.69884,397.83474 306.91784,397.26662 309.43483,395.58035 C 313.93282,392.56694 313.32693,389.63348 307.90358,388.26785 C 304.65274,387.44928 302.07372,387.07714 300.05983,387.14285 z M 451.09108,388.14285 C 449.53438,388.14473 449.34109,389.31873 449.34108,398.76785 C 449.34108,408.09665 449.15841,409.23614 447.84108,408.14285 C 446.79736,407.27664 446.34109,404.97688 446.34108,400.58035 C 446.34108,394.42662 445.15389,391.5598 443.93483,394.7366 C 443.15088,396.77956 443.20009,406.97866 443.99733,409.95535 C 444.38791,411.41369 445.13044,412.08122 446.02858,411.7366 C 446.80986,411.4368 447.204,411.56304 446.90358,412.0491 C 446.60317,412.53517 447.01925,413.20249 447.84108,413.51785 C 448.66292,413.83322 449.34109,415.0473 449.34108,416.20535 C 449.34108,418.11061 448.84363,418.26681 444.15358,418.01785 C 438.9025,417.73915 437.64648,418.51818 439.24733,421.0491 C 439.95549,422.16871 440.97124,422.24027 444.30983,421.39285 C 449.67603,420.03076 449.80064,420.40211 448.96608,434.14285 C 448.60558,440.0784 448.61725,445.67127 448.96608,446.58035 C 450.1245,449.59913 451.83428,447.56979 452.34108,442.58035 C 452.61608,439.873 452.61609,433.93095 452.34108,429.39285 C 452.06608,424.85472 452.06609,421.11683 452.34108,421.08035 C 459.40912,420.14244 459.73796,420.15222 458.55983,421.33035 C 456.97094,422.91924 456.99091,426.15185 458.59108,426.1116 C 460.06774,426.07447 461.44747,424.25278 467.68483,413.9241 C 470.25325,409.67096 472.34109,405.50847 472.34108,404.6741 C 472.34108,403.83974 472.79109,403.14286 473.34108,403.14285 C 476.94279,403.14285 469.82989,417.82401 460.43483,429.76785 C 459.34451,431.15397 458.70689,432.96084 459.02858,433.7991 C 459.51051,435.05499 460.00544,434.91306 461.77858,432.9866 C 465.50062,428.94267 474.34109,415.25928 474.34108,413.5491 C 474.34108,413.25837 473.77859,413.32587 473.09108,413.6741 C 472.40358,414.02235 472.7353,413.57617 473.80983,412.70535 C 474.88436,411.83451 476.23312,409.91148 476.84108,408.4241 C 477.44904,406.93675 478.24138,406.20203 478.59108,406.76785 C 479.55015,408.31966 473.27648,421.9826 467.87233,430.1116 C 462.88682,437.61088 462.17168,439.38577 463.84108,440.08035 C 465.08895,440.59955 473.20856,428.71651 477.87233,419.5491 L 481.37233,412.64285 L 480.77858,418.5491 C 480.23457,423.81859 475.35163,435.24315 472.21608,438.6116 C 471.09485,439.81612 471.07456,444.14286 472.18483,444.14285 C 474.95712,444.14285 485.82669,423.28887 484.77858,419.9866 C 484.45759,418.97523 484.61739,418.14286 485.12233,418.14285 C 486.25011,418.14285 484.84885,408.47227 483.30983,405.64285 C 482.71149,404.54285 480.22018,402.15081 477.77858,400.2991 C 473.11211,396.75998 472.47242,394.89706 474.84108,391.76785 C 476.28077,389.86586 476.03379,388.14286 474.30983,388.14285 C 472.50625,388.14285 469.21193,396.21588 469.84108,399.08035 C 470.2869,401.11015 469.48287,403.65708 466.84108,408.7366 C 464.86497,412.5362 462.72081,416.20317 462.05983,416.8616 C 460.6646,418.25145 452.34109,417.44737 452.34108,415.9241 C 452.34108,415.39218 453.69957,413.67423 455.37233,412.1116 C 458.34772,409.33218 458.40743,409.08504 458.12233,400.95535 C 457.89165,394.37713 457.52464,392.64286 456.34108,392.64285 C 455.12457,392.64285 454.91945,393.96085 455.18483,399.70535 C 455.4443,405.32202 455.15278,407.05421 453.84108,408.14285 C 452.32374,409.40213 452.23608,408.6592 452.52858,398.83035 C 452.8151,389.20302 452.66847,388.14093 451.09108,388.14285 z M 514.68483,390.14285 C 513.13788,390.14285 512.80405,391.01223 512.65358,395.39285 C 512.55438,398.28035 512.16891,404.82399 511.77858,409.9241 C 511.10334,418.74736 510.97373,419.18004 508.96608,418.58035 C 507.80558,418.2337 506.18976,417.32715 505.40358,416.58035 C 503.55768,414.82693 502.31166,404.28365 503.05983,396.89285 C 503.55453,392.00589 503.3999,391.18385 502.12233,391.6741 C 500.13935,392.43504 498.37183,396.45491 498.24733,400.45535 C 498.19251,402.21697 497.82306,404.76786 497.43483,406.14285 C 496.95554,407.84039 497.50337,410.45608 499.15358,414.2991 C 501.50494,419.77498 503.76463,421.77667 509.59108,423.5491 C 511.60338,424.16124 511.91809,426.68924 510.12233,427.7991 C 509.45237,428.21315 506.18965,428.69718 502.87233,428.89285 C 496.52559,429.26724 494.72642,430.13964 495.59108,432.39285 C 495.99498,433.44541 497.59187,433.61114 502.49733,433.1116 C 509.93124,432.35458 510.34109,432.47762 510.34108,435.70535 C 510.34108,438.31256 510.40553,438.29197 499.40358,438.58035 C 494.91585,438.69798 493.63693,439.87423 494.74733,442.76785 C 495.16808,443.86428 495.98141,444.08499 497.59108,443.5491 C 498.83129,443.1362 506.90525,442.85805 515.52858,442.9241 C 527.58223,443.01638 531.44898,442.71139 532.30983,441.6741 C 534.34641,439.22017 531.57809,438.52038 518.71608,438.2366 C 514.88711,438.15211 514.64601,437.97117 515.09108,435.64285 C 515.54062,433.29122 515.9447,433.14286 521.87233,433.14285 C 528.95904,433.14285 531.34109,432.53872 531.34108,430.6741 C 531.34108,429.07645 528.45377,428.50422 521.09108,428.6741 C 515.53325,428.8023 515.3597,428.72771 515.40358,426.2366 C 515.4405,424.14061 516.39712,423.17603 520.59108,421.14285 C 527.67505,417.70866 529.89864,413.13315 530.71608,400.39285 C 530.86605,398.05535 530.66475,396.14286 530.24733,396.14285 C 529.8299,396.14285 529.32934,395.13036 529.15358,393.89285 C 528.94822,392.44689 528.03705,391.53569 526.59108,391.33035 C 525.35358,391.1546 524.31017,391.37958 524.27858,391.83035 C 524.24697,392.2811 524.08831,396.24286 523.93483,400.64285 C 523.62672,409.4752 521.76951,414.46514 517.62233,417.5491 L 515.09108,419.45535 L 515.80983,404.7991 C 516.50246,390.94375 516.43903,390.14286 514.68483,390.14285 z M 301.40358,390.6741 C 301.77097,390.69736 302.16398,390.77779 302.59108,390.8616 C 304.42665,391.22181 305.34108,392.01072 305.34108,393.26785 C 305.34108,395.62393 301.17761,395.86212 299.30983,393.6116 C 297.79386,391.78496 298.83186,390.51128 301.40358,390.6741 z M 357.93483,392.0491 C 343.37521,392.05821 338.02048,393.10951 339.02858,395.7366 C 339.38999,396.67844 342.09058,397.15913 348.18483,397.3616 C 355.22599,397.59549 356.7956,397.93517 356.52858,399.14285 C 356.34801,399.95956 356.48931,402.54709 356.84108,404.89285 C 357.44782,408.9389 357.62527,409.14286 360.80983,409.14285 C 365.41734,409.14285 367.34109,410.03752 367.34108,412.1741 C 367.34108,413.41012 366.0148,414.43911 363.15358,415.39285 C 357.07616,417.41865 355.42215,420.20641 354.68483,429.76785 C 354.34106,434.22581 354.38839,439.56287 354.77858,441.64285 C 355.42504,445.08874 355.62088,445.30053 357.05983,443.8616 C 358.06971,442.85172 358.68415,440.35298 358.74733,436.95535 L 358.84108,431.64285 L 363.84108,431.33035 C 372.64098,430.78477 372.34674,427.20519 363.49733,427.1741 C 359.24654,427.15917 359.13805,427.10073 359.80983,424.4241 C 360.72351,420.78373 362.1583,419.14286 364.49733,419.14285 C 365.55498,419.14285 367.55357,418.05534 368.90358,416.70535 C 373.32279,412.28615 371.48815,406.53785 365.27858,405.26785 C 362.14491,404.62695 361.84109,404.25244 361.84108,401.1116 L 361.84108,397.64285 L 371.09108,397.3616 C 378.29239,397.13776 380.34109,396.75141 380.34108,395.64285 C 380.34108,393.22741 372.93252,392.03969 357.93483,392.0491 z M 555.87233,402.6116 C 555.54702,402.59488 555.18345,402.66299 554.74733,402.83035 C 553.04374,403.48408 552.92568,405.35247 554.49733,406.9241 C 555.96032,408.38709 557.34109,407.5821 557.34108,405.26785 C 557.34108,403.54101 556.84827,402.66175 555.87233,402.6116 z M 411.55983,405.4866 C 412.44123,405.47626 413.24219,405.54276 413.74733,405.7366 C 415.03481,406.23065 415.13778,406.69487 414.24733,407.76785 C 412.58042,409.77635 405.34109,409.29286 405.34108,407.1741 C 405.34108,406.33409 408.91564,405.51762 411.55983,405.4866 z M 619.02858,407.26785 C 618.55388,407.13293 617.39691,407.76542 614.65358,409.33035 C 609.33899,412.36204 607.4503,414.07164 604.68483,418.4241 C 601.84041,422.90077 601.03006,429.64286 603.34108,429.64285 C 604.18517,429.64285 604.99651,428.54967 605.18483,427.14285 C 605.72379,423.11684 606.93496,422.80161 609.24733,426.0491 C 611.55413,429.2887 611.47397,430.06176 607.46608,442.95535 C 606.56716,445.84722 606.67125,446.24062 608.15358,445.95535 C 609.17221,445.75932 610.66306,443.43352 611.87233,440.14285 C 614.7214,432.39023 617.01195,428.40945 620.93483,424.4866 C 625.26814,420.15329 625.61507,415.23424 621.84108,411.7366 C 620.46608,410.46229 619.34106,408.92356 619.34108,408.2991 C 619.34108,407.72368 619.3134,407.3488 619.02858,407.26785 z M 420.12233,408.3616 C 423.04138,408.20568 426.34109,409.81738 426.34108,411.64285 C 426.34108,413.34479 425.49419,413.37448 420.09108,411.8616 C 415.71346,410.63587 415.28536,409.45721 418.90358,408.5491 C 419.29479,408.45091 419.70532,408.38387 420.12233,408.3616 z M 401.46608,409.20535 C 402.43183,409.2649 403.42493,409.57152 404.27858,410.1116 C 405.47238,410.86687 405.29763,411.36871 403.27858,413.0491 C 398.98475,416.62271 396.14658,415.39674 397.93483,410.7366 C 398.35103,409.652 399.85649,409.10611 401.46608,409.20535 z M 616.27858,413.14285 C 617.39323,413.14285 619.02203,414.26619 619.90358,415.6116 C 620.89551,417.12548 621.19834,418.58653 620.68483,419.4866 C 620.01222,420.66548 619.46224,420.46212 617.84108,418.3616 C 614.26157,413.72369 614.09916,413.14286 616.27858,413.14285 z M 410.80983,413.2991 C 414.92293,413.30402 421.59416,414.92887 420.74733,416.2991 C 420.45788,416.76743 419.45863,417.08155 418.52858,416.9866 C 417.59854,416.89167 413.91609,416.503 410.34108,416.14285 C 404.55915,415.56039 403.36311,415.16116 406.24733,414.76785 C 406.75149,414.6991 407.52233,414.30536 407.93483,413.89285 C 408.36409,413.46359 409.4388,413.29746 410.80983,413.2991 z M 574.27858,414.14285 C 573.87175,414.14285 573.90693,415.71786 574.34108,417.64285 C 575.07303,420.88823 574.9678,421.14286 572.74733,421.14285 C 571.43025,421.14285 570.32814,420.58036 570.30983,419.89285 C 570.26661,418.26885 566.46135,413.71009 565.74733,414.4241 C 565.44599,414.72544 565.65249,416.6329 566.21608,418.6741 C 566.93754,421.28701 566.89396,423.90432 566.09108,427.51785 C 564.15584,436.22786 564.85901,445.17683 567.34108,443.64285 C 567.89496,443.30053 568.34109,441.29668 568.34108,439.1741 C 568.34108,434.14082 569.16385,432.14286 571.24733,432.14285 C 573.83699,432.14285 575.34109,434.21274 575.34108,437.76785 C 575.34108,439.53828 576.12859,442.38925 577.09108,444.08035 C 579.12989,447.66251 580.89195,448.16119 579.90358,444.89285 C 579.52935,443.65535 578.96502,440.73036 578.65358,438.39285 L 578.09108,434.14285 L 581.71608,434.14285 C 584.15221,434.14285 585.34109,433.70271 585.34108,432.76785 C 585.34108,431.22573 583.23423,430.14286 580.18483,430.14285 C 576.62516,430.14285 578.40747,426.69094 582.15358,426.33035 C 586.75083,425.88784 585.66683,423.49078 580.09108,421.76785 C 579.12858,421.47042 578.34109,420.45428 578.34108,419.51785 C 578.34108,417.76934 575.59963,414.14286 574.27858,414.14285 z M 610.74733,416.64285 C 611.19316,416.67804 611.72698,417.07958 612.59108,417.8616 C 615.32296,420.33392 616.45359,422.7399 615.74733,424.58035 C 614.90664,426.77115 614.2664,426.51346 610.99733,422.58035 C 608.63097,419.73333 608.33492,418.86157 609.37233,417.6116 C 609.92831,416.94169 610.3015,416.60766 610.74733,416.64285 z M 412.74733,424.14285 L 415.21608,424.14285 L 411.68483,429.39285 C 407.75852,435.24847 406.85849,435.94948 405.99733,433.70535 C 405.34133,431.99585 406.13639,429.14286 407.27858,429.14285 C 407.68146,429.14285 408.52709,428.01786 409.15358,426.64285 C 409.91812,424.96487 411.10035,424.14286 412.74733,424.14285 z M 572.27858,424.39285 C 573.7944,424.3167 575.34109,425.8368 575.34108,427.76785 C 575.34108,429.65373 574.81128,430.14286 572.84108,430.14285 C 570.8572,430.14285 570.34109,429.64241 570.34108,427.70535 C 570.34108,426.36281 570.74697,425.0146 571.24733,424.70535 C 571.57403,424.50344 571.92878,424.41042 572.27858,424.39285 z"
       id="path3312" />
    <path
       style="fill:#000000;display:inline"
       d="M 494.73382,494.19314 C 493.96736,494.20309 493.32383,494.8425 493.32757,496.25564 C 493.33096,497.53346 493.95353,499.75763 494.70257,501.19314 C 496.33309,504.31792 495.27311,506.75376 491.73382,508.09939 C 490.40322,508.60528 489.32758,509.72951 489.32757,510.56814 C 489.32757,512.79572 493.53326,512.46552 496.14007,510.03689 C 497.3509,508.90884 498.78468,508.26389 499.32757,508.59939 C 500.86238,509.54796 500.50173,512.06815 498.82757,512.06814 C 498.00257,512.06814 497.32758,512.4502 497.32757,512.91189 C 497.32757,513.37361 496.20258,514.2854 494.82757,514.91189 C 493.45257,515.53838 492.32758,516.50635 492.32757,517.06814 C 492.32757,519.10179 496.33044,518.00148 499.67132,515.06814 C 502.93235,512.20492 505.41592,511.20847 505.26507,512.81814 C 505.05392,515.0713 503.46145,517.27137 500.39007,519.53689 L 496.95257,522.06814 L 499.92132,522.06814 C 503.75548,522.06814 506.86192,519.83541 508.82757,515.69314 C 510.94066,511.24013 509.52292,507.73245 504.60882,505.22439 C 499.8976,502.8199 497.61318,500.32386 497.17132,497.09939 C 496.91485,495.2278 495.71927,494.18035 494.73382,494.19314 z M 542.39007,494.59939 C 542.16612,494.61208 541.89696,494.6695 541.57757,494.78689 C 540.61507,495.14066 539.52436,495.93837 539.14007,496.56814 C 538.75577,497.19788 535.75212,497.79054 532.48382,497.88064 C 524.88936,498.08994 521.32758,499.43818 521.32757,502.06814 C 521.32757,503.18175 521.77758,504.06815 522.32757,504.06814 C 524.36145,504.06814 523.28844,507.8513 521.07757,508.47439 L 518.82757,509.09939 L 521.07757,511.00564 C 522.31507,512.04668 523.32758,513.82508 523.32757,514.97439 C 523.32757,516.12373 524.26195,518.00253 525.39007,519.13064 C 526.72215,520.46272 527.20103,521.85559 526.79632,523.13064 C 525.99997,525.6397 524.79087,524.87179 522.73382,520.53689 C 521.02638,516.93873 519.32758,516.77369 519.32757,520.19314 C 519.32757,523.14381 522.1666,528.06815 523.85882,528.06814 C 525.81477,528.06814 525.72666,529.30625 523.45257,533.28689 C 520.20957,538.96348 518.62332,551.7214 520.79632,554.69314 C 522.11005,556.48977 522.17624,556.45264 522.67132,554.06814 C 522.95666,552.69381 523.42685,548.94481 523.70257,545.72439 C 523.97829,542.50399 524.4563,539.62689 524.76507,539.31814 C 526.23152,537.85169 526.79962,540.99838 526.51507,549.16189 C 526.3238,554.64941 526.58776,558.06815 527.20257,558.06814 C 528.55498,558.06814 529.51048,554.74559 529.29632,550.81814 C 529.19954,549.04322 529.17811,544.45317 529.23382,540.63064 C 529.38264,530.42239 531.30381,533.63827 531.79632,544.91189 C 532.20565,554.28171 532.66239,556.06815 534.51507,556.06814 C 535.92492,556.06814 535.15404,536.79054 533.67132,534.94314 C 530.96344,531.56924 531.12916,529.07725 534.26507,525.50564 C 535.95742,523.57816 537.32758,521.28071 537.32757,520.38064 C 537.32757,518.66257 540.09607,515.06815 541.42132,515.06814 C 541.84679,515.06814 542.90078,515.79757 543.76507,516.66189 C 545.19364,518.09046 545.32758,518.00837 545.32757,515.72439 C 545.32757,514.34256 544.87758,512.90807 544.32757,512.56814 C 542.3365,511.33759 543.39044,509.94645 546.07757,510.25564 C 548.01545,510.47862 548.92161,511.22131 549.14007,512.75564 C 549.31059,513.9532 550.0981,515.47339 550.89007,516.13064 C 552.53335,517.49445 552.84444,522.06815 551.29632,522.06814 C 550.73271,522.06814 549.85035,520.94315 549.32757,519.56814 C 548.03137,516.15888 546.32758,516.4318 546.32757,520.03689 C 546.32757,521.94806 547.15343,523.60304 548.64007,524.72439 C 550.92694,526.44938 550.90331,526.45798 549.07757,530.00564 C 548.06885,531.96575 547.45865,534.35487 547.70257,535.31814 C 547.94649,536.2814 547.7676,536.87135 547.32757,536.59939 C 546.26604,535.94333 545.51053,539.21874 544.70257,547.91189 C 544.12167,554.16218 544.2375,555.06815 545.67132,555.06814 C 546.97481,555.06814 547.32758,554.05729 547.32757,550.13064 C 547.32757,544.8842 549.46118,535.3028 551.29632,532.34939 C 552.14534,530.98301 552.30605,531.81471 551.92132,536.06814 C 551.43686,541.42411 551.01122,554.30957 551.23382,556.81814 C 551.29483,557.50564 551.92967,558.06815 552.67132,558.06814 C 553.65373,558.06814 554.09959,556.10022 554.29632,550.81814 C 554.44484,546.83064 554.67599,540.9828 554.79632,537.81814 C 554.91666,534.65349 555.26678,531.81641 555.57757,531.50564 C 556.47726,530.60594 558.32758,540.67702 558.32757,546.44314 C 558.32757,549.36873 558.95643,552.53622 559.73382,553.59939 C 561.03018,555.37226 561.20419,555.18328 562.07757,551.03689 C 562.59545,548.57827 562.63288,546.15317 562.17132,545.63064 C 561.70976,545.10814 561.32758,543.10904 561.32757,541.19314 C 561.32757,539.27726 560.39434,535.12388 559.26507,531.94314 L 557.23382,526.13064 L 560.35882,523.34939 C 563.20066,520.8102 563.36519,520.30877 562.35882,517.66189 C 561.14015,514.45656 559.70602,515.09036 559.17132,519.06814 C 558.98302,520.46898 558.06219,521.69299 557.07757,521.88064 C 554.58799,522.35514 554.76495,517.8873 557.32757,515.56814 C 558.42757,514.57265 559.32758,512.98748 559.32757,512.03689 C 559.32757,511.08628 560.34008,510.04188 561.57757,509.69314 L 563.82757,509.03689 L 561.57757,507.16189 C 558.77163,504.8014 558.69628,502.42312 561.39007,501.56814 C 567.38178,499.66644 558.14737,496.73555 548.57757,497.50564 C 543.94151,497.87869 543.32758,497.71133 543.32757,496.03689 C 543.32757,494.9987 543.06191,494.56133 542.39007,494.59939 z M 476.64007,496.13064 C 475.82835,496.2621 475.32758,497.63921 475.32757,500.25564 C 475.32757,503.12262 474.66292,505.1407 473.23382,506.66189 C 471.79211,508.19652 470.98087,510.71516 470.60882,514.81814 C 470.10367,520.38899 470.25537,520.93683 472.95257,523.47439 C 475.69696,526.05635 475.7534,526.24353 473.98382,527.56814 C 472.96433,528.3313 471.01325,531.10793 469.67132,533.75564 C 466.42618,540.15856 467.16573,545.24021 472.01507,549.81814 C 475.69063,553.28799 478.32758,554.01705 478.32757,551.56814 C 478.32757,550.74314 477.91579,550.06815 477.42132,550.06814 C 476.06071,550.06814 472.32758,542.34581 472.32757,539.53689 C 472.32757,536.45183 474.07563,536.32486 475.32757,539.31814 C 476.81435,542.87289 479.10236,545.34924 480.26507,544.63064 C 481.75748,543.70828 481.60546,541.3352 479.98382,540.38064 C 478.33789,539.4118 475.95356,532.49426 476.79632,531.13064 C 477.79245,529.51886 480.06717,531.04354 481.35882,534.16189 C 482.09117,535.92993 483.31819,537.06815 484.45257,537.06814 C 486.85301,537.06814 486.85678,535.26367 484.45257,532.63064 C 481.19676,529.06501 481.0156,526.59158 483.79632,523.28689 C 487.07259,519.39326 487.21802,513.65699 484.14007,510.38064 C 481.97085,508.07162 479.32758,507.28003 479.32757,508.94314 C 479.32757,509.42579 480.00258,510.38346 480.82757,511.06814 C 481.74856,511.8325 482.32758,514.03079 482.32757,516.75564 L 482.32757,521.19314 L 478.57757,520.88064 C 474.96979,520.58204 474.83283,520.43493 474.54632,516.53689 C 474.32099,513.47122 474.74688,512.03287 476.29632,510.63064 C 477.42262,509.61135 478.32758,508.31459 478.32757,507.75564 C 478.32757,507.19669 479.07984,505.88281 480.01507,504.84939 C 481.61759,503.07863 481.60973,502.78818 479.85882,499.53689 C 478.56281,497.13033 477.45179,495.99918 476.64007,496.13064 z M 383.42132,496.41189 C 374.95264,496.35478 370.32758,497.4944 370.32757,499.66189 C 370.32757,500.8051 372.4768,501.06815 381.26507,501.06814 C 393.35429,501.06814 396.79862,501.90749 397.60882,505.00564 C 398.25807,507.48837 398.38585,507.46792 394.51507,505.53689 C 392.07444,504.31934 388.63068,504.05078 378.39007,504.28689 C 371.21626,504.45231 365.32852,504.88814 365.32757,505.25564 C 365.32661,505.62316 365.60518,506.66288 365.95257,507.56814 C 366.50823,509.01616 367.92102,509.11857 377.70257,508.53689 C 385.89567,508.04965 389.61689,508.23093 391.82757,509.19314 C 394.58879,510.39494 393.91228,510.55765 383.32757,511.09939 C 371.98677,511.67979 366.81457,513.06746 367.60882,515.38064 C 367.83209,516.03091 369.54867,516.52304 371.42132,516.44314 C 373.29397,516.36323 379.54096,516.13699 385.29632,515.94314 L 395.76507,515.56814 L 396.07757,522.56814 C 396.53341,533.04426 399.04885,547.61343 401.57757,554.38064 C 402.23184,556.13157 403.22599,557.05037 404.23382,556.84939 C 406.14645,556.46803 405.9727,554.13268 403.39007,545.56814 C 400.40026,535.65325 399.35028,519.7476 400.82757,506.56814 C 401.26772,502.64135 400.98266,501.07303 399.54632,499.25564 C 397.89179,497.16219 396.73403,496.89991 387.29632,496.50564 C 385.9322,496.44865 384.63113,496.42005 383.42132,496.41189 z M 437.67132,500.06814 C 436.12142,500.06807 435.80282,500.92909 435.67132,505.31814 C 435.5848,508.20569 435.1993,514.74928 434.79632,519.84939 C 434.0995,528.6681 433.95918,529.10502 431.95257,528.50564 C 430.79207,528.15899 429.17625,527.25244 428.39007,526.50564 C 426.54417,524.75222 425.29815,514.20894 426.04632,506.81814 C 426.54102,501.93118 426.38639,501.10914 425.10882,501.59939 C 423.17791,502.34035 421.32758,506.39612 421.32757,509.88064 C 421.32757,511.3709 420.91696,513.99615 420.42132,515.72439 C 419.92568,517.45262 419.86032,519.25628 420.26507,519.72439 C 420.66981,520.19254 421.75515,522.60534 422.67132,525.09939 C 424.32671,529.60584 428.27177,533.06815 431.76507,533.06814 C 432.65997,533.06814 433.66454,533.76738 433.98382,534.59939 C 435.03168,537.33007 432.59294,538.65809 426.29632,538.84939 C 419.23996,539.06378 418.32758,539.44762 418.32757,542.19314 C 418.32757,543.63121 418.82452,544.08527 420.07757,543.72439 C 421.04007,543.44719 424.30258,543.05301 427.32757,542.88064 C 432.6732,542.57604 432.83252,542.64533 433.14007,545.31814 C 433.48438,548.31051 433.84063,548.2055 422.39007,548.50564 C 417.90234,548.62327 416.62342,549.79952 417.73382,552.69314 C 418.15457,553.78957 418.9679,554.01028 420.57757,553.47439 C 421.81778,553.06149 429.89174,552.78334 438.51507,552.84939 C 450.56872,552.94167 454.43547,552.63668 455.29632,551.59939 C 457.3329,549.14546 454.56458,548.44567 441.70257,548.16189 C 437.8736,548.0774 437.6325,547.89646 438.07757,545.56814 C 438.52711,543.21651 438.93119,543.06815 444.85882,543.06814 C 451.94553,543.06814 454.32758,542.46401 454.32757,540.59939 C 454.32757,539.00174 451.44026,538.42951 444.07757,538.59939 C 438.51974,538.72759 438.34619,538.653 438.39007,536.16189 C 438.42699,534.0659 439.38361,533.10132 443.57757,531.06814 C 450.66154,527.63395 452.88513,523.05844 453.70257,510.31814 C 453.85254,507.98064 453.65124,506.06815 453.23382,506.06814 C 452.81639,506.06814 452.31583,505.05565 452.14007,503.81814 C 451.93471,502.37218 451.02354,501.46098 449.57757,501.25564 C 448.34007,501.07989 447.29666,501.30487 447.26507,501.75564 C 447.23346,502.20639 447.0748,506.16815 446.92132,510.56814 C 446.61321,519.40049 444.756,524.39043 440.60882,527.47439 L 438.07757,529.38064 L 438.79632,514.72439 C 439.48895,500.86906 439.42552,500.06822 437.67132,500.06814 z M 536.51507,501.63064 C 537.0514,501.60697 537.59217,501.65482 538.07757,501.81814 C 538.76507,502.04946 539.32758,503.11389 539.32757,504.16189 C 539.32757,505.59405 538.68622,506.0084 536.76507,505.84939 C 533.85749,505.60875 533.32758,505.25166 533.32757,503.53689 C 533.32757,502.52457 534.90609,501.70164 536.51507,501.63064 z M 549.79632,502.06814 C 556.02424,502.06814 557.18256,502.31733 556.70257,503.56814 C 556.06563,505.22798 552.32758,505.65497 552.32757,504.06814 C 552.32757,503.51814 551.65258,503.06815 550.82757,503.06814 C 550.00257,503.06814 549.32758,503.51815 549.32757,504.06814 C 549.32757,505.17702 544.03724,505.46529 542.98382,504.41189 C 541.22935,502.65743 542.92737,502.06815 549.79632,502.06814 z M 527.70257,503.13064 C 528.44213,503.03949 529.29903,503.52888 529.73382,504.66189 C 530.06767,505.53187 530.32758,506.43189 530.32757,506.66189 C 530.32757,506.8919 529.42758,507.06815 528.32757,507.06814 C 526.99424,507.06814 526.32758,506.40148 526.32757,505.06814 C 526.32757,503.88153 526.96301,503.22179 527.70257,503.13064 z M 554.42132,510.06814 C 555.58507,510.06814 556.32993,510.59232 556.10882,511.25564 C 555.62171,512.71698 553.94155,513.36961 553.01507,512.44314 C 551.71097,511.13904 552.344,510.06815 554.42132,510.06814 z M 537.73382,510.44314 C 539.90245,510.48623 539.64766,511.80547 537.07757,515.41189 C 535.8412,517.14679 534.1537,519.88836 533.32757,521.50564 C 531.75656,524.58107 529.32758,526.12669 529.32757,524.03689 C 529.32757,523.36847 530.20149,521.41404 531.26507,519.69314 C 532.32865,517.97225 533.36504,515.24876 533.57757,513.66189 C 533.88194,511.38904 534.52898,510.73071 536.64007,510.50564 C 537.0486,510.46208 537.42402,510.43698 537.73382,510.44314 z M 528.32757,511.06814 C 529.79424,511.06814 530.32758,511.73482 530.32757,513.56814 C 530.32757,515.92115 528.50188,516.92994 526.98382,515.41189 C 525.49178,513.91985 526.37645,511.06815 528.32757,511.06814 z M 478.85882,512.53689 C 478.53351,512.52017 478.16994,512.58828 477.73382,512.75564 C 476.03023,513.40937 475.91217,515.27776 477.48382,516.84939 C 478.94681,518.31238 480.32758,517.50739 480.32757,515.19314 C 480.32757,513.4663 479.83476,512.58704 478.85882,512.53689 z M 386.01507,517.19314 C 385.54037,517.05822 384.3834,517.69071 381.64007,519.25564 C 376.32548,522.28733 374.43681,523.99693 371.67132,528.34939 C 368.8269,532.82606 368.01658,539.56815 370.32757,539.56814 C 371.17165,539.56814 371.98299,538.47496 372.17132,537.06814 C 372.71029,533.04213 373.92142,532.7269 376.23382,535.97439 C 378.54062,539.21399 378.46045,539.98705 374.45257,552.88064 C 373.55365,555.77251 373.65776,556.16591 375.14007,555.88064 C 376.1587,555.68461 377.64952,553.35881 378.85882,550.06814 C 381.70789,542.31552 383.99844,538.33474 387.92132,534.41189 C 392.25463,530.07858 392.60159,525.15953 388.82757,521.66189 C 387.45257,520.38758 386.32758,518.84885 386.32757,518.22439 C 386.32757,517.64897 386.29989,517.27409 386.01507,517.19314 z M 542.45257,522.00564 L 540.20257,526.78689 L 537.92132,531.56814 L 537.57757,528.31814 C 537.16428,524.62995 535.41181,523.90284 535.17132,527.31814 C 534.90821,531.05442 535.3212,533.35477 536.48382,534.75564 C 537.80718,536.3502 541.70773,536.48917 544.42132,535.03689 C 546.72319,533.80497 546.04837,532.06815 543.26507,532.06814 C 542.19753,532.06814 541.32758,531.60416 541.32757,531.03689 C 541.32757,529.36094 544.21952,528.76485 545.82757,530.09939 C 548.14088,532.01926 547.65631,529.6444 544.89007,525.56814 L 542.45257,522.00564 z M 383.26507,523.06814 C 384.37972,523.06814 386.00852,524.19148 386.89007,525.53689 C 387.882,527.05077 388.18483,528.51182 387.67132,529.41189 C 386.99871,530.59077 386.44876,530.38741 384.82757,528.28689 C 381.24806,523.64898 381.08565,523.06815 383.26507,523.06814 z M 497.26507,524.06814 C 496.85824,524.06814 496.89342,525.64315 497.32757,527.56814 C 498.05952,530.81352 497.95429,531.06815 495.73382,531.06814 C 494.41674,531.06814 493.31463,530.50565 493.29632,529.81814 C 493.2531,528.19414 489.44784,523.63538 488.73382,524.34939 C 488.43248,524.65073 488.63898,526.55819 489.20257,528.59939 C 489.92403,531.2123 489.88045,533.82961 489.07757,537.44314 C 487.14233,546.15315 487.8455,555.10212 490.32757,553.56814 C 490.88145,553.22582 491.32758,551.22197 491.32757,549.09939 C 491.32757,544.06611 492.15034,542.06815 494.23382,542.06814 C 496.82348,542.06814 498.32758,544.13803 498.32757,547.69314 C 498.32757,549.46357 499.11508,552.31454 500.07757,554.00564 C 502.11638,557.5878 503.87844,558.08648 502.89007,554.81814 C 502.51584,553.58064 501.95151,550.65565 501.64007,548.31814 L 501.07757,544.06814 L 504.70257,544.06814 C 507.1387,544.06814 508.32758,543.628 508.32757,542.69314 C 508.32757,541.15102 506.22072,540.06815 503.17132,540.06814 C 499.61165,540.06814 501.39396,536.61623 505.14007,536.25564 C 509.73732,535.81313 508.65332,533.41607 503.07757,531.69314 C 502.11507,531.39571 501.32758,530.37957 501.32757,529.44314 C 501.32757,527.69463 498.58612,524.06815 497.26507,524.06814 z M 377.73382,526.56814 C 378.17964,526.60333 378.71345,527.00487 379.57757,527.78689 C 382.30946,530.25921 383.44008,532.66519 382.73382,534.50564 C 381.89313,536.69644 381.25292,536.43875 377.98382,532.50564 C 375.61747,529.65862 375.32141,528.78686 376.35882,527.53689 C 376.9148,526.86698 377.288,526.53295 377.73382,526.56814 z M 495.26507,534.31814 C 496.78089,534.24199 498.32758,535.76209 498.32757,537.69314 C 498.32757,539.57902 497.79777,540.06815 495.82757,540.06814 C 493.84369,540.06814 493.32758,539.5677 493.32757,537.63064 C 493.32757,536.2881 493.73346,534.93989 494.23382,534.63064 C 494.56052,534.42873 494.91527,534.33571 495.26507,534.31814 z"
       id="path3314" />
  </g>
  <g
     inkscape:groupmode="layer"
     id="layer2"
     inkscape:label="translation"
     style="display:inline">
    <flowRoot
       xml:space="preserve"
       id="flowRoot2491"
       style="font-size:10px;font-style:normal;font-variant:normal;font-weight:normal;font-stretch:normal;text-align:center;line-height:100%;writing-mode:lr-tb;text-anchor:middle;opacity:1;fill:#999999;fill-opacity:1;fill-rule:nonzero;stroke:none;stroke-width:1px;stroke-linecap:butt;stroke-linejoin:miter;marker:none;marker-start:none;marker-mid:none;marker-end:none;stroke-miterlimit:4;stroke-dasharray:none;stroke-dashoffset:0;stroke-opacity:1;visibility:visible;display:inline;overflow:visible;enable-background:accumulate;font-family:Hobo Std;-inkscape-font-specification:Hobo Std"
       transform="matrix(1.1296637,0,0,1.3154067,597.63988,483.35632)"><flowRegion
         id="flowRegion2493"><rect
           id="rect2495"
           width="278.32928"
           height="120.96798"
           x="37.142857"
           y="32.362183"
           style="text-align:center;text-anchor:middle;fill:#999999" /></flowRegion><flowPara
         id="flowPara6865">Returning is the motion of the Tao</flowPara><flowPara
         id="flowPara3275">Yielding is the way of the Tao</flowPara><flowPara
         id="flowPara3277">The ten thousand things are born of being</flowPara><flowPara
         id="flowPara3279">Being is born of not being</flowPara></flowRoot>    <flowRoot
       xml:space="preserve"
       id="flowRoot3192"
       style="fill:#000000;fill-opacity:1;stroke:none;stroke-opacity:1;stroke-width:1px;stroke-linejoin:miter;stroke-linecap:butt;font-family:Hobo Std;font-style:normal;font-weight:normal;font-size:10px;font-stretch:normal;font-variant:normal;text-anchor:middle;text-align:center;writing-mode:lr;line-height:100%;-inkscape-font-specification:Hobo Std;opacity:1;color:#000000;fill-rule:nonzero;marker:none;marker-start:none;marker-mid:none;marker-end:none;stroke-miterlimit:4;stroke-dasharray:none;stroke-dashoffset:0;visibility:visible;display:inline;overflow:visible;enable-background:accumulate"><flowRegion
         id="flowRegion3194"><rect
           id="rect3196"
           width="22.142857"
           height="80.714287"
           x="376.42856"
           y="603.57141" /></flowRegion><flowPara
         id="flowPara3198" /></flowRoot>    <flowRoot
       xml:space="preserve"
       id="flowRoot2532"
       style="fill:black;stroke:none;stroke-opacity:1;stroke-width:1px;stroke-linejoin:miter;stroke-linecap:butt;fill-opacity:1;font-family:Bitstream Vera Sans;font-style:normal;font-weight:normal;font-size:8px;-inkscape-font-specification:Bitstream Vera Sans;font-stretch:normal;font-variant:normal;text-anchor:start;text-align:start;writing-mode:lr;line-height:100%"><flowRegion
         id="flowRegion2534"><rect
           id="rect2536"
           width="18.571428"
           height="110"
           x="667.85712"
           y="400.71429" /></flowRegion><flowPara
         id="flowPara2538" /></flowRoot>    <flowRoot
       xml:space="preserve"
       id="flowRoot2660"
       style="fill:black;stroke:none;stroke-opacity:1;stroke-width:1px;stroke-linejoin:miter;stroke-linecap:butt;fill-opacity:1;font-family:Bitstream Vera Sans;font-style:normal;font-weight:normal;font-size:8px;-inkscape-font-specification:Bitstream Vera Sans;font-stretch:normal;font-variant:normal;text-anchor:start;text-align:start;writing-mode:lr;line-height:100%"><flowRegion
         id="flowRegion2662"><rect
           id="rect2664"
           width="58.571426"
           height="14.285714"
           x="755"
           y="240" /></flowRegion><flowPara
         id="flowPara2666" /></flowRoot>    <flowRoot
       xml:space="preserve"
       id="flowRoot6867"
       style="fill:black;stroke:none;stroke-opacity:1;stroke-width:1px;stroke-linejoin:miter;stroke-linecap:butt;fill-opacity:1;font-family:Bitstream Vera Sans;font-style:normal;font-weight:normal;font-size:10px;-inkscape-font-specification:Bitstream Vera Sans;font-stretch:normal;font-variant:normal;text-anchor:start;text-align:start;writing-mode:lr;line-height:100%"><flowRegion
         id="flowRegion6869"><rect
           id="rect6871"
           width="9.0913725"
           height="112.12693"
           x="672.7616"
           y="678.12689" /></flowRegion><flowPara
         id="flowPara6873" /></flowRoot>    <flowRoot
       xml:space="preserve"
       id="flowRoot7001"
       style="fill:black;stroke:none;stroke-opacity:1;stroke-width:1px;stroke-linejoin:miter;stroke-linecap:butt;fill-opacity:1;font-family:Bitstream Vera Sans;font-style:normal;font-weight:normal;font-size:10px;-inkscape-font-specification:Bitstream Vera Sans;font-stretch:normal;font-variant:normal;text-anchor:start;text-align:start;writing-mode:lr;line-height:100%"><flowRegion
         id="flowRegion7003"><rect
           id="rect7005"
           width="361.63461"
           height="17.172594"
           x="711.1474"
           y="-55.243866" /></flowRegion><flowPara
         id="flowPara7007" /></flowRoot>    <text
       xml:space="preserve"
       style="font-size:10px;font-style:normal;font-variant:normal;font-weight:normal;font-stretch:normal;text-align:start;line-height:100%;writing-mode:lr-tb;text-anchor:start;fill:#999999;fill-opacity:1;stroke:none;stroke-width:1px;stroke-linecap:butt;stroke-linejoin:miter;stroke-opacity:1;font-family:Bitstream Vera Sans;-inkscape-font-specification:Bitstream Vera Sans"
       x="337.39096"
       y="143.75618"
       id="text3328"
       sodipodi:linespacing="100%"><tspan
         sodipodi:role="line"
         id="tspan3330"
         x="337.39096"
         y="143.75618">return</tspan><tspan
         sodipodi:role="line"
         x="337.39096"
         y="153.75618"
         id="tspan3332">revert</tspan></text>
    <text
       xml:space="preserve"
       style="font-size:10px;font-style:normal;font-variant:normal;font-weight:normal;font-stretch:normal;text-align:start;line-height:100%;writing-mode:lr-tb;text-anchor:start;fill:#999999;fill-opacity:1;stroke:none;stroke-width:1px;stroke-linecap:butt;stroke-linejoin:miter;stroke-opacity:1;font-family:Bitstream Vera Sans;-inkscape-font-specification:Bitstream Vera Sans"
       x="400.02042"
       y="157.89832"
       id="text3334"
       sodipodi:linespacing="100%"><tspan
         sodipodi:role="line"
         id="tspan3336"
         x="400.02042"
         y="157.89832">that</tspan></text>
    <text
       xml:space="preserve"
       style="font-size:10px;font-style:normal;font-variant:normal;font-weight:normal;font-stretch:normal;text-align:start;line-height:100%;writing-mode:lr-tb;text-anchor:start;fill:#999999;fill-opacity:1;stroke:none;stroke-width:1px;stroke-linecap:butt;stroke-linejoin:miter;stroke-opacity:1;font-family:Bitstream Vera Sans;-inkscape-font-specification:Bitstream Vera Sans"
       x="445.47726"
       y="155.87801"
       id="text3338"
       sodipodi:linespacing="100%"><tspan
         sodipodi:role="line"
         id="tspan3340"
         x="445.47726"
         y="155.87801">tao</tspan></text>
    <text
       xml:space="preserve"
       style="font-size:10px;font-style:normal;font-variant:normal;font-weight:normal;font-stretch:normal;text-align:start;line-height:100%;writing-mode:lr-tb;text-anchor:start;fill:#999999;fill-opacity:1;stroke:none;stroke-width:1px;stroke-linecap:butt;stroke-linejoin:miter;stroke-opacity:1;font-family:Bitstream Vera Sans;-inkscape-font-specification:Bitstream Vera Sans"
       x="496.99506"
       y="159.91862"
       id="text3342"
       sodipodi:linespacing="100%"><tspan
         sodipodi:role="line"
         id="tspan3344"
         x="496.99506"
         y="159.91862">its</tspan></text>
    <text
       xml:space="preserve"
       style="font-size:10px;font-style:normal;font-variant:normal;font-weight:normal;font-stretch:normal;text-align:start;line-height:100%;writing-mode:lr-tb;text-anchor:start;fill:#999999;fill-opacity:1;stroke:none;stroke-width:1px;stroke-linecap:butt;stroke-linejoin:miter;stroke-opacity:1;font-family:Bitstream Vera Sans;-inkscape-font-specification:Bitstream Vera Sans"
       x="548.51282"
       y="156.88817"
       id="text3346"
       sodipodi:linespacing="100%"><tspan
         sodipodi:role="line"
         id="tspan3348"
         x="548.51282"
         y="156.88817">movement</tspan></text>
    <text
       xml:space="preserve"
       style="font-size:10px;font-style:normal;font-variant:normal;font-weight:normal;font-stretch:normal;text-align:start;line-height:100%;writing-mode:lr-tb;text-anchor:start;fill:#999999;fill-opacity:1;stroke:none;stroke-width:1px;stroke-linecap:butt;stroke-linejoin:miter;stroke-opacity:1;font-family:Bitstream Vera Sans;-inkscape-font-specification:Bitstream Vera Sans"
       x="350.52292"
       y="259.92374"
       id="text3350"
       sodipodi:linespacing="100%"><tspan
         sodipodi:role="line"
         id="tspan3352"
         x="350.52292"
         y="259.92374">weak</tspan><tspan
         sodipodi:role="line"
         x="350.52292"
         y="269.92374"
         id="tspan3354">gentle</tspan></text>
    <text
       xml:space="preserve"
       style="font-size:10px;font-style:normal;font-variant:normal;font-weight:normal;font-stretch:normal;text-align:start;line-height:100%;writing-mode:lr-tb;text-anchor:start;fill:#999999;fill-opacity:1;stroke:none;stroke-width:1px;stroke-linecap:butt;stroke-linejoin:miter;stroke-opacity:1;font-family:Bitstream Vera Sans;-inkscape-font-specification:Bitstream Vera Sans"
       x="405.07117"
       y="259.92374"
       id="text3356"
       sodipodi:linespacing="100%"><tspan
         sodipodi:role="line"
         id="tspan3358"
         x="405.07117"
         y="259.92374">that</tspan></text>
    <text
       xml:space="preserve"
       style="font-size:10px;font-style:normal;font-variant:normal;font-weight:normal;font-stretch:normal;text-align:start;line-height:100%;writing-mode:lr-tb;text-anchor:start;fill:#999999;fill-opacity:1;stroke:none;stroke-width:1px;stroke-linecap:butt;stroke-linejoin:miter;stroke-opacity:1;font-family:Bitstream Vera Sans;-inkscape-font-specification:Bitstream Vera Sans"
       x="450.52805"
       y="265.98465"
       id="text3360"
       sodipodi:linespacing="100%"><tspan
         sodipodi:role="line"
         id="tspan3362"
         x="450.52805"
         y="265.98465">tao</tspan></text>
    <text
       xml:space="preserve"
       style="font-size:10px;font-style:normal;font-variant:normal;font-weight:normal;font-stretch:normal;text-align:start;line-height:100%;writing-mode:lr-tb;text-anchor:start;fill:#999999;fill-opacity:1;stroke:none;stroke-width:1px;stroke-linecap:butt;stroke-linejoin:miter;stroke-opacity:1;font-family:Bitstream Vera Sans;-inkscape-font-specification:Bitstream Vera Sans"
       x="511.13718"
       y="265.98465"
       id="text3364"
       sodipodi:linespacing="100%"><tspan
         sodipodi:role="line"
         id="tspan3366"
         x="511.13718"
         y="265.98465">its</tspan></text>
    <text
       xml:space="preserve"
       style="font-size:10px;font-style:normal;font-variant:normal;font-weight:normal;font-stretch:normal;text-align:start;line-height:100%;writing-mode:lr-tb;text-anchor:start;fill:#999999;fill-opacity:1;stroke:none;stroke-width:1px;stroke-linecap:butt;stroke-linejoin:miter;stroke-opacity:1;font-family:Bitstream Vera Sans;-inkscape-font-specification:Bitstream Vera Sans"
       x="557.60425"
       y="263.96432"
       id="text3368"
       sodipodi:linespacing="100%"><tspan
         sodipodi:role="line"
         id="tspan3370"
         x="557.60425"
         y="263.96432">use</tspan><tspan
         sodipodi:role="line"
         x="557.60425"
         y="273.96432"
         id="tspan3372">function</tspan></text>
    <text
       xml:space="preserve"
       style="font-size:10px;font-style:normal;font-variant:normal;font-weight:normal;font-stretch:normal;text-align:start;line-height:100%;writing-mode:lr-tb;text-anchor:start;fill:#999999;fill-opacity:1;stroke:none;stroke-width:1px;stroke-linecap:butt;stroke-linejoin:miter;stroke-opacity:1;font-family:Bitstream Vera Sans;-inkscape-font-specification:Bitstream Vera Sans"
       x="295.9747"
       y="368.01004"
       id="text3374"
       sodipodi:linespacing="100%"><tspan
         sodipodi:role="line"
         id="tspan3376"
         x="295.9747"
         y="368.01004">heaven</tspan></text>
    <text
       xml:space="preserve"
       style="font-size:10px;font-style:normal;font-variant:normal;font-weight:normal;font-stretch:normal;text-align:start;line-height:100%;writing-mode:lr-tb;text-anchor:start;fill:#999999;fill-opacity:1;stroke:none;stroke-width:1px;stroke-linecap:butt;stroke-linejoin:miter;stroke-opacity:1;font-family:Bitstream Vera Sans;-inkscape-font-specification:Bitstream Vera Sans"
       x="346.48233"
       y="379.12173"
       id="text3378"
       sodipodi:linespacing="100%"><tspan
         sodipodi:role="line"
         id="tspan3380"
         x="346.48233"
         y="379.12173">below</tspan></text>
    <text
       xml:space="preserve"
       style="font-size:10px;font-style:normal;font-variant:normal;font-weight:normal;font-stretch:normal;text-align:start;line-height:100%;writing-mode:lr-tb;text-anchor:start;fill:#999999;fill-opacity:1;stroke:none;stroke-width:1px;stroke-linecap:butt;stroke-linejoin:miter;stroke-opacity:1;font-family:Bitstream Vera Sans;-inkscape-font-specification:Bitstream Vera Sans"
       x="392.94934"
       y="377.10141"
       id="text3382"
       sodipodi:linespacing="100%"><tspan
         sodipodi:role="line"
         id="tspan3384"
         x="392.94934"
         y="377.10141">tenthousand</tspan></text>
    <text
       xml:space="preserve"
       style="font-size:10px;font-style:normal;font-variant:normal;font-weight:normal;font-stretch:normal;text-align:start;line-height:100%;writing-mode:lr-tb;text-anchor:start;fill:#999999;fill-opacity:1;stroke:none;stroke-width:1px;stroke-linecap:butt;stroke-linejoin:miter;stroke-opacity:1;font-family:Bitstream Vera Sans;-inkscape-font-specification:Bitstream Vera Sans"
       x="448.50772"
       y="364.97958"
       id="text3386"
       sodipodi:linespacing="100%"><tspan
         sodipodi:role="line"
         id="tspan3388"
         x="448.50772"
         y="364.97958">thing</tspan></text>
    <text
       xml:space="preserve"
       style="font-size:10px;font-style:normal;font-variant:normal;font-weight:normal;font-stretch:normal;text-align:start;line-height:100%;writing-mode:lr-tb;text-anchor:start;fill:#999999;fill-opacity:1;stroke:none;stroke-width:1px;stroke-linecap:butt;stroke-linejoin:miter;stroke-opacity:1;font-family:Bitstream Vera Sans;-inkscape-font-specification:Bitstream Vera Sans"
       x="502.04581"
       y="373.06079"
       id="text3390"
       sodipodi:linespacing="100%"><tspan
         sodipodi:role="line"
         id="tspan3392"
         x="502.04581"
         y="373.06079">grow</tspan><tspan
         sodipodi:role="line"
         x="502.04581"
         y="383.06079"
         id="tspan3394">live</tspan></text>
    <text
       xml:space="preserve"
       style="font-size:10px;font-style:normal;font-variant:normal;font-weight:normal;font-stretch:normal;text-align:start;line-height:100%;writing-mode:lr-tb;text-anchor:start;fill:#999999;fill-opacity:1;stroke:none;stroke-width:1px;stroke-linecap:butt;stroke-linejoin:miter;stroke-opacity:1;font-family:Bitstream Vera Sans;-inkscape-font-specification:Bitstream Vera Sans"
       x="550.53314"
       y="375.08112"
       id="text3396"
       sodipodi:linespacing="100%"><tspan
         sodipodi:role="line"
         id="tspan3398"
         x="550.53314"
         y="375.08112">from</tspan></text>
    <text
       xml:space="preserve"
       style="font-size:10px;font-style:normal;font-variant:normal;font-weight:normal;font-stretch:normal;text-align:start;line-height:100%;writing-mode:lr-tb;text-anchor:start;fill:#999999;fill-opacity:1;stroke:none;stroke-width:1px;stroke-linecap:butt;stroke-linejoin:miter;stroke-opacity:1;font-family:Bitstream Vera Sans;-inkscape-font-specification:Bitstream Vera Sans"
       x="598.01031"
       y="372.05066"
       id="text3400"
       sodipodi:linespacing="100%"><tspan
         sodipodi:role="line"
         id="tspan3402"
         x="598.01031"
         y="372.05066">being</tspan><tspan
         sodipodi:role="line"
         x="598.01031"
         y="382.05066"
         id="tspan3404">existence</tspan></text>
    <text
       xml:space="preserve"
       style="font-size:10px;font-style:normal;font-variant:normal;font-weight:normal;font-stretch:normal;text-align:start;line-height:100%;writing-mode:lr-tb;text-anchor:start;fill:#999999;fill-opacity:1;stroke:none;stroke-width:1px;stroke-linecap:butt;stroke-linejoin:miter;stroke-opacity:1;font-family:Bitstream Vera Sans;-inkscape-font-specification:Bitstream Vera Sans"
       x="366.68539"
       y="483.16745"
       id="text3406"
       sodipodi:linespacing="100%"><tspan
         sodipodi:role="line"
         id="tspan3408"
         x="366.68539"
         y="483.16745">being</tspan></text>
    <text
       xml:space="preserve"
       style="font-size:10px;font-style:normal;font-variant:normal;font-weight:normal;font-stretch:normal;text-align:start;line-height:100%;writing-mode:lr-tb;text-anchor:start;fill:#999999;fill-opacity:1;stroke:none;stroke-width:1px;stroke-linecap:butt;stroke-linejoin:miter;stroke-opacity:1;font-family:Bitstream Vera Sans;-inkscape-font-specification:Bitstream Vera Sans"
       x="413.1524"
       y="482.15729"
       id="text3410"
       sodipodi:linespacing="100%"><tspan
         sodipodi:role="line"
         id="tspan3412"
         x="413.1524"
         y="482.15729">lives</tspan><tspan
         sodipodi:role="line"
         x="413.1524"
         y="492.15729"
         id="tspan3422">growsfrom</tspan></text>
    <text
       xml:space="preserve"
       style="font-size:10px;font-style:normal;font-variant:normal;font-weight:normal;font-stretch:normal;text-align:start;line-height:100%;writing-mode:lr-tb;text-anchor:start;fill:#999999;fill-opacity:1;stroke:none;stroke-width:1px;stroke-linecap:butt;stroke-linejoin:miter;stroke-opacity:1;font-family:Bitstream Vera Sans;-inkscape-font-specification:Bitstream Vera Sans"
       x="468.71078"
       y="486.19791"
       id="text3414"
       sodipodi:linespacing="100%"><tspan
         sodipodi:role="line"
         id="tspan3416"
         x="468.71078"
         y="486.19791">from</tspan></text>
    <text
       xml:space="preserve"
       style="font-size:10px;font-style:normal;font-variant:normal;font-weight:normal;font-stretch:normal;text-align:start;line-height:100%;writing-mode:lr-tb;text-anchor:start;fill:#999999;fill-opacity:1;stroke:none;stroke-width:1px;stroke-linecap:butt;stroke-linejoin:miter;stroke-opacity:1;font-family:Bitstream Vera Sans;-inkscape-font-specification:Bitstream Vera Sans"
       x="526.28949"
       y="482.15729"
       id="text3418"
       sodipodi:linespacing="100%"><tspan
         sodipodi:role="line"
         id="tspan3420"
         x="526.28949"
         y="482.15729">without</tspan></text>
  </g>
</svg>
