<?xml version="1.0" encoding="UTF-8" standalone="no"?>
<!-- Created with Inkscape (http://www.inkscape.org/) -->

<svg
   xmlns:dc="http://purl.org/dc/elements/1.1/"
   xmlns:cc="http://creativecommons.org/ns#"
   xmlns:rdf="http://www.w3.org/1999/02/22-rdf-syntax-ns#"
   xmlns:svg="http://www.w3.org/2000/svg"
   xmlns="http://www.w3.org/2000/svg"
   xmlns:xlink="http://www.w3.org/1999/xlink"
   xmlns:sodipodi="http://sodipodi.sourceforge.net/DTD/sodipodi-0.dtd"
   xmlns:inkscape="http://www.inkscape.org/namespaces/inkscape"
   width="990"
   height="765"
   id="svg2407"
   sodipodi:version="0.32"
   inkscape:version="0.47+devel r9385"
   version="1.0"
   sodipodi:docname="template_form6.svg"
   inkscape:output_extension="org.inkscape.output.svg.inkscape"
   inkscape:export-filename="I:\_wip\src\notebook\digital\0219\template_form4.png"
   inkscape:export-xdpi="90"
   inkscape:export-ydpi="90">
  <defs
     id="defs2409">
    <inkscape:perspective
       sodipodi:type="inkscape:persp3d"
       inkscape:vp_x="0 : 526.18109 : 1"
       inkscape:vp_y="0 : 1000 : 0"
       inkscape:vp_z="744.09448 : 526.18109 : 1"
       inkscape:persp3d-origin="372.04724 : 350.78739 : 1"
       id="perspective2415" />
    <linearGradient
       y2="140.45406"
       y1="17.152563"
       xlink:href="#linearGradient8301"
       x2="146.39938"
       x1="22.029089"
       id="linearGradient9086"
       gradientUnits="userSpaceOnUse"
       gradientTransform="scale(0.855373,1.169081)" />
    <linearGradient
       y2="18.728254"
       y1="146.6171"
       xlink:href="#linearGradient8301"
       x2="36.519855"
       x1="138.23376"
       id="linearGradient8318"
       gradientUnits="userSpaceOnUse"
       gradientTransform="scale(0.854242,1.170628)" />
    <linearGradient
       y2="128.69501"
       y1="63.099518"
       xlink:href="#linearGradient2060"
       x2="109"
       x1="2"
       id="linearGradient6794"
       gradientUnits="userSpaceOnUse"
       gradientTransform="translate(0,-1)" />
    <linearGradient
       y2="128.69501"
       y1="63.099518"
       xlink:href="#linearGradient2060"
       x2="109"
       x1="2"
       id="linearGradient6792"
       gradientUnits="userSpaceOnUse"
       gradientTransform="translate(0,-1)" />
    <linearGradient
       y2="128.69501"
       y1="63.099518"
       xlink:href="#linearGradient2060"
       x2="109"
       x1="2"
       id="linearGradient6790"
       gradientUnits="userSpaceOnUse"
       gradientTransform="translate(0,-1)" />
    <linearGradient
       y2="128.69501"
       y1="63.099518"
       xlink:href="#linearGradient2060"
       x2="109"
       x1="2"
       id="linearGradient6788"
       gradientUnits="userSpaceOnUse"
       gradientTransform="translate(0,-1)" />
    <linearGradient
       y2="128.69501"
       y1="63.099518"
       xlink:href="#linearGradient2060"
       x2="109"
       x1="2"
       id="linearGradient4853"
       gradientUnits="userSpaceOnUse"
       gradientTransform="translate(0,-1)" />
    <linearGradient
       id="linearGradient2060">
      <stop
         style="stop-color:#ebf0d0;stop-opacity:1.0000000;"
         offset="0.0000000"
         id="stop2062" />
      <stop
         style="stop-color:#ffffeb;stop-opacity:1.0000000;"
         offset="1.0000000"
         id="stop2064" />
    </linearGradient>
    <linearGradient
       id="linearGradient8301">
      <stop
         style="stop-color:#000086;stop-opacity:1.0000000;"
         offset="0.0000000"
         id="stop8314" />
      <stop
         style="stop-color:#005aff;stop-opacity:1.0000000;"
         offset="1.0000000"
         id="stop8316" />
    </linearGradient>
    <inkscape:perspective
       id="perspective3084"
       inkscape:persp3d-origin="70 : 63.333333 : 1"
       inkscape:vp_z="140 : 95 : 1"
       inkscape:vp_y="0 : 1000 : 0"
       inkscape:vp_x="0 : 95 : 1"
       sodipodi:type="inkscape:persp3d" />
    <inkscape:perspective
       id="perspective3489"
       inkscape:persp3d-origin="372.04724 : 350.78739 : 1"
       inkscape:vp_z="744.09448 : 526.18109 : 1"
       inkscape:vp_y="0 : 1000 : 0"
       inkscape:vp_x="0 : 526.18109 : 1"
       sodipodi:type="inkscape:persp3d" />
    <inkscape:perspective
       id="perspective3520"
       inkscape:persp3d-origin="372.04724 : 350.78739 : 1"
       inkscape:vp_z="744.09448 : 526.18109 : 1"
       inkscape:vp_y="0 : 1000 : 0"
       inkscape:vp_x="0 : 526.18109 : 1"
       sodipodi:type="inkscape:persp3d" />
    <inkscape:perspective
       id="perspective3603"
       inkscape:persp3d-origin="372.04724 : 350.78739 : 1"
       inkscape:vp_z="744.09448 : 526.18109 : 1"
       inkscape:vp_y="0 : 1000 : 0"
       inkscape:vp_x="0 : 526.18109 : 1"
       sodipodi:type="inkscape:persp3d" />
    <inkscape:perspective
       sodipodi:type="inkscape:persp3d"
       inkscape:vp_x="0 : 526.18109 : 1"
       inkscape:vp_y="0 : 1000 : 0"
       inkscape:vp_z="744.09448 : 526.18109 : 1"
       inkscape:persp3d-origin="372.04724 : 350.78739 : 1"
       id="perspective2390" />
    <inkscape:perspective
       id="perspective10"
       inkscape:persp3d-origin="372.04724 : 350.78739 : 1"
       inkscape:vp_z="744.09448 : 526.18109 : 1"
       inkscape:vp_y="0 : 1000 : 0"
       inkscape:vp_x="0 : 526.18109 : 1"
       sodipodi:type="inkscape:persp3d" />
    <inkscape:perspective
       sodipodi:type="inkscape:persp3d"
       inkscape:vp_x="0 : 526.18109 : 1"
       inkscape:vp_y="0 : 1000 : 0"
       inkscape:vp_z="744.09448 : 526.18109 : 1"
       inkscape:persp3d-origin="372.04724 : 350.78739 : 1"
       id="perspective2657" />
    <inkscape:perspective
       id="perspective3605"
       inkscape:persp3d-origin="372.04724 : 350.78739 : 1"
       inkscape:vp_z="744.09448 : 526.18109 : 1"
       inkscape:vp_y="0 : 1000 : 0"
       inkscape:vp_x="0 : 526.18109 : 1"
       sodipodi:type="inkscape:persp3d" />
  </defs>
  <sodipodi:namedview
     id="base"
     pagecolor="#ffffff"
     bordercolor="#666666"
     borderopacity="1.0"
     gridtolerance="10000"
     guidetolerance="10"
     objecttolerance="10"
     inkscape:pageopacity="0.0"
     inkscape:pageshadow="2"
     inkscape:zoom="0.7"
     inkscape:cx="532.6994"
     inkscape:cy="346.81973"
     inkscape:document-units="px"
     inkscape:current-layer="layer4"
     showgrid="false"
     inkscape:window-width="676"
     inkscape:window-height="579"
     inkscape:window-x="55"
     inkscape:window-y="106"
     showguides="true"
     inkscape:guide-bbox="true"
     inkscape:window-maximized="0" />
  <metadata
     id="metadata2412">
    <rdf:RDF>
      <cc:Work
         rdf:about="">
        <dc:format>image/svg+xml</dc:format>
        <dc:type
           rdf:resource="http://purl.org/dc/dcmitype/StillImage" />
      </cc:Work>
    </rdf:RDF>
  </metadata>
  <g
     inkscape:groupmode="layer"
     id="layer4"
     inkscape:label="backbackground"
     sodipodi:insensitive="true"
     style="display:inline">
    <path
       d="M 0,0 0,765 M 20,0 20,765 M 40,0 40,765 M 60,0 60,765 M 80,0 80,765 M 100,0 100,765 M 120,0 120,765 M 140,0 140,765 M 160,0 160,765 M 180,0 180,765 M 200,0 200,765 M 220,0 220,765 M 240,0 240,765 M 260,0 260,765 M 280,0 280,765 M 300,0 300,765 M 320,0 320,765 M 340,0 340,765 M 360,0 360,765 M 380,0 380,765 M 400,0 400,765 M 420,0 420,765 M 440,0 440,765 M 460,0 460,765 M 480,0 480,765 M 500,0 500,765 M 520,0 520,765 M 540,0 540,765 M 560,0 560,765 M 580,0 580,765 M 600,0 600,765 M 620,0 620,765 M 640,0 640,765 M 660,0 660,765 M 680,0 680,765 M 700,0 700,765 M 720,0 720,765 M 740,0 740,765 M 760,0 760,765 M 780,0 780,765 M 800,0 800,765 M 820,0 820,765 M 840,0 840,765 M 860,0 860,765 M 880,0 880,765 M 900,0 900,765 M 920,0 920,765 M 940,0 940,765 M 960,0 960,765 M 980,0 980,765 M 0,0 990,0 M 0,20 990,20 M 0,40 990,40 M 0,60 990,60 M 0,80 990,80 m -990,20 990,0 m -990,20 990,0 m -990,20 990,0 m -990,20 990,0 m -990,20 990,0 m -990,20 990,0 m -990,20 990,0 m -990,20 990,0 m -990,20 990,0 m -990,20 990,0 m -990,20 990,0 m -990,20 990,0 m -990,20 990,0 m -990,20 990,0 m -990,20 990,0 m -990,20 990,0 m -990,20 990,0 m -990,20 990,0 m -990,20 990,0 m -990,20 990,0 m -990,20 990,0 m -990,20 990,0 m -990,20 990,0 m -990,20 990,0 m -990,20 990,0 m -990,20 990,0 m -990,20 990,0 m -990,20 990,0 m -990,20 990,0 m -990,20 990,0 m -990,20 990,0 m -990,20 990,0 m -990,20 990,0 m -990,20 990,0"
       style="fill:none;stroke:#cccccc;stroke-width:1pt;stroke-linecap:butt;stroke-linejoin:miter;stroke-opacity:1;display:inline"
       id="path3207"
       inkscape:connector-curvature="0" />
  </g>
  <g
     inkscape:groupmode="layer"
     id="layer2"
     inkscape:label="background"
     style="display:inline"
     sodipodi:insensitive="true">
    <g
       id="g3722">
      <path
         style="fill:none;fill-opacity:1;stroke:#000000;stroke-width:0.98293191;stroke-miterlimit:4;stroke-opacity:1;display:inline"
         d="M 53.19709,548.67501 L 302.37661,548.67501 C 317.82227,548.67501 330.25685,552.70465 330.25685,557.71007 L 330.25685,733.89391 C 330.25685,738.89933 317.82227,742.92898 302.37661,742.92898 L 53.19709,742.92898 C 37.75144,742.92898 25.31685,738.89933 25.31685,733.89391 L 25.31685,557.71007 C 25.31685,552.70465 37.75144,548.67501 53.19709,548.67501 z"
         id="path2866" />
      <rect
         style="fill:#ffffff;fill-opacity:1;stroke:#000000;stroke-width:0.98293191;stroke-miterlimit:4;stroke-dasharray:none;stroke-opacity:1;display:inline"
         id="rect2868"
         width="285.77231"
         height="26.795979"
         x="33.474327"
         y="556.76758"
         rx="11.819449"
         ry="26.795979" />
      <g
         transform="matrix(0.1909655,0,0,0.2096697,34.76098,558.48909)"
         id="g2870"
         style="display:inline">
        <path
           transform="matrix(0.954661,0,0,0.954661,47.02084,1.929386)"
           style="fill-rule:evenodd;stroke:#000000;stroke-width:13.88094711"
           id="path2872"
           d="M 60.446161,55.537231 C 60.446161,27.526618 37.739073,4.8195294 9.72846,4.8195294 C -18.282153,4.8195294 -40.989241,27.526618 -40.989241,55.537231 C -40.989241,83.547844 -18.282153,106.25493 9.72846,106.25493 C 37.739073,106.25493 60.446161,83.547844 60.446161,55.537231 L 60.446161,55.537231 z" />
        <path
           style="fill:#ffffff"
           id="path2874"
           d="M 57.3715,27.76321 C 49.69117,25.62996 48.27614,16.50681 56.48014,13.50082 C 68.22353,9.197998 73.63102,25.58189 66.1294,32.73964 C 57.38492,41.0833 41.21971,37.37122 38.47127,25.13077 C 37.22,19.55833 40.95759,12.22084 45.27893,9.055252 C 17.7102,16.41563 7.337985,40.73051 9.391875,60.2298 C 12.98337,55.02586 15.41195,50.13405 21.57747,47.37701 C 36.6158,40.65247 51.64266,52.4292 66.31929,42.12036 C 80.16084,32.39799 76.41115,9.797058 57.3715,9.985504 C 44.42328,10.11368 37.36764,30.57243 52.00588,32.8405 C 57.15351,33.63808 63.35098,31.9133 65.54874,26.80649 C 67.50783,22.25441 63.57308,16.19102 58.28362,16.80077 C 51.38996,17.59552 55.05321,24.64157 57.3715,27.76321 z" />
        <path
           style="fill:#ffffff"
           id="path2876"
           d="M 73.21464,10.89928 C 77.74805,14.1714 80.42045,20.02633 80.47395,24.9172 C 80.67065,42.8764 60.99718,52.12807 63.90473,71.4234 C 66.31206,87.39919 88.1272,93.00941 96.24566,77.55283 C 102.8299,65.01756 85.59602,50.32248 77.06655,63.56403 C 74.50263,67.54426 74.445,73.95325 78.15746,77.28678 C 81.56236,80.3442 88.30049,79.50556 89.90167,74.85135 C 92.13784,68.35171 84.5868,68.29205 80.63764,69.66845 C 84.77122,64.559 93.61197,65.26835 93.96583,73.17835 C 94.61852,87.77012 72.32053,84.58696 70.97307,71.4234 C 69.28597,52.07086 97.28015,46.83149 100.916,70.22293 C 108.7892,47.28788 98.12712,20.79383 73.21464,10.89928 z" />
        <path
           style="fill:#ffffff"
           id="path2878"
           d="M 29.79359,66.77673 C 34.27921,71.15189 29.57453,77.80548 23.53313,77.01401 C 8.920531,75.09941 17.30264,52.59209 31.58329,56.81641 C 43.57895,60.36484 48.46471,74.61052 37.39976,83.49686 C 31.42313,87.61887 24.52385,88.34091 19.38784,84.34715 C 34.87921,104.6796 67.82317,109.126 88.45577,89.39819 C 82.29923,91.25076 70.82304,91.62292 63.89178,84.31274 C 53.66991,73.53203 54.40986,58.2621 38.7421,51.81976 C 22.14915,44.99695 4.387553,63.22281 17.01503,78.01872 C 25.81356,88.32817 45.7911,78.62679 37.19615,65.91278 C 34.452,61.85356 28.61131,59.10461 23.69876,61.16386 C 19.93976,62.73964 18.52474,69.37241 21.50933,72.267 C 25.89338,76.51901 29.50285,70.54565 29.79359,66.77673 z" />
      </g>
      <rect
         rx="26.063765"
         ry="6.37362"
         y="590.93817"
         x="33.887932"
         height="137.03284"
         width="285.07239"
         id="rect2880"
         style="fill:#ffffff;fill-opacity:1;stroke:#000000;stroke-width:0.98293191;stroke-miterlimit:4;stroke-dasharray:none;stroke-opacity:1;display:inline" />
      <path
         id="path2882"
         d="M 37.65198,739.9209 C 25.6379,736.65835 26.62107,745.42363 27.02689,645.19403 L 27.38844,555.89959 L 33.00785,553.09254 C 38.51314,550.34248 41.43694,550.28547 177.00497,550.28547 C 307.80831,550.28547 315.74795,550.42628 322.05573,552.85774 L 328.72877,555.42998 L 328.72877,645.68901 L 328.72877,735.94805 L 322.75815,738.55662 C 317.08868,741.03362 309.91484,741.17898 180.5171,741.43849 C 73.70739,741.65276 42.82093,741.32465 37.652,739.92095 L 37.65198,739.9209 z M 315.04571,726.14297 L 320.32814,723.75251 L 319.96269,659.49402 L 319.59725,595.23562 L 315.38269,593.11174 C 311.70727,591.25947 293.91603,590.98777 176.30254,590.98777 C 58.68972,590.98777 40.89779,591.25948 37.22239,593.11169 L 33.00785,595.23562 L 32.61779,656.97214 C 32.40327,690.92729 32.56103,720.08075 32.96839,721.75763 C 33.68479,724.70688 38.07494,726.8477 46.35392,728.28495 C 48.28559,728.62031 108.34293,728.81339 179.81467,728.71405 C 298.97391,728.54846 310.20189,728.33497 315.0457,726.14295 L 315.04571,726.14297 z M 313.07169,582.67188 C 322.935,577.57614 322.56995,562.13659 312.47298,557.34977 C 308.35971,555.39972 293.01121,555.19719 174.40278,555.52772 L 40.96029,555.89959 L 37.40812,559.23382 C 32.93049,563.43671 31.62081,569.22378 33.71354,575.55886 C 36.85412,585.06588 28.80393,584.55358 176.0211,584.6157 C 288.61925,584.66321 309.79866,584.36281 313.07167,582.67187 L 313.07169,582.67188 z"
         style="fill:#b3b3b3;fill-opacity:1;stroke:none;stroke-width:8;stroke-miterlimit:4;stroke-dasharray:none;stroke-opacity:1;display:inline" />
    </g>
    <g
       id="g2782"
       transform="translate(-1.5258789e-5,0)">
      <path
         style="fill:none;fill-opacity:1;stroke:#000000;stroke-width:0.98293191;stroke-miterlimit:4;stroke-opacity:1;display:inline"
         d="M 689.90118,548.67501 L 939.0807,548.67501 C 954.52636,548.67501 966.96094,552.70465 966.96094,557.71007 L 966.96094,733.89391 C 966.96094,738.89933 954.52636,742.92898 939.0807,742.92898 L 689.90118,742.92898 C 674.45553,742.92898 662.02094,738.89933 662.02094,733.89391 L 662.02094,557.71007 C 662.02094,552.70465 674.45553,548.67501 689.90118,548.67501 z"
         id="path2886" />
      <rect
         style="fill:#ffffff;fill-opacity:1;stroke:#000000;stroke-width:0.98293191;stroke-miterlimit:4;stroke-dasharray:none;stroke-opacity:1;display:inline"
         id="rect2888"
         width="285.77231"
         height="26.795979"
         x="670.17841"
         y="556.76758"
         rx="11.819449"
         ry="26.795979" />
      <g
         transform="matrix(0.1909655,0,0,0.2096697,671.46507,558.48909)"
         id="g2890"
         style="display:inline">
        <path
           transform="matrix(0.954661,0,0,0.954661,47.02084,1.929386)"
           style="fill-rule:evenodd;stroke:#000000;stroke-width:13.88094711"
           id="path2892"
           d="M 60.446161,55.537231 C 60.446161,27.526618 37.739073,4.8195294 9.72846,4.8195294 C -18.282153,4.8195294 -40.989241,27.526618 -40.989241,55.537231 C -40.989241,83.547844 -18.282153,106.25493 9.72846,106.25493 C 37.739073,106.25493 60.446161,83.547844 60.446161,55.537231 L 60.446161,55.537231 z" />
        <path
           style="fill:#ffffff"
           id="path2894"
           d="M 57.3715,27.76321 C 49.69117,25.62996 48.27614,16.50681 56.48014,13.50082 C 68.22353,9.197998 73.63102,25.58189 66.1294,32.73964 C 57.38492,41.0833 41.21971,37.37122 38.47127,25.13077 C 37.22,19.55833 40.95759,12.22084 45.27893,9.055252 C 17.7102,16.41563 7.337985,40.73051 9.391875,60.2298 C 12.98337,55.02586 15.41195,50.13405 21.57747,47.37701 C 36.6158,40.65247 51.64266,52.4292 66.31929,42.12036 C 80.16084,32.39799 76.41115,9.797058 57.3715,9.985504 C 44.42328,10.11368 37.36764,30.57243 52.00588,32.8405 C 57.15351,33.63808 63.35098,31.9133 65.54874,26.80649 C 67.50783,22.25441 63.57308,16.19102 58.28362,16.80077 C 51.38996,17.59552 55.05321,24.64157 57.3715,27.76321 z" />
        <path
           style="fill:#ffffff"
           id="path2896"
           d="M 73.21464,10.89928 C 77.74805,14.1714 80.42045,20.02633 80.47395,24.9172 C 80.67065,42.8764 60.99718,52.12807 63.90473,71.4234 C 66.31206,87.39919 88.1272,93.00941 96.24566,77.55283 C 102.8299,65.01756 85.59602,50.32248 77.06655,63.56403 C 74.50263,67.54426 74.445,73.95325 78.15746,77.28678 C 81.56236,80.3442 88.30049,79.50556 89.90167,74.85135 C 92.13784,68.35171 84.5868,68.29205 80.63764,69.66845 C 84.77122,64.559 93.61197,65.26835 93.96583,73.17835 C 94.61852,87.77012 72.32053,84.58696 70.97307,71.4234 C 69.28597,52.07086 97.28015,46.83149 100.916,70.22293 C 108.7892,47.28788 98.12712,20.79383 73.21464,10.89928 z" />
        <path
           style="fill:#ffffff"
           id="path2898"
           d="M 29.79359,66.77673 C 34.27921,71.15189 29.57453,77.80548 23.53313,77.01401 C 8.920531,75.09941 17.30264,52.59209 31.58329,56.81641 C 43.57895,60.36484 48.46471,74.61052 37.39976,83.49686 C 31.42313,87.61887 24.52385,88.34091 19.38784,84.34715 C 34.87921,104.6796 67.82317,109.126 88.45577,89.39819 C 82.29923,91.25076 70.82304,91.62292 63.89178,84.31274 C 53.66991,73.53203 54.40986,58.2621 38.7421,51.81976 C 22.14915,44.99695 4.387553,63.22281 17.01503,78.01872 C 25.81356,88.32817 45.7911,78.62679 37.19615,65.91278 C 34.452,61.85356 28.61131,59.10461 23.69876,61.16386 C 19.93976,62.73964 18.52474,69.37241 21.50933,72.267 C 25.89338,76.51901 29.50285,70.54565 29.79359,66.77673 z" />
      </g>
      <rect
         rx="26.063765"
         ry="6.37362"
         y="590.93817"
         x="670.59204"
         height="137.03284"
         width="285.07239"
         id="rect2900"
         style="fill:#ffffff;fill-opacity:1;stroke:#000000;stroke-width:0.98293191;stroke-miterlimit:4;stroke-dasharray:none;stroke-opacity:1;display:inline" />
      <path
         id="path2902"
         d="M 674.35607,739.9209 C 662.34199,736.65835 663.32516,745.42363 663.73098,645.19403 L 664.09253,555.89959 L 669.71194,553.09254 C 675.21723,550.34248 678.14103,550.28547 813.70906,550.28547 C 944.5124,550.28547 952.45204,550.42628 958.75982,552.85774 L 965.43286,555.42998 L 965.43286,645.68901 L 965.43286,735.94805 L 959.46224,738.55662 C 953.79277,741.03362 946.61893,741.17898 817.22119,741.43849 C 710.41148,741.65276 679.52502,741.32465 674.35609,739.92095 L 674.35607,739.9209 z M 951.7498,726.14297 L 957.03223,723.75251 L 956.66678,659.49402 L 956.30134,595.23562 L 952.08678,593.11174 C 948.41136,591.25947 930.62012,590.98777 813.00663,590.98777 C 695.39381,590.98777 677.60188,591.25948 673.92648,593.11169 L 669.71194,595.23562 L 669.32188,656.97214 C 669.10736,690.92729 669.26512,720.08075 669.67248,721.75763 C 670.38888,724.70688 674.77903,726.8477 683.05801,728.28495 C 684.98968,728.62031 745.04702,728.81339 816.51876,728.71405 C 935.678,728.54846 946.90598,728.33497 951.74979,726.14295 L 951.7498,726.14297 z M 949.77578,582.67188 C 959.63909,577.57614 959.27404,562.13659 949.17707,557.34977 C 945.0638,555.39972 929.7153,555.19719 811.10687,555.52772 L 677.66438,555.89959 L 674.11221,559.23382 C 669.63458,563.43671 668.3249,569.22378 670.41763,575.55886 C 673.55821,585.06588 665.50802,584.55358 812.72519,584.6157 C 925.32334,584.66321 946.50275,584.36281 949.77576,582.67187 L 949.77578,582.67188 z"
         style="fill:#b3b3b3;fill-opacity:1;stroke:none;stroke-width:8;stroke-miterlimit:4;stroke-dasharray:none;stroke-opacity:1;display:inline" />
    </g>
    <path
       style="fill-rule:evenodd;stroke:#000000;stroke-width:2.65163398"
       id="path3162"
       d="M 122.36917,37.176458 C 122.36917,31.569755 118.2295,27.024625 113.12296,27.024625 C 108.01642,27.024625 103.87675,31.569755 103.87675,37.176458 C 103.87675,42.78316 108.01642,47.32829 113.12296,47.32829 C 118.2295,47.32829 122.36917,42.78316 122.36917,37.176458 L 122.36917,37.176458 z" />
    <path
       style="fill:#ffffff"
       id="path3164"
       d="M 113.32601,31.476501 C 111.85933,31.029223 111.58911,29.116375 113.15579,28.48611 C 115.39837,27.583938 116.43101,31.019144 114.99846,32.519907 C 113.32857,34.26932 110.24157,33.491009 109.71672,30.924558 C 109.47777,29.756186 110.19152,28.217737 111.01674,27.554009 C 105.75207,29.097257 103.77133,34.195351 104.16355,38.283761 C 104.84941,37.192653 105.31318,36.166988 106.49058,35.58892 C 109.36238,34.178988 112.232,36.648212 115.03473,34.48676 C 117.67798,32.448274 116.96192,27.709543 113.32601,27.749055 C 110.85334,27.775929 109.50596,32.065509 112.30136,32.541055 C 113.28438,32.708283 114.46788,32.346649 114.88758,31.275906 C 115.2617,30.321472 114.5103,29.050163 113.50019,29.178009 C 112.18374,29.344644 112.88329,30.821988 113.32601,31.476501 z" />
    <path
       style="fill:#ffffff"
       id="path3166"
       d="M 116.3515,27.940646 C 117.21723,28.62671 117.72756,29.854312 117.73778,30.879779 C 117.77534,34.645279 114.01839,36.585074 114.57363,40.63072 C 115.03335,43.980359 119.19928,45.156652 120.74963,41.915876 C 122.00699,39.287609 118.71592,36.206496 117.08708,38.982848 C 116.59746,39.817382 116.58646,41.161153 117.29541,41.860093 C 117.94563,42.501141 119.23238,42.325304 119.53815,41.349457 C 119.96518,39.98668 118.52319,39.974171 117.76904,40.26276 C 118.55841,39.191463 120.24669,39.340192 120.31426,40.99868 C 120.4389,44.058132 116.18076,43.39072 115.92344,40.63072 C 115.60126,36.573079 120.94718,35.474541 121.6415,40.379018 C 123.14501,35.570233 121.10892,30.015233 116.3515,27.940646 z" />
    <path
       style="fill-rule:evenodd;stroke:#000000;stroke-width:2.65163398"
       id="path3183"
       d="M 505.23622,37.176458 C 505.23622,31.569755 501.09655,27.024625 495.99001,27.024625 C 490.88347,27.024625 486.7438,31.569755 486.7438,37.176458 C 486.7438,42.78316 490.88347,47.32829 495.99001,47.32829 C 501.09655,47.32829 505.23622,42.78316 505.23622,37.176458 L 505.23622,37.176458 z" />
    <path
       style="fill:#ffffff"
       id="path3185"
       d="M 496.19306,31.476501 C 494.72638,31.029223 494.45616,29.116375 496.02284,28.48611 C 498.26542,27.583938 499.29806,31.019144 497.86551,32.519907 C 496.19562,34.26932 493.10862,33.491009 492.58377,30.924558 C 492.34482,29.756186 493.05857,28.217737 493.88379,27.554009 C 488.61912,29.097257 486.63838,34.195351 487.0306,38.283761 C 487.71646,37.192653 488.18023,36.166988 489.35763,35.58892 C 492.22943,34.178988 495.09905,36.648212 497.90178,34.48676 C 500.54503,32.448274 499.82897,27.709543 496.19306,27.749055 C 493.72039,27.775929 492.37301,32.065509 495.16841,32.541055 C 496.15143,32.708283 497.33493,32.346649 497.75463,31.275906 C 498.12875,30.321472 497.37735,29.050163 496.36724,29.178009 C 495.05079,29.344644 495.75034,30.821988 496.19306,31.476501 z" />
    <path
       style="fill:#ffffff"
       id="path3187"
       d="M 499.21855,27.940646 C 500.08428,28.62671 500.59461,29.854312 500.60483,30.879779 C 500.64239,34.645279 496.88544,36.585074 497.44068,40.63072 C 497.9004,43.980359 502.06633,45.156652 503.61668,41.915876 C 504.87404,39.287609 501.58297,36.206496 499.95413,38.982848 C 499.46451,39.817382 499.45351,41.161153 500.16246,41.860093 C 500.81268,42.501141 502.09943,42.325304 502.4052,41.349457 C 502.83223,39.98668 501.39024,39.974171 500.63609,40.26276 C 501.42546,39.191463 503.11374,39.340192 503.18131,40.99868 C 503.30595,44.058132 499.04781,43.39072 498.79049,40.63072 C 498.46831,36.573079 503.81423,35.474541 504.50855,40.379018 C 506.01206,35.570233 503.97597,30.015233 499.21855,27.940646 z" />
    <path
       style="fill-rule:evenodd;stroke:#000000;stroke-width:2.65163398"
       id="path3193"
       d="M 888.10329,37.176458 C 888.10329,31.569755 883.96362,27.024625 878.85708,27.024625 C 873.75054,27.024625 869.61087,31.569755 869.61087,37.176458 C 869.61087,42.78316 873.75054,47.32829 878.85708,47.32829 C 883.96362,47.32829 888.10329,42.78316 888.10329,37.176458 L 888.10329,37.176458 z" />
    <path
       style="fill:#ffffff"
       id="path3195"
       d="M 879.06013,31.476501 C 877.59345,31.029223 877.32323,29.116375 878.88991,28.48611 C 881.13249,27.583938 882.16513,31.019144 880.73258,32.519907 C 879.06269,34.26932 875.97569,33.491009 875.45084,30.924558 C 875.21189,29.756186 875.92564,28.217737 876.75086,27.554009 C 871.48619,29.097257 869.50545,34.195351 869.89767,38.283761 C 870.58353,37.192653 871.0473,36.166988 872.2247,35.58892 C 875.0965,34.178988 877.96612,36.648212 880.76885,34.48676 C 883.4121,32.448274 882.69604,27.709543 879.06013,27.749055 C 876.58746,27.775929 875.24008,32.065509 878.03548,32.541055 C 879.0185,32.708283 880.202,32.346649 880.6217,31.275906 C 880.99582,30.321472 880.24442,29.050163 879.23431,29.178009 C 877.91786,29.344644 878.61741,30.821988 879.06013,31.476501 z" />
    <path
       style="fill:#ffffff"
       id="path3197"
       d="M 882.08562,27.940646 C 882.95135,28.62671 883.46168,29.854312 883.4719,30.879779 C 883.50946,34.645279 879.75251,36.585074 880.30775,40.63072 C 880.76747,43.980359 884.9334,45.156652 886.48375,41.915876 C 887.74111,39.287609 884.45004,36.206496 882.8212,38.982848 C 882.33158,39.817382 882.32058,41.161153 883.02953,41.860093 C 883.67975,42.501141 884.9665,42.325304 885.27227,41.349457 C 885.6993,39.98668 884.25731,39.974171 883.50316,40.26276 C 884.29253,39.191463 885.98081,39.340192 886.04838,40.99868 C 886.17302,44.058132 881.91488,43.39072 881.65756,40.63072 C 881.33538,36.573079 886.6813,35.474541 887.37562,40.379018 C 888.87913,35.570233 886.84304,30.015233 882.08562,27.940646 z" />
    <g
       style="display:inline"
       id="g2590"
       transform="translate(318.35205,0)">
      <path
         style="fill:none;fill-opacity:1;stroke:#000000;stroke-width:0.98293191;stroke-miterlimit:4;stroke-opacity:1;display:inline"
         d="M 53.19709,548.67501 L 302.37661,548.67501 C 317.82227,548.67501 330.25685,552.70465 330.25685,557.71007 L 330.25685,733.89391 C 330.25685,738.89933 317.82227,742.92898 302.37661,742.92898 L 53.19709,742.92898 C 37.75144,742.92898 25.31685,738.89933 25.31685,733.89391 L 25.31685,557.71007 C 25.31685,552.70465 37.75144,548.67501 53.19709,548.67501 z"
         id="path2592" />
      <rect
         style="fill:#ffffff;fill-opacity:1;stroke:#000000;stroke-width:0.98293191;stroke-miterlimit:4;stroke-dasharray:none;stroke-opacity:1;display:inline"
         id="rect2594"
         width="285.77231"
         height="26.795979"
         x="33.474327"
         y="556.76758"
         rx="11.819449"
         ry="26.795979" />
      <g
         transform="matrix(0.1909655,0,0,0.2096697,34.76098,558.48909)"
         id="g2596"
         style="display:inline">
        <path
           transform="matrix(0.954661,0,0,0.954661,47.02084,1.929386)"
           style="fill-rule:evenodd;stroke:#000000;stroke-width:13.88094711"
           id="path2598"
           d="M 60.446161,55.537231 C 60.446161,27.526618 37.739073,4.8195294 9.72846,4.8195294 C -18.282153,4.8195294 -40.989241,27.526618 -40.989241,55.537231 C -40.989241,83.547844 -18.282153,106.25493 9.72846,106.25493 C 37.739073,106.25493 60.446161,83.547844 60.446161,55.537231 L 60.446161,55.537231 z" />
        <path
           style="fill:#ffffff"
           id="path2600"
           d="M 57.3715,27.76321 C 49.69117,25.62996 48.27614,16.50681 56.48014,13.50082 C 68.22353,9.197998 73.63102,25.58189 66.1294,32.73964 C 57.38492,41.0833 41.21971,37.37122 38.47127,25.13077 C 37.22,19.55833 40.95759,12.22084 45.27893,9.055252 C 17.7102,16.41563 7.337985,40.73051 9.391875,60.2298 C 12.98337,55.02586 15.41195,50.13405 21.57747,47.37701 C 36.6158,40.65247 51.64266,52.4292 66.31929,42.12036 C 80.16084,32.39799 76.41115,9.797058 57.3715,9.985504 C 44.42328,10.11368 37.36764,30.57243 52.00588,32.8405 C 57.15351,33.63808 63.35098,31.9133 65.54874,26.80649 C 67.50783,22.25441 63.57308,16.19102 58.28362,16.80077 C 51.38996,17.59552 55.05321,24.64157 57.3715,27.76321 z" />
        <path
           style="fill:#ffffff"
           id="path2602"
           d="M 73.21464,10.89928 C 77.74805,14.1714 80.42045,20.02633 80.47395,24.9172 C 80.67065,42.8764 60.99718,52.12807 63.90473,71.4234 C 66.31206,87.39919 88.1272,93.00941 96.24566,77.55283 C 102.8299,65.01756 85.59602,50.32248 77.06655,63.56403 C 74.50263,67.54426 74.445,73.95325 78.15746,77.28678 C 81.56236,80.3442 88.30049,79.50556 89.90167,74.85135 C 92.13784,68.35171 84.5868,68.29205 80.63764,69.66845 C 84.77122,64.559 93.61197,65.26835 93.96583,73.17835 C 94.61852,87.77012 72.32053,84.58696 70.97307,71.4234 C 69.28597,52.07086 97.28015,46.83149 100.916,70.22293 C 108.7892,47.28788 98.12712,20.79383 73.21464,10.89928 z" />
        <path
           style="fill:#ffffff"
           id="path2604"
           d="M 29.79359,66.77673 C 34.27921,71.15189 29.57453,77.80548 23.53313,77.01401 C 8.920531,75.09941 17.30264,52.59209 31.58329,56.81641 C 43.57895,60.36484 48.46471,74.61052 37.39976,83.49686 C 31.42313,87.61887 24.52385,88.34091 19.38784,84.34715 C 34.87921,104.6796 67.82317,109.126 88.45577,89.39819 C 82.29923,91.25076 70.82304,91.62292 63.89178,84.31274 C 53.66991,73.53203 54.40986,58.2621 38.7421,51.81976 C 22.14915,44.99695 4.387553,63.22281 17.01503,78.01872 C 25.81356,88.32817 45.7911,78.62679 37.19615,65.91278 C 34.452,61.85356 28.61131,59.10461 23.69876,61.16386 C 19.93976,62.73964 18.52474,69.37241 21.50933,72.267 C 25.89338,76.51901 29.50285,70.54565 29.79359,66.77673 z" />
      </g>
      <rect
         rx="26.063765"
         ry="6.37362"
         y="590.93817"
         x="33.887932"
         height="137.03284"
         width="285.07239"
         id="rect2606"
         style="fill:#ffffff;fill-opacity:1;stroke:#000000;stroke-width:0.98293191;stroke-miterlimit:4;stroke-dasharray:none;stroke-opacity:1;display:inline" />
      <path
         id="path2608"
         d="M 37.65198,739.9209 C 25.6379,736.65835 26.62107,745.42363 27.02689,645.19403 L 27.38844,555.89959 L 33.00785,553.09254 C 38.51314,550.34248 41.43694,550.28547 177.00497,550.28547 C 307.80831,550.28547 315.74795,550.42628 322.05573,552.85774 L 328.72877,555.42998 L 328.72877,645.68901 L 328.72877,735.94805 L 322.75815,738.55662 C 317.08868,741.03362 309.91484,741.17898 180.5171,741.43849 C 73.70739,741.65276 42.82093,741.32465 37.652,739.92095 L 37.65198,739.9209 z M 315.04571,726.14297 L 320.32814,723.75251 L 319.96269,659.49402 L 319.59725,595.23562 L 315.38269,593.11174 C 311.70727,591.25947 293.91603,590.98777 176.30254,590.98777 C 58.68972,590.98777 40.89779,591.25948 37.22239,593.11169 L 33.00785,595.23562 L 32.61779,656.97214 C 32.40327,690.92729 32.56103,720.08075 32.96839,721.75763 C 33.68479,724.70688 38.07494,726.8477 46.35392,728.28495 C 48.28559,728.62031 108.34293,728.81339 179.81467,728.71405 C 298.97391,728.54846 310.20189,728.33497 315.0457,726.14295 L 315.04571,726.14297 z M 313.07169,582.67188 C 322.935,577.57614 322.56995,562.13659 312.47298,557.34977 C 308.35971,555.39972 293.01121,555.19719 174.40278,555.52772 L 40.96029,555.89959 L 37.40812,559.23382 C 32.93049,563.43671 31.62081,569.22378 33.71354,575.55886 C 36.85412,585.06588 28.80393,584.55358 176.0211,584.6157 C 288.61925,584.66321 309.79866,584.36281 313.07167,582.67187 L 313.07169,582.67188 z"
         style="fill:#b3b3b3;fill-opacity:1;stroke:none;stroke-width:8;stroke-miterlimit:4;stroke-dasharray:none;stroke-opacity:1;display:inline" />
    </g>
    <g
       id="g2662">
      <rect
         ry="10.332167"
         rx="32.412838"
         y="73.072868"
         x="38.596706"
         height="453.13992"
         width="916.71136"
         id="rect2610"
         style="fill:#ffffff;fill-opacity:1;stroke:#000000;stroke-width:1.43149662" />
      <rect
         ry="10.852113"
         rx="33.21912"
         y="61.67115"
         x="27.19499"
         height="475.94339"
         width="939.51477"
         id="rect2612"
         style="fill:none;fill-opacity:1;stroke:#000000;stroke-width:1.48520815;display:inline" />
      <path
         id="path2660"
         d="M 44.803958,534.92384 C 37.841958,533.34668 32.474915,531.21535 30.505186,529.24562 C 28.635672,527.37606 28.375386,499.28812 28.375386,299.39365 L 28.375386,71.671493 L 32.001829,69.29535 C 41.803358,62.873136 26.419872,63.078822 496.94681,63.078822 C 967.47381,63.078808 952.09024,62.873136 961.89181,69.295365 L 965.51824,71.671493 L 965.51824,300.29031 L 965.51824,528.90918 L 958.73253,532.04306 L 951.94681,535.17705 L 499.80396,535.37411 C 251.12539,535.48244 46.375386,535.27984 44.803958,534.92384 z M 945.9681,524.72286 C 948.96553,523.69206 952.66196,521.60469 954.18239,520.08429 C 956.89181,517.37485 956.94639,512.99761 956.92496,299.81991 C 956.91296,180.19491 956.43081,81.606036 955.85353,80.733522 C 954.00596,77.940965 946.4191,74.774093 937.7271,73.167293 C 925.77081,70.957036 68.122901,70.957036 56.166572,73.167293 C 47.474544,74.774093 39.887672,77.940965 38.040115,80.733522 C 37.462844,81.606036 36.980715,180.19491 36.968686,299.81991 C 36.947186,513.46642 36.996101,517.36919 39.728601,520.10169 C 41.258558,521.63165 45.276444,523.59488 48.657172,524.46436 C 52.037872,525.33388 55.446815,526.28342 56.232529,526.57454 C 57.018244,526.86571 256.30396,526.98982 499.08967,526.85045 C 859.11524,526.64378 941.52324,526.25145 945.9681,524.72286 z"
         style="opacity:1;fill:#999999;fill-opacity:1;stroke:none" />
    </g>
  </g>
  <g
     inkscape:groupmode="layer"
     id="layer3"
     inkscape:label="index"
     style="display:inline">
    <text
       xml:space="preserve"
       style="font-size:10px;font-style:normal;font-variant:normal;font-weight:normal;font-stretch:normal;text-align:center;line-height:100%;writing-mode:lr-tb;text-anchor:middle;opacity:1;fill:#000000;fill-opacity:1;fill-rule:nonzero;stroke:none;stroke-width:1px;stroke-linecap:butt;stroke-linejoin:miter;marker:none;marker-start:none;marker-mid:none;marker-end:none;stroke-miterlimit:4;stroke-dasharray:none;stroke-dashoffset:0;stroke-opacity:1;visibility:visible;display:inline;overflow:visible;enable-background:accumulate;font-family:Hobo Std;-inkscape-font-specification:Hobo Std"
       x="934.46057"
       y="711.87952"
       id="text4964"
       sodipodi:linespacing="100%"><tspan
         sodipodi:role="line"
         id="tspan4966"
         x="934.46057"
         y="711.87952">4</tspan></text>
    <text
       xml:space="preserve"
       style="font-size:10px;font-style:normal;font-variant:normal;font-weight:normal;font-stretch:normal;text-align:center;line-height:100%;writing-mode:lr-tb;text-anchor:middle;fill:#000000;fill-opacity:1;fill-rule:nonzero;stroke:none;stroke-width:1px;stroke-linecap:butt;stroke-linejoin:miter;marker:none;marker-start:none;marker-mid:none;marker-end:none;stroke-miterlimit:4;stroke-dasharray:none;stroke-dashoffset:0;stroke-opacity:1;visibility:visible;display:inline;overflow:visible;enable-background:accumulate;font-family:Hobo Std;-inkscape-font-specification:Hobo Std"
       x="291.9884"
       y="711.95374"
       id="text4956"
       sodipodi:linespacing="100%"><tspan
         sodipodi:role="line"
         id="tspan4958"
         x="291.9884"
         y="711.95374">2</tspan></text>
    <text
       xml:space="preserve"
       style="font-size:10px;font-style:normal;font-variant:normal;font-weight:normal;font-stretch:normal;text-align:center;line-height:100%;writing-mode:lr-tb;text-anchor:middle;fill:#000000;fill-opacity:1;fill-rule:nonzero;stroke:none;stroke-width:1px;stroke-linecap:butt;stroke-linejoin:miter;marker:none;marker-start:none;marker-mid:none;marker-end:none;stroke-miterlimit:4;stroke-dasharray:none;stroke-dashoffset:0;stroke-opacity:1;visibility:visible;display:inline;overflow:visible;enable-background:accumulate;font-family:Hobo Std;-inkscape-font-specification:Hobo Std"
       x="935.73505"
       y="503.59265"
       id="text3220"
       sodipodi:linespacing="100%"><tspan
         sodipodi:role="line"
         id="tspan3222"
         x="935.73505"
         y="503.59265">1</tspan></text>
    <text
       xml:space="preserve"
       style="font-size:10px;font-style:normal;font-variant:normal;font-weight:normal;font-stretch:normal;text-align:center;line-height:100%;writing-mode:lr-tb;text-anchor:middle;opacity:1;fill:#000000;fill-opacity:1;fill-rule:nonzero;stroke:none;stroke-width:1px;stroke-linecap:butt;stroke-linejoin:miter;marker:none;marker-start:none;marker-mid:none;marker-end:none;stroke-miterlimit:4;stroke-dasharray:none;stroke-dashoffset:0;stroke-opacity:1;visibility:visible;display:inline;overflow:visible;enable-background:accumulate;font-family:Hobo Std;-inkscape-font-specification:Hobo Std"
       x="609.98138"
       y="711.88654"
       id="text3746"
       sodipodi:linespacing="100%"><tspan
         sodipodi:role="line"
         id="tspan3748"
         x="609.98138"
         y="711.88654">3</tspan></text>
  </g>
  <g
     inkscape:label="Layer 1"
     inkscape:groupmode="layer"
     id="layer1"
     style="display:inline">
    <text
       xml:space="preserve"
       style="font-size:14px;font-style:normal;font-variant:normal;font-weight:normal;font-stretch:normal;text-align:start;line-height:125%;writing-mode:lr-tb;text-anchor:start;fill:#000000;fill-opacity:1;stroke:none;stroke-width:1px;stroke-linecap:butt;stroke-linejoin:miter;stroke-opacity:1;font-family:Bitstream Vera Sans;-inkscape-font-specification:Bitstream Vera Sans"
       x="-75.761444"
       y="-59.284477"
       id="text6566"
       sodipodi:linespacing="125%"><tspan
         sodipodi:role="line"
         id="tspan6568"
         x="-75.761444"
         y="-59.284477" /></text>
  </g>
</svg>
