<?xml version="1.0" encoding="UTF-8" standalone="no"?>
<!-- Created with Inkscape (http://www.inkscape.org/) -->
<svg
   xmlns:dc="http://purl.org/dc/elements/1.1/"
   xmlns:cc="http://creativecommons.org/ns#"
   xmlns:rdf="http://www.w3.org/1999/02/22-rdf-syntax-ns#"
   xmlns:svg="http://www.w3.org/2000/svg"
   xmlns="http://www.w3.org/2000/svg"
   xmlns:xlink="http://www.w3.org/1999/xlink"
   xmlns:sodipodi="http://sodipodi.sourceforge.net/DTD/sodipodi-0.dtd"
   xmlns:inkscape="http://www.inkscape.org/namespaces/inkscape"
   width="990"
   height="765"
   id="svg2407"
   sodipodi:version="0.32"
   inkscape:version="0.46"
   version="1.0"
   sodipodi:docname="template_form3.svg"
   inkscape:output_extension="org.inkscape.output.svg.inkscape"
   inkscape:export-filename="I:\_wip\src\notebook\digital\0219\template_form3.png"
   inkscape:export-xdpi="90"
   inkscape:export-ydpi="90">
  <defs
     id="defs2409">
    <inkscape:perspective
       sodipodi:type="inkscape:persp3d"
       inkscape:vp_x="0 : 526.18109 : 1"
       inkscape:vp_y="0 : 1000 : 0"
       inkscape:vp_z="744.09448 : 526.18109 : 1"
       inkscape:persp3d-origin="372.04724 : 350.78739 : 1"
       id="perspective2415" />
    <linearGradient
       y2="140.45406"
       y1="17.152563"
       xlink:href="#linearGradient8301"
       x2="146.39938"
       x1="22.029089"
       id="linearGradient9086"
       gradientUnits="userSpaceOnUse"
       gradientTransform="scale(0.855373,1.169081)" />
    <linearGradient
       y2="18.728254"
       y1="146.6171"
       xlink:href="#linearGradient8301"
       x2="36.519855"
       x1="138.23376"
       id="linearGradient8318"
       gradientUnits="userSpaceOnUse"
       gradientTransform="scale(0.854242,1.170628)" />
    <linearGradient
       y2="128.69501"
       y1="63.099518"
       xlink:href="#linearGradient2060"
       x2="109"
       x1="2"
       id="linearGradient6794"
       gradientUnits="userSpaceOnUse"
       gradientTransform="translate(0,-1)" />
    <linearGradient
       y2="128.69501"
       y1="63.099518"
       xlink:href="#linearGradient2060"
       x2="109"
       x1="2"
       id="linearGradient6792"
       gradientUnits="userSpaceOnUse"
       gradientTransform="translate(0,-1)" />
    <linearGradient
       y2="128.69501"
       y1="63.099518"
       xlink:href="#linearGradient2060"
       x2="109"
       x1="2"
       id="linearGradient6790"
       gradientUnits="userSpaceOnUse"
       gradientTransform="translate(0,-1)" />
    <linearGradient
       y2="128.69501"
       y1="63.099518"
       xlink:href="#linearGradient2060"
       x2="109"
       x1="2"
       id="linearGradient6788"
       gradientUnits="userSpaceOnUse"
       gradientTransform="translate(0,-1)" />
    <linearGradient
       y2="128.69501"
       y1="63.099518"
       xlink:href="#linearGradient2060"
       x2="109"
       x1="2"
       id="linearGradient4853"
       gradientUnits="userSpaceOnUse"
       gradientTransform="translate(0,-1)" />
    <linearGradient
       id="linearGradient2060">
      <stop
         style="stop-color:#ebf0d0;stop-opacity:1.0000000;"
         offset="0.0000000"
         id="stop2062" />
      <stop
         style="stop-color:#ffffeb;stop-opacity:1.0000000;"
         offset="1.0000000"
         id="stop2064" />
    </linearGradient>
    <linearGradient
       id="linearGradient8301">
      <stop
         style="stop-color:#000086;stop-opacity:1.0000000;"
         offset="0.0000000"
         id="stop8314" />
      <stop
         style="stop-color:#005aff;stop-opacity:1.0000000;"
         offset="1.0000000"
         id="stop8316" />
    </linearGradient>
    <inkscape:perspective
       id="perspective3084"
       inkscape:persp3d-origin="70 : 63.333333 : 1"
       inkscape:vp_z="140 : 95 : 1"
       inkscape:vp_y="0 : 1000 : 0"
       inkscape:vp_x="0 : 95 : 1"
       sodipodi:type="inkscape:persp3d" />
    <inkscape:perspective
       id="perspective3489"
       inkscape:persp3d-origin="372.04724 : 350.78739 : 1"
       inkscape:vp_z="744.09448 : 526.18109 : 1"
       inkscape:vp_y="0 : 1000 : 0"
       inkscape:vp_x="0 : 526.18109 : 1"
       sodipodi:type="inkscape:persp3d" />
    <inkscape:perspective
       id="perspective3520"
       inkscape:persp3d-origin="372.04724 : 350.78739 : 1"
       inkscape:vp_z="744.09448 : 526.18109 : 1"
       inkscape:vp_y="0 : 1000 : 0"
       inkscape:vp_x="0 : 526.18109 : 1"
       sodipodi:type="inkscape:persp3d" />
    <inkscape:perspective
       id="perspective3603"
       inkscape:persp3d-origin="372.04724 : 350.78739 : 1"
       inkscape:vp_z="744.09448 : 526.18109 : 1"
       inkscape:vp_y="0 : 1000 : 0"
       inkscape:vp_x="0 : 526.18109 : 1"
       sodipodi:type="inkscape:persp3d" />
    <inkscape:perspective
       sodipodi:type="inkscape:persp3d"
       inkscape:vp_x="0 : 526.18109 : 1"
       inkscape:vp_y="0 : 1000 : 0"
       inkscape:vp_z="744.09448 : 526.18109 : 1"
       inkscape:persp3d-origin="372.04724 : 350.78739 : 1"
       id="perspective2390" />
    <inkscape:perspective
       id="perspective10"
       inkscape:persp3d-origin="372.04724 : 350.78739 : 1"
       inkscape:vp_z="744.09448 : 526.18109 : 1"
       inkscape:vp_y="0 : 1000 : 0"
       inkscape:vp_x="0 : 526.18109 : 1"
       sodipodi:type="inkscape:persp3d" />
    <inkscape:perspective
       sodipodi:type="inkscape:persp3d"
       inkscape:vp_x="0 : 526.18109 : 1"
       inkscape:vp_y="0 : 1000 : 0"
       inkscape:vp_z="744.09448 : 526.18109 : 1"
       inkscape:persp3d-origin="372.04724 : 350.78739 : 1"
       id="perspective2657" />
    <inkscape:perspective
       id="perspective3605"
       inkscape:persp3d-origin="372.04724 : 350.78739 : 1"
       inkscape:vp_z="744.09448 : 526.18109 : 1"
       inkscape:vp_y="0 : 1000 : 0"
       inkscape:vp_x="0 : 526.18109 : 1"
       sodipodi:type="inkscape:persp3d" />
  </defs>
  <sodipodi:namedview
     id="base"
     pagecolor="#ffffff"
     bordercolor="#666666"
     borderopacity="1.0"
     gridtolerance="10000"
     guidetolerance="10"
     objecttolerance="10"
     inkscape:pageopacity="0.0"
     inkscape:pageshadow="2"
     inkscape:zoom="0.49497475"
     inkscape:cx="737.15665"
     inkscape:cy="113.64389"
     inkscape:document-units="px"
     inkscape:current-layer="layer1"
     showgrid="false"
     inkscape:window-width="997"
     inkscape:window-height="855"
     inkscape:window-x="128"
     inkscape:window-y="83"
     showguides="true"
     inkscape:guide-bbox="true" />
  <metadata
     id="metadata2412">
    <rdf:RDF>
      <cc:Work
         rdf:about="">
        <dc:format>image/svg+xml</dc:format>
        <dc:type
           rdf:resource="http://purl.org/dc/dcmitype/StillImage" />
      </cc:Work>
    </rdf:RDF>
  </metadata>
  <g
     inkscape:groupmode="layer"
     id="layer4"
     inkscape:label="backbackground"
     sodipodi:insensitive="true"
     style="display:none">
    <path
       d="M 0,0 L 0,765 M 20,0 L 20,765 M 40,0 L 40,765 M 60,0 L 60,765 M 80,0 L 80,765 M 100,0 L 100,765 M 120,0 L 120,765 M 140,0 L 140,765 M 160,0 L 160,765 M 180,0 L 180,765 M 200,0 L 200,765 M 220,0 L 220,765 M 240,0 L 240,765 M 260,0 L 260,765 M 280,0 L 280,765 M 300,0 L 300,765 M 320,0 L 320,765 M 340,0 L 340,765 M 360,0 L 360,765 M 380,0 L 380,765 M 400,0 L 400,765 M 420,0 L 420,765 M 440,0 L 440,765 M 460,0 L 460,765 M 480,0 L 480,765 M 500,0 L 500,765 M 520,0 L 520,765 M 540,0 L 540,765 M 560,0 L 560,765 M 580,0 L 580,765 M 600,0 L 600,765 M 620,0 L 620,765 M 640,0 L 640,765 M 660,0 L 660,765 M 680,0 L 680,765 M 700,0 L 700,765 M 720,0 L 720,765 M 740,0 L 740,765 M 760,0 L 760,765 M 780,0 L 780,765 M 800,0 L 800,765 M 820,0 L 820,765 M 840,0 L 840,765 M 860,0 L 860,765 M 880,0 L 880,765 M 900,0 L 900,765 M 920,0 L 920,765 M 940,0 L 940,765 M 960,0 L 960,765 M 980,0 L 980,765 M 0,0 L 990,0 M 0,20 L 990,20 M 0,40 L 990,40 M 0,60 L 990,60 M 0,80 L 990,80 M 0,100 L 990,100 M 0,120 L 990,120 M 0,140 L 990,140 M 0,160 L 990,160 M 0,180 L 990,180 M 0,200 L 990,200 M 0,220 L 990,220 M 0,240 L 990,240 M 0,260 L 990,260 M 0,280 L 990,280 M 0,300 L 990,300 M 0,320 L 990,320 M 0,340 L 990,340 M 0,360 L 990,360 M 0,380 L 990,380 M 0,400 L 990,400 M 0,420 L 990,420 M 0,440 L 990,440 M 0,460 L 990,460 M 0,480 L 990,480 M 0,500 L 990,500 M 0,520 L 990,520 M 0,540 L 990,540 M 0,560 L 990,560 M 0,580 L 990,580 M 0,600 L 990,600 M 0,620 L 990,620 M 0,640 L 990,640 M 0,660 L 990,660 M 0,680 L 990,680 M 0,700 L 990,700 M 0,720 L 990,720 M 0,740 L 990,740 M 0,760 L 990,760"
       style="fill:none;fill-opacity:0.75;fill-rule:evenodd;stroke:#cccccc;stroke-width:1pt;stroke-linecap:butt;stroke-linejoin:miter;stroke-opacity:1;display:inline"
       id="path3207" />
  </g>
  <g
     inkscape:groupmode="layer"
     id="layer2"
     inkscape:label="background"
     style="display:inline"
     sodipodi:insensitive="true">
    <g
       id="g3659">
      <g
         id="g3637">
        <path
           id="path2907"
           d="M 372.40528,548.67501 L 621.5848,548.67501 C 637.03046,548.67501 649.46504,552.70465 649.46504,557.71007 L 649.46504,733.89391 C 649.46504,738.89933 637.03046,742.92898 621.5848,742.92898 L 372.40528,742.92898 C 356.95963,742.92898 344.52504,738.89933 344.52504,733.89391 L 344.52504,557.71007 C 344.52504,552.70465 356.95963,548.67501 372.40528,548.67501 z"
           style="fill:none;fill-opacity:1;stroke:#000000;stroke-width:0.98293191;stroke-miterlimit:4;stroke-opacity:1;display:inline" />
        <rect
           ry="26.795979"
           rx="11.819449"
           y="556.76758"
           x="352.68253"
           height="26.795979"
           width="285.77231"
           id="rect2911"
           style="fill:#ffffff;fill-opacity:1;stroke:#000000;stroke-width:0.98293191;stroke-miterlimit:4;stroke-dasharray:none;stroke-opacity:1;display:inline" />
        <g
           style="display:inline"
           id="g2913"
           transform="matrix(0.1909655,0,0,0.2096697,353.96917,558.48909)">
          <path
             d="M 60.446161,55.537231 C 60.446161,27.526618 37.739073,4.8195294 9.72846,4.8195294 C -18.282153,4.8195294 -40.989241,27.526618 -40.989241,55.537231 C -40.989241,83.547844 -18.282153,106.25493 9.72846,106.25493 C 37.739073,106.25493 60.446161,83.547844 60.446161,55.537231 L 60.446161,55.537231 z"
             id="path2915"
             style="fill-rule:evenodd;stroke:#000000;stroke-width:13.88094711"
             transform="matrix(0.954661,0,0,0.954661,47.02084,1.929386)" />
          <path
             d="M 57.3715,27.76321 C 49.69117,25.62996 48.27614,16.50681 56.48014,13.50082 C 68.22353,9.197998 73.63102,25.58189 66.1294,32.73964 C 57.38492,41.0833 41.21971,37.37122 38.47127,25.13077 C 37.22,19.55833 40.95759,12.22084 45.27893,9.055252 C 17.7102,16.41563 7.337985,40.73051 9.391875,60.2298 C 12.98337,55.02586 15.41195,50.13405 21.57747,47.37701 C 36.6158,40.65247 51.64266,52.4292 66.31929,42.12036 C 80.16084,32.39799 76.41115,9.797058 57.3715,9.985504 C 44.42328,10.11368 37.36764,30.57243 52.00588,32.8405 C 57.15351,33.63808 63.35098,31.9133 65.54874,26.80649 C 67.50783,22.25441 63.57308,16.19102 58.28362,16.80077 C 51.38996,17.59552 55.05321,24.64157 57.3715,27.76321 z"
             id="path2917"
             style="fill:#ffffff" />
          <path
             d="M 73.21464,10.89928 C 77.74805,14.1714 80.42045,20.02633 80.47395,24.9172 C 80.67065,42.8764 60.99718,52.12807 63.90473,71.4234 C 66.31206,87.39919 88.1272,93.00941 96.24566,77.55283 C 102.8299,65.01756 85.59602,50.32248 77.06655,63.56403 C 74.50263,67.54426 74.445,73.95325 78.15746,77.28678 C 81.56236,80.3442 88.30049,79.50556 89.90167,74.85135 C 92.13784,68.35171 84.5868,68.29205 80.63764,69.66845 C 84.77122,64.559 93.61197,65.26835 93.96583,73.17835 C 94.61852,87.77012 72.32053,84.58696 70.97307,71.4234 C 69.28597,52.07086 97.28015,46.83149 100.916,70.22293 C 108.7892,47.28788 98.12712,20.79383 73.21464,10.89928 z"
             id="path2919"
             style="fill:#ffffff" />
          <path
             d="M 29.79359,66.77673 C 34.27921,71.15189 29.57453,77.80548 23.53313,77.01401 C 8.920531,75.09941 17.30264,52.59209 31.58329,56.81641 C 43.57895,60.36484 48.46471,74.61052 37.39976,83.49686 C 31.42313,87.61887 24.52385,88.34091 19.38784,84.34715 C 34.87921,104.6796 67.82317,109.126 88.45577,89.39819 C 82.29923,91.25076 70.82304,91.62292 63.89178,84.31274 C 53.66991,73.53203 54.40986,58.2621 38.7421,51.81976 C 22.14915,44.99695 4.387553,63.22281 17.01503,78.01872 C 25.81356,88.32817 45.7911,78.62679 37.19615,65.91278 C 34.452,61.85356 28.61131,59.10461 23.69876,61.16386 C 19.93976,62.73964 18.52474,69.37241 21.50933,72.267 C 25.89338,76.51901 29.50285,70.54565 29.79359,66.77673 z"
             id="path2921"
             style="fill:#ffffff" />
        </g>
        <rect
           style="fill:#ffffff;fill-opacity:1;stroke:#000000;stroke-width:0.98293191;stroke-miterlimit:4;stroke-dasharray:none;stroke-opacity:1;display:inline"
           id="rect2925"
           width="285.07239"
           height="137.03284"
           x="353.09613"
           y="590.93817"
           ry="6.37362"
           rx="26.063765" />
        <path
           style="fill:#4d4d4d;fill-opacity:1;stroke:none;stroke-width:8;stroke-miterlimit:4;stroke-dasharray:none;stroke-opacity:1;display:inline"
           d="M 356.86017,739.9209 C 344.84609,736.65835 345.82926,745.42363 346.23508,645.19403 L 346.59663,555.89959 L 352.21604,553.09254 C 357.72133,550.34248 360.64513,550.28547 496.21316,550.28547 C 627.0165,550.28547 634.95614,550.42628 641.26392,552.85774 L 647.93696,555.42998 L 647.93696,645.68901 L 647.93696,735.94805 L 641.96634,738.55662 C 636.29687,741.03362 629.12303,741.17898 499.72529,741.43849 C 392.91558,741.65276 362.02912,741.32465 356.86019,739.92095 L 356.86017,739.9209 z M 634.2539,726.14297 L 639.53633,723.75251 L 639.17088,659.49402 L 638.80544,595.23562 L 634.59088,593.11174 C 630.91546,591.25947 613.12422,590.98777 495.51073,590.98777 C 377.89791,590.98777 360.10598,591.25948 356.43058,593.11169 L 352.21604,595.23562 L 351.82598,656.97214 C 351.61146,690.92729 351.76922,720.08075 352.17658,721.75763 C 352.89298,724.70688 357.28313,726.8477 365.56211,728.28495 C 367.49378,728.62031 427.55112,728.81339 499.02286,728.71405 C 618.1821,728.54846 629.41008,728.33497 634.25389,726.14295 L 634.2539,726.14297 z M 632.27988,582.67188 C 642.14319,577.57614 641.77814,562.13659 631.68117,557.34977 C 627.5679,555.39972 612.2194,555.19719 493.61097,555.52772 L 360.16848,555.89959 L 356.61631,559.23382 C 352.13868,563.43671 350.829,569.22378 352.92173,575.55886 C 356.06231,585.06588 348.01212,584.55358 495.22929,584.6157 C 607.82744,584.66321 629.00685,584.36281 632.27986,582.67187 L 632.27988,582.67188 z"
           id="path2937" />
      </g>
      <g
         id="g3648">
        <path
           id="path2866"
           d="M 53.19709,548.67501 L 302.37661,548.67501 C 317.82227,548.67501 330.25685,552.70465 330.25685,557.71007 L 330.25685,733.89391 C 330.25685,738.89933 317.82227,742.92898 302.37661,742.92898 L 53.19709,742.92898 C 37.75144,742.92898 25.31685,738.89933 25.31685,733.89391 L 25.31685,557.71007 C 25.31685,552.70465 37.75144,548.67501 53.19709,548.67501 z"
           style="fill:none;fill-opacity:1;stroke:#000000;stroke-width:0.98293191;stroke-miterlimit:4;stroke-opacity:1;display:inline" />
        <rect
           ry="26.795979"
           rx="11.819449"
           y="556.76758"
           x="33.474327"
           height="26.795979"
           width="285.77231"
           id="rect2868"
           style="fill:#ffffff;fill-opacity:1;stroke:#000000;stroke-width:0.98293191;stroke-miterlimit:4;stroke-dasharray:none;stroke-opacity:1;display:inline" />
        <g
           style="display:inline"
           id="g2870"
           transform="matrix(0.1909655,0,0,0.2096697,34.76098,558.48909)">
          <path
             d="M 60.446161,55.537231 C 60.446161,27.526618 37.739073,4.8195294 9.72846,4.8195294 C -18.282153,4.8195294 -40.989241,27.526618 -40.989241,55.537231 C -40.989241,83.547844 -18.282153,106.25493 9.72846,106.25493 C 37.739073,106.25493 60.446161,83.547844 60.446161,55.537231 L 60.446161,55.537231 z"
             id="path2872"
             style="fill-rule:evenodd;stroke:#000000;stroke-width:13.88094711"
             transform="matrix(0.954661,0,0,0.954661,47.02084,1.929386)" />
          <path
             d="M 57.3715,27.76321 C 49.69117,25.62996 48.27614,16.50681 56.48014,13.50082 C 68.22353,9.197998 73.63102,25.58189 66.1294,32.73964 C 57.38492,41.0833 41.21971,37.37122 38.47127,25.13077 C 37.22,19.55833 40.95759,12.22084 45.27893,9.055252 C 17.7102,16.41563 7.337985,40.73051 9.391875,60.2298 C 12.98337,55.02586 15.41195,50.13405 21.57747,47.37701 C 36.6158,40.65247 51.64266,52.4292 66.31929,42.12036 C 80.16084,32.39799 76.41115,9.797058 57.3715,9.985504 C 44.42328,10.11368 37.36764,30.57243 52.00588,32.8405 C 57.15351,33.63808 63.35098,31.9133 65.54874,26.80649 C 67.50783,22.25441 63.57308,16.19102 58.28362,16.80077 C 51.38996,17.59552 55.05321,24.64157 57.3715,27.76321 z"
             id="path2874"
             style="fill:#ffffff" />
          <path
             d="M 73.21464,10.89928 C 77.74805,14.1714 80.42045,20.02633 80.47395,24.9172 C 80.67065,42.8764 60.99718,52.12807 63.90473,71.4234 C 66.31206,87.39919 88.1272,93.00941 96.24566,77.55283 C 102.8299,65.01756 85.59602,50.32248 77.06655,63.56403 C 74.50263,67.54426 74.445,73.95325 78.15746,77.28678 C 81.56236,80.3442 88.30049,79.50556 89.90167,74.85135 C 92.13784,68.35171 84.5868,68.29205 80.63764,69.66845 C 84.77122,64.559 93.61197,65.26835 93.96583,73.17835 C 94.61852,87.77012 72.32053,84.58696 70.97307,71.4234 C 69.28597,52.07086 97.28015,46.83149 100.916,70.22293 C 108.7892,47.28788 98.12712,20.79383 73.21464,10.89928 z"
             id="path2876"
             style="fill:#ffffff" />
          <path
             d="M 29.79359,66.77673 C 34.27921,71.15189 29.57453,77.80548 23.53313,77.01401 C 8.920531,75.09941 17.30264,52.59209 31.58329,56.81641 C 43.57895,60.36484 48.46471,74.61052 37.39976,83.49686 C 31.42313,87.61887 24.52385,88.34091 19.38784,84.34715 C 34.87921,104.6796 67.82317,109.126 88.45577,89.39819 C 82.29923,91.25076 70.82304,91.62292 63.89178,84.31274 C 53.66991,73.53203 54.40986,58.2621 38.7421,51.81976 C 22.14915,44.99695 4.387553,63.22281 17.01503,78.01872 C 25.81356,88.32817 45.7911,78.62679 37.19615,65.91278 C 34.452,61.85356 28.61131,59.10461 23.69876,61.16386 C 19.93976,62.73964 18.52474,69.37241 21.50933,72.267 C 25.89338,76.51901 29.50285,70.54565 29.79359,66.77673 z"
             id="path2878"
             style="fill:#ffffff" />
        </g>
        <rect
           style="fill:#ffffff;fill-opacity:1;stroke:#000000;stroke-width:0.98293191;stroke-miterlimit:4;stroke-dasharray:none;stroke-opacity:1;display:inline"
           id="rect2880"
           width="285.07239"
           height="137.03284"
           x="33.887932"
           y="590.93817"
           ry="6.37362"
           rx="26.063765" />
        <path
           style="fill:#b3b3b3;fill-opacity:1;stroke:none;stroke-width:8;stroke-miterlimit:4;stroke-dasharray:none;stroke-opacity:1;display:inline"
           d="M 37.65198,739.9209 C 25.6379,736.65835 26.62107,745.42363 27.02689,645.19403 L 27.38844,555.89959 L 33.00785,553.09254 C 38.51314,550.34248 41.43694,550.28547 177.00497,550.28547 C 307.80831,550.28547 315.74795,550.42628 322.05573,552.85774 L 328.72877,555.42998 L 328.72877,645.68901 L 328.72877,735.94805 L 322.75815,738.55662 C 317.08868,741.03362 309.91484,741.17898 180.5171,741.43849 C 73.70739,741.65276 42.82093,741.32465 37.652,739.92095 L 37.65198,739.9209 z M 315.04571,726.14297 L 320.32814,723.75251 L 319.96269,659.49402 L 319.59725,595.23562 L 315.38269,593.11174 C 311.70727,591.25947 293.91603,590.98777 176.30254,590.98777 C 58.68972,590.98777 40.89779,591.25948 37.22239,593.11169 L 33.00785,595.23562 L 32.61779,656.97214 C 32.40327,690.92729 32.56103,720.08075 32.96839,721.75763 C 33.68479,724.70688 38.07494,726.8477 46.35392,728.28495 C 48.28559,728.62031 108.34293,728.81339 179.81467,728.71405 C 298.97391,728.54846 310.20189,728.33497 315.0457,726.14295 L 315.04571,726.14297 z M 313.07169,582.67188 C 322.935,577.57614 322.56995,562.13659 312.47298,557.34977 C 308.35971,555.39972 293.01121,555.19719 174.40278,555.52772 L 40.96029,555.89959 L 37.40812,559.23382 C 32.93049,563.43671 31.62081,569.22378 33.71354,575.55886 C 36.85412,585.06588 28.80393,584.55358 176.0211,584.6157 C 288.61925,584.66321 309.79866,584.36281 313.07167,582.67187 L 313.07169,582.67188 z"
           id="path2882" />
      </g>
      <g
         id="g2782">
        <path
           id="path2886"
           d="M 689.90118,548.67501 L 939.0807,548.67501 C 954.52636,548.67501 966.96094,552.70465 966.96094,557.71007 L 966.96094,733.89391 C 966.96094,738.89933 954.52636,742.92898 939.0807,742.92898 L 689.90118,742.92898 C 674.45553,742.92898 662.02094,738.89933 662.02094,733.89391 L 662.02094,557.71007 C 662.02094,552.70465 674.45553,548.67501 689.90118,548.67501 z"
           style="fill:none;fill-opacity:1;stroke:#000000;stroke-width:0.98293191;stroke-miterlimit:4;stroke-opacity:1;display:inline" />
        <rect
           ry="26.795979"
           rx="11.819449"
           y="556.76758"
           x="670.17841"
           height="26.795979"
           width="285.77231"
           id="rect2888"
           style="fill:#ffffff;fill-opacity:1;stroke:#000000;stroke-width:0.98293191;stroke-miterlimit:4;stroke-dasharray:none;stroke-opacity:1;display:inline" />
        <g
           style="display:inline"
           id="g2890"
           transform="matrix(0.1909655,0,0,0.2096697,671.46507,558.48909)">
          <path
             d="M 60.446161,55.537231 C 60.446161,27.526618 37.739073,4.8195294 9.72846,4.8195294 C -18.282153,4.8195294 -40.989241,27.526618 -40.989241,55.537231 C -40.989241,83.547844 -18.282153,106.25493 9.72846,106.25493 C 37.739073,106.25493 60.446161,83.547844 60.446161,55.537231 L 60.446161,55.537231 z"
             id="path2892"
             style="fill-rule:evenodd;stroke:#000000;stroke-width:13.88094711"
             transform="matrix(0.954661,0,0,0.954661,47.02084,1.929386)" />
          <path
             d="M 57.3715,27.76321 C 49.69117,25.62996 48.27614,16.50681 56.48014,13.50082 C 68.22353,9.197998 73.63102,25.58189 66.1294,32.73964 C 57.38492,41.0833 41.21971,37.37122 38.47127,25.13077 C 37.22,19.55833 40.95759,12.22084 45.27893,9.055252 C 17.7102,16.41563 7.337985,40.73051 9.391875,60.2298 C 12.98337,55.02586 15.41195,50.13405 21.57747,47.37701 C 36.6158,40.65247 51.64266,52.4292 66.31929,42.12036 C 80.16084,32.39799 76.41115,9.797058 57.3715,9.985504 C 44.42328,10.11368 37.36764,30.57243 52.00588,32.8405 C 57.15351,33.63808 63.35098,31.9133 65.54874,26.80649 C 67.50783,22.25441 63.57308,16.19102 58.28362,16.80077 C 51.38996,17.59552 55.05321,24.64157 57.3715,27.76321 z"
             id="path2894"
             style="fill:#ffffff" />
          <path
             d="M 73.21464,10.89928 C 77.74805,14.1714 80.42045,20.02633 80.47395,24.9172 C 80.67065,42.8764 60.99718,52.12807 63.90473,71.4234 C 66.31206,87.39919 88.1272,93.00941 96.24566,77.55283 C 102.8299,65.01756 85.59602,50.32248 77.06655,63.56403 C 74.50263,67.54426 74.445,73.95325 78.15746,77.28678 C 81.56236,80.3442 88.30049,79.50556 89.90167,74.85135 C 92.13784,68.35171 84.5868,68.29205 80.63764,69.66845 C 84.77122,64.559 93.61197,65.26835 93.96583,73.17835 C 94.61852,87.77012 72.32053,84.58696 70.97307,71.4234 C 69.28597,52.07086 97.28015,46.83149 100.916,70.22293 C 108.7892,47.28788 98.12712,20.79383 73.21464,10.89928 z"
             id="path2896"
             style="fill:#ffffff" />
          <path
             d="M 29.79359,66.77673 C 34.27921,71.15189 29.57453,77.80548 23.53313,77.01401 C 8.920531,75.09941 17.30264,52.59209 31.58329,56.81641 C 43.57895,60.36484 48.46471,74.61052 37.39976,83.49686 C 31.42313,87.61887 24.52385,88.34091 19.38784,84.34715 C 34.87921,104.6796 67.82317,109.126 88.45577,89.39819 C 82.29923,91.25076 70.82304,91.62292 63.89178,84.31274 C 53.66991,73.53203 54.40986,58.2621 38.7421,51.81976 C 22.14915,44.99695 4.387553,63.22281 17.01503,78.01872 C 25.81356,88.32817 45.7911,78.62679 37.19615,65.91278 C 34.452,61.85356 28.61131,59.10461 23.69876,61.16386 C 19.93976,62.73964 18.52474,69.37241 21.50933,72.267 C 25.89338,76.51901 29.50285,70.54565 29.79359,66.77673 z"
             id="path2898"
             style="fill:#ffffff" />
        </g>
        <rect
           style="fill:#ffffff;fill-opacity:1;stroke:#000000;stroke-width:0.98293191;stroke-miterlimit:4;stroke-dasharray:none;stroke-opacity:1;display:inline"
           id="rect2900"
           width="285.07239"
           height="137.03284"
           x="670.59204"
           y="590.93817"
           ry="6.37362"
           rx="26.063765" />
        <path
           style="fill:#b3b3b3;fill-opacity:1;stroke:none;stroke-width:8;stroke-miterlimit:4;stroke-dasharray:none;stroke-opacity:1;display:inline"
           d="M 674.35607,739.9209 C 662.34199,736.65835 663.32516,745.42363 663.73098,645.19403 L 664.09253,555.89959 L 669.71194,553.09254 C 675.21723,550.34248 678.14103,550.28547 813.70906,550.28547 C 944.5124,550.28547 952.45204,550.42628 958.75982,552.85774 L 965.43286,555.42998 L 965.43286,645.68901 L 965.43286,735.94805 L 959.46224,738.55662 C 953.79277,741.03362 946.61893,741.17898 817.22119,741.43849 C 710.41148,741.65276 679.52502,741.32465 674.35609,739.92095 L 674.35607,739.9209 z M 951.7498,726.14297 L 957.03223,723.75251 L 956.66678,659.49402 L 956.30134,595.23562 L 952.08678,593.11174 C 948.41136,591.25947 930.62012,590.98777 813.00663,590.98777 C 695.39381,590.98777 677.60188,591.25948 673.92648,593.11169 L 669.71194,595.23562 L 669.32188,656.97214 C 669.10736,690.92729 669.26512,720.08075 669.67248,721.75763 C 670.38888,724.70688 674.77903,726.8477 683.05801,728.28495 C 684.98968,728.62031 745.04702,728.81339 816.51876,728.71405 C 935.678,728.54846 946.90598,728.33497 951.74979,726.14295 L 951.7498,726.14297 z M 949.77578,582.67188 C 959.63909,577.57614 959.27404,562.13659 949.17707,557.34977 C 945.0638,555.39972 929.7153,555.19719 811.10687,555.52772 L 677.66438,555.89959 L 674.11221,559.23382 C 669.63458,563.43671 668.3249,569.22378 670.41763,575.55886 C 673.55821,585.06588 665.50802,584.55358 812.72519,584.6157 C 925.32334,584.66321 946.50275,584.36281 949.77576,582.67187 L 949.77578,582.67188 z"
           id="path2902" />
      </g>
    </g>
    <path
       style="fill-rule:evenodd;stroke:#000000;stroke-width:2.65163398"
       id="path3162"
       d="M 122.36917,37.176458 C 122.36917,31.569755 118.2295,27.024625 113.12296,27.024625 C 108.01642,27.024625 103.87675,31.569755 103.87675,37.176458 C 103.87675,42.78316 108.01642,47.32829 113.12296,47.32829 C 118.2295,47.32829 122.36917,42.78316 122.36917,37.176458 L 122.36917,37.176458 z" />
    <path
       style="fill:#ffffff"
       id="path3164"
       d="M 113.32601,31.476501 C 111.85933,31.029223 111.58911,29.116375 113.15579,28.48611 C 115.39837,27.583938 116.43101,31.019144 114.99846,32.519907 C 113.32857,34.26932 110.24157,33.491009 109.71672,30.924558 C 109.47777,29.756186 110.19152,28.217737 111.01674,27.554009 C 105.75207,29.097257 103.77133,34.195351 104.16355,38.283761 C 104.84941,37.192653 105.31318,36.166988 106.49058,35.58892 C 109.36238,34.178988 112.232,36.648212 115.03473,34.48676 C 117.67798,32.448274 116.96192,27.709543 113.32601,27.749055 C 110.85334,27.775929 109.50596,32.065509 112.30136,32.541055 C 113.28438,32.708283 114.46788,32.346649 114.88758,31.275906 C 115.2617,30.321472 114.5103,29.050163 113.50019,29.178009 C 112.18374,29.344644 112.88329,30.821988 113.32601,31.476501 z" />
    <path
       style="fill:#ffffff"
       id="path3166"
       d="M 116.3515,27.940646 C 117.21723,28.62671 117.72756,29.854312 117.73778,30.879779 C 117.77534,34.645279 114.01839,36.585074 114.57363,40.63072 C 115.03335,43.980359 119.19928,45.156652 120.74963,41.915876 C 122.00699,39.287609 118.71592,36.206496 117.08708,38.982848 C 116.59746,39.817382 116.58646,41.161153 117.29541,41.860093 C 117.94563,42.501141 119.23238,42.325304 119.53815,41.349457 C 119.96518,39.98668 118.52319,39.974171 117.76904,40.26276 C 118.55841,39.191463 120.24669,39.340192 120.31426,40.99868 C 120.4389,44.058132 116.18076,43.39072 115.92344,40.63072 C 115.60126,36.573079 120.94718,35.474541 121.6415,40.379018 C 123.14501,35.570233 121.10892,30.015233 116.3515,27.940646 z" />
    <path
       style="fill-rule:evenodd;stroke:#000000;stroke-width:2.65163398"
       id="path3183"
       d="M 505.23622,37.176458 C 505.23622,31.569755 501.09655,27.024625 495.99001,27.024625 C 490.88347,27.024625 486.7438,31.569755 486.7438,37.176458 C 486.7438,42.78316 490.88347,47.32829 495.99001,47.32829 C 501.09655,47.32829 505.23622,42.78316 505.23622,37.176458 L 505.23622,37.176458 z" />
    <path
       style="fill:#ffffff"
       id="path3185"
       d="M 496.19306,31.476501 C 494.72638,31.029223 494.45616,29.116375 496.02284,28.48611 C 498.26542,27.583938 499.29806,31.019144 497.86551,32.519907 C 496.19562,34.26932 493.10862,33.491009 492.58377,30.924558 C 492.34482,29.756186 493.05857,28.217737 493.88379,27.554009 C 488.61912,29.097257 486.63838,34.195351 487.0306,38.283761 C 487.71646,37.192653 488.18023,36.166988 489.35763,35.58892 C 492.22943,34.178988 495.09905,36.648212 497.90178,34.48676 C 500.54503,32.448274 499.82897,27.709543 496.19306,27.749055 C 493.72039,27.775929 492.37301,32.065509 495.16841,32.541055 C 496.15143,32.708283 497.33493,32.346649 497.75463,31.275906 C 498.12875,30.321472 497.37735,29.050163 496.36724,29.178009 C 495.05079,29.344644 495.75034,30.821988 496.19306,31.476501 z" />
    <path
       style="fill:#ffffff"
       id="path3187"
       d="M 499.21855,27.940646 C 500.08428,28.62671 500.59461,29.854312 500.60483,30.879779 C 500.64239,34.645279 496.88544,36.585074 497.44068,40.63072 C 497.9004,43.980359 502.06633,45.156652 503.61668,41.915876 C 504.87404,39.287609 501.58297,36.206496 499.95413,38.982848 C 499.46451,39.817382 499.45351,41.161153 500.16246,41.860093 C 500.81268,42.501141 502.09943,42.325304 502.4052,41.349457 C 502.83223,39.98668 501.39024,39.974171 500.63609,40.26276 C 501.42546,39.191463 503.11374,39.340192 503.18131,40.99868 C 503.30595,44.058132 499.04781,43.39072 498.79049,40.63072 C 498.46831,36.573079 503.81423,35.474541 504.50855,40.379018 C 506.01206,35.570233 503.97597,30.015233 499.21855,27.940646 z" />
    <path
       style="fill-rule:evenodd;stroke:#000000;stroke-width:2.65163398"
       id="path3193"
       d="M 888.10329,37.176458 C 888.10329,31.569755 883.96362,27.024625 878.85708,27.024625 C 873.75054,27.024625 869.61087,31.569755 869.61087,37.176458 C 869.61087,42.78316 873.75054,47.32829 878.85708,47.32829 C 883.96362,47.32829 888.10329,42.78316 888.10329,37.176458 L 888.10329,37.176458 z" />
    <path
       style="fill:#ffffff"
       id="path3195"
       d="M 879.06013,31.476501 C 877.59345,31.029223 877.32323,29.116375 878.88991,28.48611 C 881.13249,27.583938 882.16513,31.019144 880.73258,32.519907 C 879.06269,34.26932 875.97569,33.491009 875.45084,30.924558 C 875.21189,29.756186 875.92564,28.217737 876.75086,27.554009 C 871.48619,29.097257 869.50545,34.195351 869.89767,38.283761 C 870.58353,37.192653 871.0473,36.166988 872.2247,35.58892 C 875.0965,34.178988 877.96612,36.648212 880.76885,34.48676 C 883.4121,32.448274 882.69604,27.709543 879.06013,27.749055 C 876.58746,27.775929 875.24008,32.065509 878.03548,32.541055 C 879.0185,32.708283 880.202,32.346649 880.6217,31.275906 C 880.99582,30.321472 880.24442,29.050163 879.23431,29.178009 C 877.91786,29.344644 878.61741,30.821988 879.06013,31.476501 z" />
    <path
       style="fill:#ffffff"
       id="path3197"
       d="M 882.08562,27.940646 C 882.95135,28.62671 883.46168,29.854312 883.4719,30.879779 C 883.50946,34.645279 879.75251,36.585074 880.30775,40.63072 C 880.76747,43.980359 884.9334,45.156652 886.48375,41.915876 C 887.74111,39.287609 884.45004,36.206496 882.8212,38.982848 C 882.33158,39.817382 882.32058,41.161153 883.02953,41.860093 C 883.67975,42.501141 884.9665,42.325304 885.27227,41.349457 C 885.6993,39.98668 884.25731,39.974171 883.50316,40.26276 C 884.29253,39.191463 885.98081,39.340192 886.04838,40.99868 C 886.17302,44.058132 881.91488,43.39072 881.65756,40.63072 C 881.33538,36.573079 886.6813,35.474541 887.37562,40.379018 C 888.87913,35.570233 886.84304,30.015233 882.08562,27.940646 z" />
    <g
       id="g2967">
      <g
         id="g2883">
        <path
           id="path2646"
           d="M 372.47511,262.20202 L 621.51499,262.20202 C 636.95199,262.20202 649.3796,267.75782 649.3796,274.65895 L 649.3796,517.56929 C 649.3796,524.47043 636.95199,530.02623 621.51499,530.02623 L 372.47511,530.02623 C 357.03812,530.02623 344.6105,524.47043 344.6105,517.56929 L 344.6105,274.65895 C 344.6105,267.75782 357.03812,262.20202 372.47511,262.20202 z"
           style="fill:none;fill-opacity:1;stroke:#000000;stroke-width:1.15382957;stroke-miterlimit:4;stroke-opacity:1;display:inline" />
        <rect
           ry="26.795979"
           rx="11.819449"
           y="268.18884"
           x="352.68253"
           height="26.795979"
           width="285.77231"
           id="rect2648"
           style="fill:#ffffff;fill-opacity:1;stroke:#000000;stroke-width:0.98293191;stroke-miterlimit:4;stroke-dasharray:none;stroke-opacity:1;display:inline" />
        <g
           style="display:inline"
           id="g2650"
           transform="matrix(0.1909655,0,0,0.2096697,353.96918,269.91035)">
          <path
             d="M 60.446161,55.537231 C 60.446161,27.526618 37.739073,4.8195294 9.72846,4.8195294 C -18.282153,4.8195294 -40.989241,27.526618 -40.989241,55.537231 C -40.989241,83.547844 -18.282153,106.25493 9.72846,106.25493 C 37.739073,106.25493 60.446161,83.547844 60.446161,55.537231 L 60.446161,55.537231 z"
             id="path2652"
             style="fill-rule:evenodd;stroke:#000000;stroke-width:13.88094711"
             transform="matrix(0.954661,0,0,0.954661,47.02084,1.929386)" />
          <path
             d="M 57.3715,27.76321 C 49.69117,25.62996 48.27614,16.50681 56.48014,13.50082 C 68.22353,9.197998 73.63102,25.58189 66.1294,32.73964 C 57.38492,41.0833 41.21971,37.37122 38.47127,25.13077 C 37.22,19.55833 40.95759,12.22084 45.27893,9.055252 C 17.7102,16.41563 7.337985,40.73051 9.391875,60.2298 C 12.98337,55.02586 15.41195,50.13405 21.57747,47.37701 C 36.6158,40.65247 51.64266,52.4292 66.31929,42.12036 C 80.16084,32.39799 76.41115,9.797058 57.3715,9.985504 C 44.42328,10.11368 37.36764,30.57243 52.00588,32.8405 C 57.15351,33.63808 63.35098,31.9133 65.54874,26.80649 C 67.50783,22.25441 63.57308,16.19102 58.28362,16.80077 C 51.38996,17.59552 55.05321,24.64157 57.3715,27.76321 z"
             id="path2654"
             style="fill:#ffffff" />
          <path
             d="M 73.21464,10.89928 C 77.74805,14.1714 80.42045,20.02633 80.47395,24.9172 C 80.67065,42.8764 60.99718,52.12807 63.90473,71.4234 C 66.31206,87.39919 88.1272,93.00941 96.24566,77.55283 C 102.8299,65.01756 85.59602,50.32248 77.06655,63.56403 C 74.50263,67.54426 74.445,73.95325 78.15746,77.28678 C 81.56236,80.3442 88.30049,79.50556 89.90167,74.85135 C 92.13784,68.35171 84.5868,68.29205 80.63764,69.66845 C 84.77122,64.559 93.61197,65.26835 93.96583,73.17835 C 94.61852,87.77012 72.32053,84.58696 70.97307,71.4234 C 69.28597,52.07086 97.28015,46.83149 100.916,70.22293 C 108.7892,47.28788 98.12712,20.79383 73.21464,10.89928 z"
             id="path2656"
             style="fill:#ffffff" />
          <path
             d="M 29.79359,66.77673 C 34.27921,71.15189 29.57453,77.80548 23.53313,77.01401 C 8.920531,75.09941 17.30264,52.59209 31.58329,56.81641 C 43.57895,60.36484 48.46471,74.61052 37.39976,83.49686 C 31.42313,87.61887 24.52385,88.34091 19.38784,84.34715 C 34.87921,104.6796 67.82317,109.126 88.45577,89.39819 C 82.29923,91.25076 70.82304,91.62292 63.89178,84.31274 C 53.66991,73.53203 54.40986,58.2621 38.7421,51.81976 C 22.14915,44.99695 4.387553,63.22281 17.01503,78.01872 C 25.81356,88.32817 45.7911,78.62679 37.19615,65.91278 C 34.452,61.85356 28.61131,59.10461 23.69876,61.16386 C 19.93976,62.73964 18.52474,69.37241 21.50933,72.267 C 25.89338,76.51901 29.50285,70.54565 29.79359,66.77673 z"
             id="path2658"
             style="fill:#ffffff" />
        </g>
        <rect
           style="fill:#ffffff;fill-opacity:1;stroke:#000000;stroke-width:1.23231184;stroke-miterlimit:4;stroke-dasharray:none;stroke-opacity:1;display:inline"
           id="rect2660"
           width="284.823"
           height="215.57536"
           x="353.22083"
           y="302.48413"
           ry="10.02676"
           rx="26.040964" />
        <path
           style="fill:#4d4d4d;fill-opacity:1;stroke:#cccccc;stroke-width:1.01015258"
           d="M 364.56292,528.32246 C 356.55343,527.28497 348.03329,523.26739 346.44366,519.77853 C 345.57085,517.86296 345.26841,485.86003 345.26841,395.42228 L 345.26841,273.6454 L 348.60461,270.30926 C 350.47313,268.44069 354.3615,266.16219 357.44343,265.12985 C 362.63275,263.39158 370.18663,263.26868 490.11166,262.97081 C 568.82163,262.77533 620.66105,263.03274 626.15769,263.64643 C 635.86101,264.72975 644.53469,267.8908 646.84168,271.18451 C 649.0727,274.36993 649.06118,517.7985 646.82976,520.98434 C 644.48368,524.33368 637.1229,527.21606 627.99142,528.36105 C 617.85353,529.63223 374.39894,529.5966 364.56291,528.32248 L 364.56292,528.32246 z M 619.52483,518.39381 C 629.2031,516.98843 633.71373,515.45669 636.56216,512.60825 L 639.2228,509.94766 L 639.2228,410.50762 L 639.2228,311.06765 L 636.35862,308.20341 C 634.78318,306.62806 631.03299,304.51151 628.02476,303.49995 C 622.87752,301.76916 615.44139,301.64249 501.84206,301.35065 C 366.30067,301.00243 361.97339,301.18806 355.00199,307.64893 L 352.33948,310.11644 L 352.33948,410.21803 L 352.33948,510.31962 L 354.96264,512.75068 C 357.96108,515.52953 362.51652,517.22208 369.91826,518.30739 C 377.21729,519.37763 612.1893,519.45896 619.52483,518.39379 L 619.52483,518.39381 z M 631.79697,294.41654 C 635.83091,292.50228 639.22361,286.69877 639.22119,281.71636 C 639.21917,277.40208 636.42943,272.01008 632.8352,269.37355 C 629.98425,267.28223 629.93081,267.28145 495.45446,267.28145 C 364.9903,267.28145 360.84029,267.33939 358.09623,269.19922 C 349.88412,274.7651 350.22871,288.92493 358.70197,294.09138 C 361.86622,296.02073 364.8081,296.06332 495.12343,296.06702 C 616.39881,296.07044 628.62267,295.92284 631.79697,294.41656 L 631.79697,294.41654 z"
           id="path2793" />
      </g>
      <g
         transform="translate(3.0045262,0)"
         id="g2894">
        <path
           id="path2718"
           d="M 52.256756,263.39237 L 301.29663,263.39237 C 316.73363,263.39237 329.16124,268.94817 329.16124,275.8493 L 329.16124,518.75964 C 329.16124,525.66078 316.73363,531.21658 301.29663,531.21658 L 52.256756,531.21658 C 36.819766,531.21658 24.392146,525.66078 24.392146,518.75964 L 24.392146,275.8493 C 24.392146,268.94817 36.819766,263.39237 52.256756,263.39237 z"
           style="fill:none;fill-opacity:1;stroke:#000000;stroke-width:1.15382957;stroke-miterlimit:4;stroke-opacity:1;display:inline" />
        <rect
           ry="26.795979"
           rx="11.819449"
           y="269.37918"
           x="32.464169"
           height="26.795979"
           width="285.77231"
           id="rect2720"
           style="fill:#ffffff;fill-opacity:1;stroke:#000000;stroke-width:0.98293191;stroke-miterlimit:4;stroke-dasharray:none;stroke-opacity:1;display:inline" />
        <g
           style="display:inline"
           id="g2722"
           transform="matrix(0.1909655,0,0,0.2096697,33.750826,271.1007)">
          <path
             d="M 60.446161,55.537231 C 60.446161,27.526618 37.739073,4.8195294 9.72846,4.8195294 C -18.282153,4.8195294 -40.989241,27.526618 -40.989241,55.537231 C -40.989241,83.547844 -18.282153,106.25493 9.72846,106.25493 C 37.739073,106.25493 60.446161,83.547844 60.446161,55.537231 L 60.446161,55.537231 z"
             id="path2724"
             style="fill-rule:evenodd;stroke:#000000;stroke-width:13.88094711"
             transform="matrix(0.954661,0,0,0.954661,47.02084,1.929386)" />
          <path
             d="M 57.3715,27.76321 C 49.69117,25.62996 48.27614,16.50681 56.48014,13.50082 C 68.22353,9.197998 73.63102,25.58189 66.1294,32.73964 C 57.38492,41.0833 41.21971,37.37122 38.47127,25.13077 C 37.22,19.55833 40.95759,12.22084 45.27893,9.055252 C 17.7102,16.41563 7.337985,40.73051 9.391875,60.2298 C 12.98337,55.02586 15.41195,50.13405 21.57747,47.37701 C 36.6158,40.65247 51.64266,52.4292 66.31929,42.12036 C 80.16084,32.39799 76.41115,9.797058 57.3715,9.985504 C 44.42328,10.11368 37.36764,30.57243 52.00588,32.8405 C 57.15351,33.63808 63.35098,31.9133 65.54874,26.80649 C 67.50783,22.25441 63.57308,16.19102 58.28362,16.80077 C 51.38996,17.59552 55.05321,24.64157 57.3715,27.76321 z"
             id="path2726"
             style="fill:#ffffff" />
          <path
             d="M 73.21464,10.89928 C 77.74805,14.1714 80.42045,20.02633 80.47395,24.9172 C 80.67065,42.8764 60.99718,52.12807 63.90473,71.4234 C 66.31206,87.39919 88.1272,93.00941 96.24566,77.55283 C 102.8299,65.01756 85.59602,50.32248 77.06655,63.56403 C 74.50263,67.54426 74.445,73.95325 78.15746,77.28678 C 81.56236,80.3442 88.30049,79.50556 89.90167,74.85135 C 92.13784,68.35171 84.5868,68.29205 80.63764,69.66845 C 84.77122,64.559 93.61197,65.26835 93.96583,73.17835 C 94.61852,87.77012 72.32053,84.58696 70.97307,71.4234 C 69.28597,52.07086 97.28015,46.83149 100.916,70.22293 C 108.7892,47.28788 98.12712,20.79383 73.21464,10.89928 z"
             id="path2728"
             style="fill:#ffffff" />
          <path
             d="M 29.79359,66.77673 C 34.27921,71.15189 29.57453,77.80548 23.53313,77.01401 C 8.920531,75.09941 17.30264,52.59209 31.58329,56.81641 C 43.57895,60.36484 48.46471,74.61052 37.39976,83.49686 C 31.42313,87.61887 24.52385,88.34091 19.38784,84.34715 C 34.87921,104.6796 67.82317,109.126 88.45577,89.39819 C 82.29923,91.25076 70.82304,91.62292 63.89178,84.31274 C 53.66991,73.53203 54.40986,58.2621 38.7421,51.81976 C 22.14915,44.99695 4.387553,63.22281 17.01503,78.01872 C 25.81356,88.32817 45.7911,78.62679 37.19615,65.91278 C 34.452,61.85356 28.61131,59.10461 23.69876,61.16386 C 19.93976,62.73964 18.52474,69.37241 21.50933,72.267 C 25.89338,76.51901 29.50285,70.54565 29.79359,66.77673 z"
             id="path2730"
             style="fill:#ffffff" />
        </g>
        <rect
           style="fill:#ffffff;fill-opacity:1;stroke:#000000;stroke-width:1.23231184;stroke-miterlimit:4;stroke-dasharray:none;stroke-opacity:1;display:inline"
           id="rect2732"
           width="284.823"
           height="215.57536"
           x="33.002468"
           y="303.67447"
           ry="10.02676"
           rx="26.040964" />
        <path
           style="fill:#4d4d4d;fill-opacity:1;stroke:#cccccc;stroke-width:1.01015258"
           d="M 41.212493,529.05874 C 34.016752,527.47841 27.473621,523.73896 26.104723,520.42452 C 25.347846,518.59191 25.101187,480.99487 25.287802,395.90459 L 25.555129,274.0099 L 28.036114,271.36916 C 29.504896,269.80581 33.214196,267.90995 37.127517,266.72246 C 43.600807,264.75812 46.545169,264.72218 179.09832,264.98884 L 314.45876,265.26114 L 319.15513,267.43213 C 321.73813,268.62617 324.80647,270.55809 325.97366,271.72528 L 328.09582,273.84744 L 328.09582,397.50135 L 328.09582,521.15521 L 325.01746,523.74551 C 323.32436,525.17014 319.57417,527.14131 316.6837,528.12588 C 311.76995,529.7996 302.82545,529.9278 179.09832,530.09745 C 78.857505,530.23491 45.421082,529.98302 41.212493,529.05873 L 41.212493,529.05874 z M 308.49544,518.0549 C 311.32707,517.08848 314.84998,515.17998 316.32415,513.81377 L 319.00444,511.32978 L 319.00444,411.70379 L 319.00444,312.0778 L 316.14692,309.22028 C 309.11226,302.18564 305.04184,301.99746 168.35749,302.38759 C 60.690689,302.69492 48.316442,302.89382 44.044961,304.38586 C 37.928013,306.52253 34.945669,308.13297 33.415934,310.12539 C 32.468189,311.35982 32.177992,334.73386 32.153243,411.82924 C 32.12305,505.92599 32.227156,512.02281 33.888887,513.4723 C 36.813754,516.02362 40.048212,517.38471 46.600041,518.82136 C 51.674926,519.93418 76.041361,520.15249 178.08816,519.99962 C 294.15047,519.82578 303.72508,519.68298 308.49546,518.0549 L 308.49544,518.0549 z M 312.46422,295.04473 C 320.57531,290.03179 321.10039,277.01635 313.43479,270.98659 L 310.65078,268.79668 L 175.83493,268.79668 C 52.846572,268.79668 40.773764,268.94162 38.22227,270.44882 C 31.495311,274.4225 29.713684,285.14764 34.695494,291.67914 C 36.174307,293.61799 38.359277,295.59775 39.550924,296.0786 C 40.742611,296.55944 101.89426,296.9817 175.44355,297.01691 C 307.81179,297.08033 309.20298,297.06027 312.46421,295.04472 L 312.46422,295.04473 z"
           id="path2795" />
      </g>
      <g
         transform="translate(-1.7123188,0)"
         id="g2872">
        <path
           id="path2734"
           d="M 691.68332,262.38221 L 940.72321,262.38221 C 956.16021,262.38221 968.58781,267.93801 968.58781,274.83914 L 968.58781,517.74948 C 968.58781,524.65062 956.16021,530.20642 940.72321,530.20642 L 691.68332,530.20642 C 676.24633,530.20642 663.81871,524.65062 663.81871,517.74948 L 663.81871,274.83914 C 663.81871,267.93801 676.24633,262.38221 691.68332,262.38221 z"
           style="fill:none;fill-opacity:1;stroke:#000000;stroke-width:1.15382957;stroke-miterlimit:4;stroke-opacity:1;display:inline" />
        <rect
           ry="26.795979"
           rx="11.819449"
           y="268.36902"
           x="671.89075"
           height="26.795979"
           width="285.77231"
           id="rect2736"
           style="fill:#ffffff;fill-opacity:1;stroke:#000000;stroke-width:0.98293191;stroke-miterlimit:4;stroke-dasharray:none;stroke-opacity:1;display:inline" />
        <g
           style="display:inline"
           id="g2738"
           transform="matrix(0.1909655,0,0,0.2096697,673.17739,270.09054)">
          <path
             d="M 60.446161,55.537231 C 60.446161,27.526618 37.739073,4.8195294 9.72846,4.8195294 C -18.282153,4.8195294 -40.989241,27.526618 -40.989241,55.537231 C -40.989241,83.547844 -18.282153,106.25493 9.72846,106.25493 C 37.739073,106.25493 60.446161,83.547844 60.446161,55.537231 L 60.446161,55.537231 z"
             id="path2740"
             style="fill-rule:evenodd;stroke:#000000;stroke-width:13.88094711"
             transform="matrix(0.954661,0,0,0.954661,47.02084,1.929386)" />
          <path
             d="M 57.3715,27.76321 C 49.69117,25.62996 48.27614,16.50681 56.48014,13.50082 C 68.22353,9.197998 73.63102,25.58189 66.1294,32.73964 C 57.38492,41.0833 41.21971,37.37122 38.47127,25.13077 C 37.22,19.55833 40.95759,12.22084 45.27893,9.055252 C 17.7102,16.41563 7.337985,40.73051 9.391875,60.2298 C 12.98337,55.02586 15.41195,50.13405 21.57747,47.37701 C 36.6158,40.65247 51.64266,52.4292 66.31929,42.12036 C 80.16084,32.39799 76.41115,9.797058 57.3715,9.985504 C 44.42328,10.11368 37.36764,30.57243 52.00588,32.8405 C 57.15351,33.63808 63.35098,31.9133 65.54874,26.80649 C 67.50783,22.25441 63.57308,16.19102 58.28362,16.80077 C 51.38996,17.59552 55.05321,24.64157 57.3715,27.76321 z"
             id="path2742"
             style="fill:#ffffff" />
          <path
             d="M 73.21464,10.89928 C 77.74805,14.1714 80.42045,20.02633 80.47395,24.9172 C 80.67065,42.8764 60.99718,52.12807 63.90473,71.4234 C 66.31206,87.39919 88.1272,93.00941 96.24566,77.55283 C 102.8299,65.01756 85.59602,50.32248 77.06655,63.56403 C 74.50263,67.54426 74.445,73.95325 78.15746,77.28678 C 81.56236,80.3442 88.30049,79.50556 89.90167,74.85135 C 92.13784,68.35171 84.5868,68.29205 80.63764,69.66845 C 84.77122,64.559 93.61197,65.26835 93.96583,73.17835 C 94.61852,87.77012 72.32053,84.58696 70.97307,71.4234 C 69.28597,52.07086 97.28015,46.83149 100.916,70.22293 C 108.7892,47.28788 98.12712,20.79383 73.21464,10.89928 z"
             id="path2744"
             style="fill:#ffffff" />
          <path
             d="M 29.79359,66.77673 C 34.27921,71.15189 29.57453,77.80548 23.53313,77.01401 C 8.920531,75.09941 17.30264,52.59209 31.58329,56.81641 C 43.57895,60.36484 48.46471,74.61052 37.39976,83.49686 C 31.42313,87.61887 24.52385,88.34091 19.38784,84.34715 C 34.87921,104.6796 67.82317,109.126 88.45577,89.39819 C 82.29923,91.25076 70.82304,91.62292 63.89178,84.31274 C 53.66991,73.53203 54.40986,58.2621 38.7421,51.81976 C 22.14915,44.99695 4.387553,63.22281 17.01503,78.01872 C 25.81356,88.32817 45.7911,78.62679 37.19615,65.91278 C 34.452,61.85356 28.61131,59.10461 23.69876,61.16386 C 19.93976,62.73964 18.52474,69.37241 21.50933,72.267 C 25.89338,76.51901 29.50285,70.54565 29.79359,66.77673 z"
             id="path2746"
             style="fill:#ffffff" />
        </g>
        <rect
           style="fill:#ffffff;fill-opacity:1;stroke:#000000;stroke-width:1.23231184;stroke-miterlimit:4;stroke-dasharray:none;stroke-opacity:1;display:inline"
           id="rect2748"
           width="284.823"
           height="215.57536"
           x="672.42902"
           y="302.66431"
           ry="10.02676"
           rx="26.040964" />
        <path
           style="fill:#4d4d4d;fill-opacity:1;stroke:#cccccc;stroke-width:1.01015258"
           d="M 680.63906,528.04859 C 673.44334,526.46826 666.90017,522.7288 665.53132,519.41437 C 664.77441,517.58176 664.52773,479.98471 664.71441,394.89444 L 664.98169,272.99975 L 667.46273,270.35901 C 668.93149,268.79566 672.64077,266.8998 676.5541,265.71231 C 683.02736,263.74796 685.97175,263.71203 818.52488,263.97869 L 953.88532,264.25099 L 958.58172,266.42198 C 961.16468,267.61602 964.23302,269.54794 965.40025,270.71513 L 967.52238,272.83729 L 967.52238,396.4912 L 967.52238,520.14505 L 964.44404,522.73536 C 962.75092,524.15999 959.00073,526.13116 956.11028,527.11572 C 951.1965,528.78945 942.252,528.91764 818.52488,529.0873 C 718.28411,529.22476 684.84765,528.97287 680.63906,528.04858 L 680.63906,528.04859 z M 947.92199,517.04475 C 950.75365,516.07833 954.27655,514.16983 955.75067,512.80362 L 958.43101,510.31962 L 958.43101,410.69364 L 958.43101,311.06765 L 955.57339,308.21013 C 948.53879,301.17549 944.46838,300.98731 807.78403,301.37744 C 700.11722,301.68477 687.74306,301.88367 683.47152,303.37571 C 677.35455,305.51238 674.37227,307.12281 672.8425,309.11524 C 671.89467,310.34966 671.60456,333.72371 671.57981,410.81908 C 671.5495,504.91583 671.65375,511.01266 673.31545,512.46215 C 676.24035,515.01347 679.47475,516.37456 686.0266,517.81121 C 691.10141,518.92402 715.4679,519.14234 817.51473,518.98947 C 933.57701,518.81562 943.15164,518.67283 947.92199,517.04475 z M 951.89077,294.03458 C 960.0019,289.02164 960.52697,276.00619 952.86133,269.97643 L 950.07735,267.78652 L 815.26148,267.78652 C 692.27319,267.78652 680.20035,267.93147 677.6488,269.43867 C 670.92189,273.41235 669.14029,284.13749 674.12206,290.66898 C 675.60092,292.60784 677.78588,294.5876 678.97746,295.06845 C 680.16913,295.54928 741.32084,295.97155 814.87015,296.00676 C 947.23831,296.07018 948.6295,296.05012 951.89077,294.03457 L 951.89077,294.03458 z"
           id="path2797" />
      </g>
    </g>
    <g
       id="g2905">
      <g
         id="g2850">
        <path
           id="path3112"
           d="M 371.53465,68.41077 L 620.74315,68.41077 C 636.19061,68.41077 648.62663,72.154533 648.62663,76.80485 L 648.62663,240.48957 C 648.62663,245.13988 636.19061,248.88366 620.74315,248.88366 L 371.53465,248.88366 C 356.0872,248.88366 343.65117,245.13988 343.65117,240.48957 L 343.65117,76.80485 C 343.65117,72.154533 356.0872,68.41077 371.53465,68.41077 z"
           style="fill:none;fill-opacity:1;stroke:#000000;stroke-width:0.94747931;stroke-miterlimit:4;stroke-opacity:1;display:inline" />
        <rect
           style="fill:#ffffff;fill-opacity:1;stroke:#000000;stroke-width:0.97493511;stroke-miterlimit:4;stroke-dasharray:none;stroke-opacity:1;display:inline"
           id="rect3114"
           width="285.07172"
           height="134.8125"
           x="352.23972"
           y="105.90601"
           ry="6.2703495"
           rx="26.063705" />
        <rect
           ry="26.795979"
           rx="11.819449"
           y="74.967484"
           x="348.7937"
           height="26.795979"
           width="285.77231"
           id="rect3116"
           style="fill:#ffffff;fill-opacity:1;stroke:#000000;stroke-width:0.98293191;stroke-miterlimit:4;stroke-dasharray:none;stroke-opacity:1;display:inline" />
        <g
           style="display:inline"
           id="g3118"
           transform="matrix(0.1909655,0,0,0.2096697,350.79465,75.974707)">
          <path
             d="M 60.446161,55.537231 C 60.446161,27.526618 37.739073,4.8195294 9.72846,4.8195294 C -18.282153,4.8195294 -40.989241,27.526618 -40.989241,55.537231 C -40.989241,83.547844 -18.282153,106.25493 9.72846,106.25493 C 37.739073,106.25493 60.446161,83.547844 60.446161,55.537231 L 60.446161,55.537231 z"
             id="path3120"
             style="fill-rule:evenodd;stroke:#000000;stroke-width:13.88094711"
             transform="matrix(0.954661,0,0,0.954661,47.02084,1.929386)" />
          <path
             d="M 57.3715,27.76321 C 49.69117,25.62996 48.27614,16.50681 56.48014,13.50082 C 68.22353,9.197998 73.63102,25.58189 66.1294,32.73964 C 57.38492,41.0833 41.21971,37.37122 38.47127,25.13077 C 37.22,19.55833 40.95759,12.22084 45.27893,9.055252 C 17.7102,16.41563 7.337985,40.73051 9.391875,60.2298 C 12.98337,55.02586 15.41195,50.13405 21.57747,47.37701 C 36.6158,40.65247 51.64266,52.4292 66.31929,42.12036 C 80.16084,32.39799 76.41115,9.797058 57.3715,9.985504 C 44.42328,10.11368 37.36764,30.57243 52.00588,32.8405 C 57.15351,33.63808 63.35098,31.9133 65.54874,26.80649 C 67.50783,22.25441 63.57308,16.19102 58.28362,16.80077 C 51.38996,17.59552 55.05321,24.64157 57.3715,27.76321 z"
             id="path3122"
             style="fill:#ffffff" />
          <path
             d="M 73.21464,10.89928 C 77.74805,14.1714 80.42045,20.02633 80.47395,24.9172 C 80.67065,42.8764 60.99718,52.12807 63.90473,71.4234 C 66.31206,87.39919 88.1272,93.00941 96.24566,77.55283 C 102.8299,65.01756 85.59602,50.32248 77.06655,63.56403 C 74.50263,67.54426 74.445,73.95325 78.15746,77.28678 C 81.56236,80.3442 88.30049,79.50556 89.90167,74.85135 C 92.13784,68.35171 84.5868,68.29205 80.63764,69.66845 C 84.77122,64.559 93.61197,65.26835 93.96583,73.17835 C 94.61852,87.77012 72.32053,84.58696 70.97307,71.4234 C 69.28597,52.07086 97.28015,46.83149 100.916,70.22293 C 108.7892,47.28788 98.12712,20.79383 73.21464,10.89928 z"
             id="path3124"
             style="fill:#ffffff" />
          <path
             d="M 29.79359,66.77673 C 34.27921,71.15189 29.57453,77.80548 23.53313,77.01401 C 8.920531,75.09941 17.30264,52.59209 31.58329,56.81641 C 43.57895,60.36484 48.46471,74.61052 37.39976,83.49686 C 31.42313,87.61887 24.52385,88.34091 19.38784,84.34715 C 34.87921,104.6796 67.82317,109.126 88.45577,89.39819 C 82.29923,91.25076 70.82304,91.62292 63.89178,84.31274 C 53.66991,73.53203 54.40986,58.2621 38.7421,51.81976 C 22.14915,44.99695 4.387553,63.22281 17.01503,78.01872 C 25.81356,88.32817 45.7911,78.62679 37.19615,65.91278 C 34.452,61.85356 28.61131,59.10461 23.69876,61.16386 C 19.93976,62.73964 18.52474,69.37241 21.50933,72.267 C 25.89338,76.51901 29.50285,70.54565 29.79359,66.77673 z"
             id="path3126"
             style="fill:#ffffff" />
        </g>
        <path
           style="fill:#4d4d4d;fill-opacity:1;stroke:#cccccc;stroke-width:1.01015258"
           d="M 357.31218,246.47235 C 353.26178,245.73142 348.82711,244.39092 347.45738,243.49344 L 344.96697,241.86168 L 345.22531,158.30652 L 345.4837,74.751405 L 349.22239,72.991042 C 357.02983,69.314935 368.08771,69.055771 502.56242,69.397162 C 618.41522,69.691298 633.98527,69.91239 638.69378,71.330311 C 641.6179,72.210881 644.91353,73.748687 646.01742,74.747667 C 647.98853,76.531546 648.02439,78.028036 648.02439,158.57829 C 648.02439,251.62997 648.94767,242.42285 639.28108,245.77187 C 634.80513,247.32256 622.87482,247.48236 499.53197,247.64339 C 390.89953,247.78523 363.24458,247.55749 357.3122,246.47234 L 357.31218,246.47235 z M 621.61924,240.86361 C 626.2349,240.28484 631.79484,239.0977 633.97465,238.2255 L 637.93797,236.6397 L 637.67785,173.36533 L 637.41779,110.09097 L 633.86358,108.35171 C 626.62331,104.80875 610.21698,104.41136 485.89491,104.7677 C 375.07865,105.08532 365.21321,105.25017 359.62584,106.87756 C 356.29234,107.84848 352.99671,109.39649 352.30223,110.31759 C 350.69602,112.44794 350.44632,232.85903 352.04194,235.84047 C 353.29728,238.18608 358.21233,239.83812 366.97144,240.85856 C 377.61602,242.09865 611.73254,242.10328 621.61924,240.86359 L 621.61924,240.86361 z M 630.41498,99.231825 C 636.94412,93.234438 636.94412,83.510932 630.41495,77.513545 L 626.84085,74.23055 L 492.22322,74.234338 C 362.29685,74.237974 357.4971,74.30422 354.49422,76.135374 C 350.87751,78.34083 348.00908,83.75352 348.00908,88.372685 C 348.00908,92.99185 350.87753,98.404541 354.49422,100.61 C 357.49708,102.44115 362.29685,102.5074 492.2232,102.51104 L 626.84085,102.51482 L 630.41498,99.231825 z"
           id="path2833" />
      </g>
      <g
         transform="translate(0.9842271,-1.271409)"
         id="g2861">
        <path
           id="path2817"
           d="M 54.19275,69.682179 L 303.40125,69.682179 C 318.84871,69.682179 331.28473,73.425942 331.28473,78.076259 L 331.28473,241.76098 C 331.28473,246.41129 318.84871,250.15507 303.40125,250.15507 L 54.19275,250.15507 C 38.7453,250.15507 26.30927,246.41129 26.30927,241.76098 L 26.30927,78.076259 C 26.30927,73.425942 38.7453,69.682179 54.19275,69.682179 z"
           style="fill:none;fill-opacity:1;stroke:#000000;stroke-width:0.94747931;stroke-miterlimit:4;stroke-opacity:1;display:inline" />
        <rect
           style="fill:#ffffff;fill-opacity:1;stroke:#000000;stroke-width:0.97493511;stroke-miterlimit:4;stroke-dasharray:none;stroke-opacity:1;display:inline"
           id="rect2819"
           width="285.07172"
           height="134.8125"
           x="34.89782"
           y="107.17742"
           ry="6.2703495"
           rx="26.063705" />
        <rect
           ry="26.795979"
           rx="11.819449"
           y="76.238892"
           x="31.451803"
           height="26.795979"
           width="285.77231"
           id="rect2821"
           style="fill:#ffffff;fill-opacity:1;stroke:#000000;stroke-width:0.98293191;stroke-miterlimit:4;stroke-dasharray:none;stroke-opacity:1;display:inline" />
        <g
           style="display:inline"
           id="g2823"
           transform="matrix(0.1909655,0,0,0.2096697,33.45275,77.246116)">
          <path
             d="M 60.446161,55.537231 C 60.446161,27.526618 37.739073,4.8195294 9.72846,4.8195294 C -18.282153,4.8195294 -40.989241,27.526618 -40.989241,55.537231 C -40.989241,83.547844 -18.282153,106.25493 9.72846,106.25493 C 37.739073,106.25493 60.446161,83.547844 60.446161,55.537231 L 60.446161,55.537231 z"
             id="path2825"
             style="fill-rule:evenodd;stroke:#000000;stroke-width:13.88094711"
             transform="matrix(0.954661,0,0,0.954661,47.02084,1.929386)" />
          <path
             d="M 57.3715,27.76321 C 49.69117,25.62996 48.27614,16.50681 56.48014,13.50082 C 68.22353,9.197998 73.63102,25.58189 66.1294,32.73964 C 57.38492,41.0833 41.21971,37.37122 38.47127,25.13077 C 37.22,19.55833 40.95759,12.22084 45.27893,9.055252 C 17.7102,16.41563 7.337985,40.73051 9.391875,60.2298 C 12.98337,55.02586 15.41195,50.13405 21.57747,47.37701 C 36.6158,40.65247 51.64266,52.4292 66.31929,42.12036 C 80.16084,32.39799 76.41115,9.797058 57.3715,9.985504 C 44.42328,10.11368 37.36764,30.57243 52.00588,32.8405 C 57.15351,33.63808 63.35098,31.9133 65.54874,26.80649 C 67.50783,22.25441 63.57308,16.19102 58.28362,16.80077 C 51.38996,17.59552 55.05321,24.64157 57.3715,27.76321 z"
             id="path2827"
             style="fill:#ffffff" />
          <path
             d="M 73.21464,10.89928 C 77.74805,14.1714 80.42045,20.02633 80.47395,24.9172 C 80.67065,42.8764 60.99718,52.12807 63.90473,71.4234 C 66.31206,87.39919 88.1272,93.00941 96.24566,77.55283 C 102.8299,65.01756 85.59602,50.32248 77.06655,63.56403 C 74.50263,67.54426 74.445,73.95325 78.15746,77.28678 C 81.56236,80.3442 88.30049,79.50556 89.90167,74.85135 C 92.13784,68.35171 84.5868,68.29205 80.63764,69.66845 C 84.77122,64.559 93.61197,65.26835 93.96583,73.17835 C 94.61852,87.77012 72.32053,84.58696 70.97307,71.4234 C 69.28597,52.07086 97.28015,46.83149 100.916,70.22293 C 108.7892,47.28788 98.12712,20.79383 73.21464,10.89928 z"
             id="path2829"
             style="fill:#ffffff" />
          <path
             d="M 29.79359,66.77673 C 34.27921,71.15189 29.57453,77.80548 23.53313,77.01401 C 8.920531,75.09941 17.30264,52.59209 31.58329,56.81641 C 43.57895,60.36484 48.46471,74.61052 37.39976,83.49686 C 31.42313,87.61887 24.52385,88.34091 19.38784,84.34715 C 34.87921,104.6796 67.82317,109.126 88.45577,89.39819 C 82.29923,91.25076 70.82304,91.62292 63.89178,84.31274 C 53.66991,73.53203 54.40986,58.2621 38.7421,51.81976 C 22.14915,44.99695 4.387553,63.22281 17.01503,78.01872 C 25.81356,88.32817 45.7911,78.62679 37.19615,65.91278 C 34.452,61.85356 28.61131,59.10461 23.69876,61.16386 C 19.93976,62.73964 18.52474,69.37241 21.50933,72.267 C 25.89338,76.51901 29.50285,70.54565 29.79359,66.77673 z"
             id="path2831"
             style="fill:#ffffff" />
        </g>
        <path
           style="fill:#b3b3b3;fill-opacity:1;stroke:#cccccc;stroke-width:1.01015258"
           d="M 37.286342,247.34643 C 33.897372,246.54222 30.14718,244.97364 28.952584,243.8607 L 26.780574,241.8372 L 26.780574,160.49282 C 26.780574,109.82464 27.150401,78.457462 27.761261,77.316071 C 29.29548,74.449359 36.232602,72.222073 46.842931,71.189586 C 59.51782,69.9562 298.15183,69.947766 310.12836,71.180283 C 321.13903,72.313422 326.28929,73.723958 328.88178,76.316444 C 330.78243,78.217097 330.83649,80.53279 330.83649,160.05416 L 330.83649,241.8372 L 328.67919,243.84702 C 327.49264,244.95244 323.42543,246.56114 319.64092,247.42191 C 313.60187,248.79549 296.28542,248.97603 178.10404,248.89778 C 64.316449,248.82244 42.493174,248.58202 37.286342,247.34643 z M 314.67405,240.40064 L 320.22989,238.38034 L 320.22989,174.75432 L 320.22989,111.12834 L 317.52269,109.83081 C 310.95693,106.68392 302.58686,106.50658 173.6428,106.78221 C 49.212476,107.04819 43.257607,107.14379 39.14573,108.94164 C 36.500888,110.09805 34.642147,111.65472 34.32104,112.98225 C 34.033742,114.16995 33.924252,142.61771 34.077704,176.19946 L 34.356718,237.25717 L 37.44732,239.06206 C 39.147144,240.05477 43.010978,241.28215 46.033617,241.7896 C 49.182687,242.31829 106.52355,242.65005 180.32376,242.56659 C 306.40233,242.42403 309.23537,242.37835 314.67405,240.40064 z M 311.60333,101.87284 C 315.57874,99.524507 317.70451,95.364931 317.70451,89.934432 C 317.70451,84.097296 315.54566,79.783227 311.34201,77.220116 C 308.17748,75.290584 305.23398,75.248258 174.26285,75.248258 C 45.088639,75.248258 40.309052,75.314464 37.306323,77.145527 C 29.137028,82.127155 28.696197,95.282462 36.49307,101.41547 L 39.174853,103.52497 L 173.9907,103.52497 C 296.97906,103.52497 309.05186,103.38003 311.60336,101.87283 L 311.60333,101.87284 z"
           id="path2835" />
      </g>
      <g
         transform="translate(1.3181363,0.748897)"
         id="g2839">
        <path
           id="path2801"
           d="M 688.56855,67.661873 L 937.77705,67.661873 C 953.22451,67.661873 965.66053,71.405636 965.66053,76.055953 L 965.66053,239.74067 C 965.66053,244.39098 953.22451,248.13476 937.77705,248.13476 L 688.56855,248.13476 C 673.1211,248.13476 660.68507,244.39098 660.68507,239.74067 L 660.68507,76.055953 C 660.68507,71.405636 673.1211,67.661873 688.56855,67.661873 z"
           style="fill:none;fill-opacity:1;stroke:#000000;stroke-width:0.94747931;stroke-miterlimit:4;stroke-opacity:1;display:inline" />
        <rect
           style="fill:#ffffff;fill-opacity:1;stroke:#000000;stroke-width:0.97493511;stroke-miterlimit:4;stroke-dasharray:none;stroke-opacity:1;display:inline"
           id="rect2803"
           width="285.07172"
           height="134.8125"
           x="669.27362"
           y="105.15712"
           ry="6.2703495"
           rx="26.063705" />
        <rect
           ry="26.795979"
           rx="11.819449"
           y="74.21859"
           x="665.82758"
           height="26.795979"
           width="285.77231"
           id="rect2805"
           style="fill:#ffffff;fill-opacity:1;stroke:#000000;stroke-width:0.98293191;stroke-miterlimit:4;stroke-dasharray:none;stroke-opacity:1;display:inline" />
        <g
           style="display:inline"
           id="g2807"
           transform="matrix(0.1909655,0,0,0.2096697,667.82855,75.22581)">
          <path
             d="M 60.446161,55.537231 C 60.446161,27.526618 37.739073,4.8195294 9.72846,4.8195294 C -18.282153,4.8195294 -40.989241,27.526618 -40.989241,55.537231 C -40.989241,83.547844 -18.282153,106.25493 9.72846,106.25493 C 37.739073,106.25493 60.446161,83.547844 60.446161,55.537231 L 60.446161,55.537231 z"
             id="path2809"
             style="fill-rule:evenodd;stroke:#000000;stroke-width:13.88094711"
             transform="matrix(0.954661,0,0,0.954661,47.02084,1.929386)" />
          <path
             d="M 57.3715,27.76321 C 49.69117,25.62996 48.27614,16.50681 56.48014,13.50082 C 68.22353,9.197998 73.63102,25.58189 66.1294,32.73964 C 57.38492,41.0833 41.21971,37.37122 38.47127,25.13077 C 37.22,19.55833 40.95759,12.22084 45.27893,9.055252 C 17.7102,16.41563 7.337985,40.73051 9.391875,60.2298 C 12.98337,55.02586 15.41195,50.13405 21.57747,47.37701 C 36.6158,40.65247 51.64266,52.4292 66.31929,42.12036 C 80.16084,32.39799 76.41115,9.797058 57.3715,9.985504 C 44.42328,10.11368 37.36764,30.57243 52.00588,32.8405 C 57.15351,33.63808 63.35098,31.9133 65.54874,26.80649 C 67.50783,22.25441 63.57308,16.19102 58.28362,16.80077 C 51.38996,17.59552 55.05321,24.64157 57.3715,27.76321 z"
             id="path2811"
             style="fill:#ffffff" />
          <path
             d="M 73.21464,10.89928 C 77.74805,14.1714 80.42045,20.02633 80.47395,24.9172 C 80.67065,42.8764 60.99718,52.12807 63.90473,71.4234 C 66.31206,87.39919 88.1272,93.00941 96.24566,77.55283 C 102.8299,65.01756 85.59602,50.32248 77.06655,63.56403 C 74.50263,67.54426 74.445,73.95325 78.15746,77.28678 C 81.56236,80.3442 88.30049,79.50556 89.90167,74.85135 C 92.13784,68.35171 84.5868,68.29205 80.63764,69.66845 C 84.77122,64.559 93.61197,65.26835 93.96583,73.17835 C 94.61852,87.77012 72.32053,84.58696 70.97307,71.4234 C 69.28597,52.07086 97.28015,46.83149 100.916,70.22293 C 108.7892,47.28788 98.12712,20.79383 73.21464,10.89928 z"
             id="path2813"
             style="fill:#ffffff" />
          <path
             d="M 29.79359,66.77673 C 34.27921,71.15189 29.57453,77.80548 23.53313,77.01401 C 8.920531,75.09941 17.30264,52.59209 31.58329,56.81641 C 43.57895,60.36484 48.46471,74.61052 37.39976,83.49686 C 31.42313,87.61887 24.52385,88.34091 19.38784,84.34715 C 34.87921,104.6796 67.82317,109.126 88.45577,89.39819 C 82.29923,91.25076 70.82304,91.62292 63.89178,84.31274 C 53.66991,73.53203 54.40986,58.2621 38.7421,51.81976 C 22.14915,44.99695 4.387553,63.22281 17.01503,78.01872 C 25.81356,88.32817 45.7911,78.62679 37.19615,65.91278 C 34.452,61.85356 28.61131,59.10461 23.69876,61.16386 C 19.93976,62.73964 18.52474,69.37241 21.50933,72.267 C 25.89338,76.51901 29.50285,70.54565 29.79359,66.77673 z"
             id="path2815"
             style="fill:#ffffff" />
        </g>
        <path
           style="fill:#b3b3b3;fill-opacity:1;stroke:#cccccc;stroke-width:1.01015258"
           d="M 671.66206,245.32613 C 668.2732,244.52191 664.52301,242.95334 663.3284,241.84039 L 661.15637,239.8169 L 661.15637,158.47251 C 661.15637,107.80433 661.52619,76.437157 662.13703,75.295766 C 663.67125,72.429054 670.60837,70.201768 681.21871,69.169281 C 693.8936,67.935895 932.52759,67.92746 944.50416,69.159978 C 955.51483,70.293116 960.66509,71.703653 963.25755,74.296139 C 965.15825,76.196791 965.21229,78.512485 965.21229,158.03386 L 965.21229,239.8169 L 963.05501,241.82672 C 961.86848,242.93214 957.80121,244.54083 954.01677,245.40161 C 947.97767,246.77518 930.66124,246.95573 812.47985,246.87748 C 698.69223,246.80213 676.86899,246.56172 671.66216,245.32613 L 671.66206,245.32613 z M 949.04985,238.38034 L 954.60569,236.36003 L 954.60569,172.73402 L 954.60569,109.10804 L 951.89838,107.81051 C 945.33269,104.66362 936.96267,104.48628 808.01861,104.76191 C 683.58823,105.02789 677.63338,105.12349 673.52155,106.92134 C 670.87677,108.07774 669.01799,109.63442 668.69686,110.96195 C 668.40957,112.14965 668.30007,140.5974 668.45351,174.17915 L 668.73252,235.23687 L 671.82298,237.04176 C 673.52296,238.03446 677.3868,239.26185 680.40938,239.7693 C 683.55863,240.29798 740.89933,240.62975 814.69956,240.54629 C 940.77812,240.40372 943.61119,240.35805 949.04985,238.38034 z M 945.97919,99.852534 C 949.95454,97.504202 952.08031,93.344626 952.08031,87.914127 C 952.08031,82.07699 949.92151,77.762922 945.71786,75.199811 C 942.55326,73.270278 939.60977,73.227953 808.63865,73.227953 C 679.46448,73.227953 674.68484,73.294158 671.68216,75.125222 C 663.51286,80.10685 663.07203,93.262157 670.86889,99.395167 L 673.55064,101.50467 L 808.36651,101.50467 C 931.35481,101.50467 943.42764,101.35972 945.97919,99.852524 L 945.97919,99.852534 z"
           id="path2837" />
      </g>
    </g>
  </g>
  <g
     inkscape:groupmode="layer"
     id="layer3"
     inkscape:label="index"
     style="display:inline">
    <text
       xml:space="preserve"
       style="font-size:10px;font-style:normal;font-variant:normal;font-weight:normal;font-stretch:normal;text-align:center;line-height:100%;writing-mode:lr-tb;text-anchor:middle;opacity:1;fill:#000000;fill-opacity:1;fill-rule:nonzero;stroke:none;stroke-width:1px;stroke-linecap:butt;stroke-linejoin:miter;marker:none;marker-start:none;marker-mid:none;marker-end:none;stroke-miterlimit:4;stroke-dasharray:none;stroke-dashoffset:0;stroke-opacity:1;visibility:visible;display:inline;overflow:visible;enable-background:accumulate;font-family:Hobo Std;-inkscape-font-specification:Hobo Std"
       x="50.174854"
       y="500.82654"
       id="text4964"
       sodipodi:linespacing="100%"><tspan
         sodipodi:role="line"
         id="tspan4966"
         x="50.174854"
         y="500.82654">4</tspan></text>
    <text
       xml:space="preserve"
       style="font-size:10px;font-style:normal;font-variant:normal;font-weight:normal;font-stretch:normal;text-align:center;line-height:100%;writing-mode:lr-tb;text-anchor:middle;opacity:1;fill:#000000;fill-opacity:1;fill-rule:nonzero;stroke:none;stroke-width:1px;stroke-linecap:butt;stroke-linejoin:miter;marker:none;marker-start:none;marker-mid:none;marker-end:none;stroke-miterlimit:4;stroke-dasharray:none;stroke-dashoffset:0;stroke-opacity:1;visibility:visible;display:inline;overflow:visible;enable-background:accumulate;font-family:Hobo Std;-inkscape-font-specification:Hobo Std"
       x="364.85583"
       y="502.88028"
       id="text4968"
       sodipodi:linespacing="100%"><tspan
         sodipodi:role="line"
         id="tspan4970"
         x="364.85583"
         y="502.88028">5</tspan></text>
    <text
       xml:space="preserve"
       style="font-size:10px;font-style:normal;font-variant:normal;font-weight:normal;font-stretch:normal;text-align:center;line-height:100%;writing-mode:lr-tb;text-anchor:middle;opacity:1;fill:#000000;fill-opacity:1;fill-rule:nonzero;stroke:none;stroke-width:1px;stroke-linecap:butt;stroke-linejoin:miter;marker:none;marker-start:none;marker-mid:none;marker-end:none;stroke-miterlimit:4;stroke-dasharray:none;stroke-dashoffset:0;stroke-opacity:1;visibility:visible;display:inline;overflow:visible;enable-background:accumulate;font-family:Hobo Std;-inkscape-font-specification:Hobo Std"
       x="51.117649"
       y="712.6496"
       id="text4976"
       sodipodi:linespacing="100%"><tspan
         sodipodi:role="line"
         id="tspan4978"
         x="51.117649"
         y="712.6496">7</tspan></text>
    <text
       xml:space="preserve"
       style="font-size:10px;font-style:normal;font-variant:normal;font-weight:normal;font-stretch:normal;text-align:center;line-height:100%;writing-mode:lr-tb;text-anchor:middle;fill:#000000;fill-opacity:1;fill-rule:nonzero;stroke:none;stroke-width:1px;stroke-linecap:butt;stroke-linejoin:miter;marker:none;marker-start:none;marker-mid:none;marker-end:none;stroke-miterlimit:4;stroke-dasharray:none;stroke-dashoffset:0;stroke-opacity:1;visibility:visible;display:inline;overflow:visible;enable-background:accumulate;font-family:Hobo Std;-inkscape-font-specification:Hobo Std"
       x="693.30316"
       y="501.78394"
       id="text4972"
       sodipodi:linespacing="100%"><tspan
         sodipodi:role="line"
         id="tspan4974"
         x="693.30316"
         y="501.78394">6</tspan></text>
    <text
       xml:space="preserve"
       style="font-size:10px;font-style:normal;font-variant:normal;font-weight:normal;font-stretch:normal;text-align:center;line-height:100%;writing-mode:lr-tb;text-anchor:middle;fill:#000000;fill-opacity:1;fill-rule:nonzero;stroke:none;stroke-width:1px;stroke-linecap:butt;stroke-linejoin:miter;marker:none;marker-start:none;marker-mid:none;marker-end:none;stroke-miterlimit:4;stroke-dasharray:none;stroke-dashoffset:0;stroke-opacity:1;visibility:visible;display:inline;overflow:visible;enable-background:accumulate;font-family:Hobo Std;-inkscape-font-specification:Hobo Std"
       x="685.4068"
       y="225.31685"
       id="text4960"
       sodipodi:linespacing="100%"><tspan
         sodipodi:role="line"
         id="tspan4962"
         x="685.4068"
         y="225.31685">3</tspan></text>
    <text
       xml:space="preserve"
       style="font-size:10px;font-style:normal;font-variant:normal;font-weight:normal;font-stretch:normal;text-align:center;line-height:100%;writing-mode:lr-tb;text-anchor:middle;fill:#000000;fill-opacity:1;fill-rule:nonzero;stroke:none;stroke-width:1px;stroke-linecap:butt;stroke-linejoin:miter;marker:none;marker-start:none;marker-mid:none;marker-end:none;stroke-miterlimit:4;stroke-dasharray:none;stroke-dashoffset:0;stroke-opacity:1;visibility:visible;display:inline;overflow:visible;enable-background:accumulate;font-family:Hobo Std;-inkscape-font-specification:Hobo Std"
       x="365.13126"
       y="224.92665"
       id="text4956"
       sodipodi:linespacing="100%"><tspan
         sodipodi:role="line"
         id="tspan4958"
         x="365.13126"
         y="224.92665">2</tspan></text>
    <text
       xml:space="preserve"
       style="font-size:10px;font-style:normal;font-variant:normal;font-weight:normal;font-stretch:normal;text-align:center;line-height:100%;writing-mode:lr-tb;text-anchor:middle;fill:#000000;fill-opacity:1;fill-rule:nonzero;stroke:none;stroke-width:1px;stroke-linecap:butt;stroke-linejoin:miter;marker:none;marker-start:none;marker-mid:none;marker-end:none;stroke-miterlimit:4;stroke-dasharray:none;stroke-dashoffset:0;stroke-opacity:1;visibility:visible;display:inline;overflow:visible;enable-background:accumulate;font-family:Hobo Std;-inkscape-font-specification:Hobo Std"
       x="367.49548"
       y="713.75916"
       id="text4980"
       sodipodi:linespacing="100%"><tspan
         sodipodi:role="line"
         id="tspan4982"
         x="367.49548"
         y="713.75916">8</tspan></text>
    <text
       xml:space="preserve"
       style="font-size:10px;font-style:normal;font-variant:normal;font-weight:normal;font-stretch:normal;text-align:center;line-height:100%;writing-mode:lr-tb;text-anchor:middle;fill:#000000;fill-opacity:1;fill-rule:nonzero;stroke:none;stroke-width:1px;stroke-linecap:butt;stroke-linejoin:miter;marker:none;marker-start:none;marker-mid:none;marker-end:none;stroke-miterlimit:4;stroke-dasharray:none;stroke-dashoffset:0;stroke-opacity:1;visibility:visible;display:inline;overflow:visible;enable-background:accumulate;font-family:Hobo Std;-inkscape-font-specification:Hobo Std"
       x="687.49542"
       y="714.52209"
       id="text4984"
       sodipodi:linespacing="100%"><tspan
         sodipodi:role="line"
         id="tspan4986"
         x="687.49542"
         y="714.52209">9</tspan></text>
    <text
       xml:space="preserve"
       style="font-size:10px;font-style:normal;font-variant:normal;font-weight:normal;font-stretch:normal;text-align:center;line-height:100%;writing-mode:lr-tb;text-anchor:middle;fill:#000000;fill-opacity:1;fill-rule:nonzero;stroke:none;stroke-width:1px;stroke-linecap:butt;stroke-linejoin:miter;marker:none;marker-start:none;marker-mid:none;marker-end:none;stroke-miterlimit:4;stroke-dasharray:none;stroke-dashoffset:0;stroke-opacity:1;visibility:visible;display:inline;overflow:visible;enable-background:accumulate;font-family:Hobo Std;-inkscape-font-specification:Hobo Std"
       x="44.306446"
       y="222.16409"
       id="text3220"
       sodipodi:linespacing="100%"><tspan
         sodipodi:role="line"
         id="tspan3222"
         x="44.306446"
         y="222.16409">1</tspan></text>
  </g>
  <g
     inkscape:label="Layer 1"
     inkscape:groupmode="layer"
     id="layer1"
     style="display:inline">
    <text
       xml:space="preserve"
       style="font-size:14px;font-style:normal;font-variant:normal;font-weight:normal;font-stretch:normal;text-align:start;line-height:125%;writing-mode:lr-tb;text-anchor:start;fill:#000000;fill-opacity:1;stroke:none;stroke-width:1px;stroke-linecap:butt;stroke-linejoin:miter;stroke-opacity:1;font-family:Bitstream Vera Sans;-inkscape-font-specification:Bitstream Vera Sans"
       x="-75.761444"
       y="-59.284477"
       id="text6566"
       sodipodi:linespacing="125%"><tspan
         sodipodi:role="line"
         id="tspan6568"
         x="-75.761444"
         y="-59.284477" /></text>
  </g>
</svg>
