<?xml version="1.0" encoding="UTF-8" standalone="no"?>
<!-- Created with Inkscape (http://www.inkscape.org/) -->
<svg
   xmlns:dc="http://purl.org/dc/elements/1.1/"
   xmlns:cc="http://creativecommons.org/ns#"
   xmlns:rdf="http://www.w3.org/1999/02/22-rdf-syntax-ns#"
   xmlns:svg="http://www.w3.org/2000/svg"
   xmlns="http://www.w3.org/2000/svg"
   xmlns:xlink="http://www.w3.org/1999/xlink"
   xmlns:sodipodi="http://sodipodi.sourceforge.net/DTD/sodipodi-0.dtd"
   xmlns:inkscape="http://www.inkscape.org/namespaces/inkscape"
   width="990"
   height="765"
   id="svg2407"
   sodipodi:version="0.32"
   inkscape:version="0.46"
   version="1.0"
   sodipodi:docname="template_form1.svg"
   inkscape:output_extension="org.inkscape.output.svg.inkscape"
   inkscape:export-filename="I:\_wip\src\notebook\digital\0219\template_form1.png"
   inkscape:export-xdpi="90"
   inkscape:export-ydpi="90">
  <defs
     id="defs2409">
    <inkscape:perspective
       sodipodi:type="inkscape:persp3d"
       inkscape:vp_x="0 : 526.18109 : 1"
       inkscape:vp_y="0 : 1000 : 0"
       inkscape:vp_z="744.09448 : 526.18109 : 1"
       inkscape:persp3d-origin="372.04724 : 350.78739 : 1"
       id="perspective2415" />
    <linearGradient
       y2="140.45406"
       y1="17.152563"
       xlink:href="#linearGradient8301"
       x2="146.39938"
       x1="22.029089"
       id="linearGradient9086"
       gradientUnits="userSpaceOnUse"
       gradientTransform="scale(0.855373,1.169081)" />
    <linearGradient
       y2="18.728254"
       y1="146.6171"
       xlink:href="#linearGradient8301"
       x2="36.519855"
       x1="138.23376"
       id="linearGradient8318"
       gradientUnits="userSpaceOnUse"
       gradientTransform="scale(0.854242,1.170628)" />
    <linearGradient
       y2="128.69501"
       y1="63.099518"
       xlink:href="#linearGradient2060"
       x2="109"
       x1="2"
       id="linearGradient6794"
       gradientUnits="userSpaceOnUse"
       gradientTransform="translate(0,-1)" />
    <linearGradient
       y2="128.69501"
       y1="63.099518"
       xlink:href="#linearGradient2060"
       x2="109"
       x1="2"
       id="linearGradient6792"
       gradientUnits="userSpaceOnUse"
       gradientTransform="translate(0,-1)" />
    <linearGradient
       y2="128.69501"
       y1="63.099518"
       xlink:href="#linearGradient2060"
       x2="109"
       x1="2"
       id="linearGradient6790"
       gradientUnits="userSpaceOnUse"
       gradientTransform="translate(0,-1)" />
    <linearGradient
       y2="128.69501"
       y1="63.099518"
       xlink:href="#linearGradient2060"
       x2="109"
       x1="2"
       id="linearGradient6788"
       gradientUnits="userSpaceOnUse"
       gradientTransform="translate(0,-1)" />
    <linearGradient
       y2="128.69501"
       y1="63.099518"
       xlink:href="#linearGradient2060"
       x2="109"
       x1="2"
       id="linearGradient4853"
       gradientUnits="userSpaceOnUse"
       gradientTransform="translate(0,-1)" />
    <linearGradient
       id="linearGradient2060">
      <stop
         style="stop-color:#ebf0d0;stop-opacity:1.0000000;"
         offset="0.0000000"
         id="stop2062" />
      <stop
         style="stop-color:#ffffeb;stop-opacity:1.0000000;"
         offset="1.0000000"
         id="stop2064" />
    </linearGradient>
    <linearGradient
       id="linearGradient8301">
      <stop
         style="stop-color:#000086;stop-opacity:1.0000000;"
         offset="0.0000000"
         id="stop8314" />
      <stop
         style="stop-color:#005aff;stop-opacity:1.0000000;"
         offset="1.0000000"
         id="stop8316" />
    </linearGradient>
    <inkscape:perspective
       id="perspective3084"
       inkscape:persp3d-origin="70 : 63.333333 : 1"
       inkscape:vp_z="140 : 95 : 1"
       inkscape:vp_y="0 : 1000 : 0"
       inkscape:vp_x="0 : 95 : 1"
       sodipodi:type="inkscape:persp3d" />
    <inkscape:perspective
       id="perspective3489"
       inkscape:persp3d-origin="372.04724 : 350.78739 : 1"
       inkscape:vp_z="744.09448 : 526.18109 : 1"
       inkscape:vp_y="0 : 1000 : 0"
       inkscape:vp_x="0 : 526.18109 : 1"
       sodipodi:type="inkscape:persp3d" />
    <inkscape:perspective
       id="perspective3520"
       inkscape:persp3d-origin="372.04724 : 350.78739 : 1"
       inkscape:vp_z="744.09448 : 526.18109 : 1"
       inkscape:vp_y="0 : 1000 : 0"
       inkscape:vp_x="0 : 526.18109 : 1"
       sodipodi:type="inkscape:persp3d" />
    <inkscape:perspective
       id="perspective3603"
       inkscape:persp3d-origin="372.04724 : 350.78739 : 1"
       inkscape:vp_z="744.09448 : 526.18109 : 1"
       inkscape:vp_y="0 : 1000 : 0"
       inkscape:vp_x="0 : 526.18109 : 1"
       sodipodi:type="inkscape:persp3d" />
    <inkscape:perspective
       sodipodi:type="inkscape:persp3d"
       inkscape:vp_x="0 : 526.18109 : 1"
       inkscape:vp_y="0 : 1000 : 0"
       inkscape:vp_z="744.09448 : 526.18109 : 1"
       inkscape:persp3d-origin="372.04724 : 350.78739 : 1"
       id="perspective2390" />
    <inkscape:perspective
       id="perspective10"
       inkscape:persp3d-origin="372.04724 : 350.78739 : 1"
       inkscape:vp_z="744.09448 : 526.18109 : 1"
       inkscape:vp_y="0 : 1000 : 0"
       inkscape:vp_x="0 : 526.18109 : 1"
       sodipodi:type="inkscape:persp3d" />
    <inkscape:perspective
       sodipodi:type="inkscape:persp3d"
       inkscape:vp_x="0 : 526.18109 : 1"
       inkscape:vp_y="0 : 1000 : 0"
       inkscape:vp_z="744.09448 : 526.18109 : 1"
       inkscape:persp3d-origin="372.04724 : 350.78739 : 1"
       id="perspective2657" />
    <inkscape:perspective
       id="perspective3605"
       inkscape:persp3d-origin="372.04724 : 350.78739 : 1"
       inkscape:vp_z="744.09448 : 526.18109 : 1"
       inkscape:vp_y="0 : 1000 : 0"
       inkscape:vp_x="0 : 526.18109 : 1"
       sodipodi:type="inkscape:persp3d" />
  </defs>
  <sodipodi:namedview
     id="base"
     pagecolor="#ffffff"
     bordercolor="#666666"
     borderopacity="1.0"
     gridtolerance="10000"
     guidetolerance="10"
     objecttolerance="10"
     inkscape:pageopacity="0.0"
     inkscape:pageshadow="2"
     inkscape:zoom="0.7"
     inkscape:cx="614.6616"
     inkscape:cy="499.63619"
     inkscape:document-units="px"
     inkscape:current-layer="layer3"
     showgrid="false"
     inkscape:window-width="1024"
     inkscape:window-height="746"
     inkscape:window-x="0"
     inkscape:window-y="0"
     showguides="true"
     inkscape:guide-bbox="true" />
  <metadata
     id="metadata2412">
    <rdf:RDF>
      <cc:Work
         rdf:about="">
        <dc:format>image/svg+xml</dc:format>
        <dc:type
           rdf:resource="http://purl.org/dc/dcmitype/StillImage" />
      </cc:Work>
    </rdf:RDF>
  </metadata>
  <g
     inkscape:groupmode="layer"
     id="layer4"
     inkscape:label="backbackground"
     style="display:none"
     sodipodi:insensitive="true">
    <path
       d="M 0,0 L 0,765 M 20,0 L 20,765 M 40,0 L 40,765 M 60,0 L 60,765 M 80,0 L 80,765 M 100,0 L 100,765 M 120,0 L 120,765 M 140,0 L 140,765 M 160,0 L 160,765 M 180,0 L 180,765 M 200,0 L 200,765 M 220,0 L 220,765 M 240,0 L 240,765 M 260,0 L 260,765 M 280,0 L 280,765 M 300,0 L 300,765 M 320,0 L 320,765 M 340,0 L 340,765 M 360,0 L 360,765 M 380,0 L 380,765 M 400,0 L 400,765 M 420,0 L 420,765 M 440,0 L 440,765 M 460,0 L 460,765 M 480,0 L 480,765 M 500,0 L 500,765 M 520,0 L 520,765 M 540,0 L 540,765 M 560,0 L 560,765 M 580,0 L 580,765 M 600,0 L 600,765 M 620,0 L 620,765 M 640,0 L 640,765 M 660,0 L 660,765 M 680,0 L 680,765 M 700,0 L 700,765 M 720,0 L 720,765 M 740,0 L 740,765 M 760,0 L 760,765 M 780,0 L 780,765 M 800,0 L 800,765 M 820,0 L 820,765 M 840,0 L 840,765 M 860,0 L 860,765 M 880,0 L 880,765 M 900,0 L 900,765 M 920,0 L 920,765 M 940,0 L 940,765 M 960,0 L 960,765 M 980,0 L 980,765 M 0,0 L 990,0 M 0,20 L 990,20 M 0,40 L 990,40 M 0,60 L 990,60 M 0,80 L 990,80 M 0,100 L 990,100 M 0,120 L 990,120 M 0,140 L 990,140 M 0,160 L 990,160 M 0,180 L 990,180 M 0,200 L 990,200 M 0,220 L 990,220 M 0,240 L 990,240 M 0,260 L 990,260 M 0,280 L 990,280 M 0,300 L 990,300 M 0,320 L 990,320 M 0,340 L 990,340 M 0,360 L 990,360 M 0,380 L 990,380 M 0,400 L 990,400 M 0,420 L 990,420 M 0,440 L 990,440 M 0,460 L 990,460 M 0,480 L 990,480 M 0,500 L 990,500 M 0,520 L 990,520 M 0,540 L 990,540 M 0,560 L 990,560 M 0,580 L 990,580 M 0,600 L 990,600 M 0,620 L 990,620 M 0,640 L 990,640 M 0,660 L 990,660 M 0,680 L 990,680 M 0,700 L 990,700 M 0,720 L 990,720 M 0,740 L 990,740 M 0,760 L 990,760"
       style="fill:none;fill-opacity:0.75;fill-rule:evenodd;stroke:#cccccc;stroke-width:1pt;stroke-linecap:butt;stroke-linejoin:miter;stroke-opacity:1;display:inline"
       id="path3207" />
  </g>
  <g
     inkscape:groupmode="layer"
     id="layer2"
     inkscape:label="background"
     style="display:inline"
     sodipodi:insensitive="true">
    <path
       id="rect2674"
       d="M 372.74444,56.406599 L 621.92396,56.406599 C 637.36962,56.406599 649.8042,63.186431 649.8042,71.608017 L 649.8042,368.03571 C 649.8042,376.4573 637.36962,383.23714 621.92396,383.23714 L 372.74444,383.23714 C 357.29879,383.23714 344.8642,376.4573 344.8642,368.03571 L 344.8642,71.608017 C 344.8642,63.186431 357.29879,56.406599 372.74444,56.406599 z"
       style="fill:none;fill-opacity:1;stroke:#000000;stroke-width:0.95748812;stroke-miterlimit:4;stroke-opacity:1" />
    <rect
       ry="25.426672"
       rx="11.819449"
       y="64.085617"
       x="353.0217"
       height="25.426672"
       width="285.77231"
       id="rect2678"
       style="fill:#ffffff;fill-opacity:1;stroke:#000000;stroke-width:0.95748812;stroke-miterlimit:4;stroke-dasharray:none;stroke-opacity:1" />
    <g
       id="g2680"
       transform="matrix(0.1909655,0,0,0.1989553,354.30833,65.719154)">
      <path
         d="M 60.446161,55.537231 C 60.446161,27.526618 37.739073,4.8195294 9.72846,4.8195294 C -18.282153,4.8195294 -40.989241,27.526618 -40.989241,55.537231 C -40.989241,83.547844 -18.282153,106.25493 9.72846,106.25493 C 37.739073,106.25493 60.446161,83.547844 60.446161,55.537231 L 60.446161,55.537231 z"
         id="path2682"
         style="fill-rule:evenodd;stroke:#000000;stroke-width:13.88094711"
         transform="matrix(0.954661,0,0,0.954661,47.02084,1.929386)" />
      <path
         d="M 57.3715,27.76321 C 49.69117,25.62996 48.27614,16.50681 56.48014,13.50082 C 68.22353,9.197998 73.63102,25.58189 66.1294,32.73964 C 57.38492,41.0833 41.21971,37.37122 38.47127,25.13077 C 37.22,19.55833 40.95759,12.22084 45.27893,9.055252 C 17.7102,16.41563 7.337985,40.73051 9.391875,60.2298 C 12.98337,55.02586 15.41195,50.13405 21.57747,47.37701 C 36.6158,40.65247 51.64266,52.4292 66.31929,42.12036 C 80.16084,32.39799 76.41115,9.797058 57.3715,9.985504 C 44.42328,10.11368 37.36764,30.57243 52.00588,32.8405 C 57.15351,33.63808 63.35098,31.9133 65.54874,26.80649 C 67.50783,22.25441 63.57308,16.19102 58.28362,16.80077 C 51.38996,17.59552 55.05321,24.64157 57.3715,27.76321 z"
         id="path2684"
         style="fill:#ffffff" />
      <path
         d="M 73.21464,10.89928 C 77.74805,14.1714 80.42045,20.02633 80.47395,24.9172 C 80.67065,42.8764 60.99718,52.12807 63.90473,71.4234 C 66.31206,87.39919 88.1272,93.00941 96.24566,77.55283 C 102.8299,65.01756 85.59602,50.32248 77.06655,63.56403 C 74.50263,67.54426 74.445,73.95325 78.15746,77.28678 C 81.56236,80.3442 88.30049,79.50556 89.90167,74.85135 C 92.13784,68.35171 84.5868,68.29205 80.63764,69.66845 C 84.77122,64.559 93.61197,65.26835 93.96583,73.17835 C 94.61852,87.77012 72.32053,84.58696 70.97307,71.4234 C 69.28597,52.07086 97.28015,46.83149 100.916,70.22293 C 108.7892,47.28788 98.12712,20.79383 73.21464,10.89928 z"
         id="path2686"
         style="fill:#ffffff" />
      <path
         d="M 29.79359,66.77673 C 34.27921,71.15189 29.57453,77.80548 23.53313,77.01401 C 8.920531,75.09941 17.30264,52.59209 31.58329,56.81641 C 43.57895,60.36484 48.46471,74.61052 37.39976,83.49686 C 31.42313,87.61887 24.52385,88.34091 19.38784,84.34715 C 34.87921,104.6796 67.82317,109.126 88.45577,89.39819 C 82.29923,91.25076 70.82304,91.62292 63.89178,84.31274 C 53.66991,73.53203 54.40986,58.2621 38.7421,51.81976 C 22.14915,44.99695 4.387553,63.22281 17.01503,78.01872 C 25.81356,88.32817 45.7911,78.62679 37.19615,65.91278 C 34.452,61.85356 28.61131,59.10461 23.69876,61.16386 C 19.93976,62.73964 18.52474,69.37241 21.50933,72.267 C 25.89338,76.51901 29.50285,70.54565 29.79359,66.77673 z"
         id="path2688"
         style="fill:#ffffff" />
    </g>
    <rect
       style="fill:#ffffff;fill-opacity:1;stroke:#000000;stroke-width:0.95748812;stroke-miterlimit:4;stroke-dasharray:none;stroke-opacity:1"
       id="rect2731"
       width="285.07239"
       height="277.86069"
       x="353.43527"
       y="96.510033"
       ry="12.923752"
       rx="26.063765" />
    <path
       id="path2885"
       d="M 688.24312,55.073969 L 937.42265,55.073969 C 952.8683,55.073969 965.30288,59.939333 965.30288,65.982857 L 965.30288,278.70623 C 965.30288,284.74975 952.8683,289.61511 937.42265,289.61511 L 688.24312,289.61511 C 672.79747,289.61511 660.36289,284.74975 660.36289,278.70623 L 660.36289,65.982857 C 660.36289,59.939333 672.79747,55.073969 688.24312,55.073969 z"
       style="fill:none;fill-opacity:1;stroke:#000000;stroke-width:0.95748812;stroke-miterlimit:4;stroke-opacity:1" />
    <rect
       ry="25.426672"
       rx="11.819449"
       y="62.752987"
       x="668.52039"
       height="25.426672"
       width="285.77231"
       id="rect2889"
       style="fill:#ffffff;fill-opacity:1;stroke:#000000;stroke-width:0.95748812;stroke-miterlimit:4;stroke-dasharray:none;stroke-opacity:1" />
    <g
       id="g2891"
       transform="matrix(0.1909655,0,0,0.1989553,669.80701,64.386525)">
      <path
         d="M 60.446161,55.537231 C 60.446161,27.526618 37.739073,4.8195294 9.72846,4.8195294 C -18.282153,4.8195294 -40.989241,27.526618 -40.989241,55.537231 C -40.989241,83.547844 -18.282153,106.25493 9.72846,106.25493 C 37.739073,106.25493 60.446161,83.547844 60.446161,55.537231 L 60.446161,55.537231 z"
         id="path2893"
         style="fill-rule:evenodd;stroke:#000000;stroke-width:13.88094711"
         transform="matrix(0.954661,0,0,0.954661,47.02084,1.929386)" />
      <path
         d="M 57.3715,27.76321 C 49.69117,25.62996 48.27614,16.50681 56.48014,13.50082 C 68.22353,9.197998 73.63102,25.58189 66.1294,32.73964 C 57.38492,41.0833 41.21971,37.37122 38.47127,25.13077 C 37.22,19.55833 40.95759,12.22084 45.27893,9.055252 C 17.7102,16.41563 7.337985,40.73051 9.391875,60.2298 C 12.98337,55.02586 15.41195,50.13405 21.57747,47.37701 C 36.6158,40.65247 51.64266,52.4292 66.31929,42.12036 C 80.16084,32.39799 76.41115,9.797058 57.3715,9.985504 C 44.42328,10.11368 37.36764,30.57243 52.00588,32.8405 C 57.15351,33.63808 63.35098,31.9133 65.54874,26.80649 C 67.50783,22.25441 63.57308,16.19102 58.28362,16.80077 C 51.38996,17.59552 55.05321,24.64157 57.3715,27.76321 z"
         id="path2895"
         style="fill:#ffffff" />
      <path
         d="M 73.21464,10.89928 C 77.74805,14.1714 80.42045,20.02633 80.47395,24.9172 C 80.67065,42.8764 60.99718,52.12807 63.90473,71.4234 C 66.31206,87.39919 88.1272,93.00941 96.24566,77.55283 C 102.8299,65.01756 85.59602,50.32248 77.06655,63.56403 C 74.50263,67.54426 74.445,73.95325 78.15746,77.28678 C 81.56236,80.3442 88.30049,79.50556 89.90167,74.85135 C 92.13784,68.35171 84.5868,68.29205 80.63764,69.66845 C 84.77122,64.559 93.61197,65.26835 93.96583,73.17835 C 94.61852,87.77012 72.32053,84.58696 70.97307,71.4234 C 69.28597,52.07086 97.28015,46.83149 100.916,70.22293 C 108.7892,47.28788 98.12712,20.79383 73.21464,10.89928 z"
         id="path2897"
         style="fill:#ffffff" />
      <path
         d="M 29.79359,66.77673 C 34.27921,71.15189 29.57453,77.80548 23.53313,77.01401 C 8.920531,75.09941 17.30264,52.59209 31.58329,56.81641 C 43.57895,60.36484 48.46471,74.61052 37.39976,83.49686 C 31.42313,87.61887 24.52385,88.34091 19.38784,84.34715 C 34.87921,104.6796 67.82317,109.126 88.45577,89.39819 C 82.29923,91.25076 70.82304,91.62292 63.89178,84.31274 C 53.66991,73.53203 54.40986,58.2621 38.7421,51.81976 C 22.14915,44.99695 4.387553,63.22281 17.01503,78.01872 C 25.81356,88.32817 45.7911,78.62679 37.19615,65.91278 C 34.452,61.85356 28.61131,59.10461 23.69876,61.16386 C 19.93976,62.73964 18.52474,69.37241 21.50933,72.267 C 25.89338,76.51901 29.50285,70.54565 29.79359,66.77673 z"
         id="path2899"
         style="fill:#ffffff" />
    </g>
    <rect
       style="fill:#ffffff;fill-opacity:1;stroke:#000000;stroke-width:0.95748812;stroke-miterlimit:4;stroke-dasharray:none;stroke-opacity:1"
       id="rect2903"
       width="285.07239"
       height="180.86264"
       x="668.93396"
       y="95.177399"
       ry="8.4122152"
       rx="26.063765" />
    <rect
       style="fill:none;fill-opacity:1;stroke:#000000;stroke-width:0.95748806;stroke-miterlimit:4;stroke-dasharray:none;stroke-opacity:1"
       id="rect2912"
       width="304.94"
       height="153.55247"
       x="341.737"
       y="395.01978"
       ry="7.1419749"
       rx="27.88023" />
    <rect
       ry="25.426672"
       rx="11.819449"
       y="402.69879"
       x="349.89447"
       height="25.426672"
       width="285.77231"
       id="rect2916"
       style="fill:#ffffff;fill-opacity:1;stroke:#000000;stroke-width:0.95748812;stroke-miterlimit:4;stroke-dasharray:none;stroke-opacity:1" />
    <g
       id="g2918"
       transform="matrix(0.1909655,0,0,0.1989553,351.18112,404.33234)">
      <path
         d="M 60.446161,55.537231 C 60.446161,27.526618 37.739073,4.8195294 9.72846,4.8195294 C -18.282153,4.8195294 -40.989241,27.526618 -40.989241,55.537231 C -40.989241,83.547844 -18.282153,106.25493 9.72846,106.25493 C 37.739073,106.25493 60.446161,83.547844 60.446161,55.537231 L 60.446161,55.537231 z"
         id="path2920"
         style="fill-rule:evenodd;stroke:#000000;stroke-width:13.88094711"
         transform="matrix(0.954661,0,0,0.954661,47.02084,1.929386)" />
      <path
         d="M 57.3715,27.76321 C 49.69117,25.62996 48.27614,16.50681 56.48014,13.50082 C 68.22353,9.197998 73.63102,25.58189 66.1294,32.73964 C 57.38492,41.0833 41.21971,37.37122 38.47127,25.13077 C 37.22,19.55833 40.95759,12.22084 45.27893,9.055252 C 17.7102,16.41563 7.337985,40.73051 9.391875,60.2298 C 12.98337,55.02586 15.41195,50.13405 21.57747,47.37701 C 36.6158,40.65247 51.64266,52.4292 66.31929,42.12036 C 80.16084,32.39799 76.41115,9.797058 57.3715,9.985504 C 44.42328,10.11368 37.36764,30.57243 52.00588,32.8405 C 57.15351,33.63808 63.35098,31.9133 65.54874,26.80649 C 67.50783,22.25441 63.57308,16.19102 58.28362,16.80077 C 51.38996,17.59552 55.05321,24.64157 57.3715,27.76321 z"
         id="path2922"
         style="fill:#ffffff" />
      <path
         d="M 73.21464,10.89928 C 77.74805,14.1714 80.42045,20.02633 80.47395,24.9172 C 80.67065,42.8764 60.99718,52.12807 63.90473,71.4234 C 66.31206,87.39919 88.1272,93.00941 96.24566,77.55283 C 102.8299,65.01756 85.59602,50.32248 77.06655,63.56403 C 74.50263,67.54426 74.445,73.95325 78.15746,77.28678 C 81.56236,80.3442 88.30049,79.50556 89.90167,74.85135 C 92.13784,68.35171 84.5868,68.29205 80.63764,69.66845 C 84.77122,64.559 93.61197,65.26835 93.96583,73.17835 C 94.61852,87.77012 72.32053,84.58696 70.97307,71.4234 C 69.28597,52.07086 97.28015,46.83149 100.916,70.22293 C 108.7892,47.28788 98.12712,20.79383 73.21464,10.89928 z"
         id="path2924"
         style="fill:#ffffff" />
      <path
         d="M 29.79359,66.77673 C 34.27921,71.15189 29.57453,77.80548 23.53313,77.01401 C 8.920531,75.09941 17.30264,52.59209 31.58329,56.81641 C 43.57895,60.36484 48.46471,74.61052 37.39976,83.49686 C 31.42313,87.61887 24.52385,88.34091 19.38784,84.34715 C 34.87921,104.6796 67.82317,109.126 88.45577,89.39819 C 82.29923,91.25076 70.82304,91.62292 63.89178,84.31274 C 53.66991,73.53203 54.40986,58.2621 38.7421,51.81976 C 22.14915,44.99695 4.387553,63.22281 17.01503,78.01872 C 25.81356,88.32817 45.7911,78.62679 37.19615,65.91278 C 34.452,61.85356 28.61131,59.10461 23.69876,61.16386 C 19.93976,62.73964 18.52474,69.37241 21.50933,72.267 C 25.89338,76.51901 29.50285,70.54565 29.79359,66.77673 z"
         id="path2926"
         style="fill:#ffffff" />
    </g>
    <rect
       style="fill:#ffffff;fill-opacity:1;stroke:#000000;stroke-width:0.957488;stroke-miterlimit:4;stroke-dasharray:none;stroke-opacity:1;display:inline"
       id="rect2896"
       width="285.07239"
       height="107.42881"
       x="350.45514"
       y="432.22571"
       ry="4.9966884"
       rx="26.063765" />
    <rect
       style="fill:#ffffff;fill-opacity:1;stroke:#000000;stroke-width:0.95748806;stroke-miterlimit:4;stroke-dasharray:none;stroke-opacity:1;display:inline"
       id="rect2890"
       width="285.07239"
       height="80.118668"
       x="32.71344"
       y="95.086914"
       ry="3.7264497"
       rx="26.063765" />
    <rect
       style="fill:none;fill-opacity:1;stroke:#000000;stroke-width:0.95748812;stroke-miterlimit:4;stroke-dasharray:none;stroke-opacity:1;display:inline"
       id="rect2894"
       width="304.94"
       height="132.83446"
       x="23.075449"
       y="55.997486"
       ry="6.1783462"
       rx="27.88023" />
    <rect
       ry="25.426672"
       rx="11.819449"
       y="63.676506"
       x="31.232927"
       height="25.426672"
       width="285.77231"
       id="rect2898"
       style="fill:#ffffff;fill-opacity:1;stroke:#000000;stroke-width:0.95748812;stroke-miterlimit:4;stroke-dasharray:none;stroke-opacity:1;display:inline" />
    <g
       style="display:inline"
       id="g6501"
       transform="matrix(1,0,0,0.9488988,0,38.035327)">
      <path
         d="M 52.518703,40.264608 C 52.518703,34.657905 48.379036,30.112775 43.272496,30.112775 C 38.165957,30.112775 34.026289,34.657905 34.026289,40.264608 C 34.026289,45.87131 38.165957,50.41644 43.272496,50.41644 C 48.379036,50.41644 52.518703,45.87131 52.518703,40.264608 L 52.518703,40.264608 z"
         id="path2902"
         style="fill-rule:evenodd;stroke:#000000;stroke-width:2.65163398" />
      <path
         d="M 43.475546,34.564651 C 42.008868,34.117373 41.738646,32.204525 43.305327,31.57426 C 45.54791,30.672088 46.580554,34.107294 45.148003,35.608057 C 43.478109,37.35747 40.391112,36.579159 39.866254,34.012708 C 39.627305,32.844336 40.341056,31.305887 41.166283,30.642159 C 35.901606,32.185407 33.920871,37.283501 34.313093,41.371911 C 34.998945,40.280803 35.46272,39.255138 36.640121,38.67707 C 39.511924,37.267138 42.381535,39.736362 45.184265,37.57491 C 47.827524,35.536424 47.111462,30.797693 43.475546,30.837205 C 41.002883,30.864079 39.655499,35.153659 42.450898,35.629205 C 43.433918,35.796433 44.617421,35.434799 45.037117,34.364056 C 45.411236,33.409622 44.659834,32.138313 43.64973,32.266159 C 42.333278,32.432794 43.032833,33.910138 43.475546,34.564651 z"
         id="path2904"
         style="fill:#ffffff" />
      <path
         d="M 46.501039,31.028796 C 47.366764,31.71486 47.8771,32.942462 47.887317,33.967929 C 47.92488,37.733429 44.167926,39.673224 44.723168,43.71887 C 45.182885,47.068509 49.348824,48.244802 50.89917,45.004026 C 52.156532,42.375759 48.865456,39.294646 47.236621,42.070998 C 46.747001,42.905532 46.735996,44.249303 47.444947,44.948243 C 48.095166,45.589291 49.381916,45.413454 49.687686,44.437607 C 50.114718,43.07483 48.67273,43.062321 47.918576,43.35091 C 48.707947,42.279613 50.396226,42.428342 50.463801,44.08683 C 50.588442,47.146282 46.330295,46.47887 46.072977,43.71887 C 45.750799,39.661229 51.096721,38.562691 51.791043,43.467168 C 53.294553,38.658383 51.258464,33.103383 46.501039,31.028796 z"
         id="path2906"
         style="fill:#ffffff" />
      <path
         d="M 38.209117,42.744604 C 39.065715,43.661942 38.167284,45.056999 37.013585,44.891051 C 34.223083,44.489618 35.823776,39.770515 38.550888,40.656227 C 40.841645,41.400225 41.774657,44.387112 39.661633,46.250309 C 38.520303,47.114569 37.202778,47.265959 36.221978,46.428589 C 39.180295,50.691687 45.471455,51.623963 49.411569,47.487639 C 48.235883,47.876066 46.044326,47.954097 44.720695,46.421374 C 42.76867,44.160986 42.909975,40.959344 39.917973,39.608581 C 36.749293,38.178044 33.35744,41.999455 35.768853,45.101709 C 37.449068,47.263288 41.264089,45.229202 39.62275,42.56346 C 39.098712,41.712364 37.983342,41.135993 37.045215,41.567755 C 36.327375,41.898148 36.057155,43.288839 36.627109,43.895747 C 37.464311,44.787265 38.153596,43.534832 38.209117,42.744604 z"
         id="path2908"
         style="fill:#ffffff" />
    </g>
    <rect
       style="fill:#ffffff;fill-opacity:1;stroke:#000000;stroke-width:0.95748806;stroke-miterlimit:4;stroke-dasharray:none;stroke-opacity:1;display:inline"
       id="rect4905"
       width="285.07239"
       height="151.69003"
       x="34.404392"
       y="244.83997"
       ry="7.0553508"
       rx="26.063765" />
    <rect
       style="fill:none;fill-opacity:1;stroke:#000000;stroke-width:0.95748812;stroke-miterlimit:4;stroke-dasharray:none;stroke-opacity:1;display:inline"
       id="rect4907"
       width="304.94"
       height="207.231"
       x="24.766401"
       y="203.86708"
       ry="9.6386509"
       rx="27.88023" />
    <rect
       ry="25.426672"
       rx="11.819449"
       y="211.54611"
       x="32.923882"
       height="25.426672"
       width="285.77231"
       id="rect4911"
       style="fill:#ffffff;fill-opacity:1;stroke:#000000;stroke-width:0.95748812;stroke-miterlimit:4;stroke-dasharray:none;stroke-opacity:1;display:inline" />
    <g
       style="display:inline"
       id="g4913"
       transform="matrix(0.1909655,0,0,0.1989553,34.210522,213.17964)">
      <path
         d="M 60.446161,55.537231 C 60.446161,27.526618 37.739073,4.8195294 9.72846,4.8195294 C -18.282153,4.8195294 -40.989241,27.526618 -40.989241,55.537231 C -40.989241,83.547844 -18.282153,106.25493 9.72846,106.25493 C 37.739073,106.25493 60.446161,83.547844 60.446161,55.537231 L 60.446161,55.537231 z"
         id="path4915"
         style="fill-rule:evenodd;stroke:#000000;stroke-width:13.88094711"
         transform="matrix(0.954661,0,0,0.954661,47.02084,1.929386)" />
      <path
         d="M 57.3715,27.76321 C 49.69117,25.62996 48.27614,16.50681 56.48014,13.50082 C 68.22353,9.197998 73.63102,25.58189 66.1294,32.73964 C 57.38492,41.0833 41.21971,37.37122 38.47127,25.13077 C 37.22,19.55833 40.95759,12.22084 45.27893,9.055252 C 17.7102,16.41563 7.337985,40.73051 9.391875,60.2298 C 12.98337,55.02586 15.41195,50.13405 21.57747,47.37701 C 36.6158,40.65247 51.64266,52.4292 66.31929,42.12036 C 80.16084,32.39799 76.41115,9.797058 57.3715,9.985504 C 44.42328,10.11368 37.36764,30.57243 52.00588,32.8405 C 57.15351,33.63808 63.35098,31.9133 65.54874,26.80649 C 67.50783,22.25441 63.57308,16.19102 58.28362,16.80077 C 51.38996,17.59552 55.05321,24.64157 57.3715,27.76321 z"
         id="path4917"
         style="fill:#ffffff" />
      <path
         d="M 73.21464,10.89928 C 77.74805,14.1714 80.42045,20.02633 80.47395,24.9172 C 80.67065,42.8764 60.99718,52.12807 63.90473,71.4234 C 66.31206,87.39919 88.1272,93.00941 96.24566,77.55283 C 102.8299,65.01756 85.59602,50.32248 77.06655,63.56403 C 74.50263,67.54426 74.445,73.95325 78.15746,77.28678 C 81.56236,80.3442 88.30049,79.50556 89.90167,74.85135 C 92.13784,68.35171 84.5868,68.29205 80.63764,69.66845 C 84.77122,64.559 93.61197,65.26835 93.96583,73.17835 C 94.61852,87.77012 72.32053,84.58696 70.97307,71.4234 C 69.28597,52.07086 97.28015,46.83149 100.916,70.22293 C 108.7892,47.28788 98.12712,20.79383 73.21464,10.89928 z"
         id="path4919"
         style="fill:#ffffff" />
      <path
         d="M 29.79359,66.77673 C 34.27921,71.15189 29.57453,77.80548 23.53313,77.01401 C 8.920531,75.09941 17.30264,52.59209 31.58329,56.81641 C 43.57895,60.36484 48.46471,74.61052 37.39976,83.49686 C 31.42313,87.61887 24.52385,88.34091 19.38784,84.34715 C 34.87921,104.6796 67.82317,109.126 88.45577,89.39819 C 82.29923,91.25076 70.82304,91.62292 63.89178,84.31274 C 53.66991,73.53203 54.40986,58.2621 38.7421,51.81976 C 22.14915,44.99695 4.387553,63.22281 17.01503,78.01872 C 25.81356,88.32817 45.7911,78.62679 37.19615,65.91278 C 34.452,61.85356 28.61131,59.10461 23.69876,61.16386 C 19.93976,62.73964 18.52474,69.37241 21.50933,72.267 C 25.89338,76.51901 29.50285,70.54565 29.79359,66.77673 z"
         id="path4921"
         style="fill:#ffffff" />
    </g>
    <rect
       style="fill:none;fill-opacity:1;stroke:#000000;stroke-width:0.95748806;stroke-miterlimit:4;stroke-dasharray:none;stroke-opacity:1;display:inline"
       id="rect2876"
       width="306.92673"
       height="314.53262"
       x="25.052691"
       y="429.31531"
       ry="14.629423"
       rx="28.061876" />
    <rect
       ry="25.426672"
       rx="11.819449"
       y="436.99432"
       x="33.210171"
       height="25.426672"
       width="285.77231"
       id="rect2880"
       style="fill:#ffffff;fill-opacity:1;stroke:#000000;stroke-width:0.95748812;stroke-miterlimit:4;stroke-dasharray:none;stroke-opacity:1;display:inline" />
    <g
       style="display:inline"
       id="g2882"
       transform="matrix(0.1909655,0,0,0.1989553,34.496811,438.62787)">
      <path
         d="M 60.446161,55.537231 C 60.446161,27.526618 37.739073,4.8195294 9.72846,4.8195294 C -18.282153,4.8195294 -40.989241,27.526618 -40.989241,55.537231 C -40.989241,83.547844 -18.282153,106.25493 9.72846,106.25493 C 37.739073,106.25493 60.446161,83.547844 60.446161,55.537231 L 60.446161,55.537231 z"
         id="path2884"
         style="fill-rule:evenodd;stroke:#000000;stroke-width:13.88094711"
         transform="matrix(0.954661,0,0,0.954661,47.02084,1.929386)" />
      <path
         d="M 57.3715,27.76321 C 49.69117,25.62996 48.27614,16.50681 56.48014,13.50082 C 68.22353,9.197998 73.63102,25.58189 66.1294,32.73964 C 57.38492,41.0833 41.21971,37.37122 38.47127,25.13077 C 37.22,19.55833 40.95759,12.22084 45.27893,9.055252 C 17.7102,16.41563 7.337985,40.73051 9.391875,60.2298 C 12.98337,55.02586 15.41195,50.13405 21.57747,47.37701 C 36.6158,40.65247 51.64266,52.4292 66.31929,42.12036 C 80.16084,32.39799 76.41115,9.797058 57.3715,9.985504 C 44.42328,10.11368 37.36764,30.57243 52.00588,32.8405 C 57.15351,33.63808 63.35098,31.9133 65.54874,26.80649 C 67.50783,22.25441 63.57308,16.19102 58.28362,16.80077 C 51.38996,17.59552 55.05321,24.64157 57.3715,27.76321 z"
         id="path2886"
         style="fill:#ffffff" />
      <path
         d="M 73.21464,10.89928 C 77.74805,14.1714 80.42045,20.02633 80.47395,24.9172 C 80.67065,42.8764 60.99718,52.12807 63.90473,71.4234 C 66.31206,87.39919 88.1272,93.00941 96.24566,77.55283 C 102.8299,65.01756 85.59602,50.32248 77.06655,63.56403 C 74.50263,67.54426 74.445,73.95325 78.15746,77.28678 C 81.56236,80.3442 88.30049,79.50556 89.90167,74.85135 C 92.13784,68.35171 84.5868,68.29205 80.63764,69.66845 C 84.77122,64.559 93.61197,65.26835 93.96583,73.17835 C 94.61852,87.77012 72.32053,84.58696 70.97307,71.4234 C 69.28597,52.07086 97.28015,46.83149 100.916,70.22293 C 108.7892,47.28788 98.12712,20.79383 73.21464,10.89928 z"
         id="path2888"
         style="fill:#ffffff" />
      <path
         d="M 29.79359,66.77673 C 34.27921,71.15189 29.57453,77.80548 23.53313,77.01401 C 8.920531,75.09941 17.30264,52.59209 31.58329,56.81641 C 43.57895,60.36484 48.46471,74.61052 37.39976,83.49686 C 31.42313,87.61887 24.52385,88.34091 19.38784,84.34715 C 34.87921,104.6796 67.82317,109.126 88.45577,89.39819 C 82.29923,91.25076 70.82304,91.62292 63.89178,84.31274 C 53.66991,73.53203 54.40986,58.2621 38.7421,51.81976 C 22.14915,44.99695 4.387553,63.22281 17.01503,78.01872 C 25.81356,88.32817 45.7911,78.62679 37.19615,65.91278 C 34.452,61.85356 28.61131,59.10461 23.69876,61.16386 C 19.93976,62.73964 18.52474,69.37241 21.50933,72.267 C 25.89338,76.51901 29.50285,70.54565 29.79359,66.77673 z"
         id="path2890"
         style="fill:#ffffff" />
    </g>
    <rect
       style="fill:#ffffff;fill-opacity:1;stroke:#000000;stroke-width:0.95748806;stroke-miterlimit:4;stroke-dasharray:none;stroke-opacity:1;display:inline"
       id="rect2887"
       width="285.07239"
       height="263.75577"
       x="34.61713"
       y="470.28815"
       ry="12.267709"
       rx="26.063765" />
    <path
       id="path2863"
       d="M 688.24312,303.69034 L 937.42265,303.69034 C 952.86831,303.69034 965.30288,308.45802 965.30288,314.38021 L 965.30288,522.83295 C 965.30288,528.75515 952.86831,533.52284 937.42265,533.52284 L 688.24312,533.52284 C 672.79748,533.52284 660.36289,528.75515 660.36289,522.83295 L 660.36289,314.38021 C 660.36289,308.45802 672.79748,303.69034 688.24312,303.69034 z"
       style="fill:none;fill-opacity:1;stroke:#000000;stroke-width:0.95748812;stroke-miterlimit:4;stroke-opacity:1;display:inline" />
    <rect
       ry="25.426672"
       rx="11.819449"
       y="314.19452"
       x="666.53363"
       height="25.426672"
       width="285.77231"
       id="rect2867"
       style="fill:#ffffff;fill-opacity:1;stroke:#000000;stroke-width:0.95748812;stroke-miterlimit:4;stroke-dasharray:none;stroke-opacity:1;display:inline" />
    <g
       style="display:inline"
       id="g2869"
       transform="matrix(0.1909655,0,0,0.1989553,667.82026,315.82807)">
      <path
         d="M 60.446161,55.537231 C 60.446161,27.526618 37.739073,4.8195294 9.72846,4.8195294 C -18.282153,4.8195294 -40.989241,27.526618 -40.989241,55.537231 C -40.989241,83.547844 -18.282153,106.25493 9.72846,106.25493 C 37.739073,106.25493 60.446161,83.547844 60.446161,55.537231 L 60.446161,55.537231 z"
         id="path2871"
         style="fill-rule:evenodd;stroke:#000000;stroke-width:13.88094711"
         transform="matrix(0.954661,0,0,0.954661,47.02084,1.929386)" />
      <path
         d="M 57.3715,27.76321 C 49.69117,25.62996 48.27614,16.50681 56.48014,13.50082 C 68.22353,9.197998 73.63102,25.58189 66.1294,32.73964 C 57.38492,41.0833 41.21971,37.37122 38.47127,25.13077 C 37.22,19.55833 40.95759,12.22084 45.27893,9.055252 C 17.7102,16.41563 7.337985,40.73051 9.391875,60.2298 C 12.98337,55.02586 15.41195,50.13405 21.57747,47.37701 C 36.6158,40.65247 51.64266,52.4292 66.31929,42.12036 C 80.16084,32.39799 76.41115,9.797058 57.3715,9.985504 C 44.42328,10.11368 37.36764,30.57243 52.00588,32.8405 C 57.15351,33.63808 63.35098,31.9133 65.54874,26.80649 C 67.50783,22.25441 63.57308,16.19102 58.28362,16.80077 C 51.38996,17.59552 55.05321,24.64157 57.3715,27.76321 z"
         id="path2873"
         style="fill:#ffffff" />
      <path
         d="M 73.21464,10.89928 C 77.74805,14.1714 80.42045,20.02633 80.47395,24.9172 C 80.67065,42.8764 60.99718,52.12807 63.90473,71.4234 C 66.31206,87.39919 88.1272,93.00941 96.24566,77.55283 C 102.8299,65.01756 85.59602,50.32248 77.06655,63.56403 C 74.50263,67.54426 74.445,73.95325 78.15746,77.28678 C 81.56236,80.3442 88.30049,79.50556 89.90167,74.85135 C 92.13784,68.35171 84.5868,68.29205 80.63764,69.66845 C 84.77122,64.559 93.61197,65.26835 93.96583,73.17835 C 94.61852,87.77012 72.32053,84.58696 70.97307,71.4234 C 69.28597,52.07086 97.28015,46.83149 100.916,70.22293 C 108.7892,47.28788 98.12712,20.79383 73.21464,10.89928 z"
         id="path2875"
         style="fill:#ffffff" />
      <path
         d="M 29.79359,66.77673 C 34.27921,71.15189 29.57453,77.80548 23.53313,77.01401 C 8.920531,75.09941 17.30264,52.59209 31.58329,56.81641 C 43.57895,60.36484 48.46471,74.61052 37.39976,83.49686 C 31.42313,87.61887 24.52385,88.34091 19.38784,84.34715 C 34.87921,104.6796 67.82317,109.126 88.45577,89.39819 C 82.29923,91.25076 70.82304,91.62292 63.89178,84.31274 C 53.66991,73.53203 54.40986,58.2621 38.7421,51.81976 C 22.14915,44.99695 4.387553,63.22281 17.01503,78.01872 C 25.81356,88.32817 45.7911,78.62679 37.19615,65.91278 C 34.452,61.85356 28.61131,59.10461 23.69876,61.16386 C 19.93976,62.73964 18.52474,69.37241 21.50933,72.267 C 25.89338,76.51901 29.50285,70.54565 29.79359,66.77673 z"
         id="path2877"
         style="fill:#ffffff" />
    </g>
    <rect
       style="fill:#ffffff;fill-opacity:1;stroke:#000000;stroke-width:0.95748812;stroke-miterlimit:4;stroke-dasharray:none;stroke-opacity:1;display:inline"
       id="rect2881"
       width="285.07239"
       height="165.79497"
       x="668.93396"
       y="350.38586"
       ry="7.7113938"
       rx="26.063765" />
    <path
       id="path3498"
       d="M 688.24312,539.44211 L 937.42265,539.44211 C 952.8683,539.44211 965.30283,543.68233 965.30283,548.94935 L 965.30283,734.34069 C 965.30283,739.6077 952.8683,743.84794 937.42265,743.84794 L 688.24312,743.84794 C 672.79748,743.84794 660.36289,739.6077 660.36289,734.34069 L 660.36289,548.94935 C 660.36289,543.68233 672.79748,539.44211 688.24312,539.44211 z"
       style="fill:none;fill-opacity:1;stroke:#000000;stroke-width:0.95748812;stroke-miterlimit:4;stroke-opacity:1;display:inline" />
    <rect
       ry="25.426672"
       rx="11.819449"
       y="549.94629"
       x="666.53363"
       height="25.426672"
       width="285.77231"
       id="rect3502"
       style="fill:#ffffff;fill-opacity:1;stroke:#000000;stroke-width:0.95748812;stroke-miterlimit:4;stroke-dasharray:none;stroke-opacity:1;display:inline" />
    <g
       style="display:inline"
       id="g3504"
       transform="matrix(0.1909655,0,0,0.1989553,667.82025,551.57982)">
      <path
         d="M 60.446161,55.537231 C 60.446161,27.526618 37.739073,4.8195294 9.72846,4.8195294 C -18.282153,4.8195294 -40.989241,27.526618 -40.989241,55.537231 C -40.989241,83.547844 -18.282153,106.25493 9.72846,106.25493 C 37.739073,106.25493 60.446161,83.547844 60.446161,55.537231 L 60.446161,55.537231 z"
         id="path3506"
         style="fill-rule:evenodd;stroke:#000000;stroke-width:13.88094711"
         transform="matrix(0.954661,0,0,0.954661,47.02084,1.929386)" />
      <path
         d="M 57.3715,27.76321 C 49.69117,25.62996 48.27614,16.50681 56.48014,13.50082 C 68.22353,9.197998 73.63102,25.58189 66.1294,32.73964 C 57.38492,41.0833 41.21971,37.37122 38.47127,25.13077 C 37.22,19.55833 40.95759,12.22084 45.27893,9.055252 C 17.7102,16.41563 7.337985,40.73051 9.391875,60.2298 C 12.98337,55.02586 15.41195,50.13405 21.57747,47.37701 C 36.6158,40.65247 51.64266,52.4292 66.31929,42.12036 C 80.16084,32.39799 76.41115,9.797058 57.3715,9.985504 C 44.42328,10.11368 37.36764,30.57243 52.00588,32.8405 C 57.15351,33.63808 63.35098,31.9133 65.54874,26.80649 C 67.50783,22.25441 63.57308,16.19102 58.28362,16.80077 C 51.38996,17.59552 55.05321,24.64157 57.3715,27.76321 z"
         id="path3508"
         style="fill:#ffffff" />
      <path
         d="M 73.21464,10.89928 C 77.74805,14.1714 80.42045,20.02633 80.47395,24.9172 C 80.67065,42.8764 60.99718,52.12807 63.90473,71.4234 C 66.31206,87.39919 88.1272,93.00941 96.24566,77.55283 C 102.8299,65.01756 85.59602,50.32248 77.06655,63.56403 C 74.50263,67.54426 74.445,73.95325 78.15746,77.28678 C 81.56236,80.3442 88.30049,79.50556 89.90167,74.85135 C 92.13784,68.35171 84.5868,68.29205 80.63764,69.66845 C 84.77122,64.559 93.61197,65.26835 93.96583,73.17835 C 94.61852,87.77012 72.32053,84.58696 70.97307,71.4234 C 69.28597,52.07086 97.28015,46.83149 100.916,70.22293 C 108.7892,47.28788 98.12712,20.79383 73.21464,10.89928 z"
         id="path3510"
         style="fill:#ffffff" />
      <path
         d="M 29.79359,66.77673 C 34.27921,71.15189 29.57453,77.80548 23.53313,77.01401 C 8.920531,75.09941 17.30264,52.59209 31.58329,56.81641 C 43.57895,60.36484 48.46471,74.61052 37.39976,83.49686 C 31.42313,87.61887 24.52385,88.34091 19.38784,84.34715 C 34.87921,104.6796 67.82317,109.126 88.45577,89.39819 C 82.29923,91.25076 70.82304,91.62292 63.89178,84.31274 C 53.66991,73.53203 54.40986,58.2621 38.7421,51.81976 C 22.14915,44.99695 4.387553,63.22281 17.01503,78.01872 C 25.81356,88.32817 45.7911,78.62679 37.19615,65.91278 C 34.452,61.85356 28.61131,59.10461 23.69876,61.16386 C 19.93976,62.73964 18.52474,69.37241 21.50933,72.267 C 25.89338,76.51901 29.50285,70.54565 29.79359,66.77673 z"
         id="path3512"
         style="fill:#ffffff" />
    </g>
    <rect
       style="fill:#ffffff;fill-opacity:1;stroke:#000000;stroke-width:0.95748812;stroke-miterlimit:4;stroke-dasharray:none;stroke-opacity:1;display:inline"
       id="rect3514"
       width="285.07239"
       height="145.07697"
       x="668.93396"
       y="586.13763"
       ry="6.7477646"
       rx="26.063765" />
    <path
       id="path2907"
       d="M 372.29619,559.52058 L 621.47571,559.52058 C 636.92137,559.52058 649.35595,563.3443 649.35595,568.09394 L 649.35595,735.27457 C 649.35595,740.02421 636.92137,743.84794 621.47571,743.84794 L 372.29619,743.84794 C 356.85054,743.84794 344.41595,740.02421 344.41595,735.27457 L 344.41595,568.09394 C 344.41595,563.3443 356.85054,559.52058 372.29619,559.52058 z"
       style="fill:none;fill-opacity:1;stroke:#000000;stroke-width:0.95748812;stroke-miterlimit:4;stroke-opacity:1;display:inline" />
    <rect
       ry="25.426672"
       rx="11.819449"
       y="567.19958"
       x="352.57343"
       height="25.426672"
       width="285.77231"
       id="rect2911"
       style="fill:#ffffff;fill-opacity:1;stroke:#000000;stroke-width:0.95748812;stroke-miterlimit:4;stroke-dasharray:none;stroke-opacity:1;display:inline" />
    <g
       style="display:inline"
       id="g2913"
       transform="matrix(0.1909655,0,0,0.1989553,353.86008,568.83315)">
      <path
         d="M 60.446161,55.537231 C 60.446161,27.526618 37.739073,4.8195294 9.72846,4.8195294 C -18.282153,4.8195294 -40.989241,27.526618 -40.989241,55.537231 C -40.989241,83.547844 -18.282153,106.25493 9.72846,106.25493 C 37.739073,106.25493 60.446161,83.547844 60.446161,55.537231 L 60.446161,55.537231 z"
         id="path2915"
         style="fill-rule:evenodd;stroke:#000000;stroke-width:13.88094711"
         transform="matrix(0.954661,0,0,0.954661,47.02084,1.929386)" />
      <path
         d="M 57.3715,27.76321 C 49.69117,25.62996 48.27614,16.50681 56.48014,13.50082 C 68.22353,9.197998 73.63102,25.58189 66.1294,32.73964 C 57.38492,41.0833 41.21971,37.37122 38.47127,25.13077 C 37.22,19.55833 40.95759,12.22084 45.27893,9.055252 C 17.7102,16.41563 7.337985,40.73051 9.391875,60.2298 C 12.98337,55.02586 15.41195,50.13405 21.57747,47.37701 C 36.6158,40.65247 51.64266,52.4292 66.31929,42.12036 C 80.16084,32.39799 76.41115,9.797058 57.3715,9.985504 C 44.42328,10.11368 37.36764,30.57243 52.00588,32.8405 C 57.15351,33.63808 63.35098,31.9133 65.54874,26.80649 C 67.50783,22.25441 63.57308,16.19102 58.28362,16.80077 C 51.38996,17.59552 55.05321,24.64157 57.3715,27.76321 z"
         id="path2917"
         style="fill:#ffffff" />
      <path
         d="M 73.21464,10.89928 C 77.74805,14.1714 80.42045,20.02633 80.47395,24.9172 C 80.67065,42.8764 60.99718,52.12807 63.90473,71.4234 C 66.31206,87.39919 88.1272,93.00941 96.24566,77.55283 C 102.8299,65.01756 85.59602,50.32248 77.06655,63.56403 C 74.50263,67.54426 74.445,73.95325 78.15746,77.28678 C 81.56236,80.3442 88.30049,79.50556 89.90167,74.85135 C 92.13784,68.35171 84.5868,68.29205 80.63764,69.66845 C 84.77122,64.559 93.61197,65.26835 93.96583,73.17835 C 94.61852,87.77012 72.32053,84.58696 70.97307,71.4234 C 69.28597,52.07086 97.28015,46.83149 100.916,70.22293 C 108.7892,47.28788 98.12712,20.79383 73.21464,10.89928 z"
         id="path2919"
         style="fill:#ffffff" />
      <path
         d="M 29.79359,66.77673 C 34.27921,71.15189 29.57453,77.80548 23.53313,77.01401 C 8.920531,75.09941 17.30264,52.59209 31.58329,56.81641 C 43.57895,60.36484 48.46471,74.61052 37.39976,83.49686 C 31.42313,87.61887 24.52385,88.34091 19.38784,84.34715 C 34.87921,104.6796 67.82317,109.126 88.45577,89.39819 C 82.29923,91.25076 70.82304,91.62292 63.89178,84.31274 C 53.66991,73.53203 54.40986,58.2621 38.7421,51.81976 C 22.14915,44.99695 4.387553,63.22281 17.01503,78.01872 C 25.81356,88.32817 45.7911,78.62679 37.19615,65.91278 C 34.452,61.85356 28.61131,59.10461 23.69876,61.16386 C 19.93976,62.73964 18.52474,69.37241 21.50933,72.267 C 25.89338,76.51901 29.50285,70.54565 29.79359,66.77673 z"
         id="path2921"
         style="fill:#ffffff" />
    </g>
    <rect
       style="fill:#ffffff;fill-opacity:1;stroke:#000000;stroke-width:0.95748812;stroke-miterlimit:4;stroke-dasharray:none;stroke-opacity:1;display:inline"
       id="rect2925"
       width="285.07239"
       height="130.03029"
       x="352.98703"
       y="599.62402"
       ry="6.0479202"
       rx="26.063765" />
    <path
       style="fill-rule:evenodd;stroke:#000000;stroke-width:2.65163398;display:inline"
       id="path3162"
       d="M 122.36917,37.176458 C 122.36917,31.569755 118.2295,27.024625 113.12296,27.024625 C 108.01642,27.024625 103.87675,31.569755 103.87675,37.176458 C 103.87675,42.78316 108.01642,47.32829 113.12296,47.32829 C 118.2295,47.32829 122.36917,42.78316 122.36917,37.176458 L 122.36917,37.176458 z" />
    <path
       style="fill:#ffffff;display:inline"
       id="path3164"
       d="M 113.32601,31.476501 C 111.85933,31.029223 111.58911,29.116375 113.15579,28.48611 C 115.39837,27.583938 116.43101,31.019144 114.99846,32.519907 C 113.32857,34.26932 110.24157,33.491009 109.71672,30.924558 C 109.47777,29.756186 110.19152,28.217737 111.01674,27.554009 C 105.75207,29.097257 103.77133,34.195351 104.16355,38.283761 C 104.84941,37.192653 105.31318,36.166988 106.49058,35.58892 C 109.36238,34.178988 112.232,36.648212 115.03473,34.48676 C 117.67798,32.448274 116.96192,27.709543 113.32601,27.749055 C 110.85334,27.775929 109.50596,32.065509 112.30136,32.541055 C 113.28438,32.708283 114.46788,32.346649 114.88758,31.275906 C 115.2617,30.321472 114.5103,29.050163 113.50019,29.178009 C 112.18374,29.344644 112.88329,30.821988 113.32601,31.476501 z" />
    <path
       style="fill:#ffffff;display:inline"
       id="path3166"
       d="M 116.3515,27.940646 C 117.21723,28.62671 117.72756,29.854312 117.73778,30.879779 C 117.77534,34.645279 114.01839,36.585074 114.57363,40.63072 C 115.03335,43.980359 119.19928,45.156652 120.74963,41.915876 C 122.00699,39.287609 118.71592,36.206496 117.08708,38.982848 C 116.59746,39.817382 116.58646,41.161153 117.29541,41.860093 C 117.94563,42.501141 119.23238,42.325304 119.53815,41.349457 C 119.96518,39.98668 118.52319,39.974171 117.76904,40.26276 C 118.55841,39.191463 120.24669,39.340192 120.31426,40.99868 C 120.4389,44.058132 116.18076,43.39072 115.92344,40.63072 C 115.60126,36.573079 120.94718,35.474541 121.6415,40.379018 C 123.14501,35.570233 121.10892,30.015233 116.3515,27.940646 z" />
    <path
       style="fill-rule:evenodd;stroke:#000000;stroke-width:2.65163398;display:inline"
       id="path3183"
       d="M 505.23622,37.176458 C 505.23622,31.569755 501.09655,27.024625 495.99001,27.024625 C 490.88347,27.024625 486.7438,31.569755 486.7438,37.176458 C 486.7438,42.78316 490.88347,47.32829 495.99001,47.32829 C 501.09655,47.32829 505.23622,42.78316 505.23622,37.176458 L 505.23622,37.176458 z" />
    <path
       style="fill:#ffffff;display:inline"
       id="path3185"
       d="M 496.19306,31.476501 C 494.72638,31.029223 494.45616,29.116375 496.02284,28.48611 C 498.26542,27.583938 499.29806,31.019144 497.86551,32.519907 C 496.19562,34.26932 493.10862,33.491009 492.58377,30.924558 C 492.34482,29.756186 493.05857,28.217737 493.88379,27.554009 C 488.61912,29.097257 486.63838,34.195351 487.0306,38.283761 C 487.71646,37.192653 488.18023,36.166988 489.35763,35.58892 C 492.22943,34.178988 495.09905,36.648212 497.90178,34.48676 C 500.54503,32.448274 499.82897,27.709543 496.19306,27.749055 C 493.72039,27.775929 492.37301,32.065509 495.16841,32.541055 C 496.15143,32.708283 497.33493,32.346649 497.75463,31.275906 C 498.12875,30.321472 497.37735,29.050163 496.36724,29.178009 C 495.05079,29.344644 495.75034,30.821988 496.19306,31.476501 z" />
    <path
       style="fill:#ffffff;display:inline"
       id="path3187"
       d="M 499.21855,27.940646 C 500.08428,28.62671 500.59461,29.854312 500.60483,30.879779 C 500.64239,34.645279 496.88544,36.585074 497.44068,40.63072 C 497.9004,43.980359 502.06633,45.156652 503.61668,41.915876 C 504.87404,39.287609 501.58297,36.206496 499.95413,38.982848 C 499.46451,39.817382 499.45351,41.161153 500.16246,41.860093 C 500.81268,42.501141 502.09943,42.325304 502.4052,41.349457 C 502.83223,39.98668 501.39024,39.974171 500.63609,40.26276 C 501.42546,39.191463 503.11374,39.340192 503.18131,40.99868 C 503.30595,44.058132 499.04781,43.39072 498.79049,40.63072 C 498.46831,36.573079 503.81423,35.474541 504.50855,40.379018 C 506.01206,35.570233 503.97597,30.015233 499.21855,27.940646 z" />
    <path
       style="fill-rule:evenodd;stroke:#000000;stroke-width:2.65163398;display:inline"
       id="path3193"
       d="M 888.10329,37.176458 C 888.10329,31.569755 883.96362,27.024625 878.85708,27.024625 C 873.75054,27.024625 869.61087,31.569755 869.61087,37.176458 C 869.61087,42.78316 873.75054,47.32829 878.85708,47.32829 C 883.96362,47.32829 888.10329,42.78316 888.10329,37.176458 L 888.10329,37.176458 z" />
    <path
       style="fill:#ffffff;display:inline"
       id="path3195"
       d="M 879.06013,31.476501 C 877.59345,31.029223 877.32323,29.116375 878.88991,28.48611 C 881.13249,27.583938 882.16513,31.019144 880.73258,32.519907 C 879.06269,34.26932 875.97569,33.491009 875.45084,30.924558 C 875.21189,29.756186 875.92564,28.217737 876.75086,27.554009 C 871.48619,29.097257 869.50545,34.195351 869.89767,38.283761 C 870.58353,37.192653 871.0473,36.166988 872.2247,35.58892 C 875.0965,34.178988 877.96612,36.648212 880.76885,34.48676 C 883.4121,32.448274 882.69604,27.709543 879.06013,27.749055 C 876.58746,27.775929 875.24008,32.065509 878.03548,32.541055 C 879.0185,32.708283 880.202,32.346649 880.6217,31.275906 C 880.99582,30.321472 880.24442,29.050163 879.23431,29.178009 C 877.91786,29.344644 878.61741,30.821988 879.06013,31.476501 z" />
    <path
       style="fill:#ffffff;display:inline"
       id="path3197"
       d="M 882.08562,27.940646 C 882.95135,28.62671 883.46168,29.854312 883.4719,30.879779 C 883.50946,34.645279 879.75251,36.585074 880.30775,40.63072 C 880.76747,43.980359 884.9334,45.156652 886.48375,41.915876 C 887.74111,39.287609 884.45004,36.206496 882.8212,38.982848 C 882.33158,39.817382 882.32058,41.161153 883.02953,41.860093 C 883.67975,42.501141 884.9665,42.325304 885.27227,41.349457 C 885.6993,39.98668 884.25731,39.974171 883.50316,40.26276 C 884.29253,39.191463 885.98081,39.340192 886.04838,40.99868 C 886.17302,44.058132 881.91488,43.39072 881.65756,40.63072 C 881.33538,36.573079 886.6813,35.474541 887.37562,40.379018 C 888.87913,35.570233 886.84304,30.015233 882.08562,27.940646 z" />
    <path
       style="opacity:0.4;fill:#cccccc;fill-opacity:1;stroke:none;stroke-width:21.39999962;stroke-miterlimit:4;stroke-dasharray:none"
       d="M 37.267723,187.38192 C 32.711733,186.80378 28.138298,185.63608 25.903507,184.48039 L 24.13574,183.56622 L 24.007451,122.42125 L 23.879177,61.276288 L 26.089133,60.206461 C 28.919353,58.836376 33.800683,57.82737 40.803257,57.164947 C 48.380785,56.448133 303.04394,56.436213 310.33421,57.152331 C 317.27491,57.834108 322.8553,59.04218 325.23817,60.378818 L 327.1815,61.468899 L 327.1815,122.2944 L 327.1815,183.1199 L 325.51793,184.24098 C 323.63927,185.50702 319.11006,186.64133 312.80008,187.42609 C 307.45213,188.0912 42.522375,188.04874 37.267723,187.38193 L 37.267723,187.38192 z M 305.10433,175.31497 C 311.32289,174.65366 315.18701,173.89483 316.95371,172.988 L 318.34267,172.27506 L 318.34267,135.22677 C 318.34267,103.55655 318.23684,98.090646 317.61363,97.573433 C 316.51895,96.664922 311.70997,95.682544 305.21069,95.039748 C 300.98595,94.621909 264.49337,94.514065 171.36547,94.644208 C 52.663857,94.81009 43.020961,94.886478 39.108681,95.691984 C 34.817937,96.575418 33.017259,97.258801 32.350963,98.25667 C 31.865968,98.98302 31.865973,171.37278 32.350963,172.09912 C 33.251574,173.44792 37.574805,174.55265 44.843868,175.29148 C 51.042275,175.9215 299.19032,175.94388 305.10432,175.31496 L 305.10433,175.31497 z M 309.96011,88.742831 C 314.71074,86.385741 317.48107,81.815882 317.48107,76.336511 C 317.48106,70.84366 314.72369,66.351815 310.00891,64.164143 C 308.05689,63.2584 303.465,63.226711 174.14339,63.226711 C 45.596658,63.226716 40.217758,63.263243 38.266668,64.149566 C 35.960854,65.197024 33.30039,67.675398 32.202293,69.79888 C 28.14848,77.638103 32.564473,87.825582 40.720415,89.449736 C 41.877151,89.680086 102.4857,89.835362 175.40608,89.794794 C 305.45184,89.722447 308.02633,89.702314 309.96012,88.742831 L 309.96011,88.742831 z"
       id="path2629" />
    <path
       style="opacity:0.4;fill:#f2f2f2;fill-opacity:1;stroke:none;stroke-width:21.39999962;stroke-miterlimit:4;stroke-dasharray:none"
       d="M 47.874325,410.24579 C 37.783356,409.63066 28.494084,406.69548 26.179329,403.39071 C 25.481567,402.39451 25.398431,392.16962 25.398431,307.35566 L 25.398431,212.4355 L 27.310746,210.61966 C 29.310509,208.72079 32.993313,207.19476 39.288029,205.65669 C 42.56861,204.85509 52.275075,204.78085 173.89086,204.62704 C 265.21368,204.51154 306.41315,204.62617 309.75637,205.00505 C 318.41802,205.98667 323.87856,207.73933 327.10722,210.57413 L 328.94927,212.19147 L 328.94927,307.27791 L 328.94927,402.36436 L 327.8893,403.71192 C 325.45304,406.80909 317.77564,409.26067 307.98861,410.06667 C 302.59593,410.51078 55.018205,410.68126 47.874325,410.24578 L 47.874325,410.24579 z M 298.13962,396.96232 C 302.1676,396.7093 307.16786,396.14396 309.2513,395.70598 C 314.1328,394.67983 318.99207,392.32987 319.77197,390.61818 C 320.21402,389.64796 320.36297,371.96154 320.36297,320.44067 L 320.36297,251.56028 L 319.11194,250.07352 C 317.57743,248.24985 314.0719,246.6957 308.88533,245.53962 C 305.21639,244.7218 296.53919,244.66425 176.92131,244.66425 C 57.303438,244.66425 48.626247,244.72181 44.957298,245.53962 C 40.054517,246.63243 36.458147,248.15744 34.918306,249.79652 L 33.73219,251.05908 L 33.73219,320.67823 L 33.73219,390.29737 L 34.918306,391.55993 C 37.527075,394.33684 44.655479,396.29117 54.440317,396.91209 C 63.181237,397.46677 289.36623,397.51338 298.13962,396.96231 L 298.13962,396.96232 z M 311.90159,236.41235 C 321.55417,231.65876 321.66957,216.75122 312.08832,212.28995 L 309.50383,211.08654 L 175.76868,211.08161 C 63.435306,211.07746 41.767529,211.18781 40.371493,211.7711 C 33.696491,214.5601 30.499429,223.24889 33.657868,230.01704 C 35.52274,234.01321 38.661274,236.4432 43.328639,237.50452 C 43.884223,237.63085 104.00093,237.70248 176.92131,237.6637 L 309.50383,237.59318 L 311.90159,236.41235 z"
       id="path2640" />
    <path
       style="opacity:0.4;fill:#cccccc;fill-opacity:1;stroke:none;stroke-width:21.39999962;stroke-miterlimit:4;stroke-dasharray:none"
       d="M 42.949076,742.03671 C 34.028862,740.09768 27.652012,735.90001 26.315269,731.08722 C 25.832526,729.34915 25.586276,680.55953 25.583633,586.12304 C 25.580326,467.21328 25.740741,443.39313 26.558133,441.43683 C 28.073569,437.80988 32.857626,434.19396 38.653683,432.29466 L 43.793933,430.61027 L 178.43679,430.61027 L 313.07965,430.61027 L 318.07965,432.26087 C 324.23729,434.29361 328.22865,436.97298 329.96893,440.24198 C 331.24679,442.64223 331.29393,447.84961 331.29393,586.52746 C 331.29393,708.91451 331.14393,730.61125 330.28629,732.25288 C 327.83522,736.94454 322.23808,740.23636 313.59871,742.06723 C 306.65595,743.53856 49.724762,743.50958 42.949055,742.03671 L 42.949076,742.03671 z M 308.74148,732.58428 C 311.06981,731.7057 314.18008,730.1516 315.65321,729.13072 C 321.01946,725.4119 320.61299,736.32971 320.40721,601.43457 L 320.22251,480.35773 L 318.72823,478.34116 C 316.59591,475.4634 313.1932,473.33498 307.78469,471.49588 L 303.07965,469.89598 L 180.2225,469.69786 C 98.297548,469.56576 55.764412,469.74556 52.560133,470.23754 C 45.525769,471.3176 40.112698,473.57722 36.926219,476.7637 L 34.151076,479.53884 L 34.151076,601.98404 L 34.151076,724.42924 L 36.029826,726.66199 C 37.063148,727.89004 39.481148,729.69166 41.403162,730.66562 C 49.186441,734.60968 42.853219,734.44186 178.79393,734.30669 L 304.50822,734.1817 L 308.74148,732.58428 z M 312.5071,461.6131 C 315.90941,459.96606 318.94261,455.66269 319.613,451.53152 C 320.4503,446.37193 317.28901,440.19329 312.45885,437.5489 C 310.36927,436.4049 301.40713,436.32456 175.88463,436.32456 L 41.546748,436.32456 L 38.649719,438.24171 C 31.891676,442.71398 30.641091,453.18946 36.160805,459.09011 C 40.112319,463.31434 30.929055,463.05196 175.88985,463.08231 L 309.41431,463.11027 L 312.5071,461.6131 z"
       id="path2651" />
    <path
       style="opacity:0.4;fill:#666666;fill-opacity:1;stroke:none;stroke-width:21.39999962;stroke-miterlimit:4;stroke-dasharray:none"
       d="M 361.85313,381.13672 C 355.31684,379.49704 351.63676,377.53302 348.41155,373.9631 L 345.7817,371.05219 L 345.7817,220.08842 L 345.7817,69.124701 L 347.41278,66.697637 C 348.30989,65.362751 350.75777,63.243237 352.85254,61.987608 C 360.78503,57.232751 352.67335,57.484858 497.73692,57.484858 C 611.83192,57.484858 629.58944,57.624587 633.14363,58.550337 C 642.3742,60.954587 648.18077,65.595066 648.97799,71.204716 C 649.21756,72.890944 649.3197,140.80629 649.20484,222.12772 C 648.99649,369.61104 648.99227,369.99118 647.53463,372.48486 C 645.9067,375.26989 640.20411,379.01192 634.71027,380.90019 C 631.38969,382.04148 621.85729,382.13697 498.99599,382.25937 C 375.09,382.38282 366.54147,382.31284 361.85313,381.13673 L 361.85313,381.13672 z M 618.65759,374.58351 C 628.00002,373.41271 635.57861,369.82674 638.03968,365.41244 C 638.82864,363.99728 638.99599,341.22856 638.99599,235.28624 L 638.99599,106.87534 L 637.50172,104.85867 C 635.55492,102.2312 632.32374,100.069 627.32257,98.047101 L 623.2817,96.41343 L 498.99599,96.188251 C 409.09587,96.02538 373.40799,96.185887 370.0032,96.768401 C 363.79506,97.830544 356.65852,101.42787 354.55629,104.55477 L 352.92456,106.98184 L 352.92456,235.51593 L 352.92456,364.05006 L 354.4299,366.1641 C 357.33381,370.24226 364.36851,373.51218 372.56742,374.59489 C 379.35919,375.4918 611.49547,375.48103 618.65758,374.58349 L 618.65759,374.58351 z M 631.85313,88.998616 C 635.25157,87.438051 636.7745,85.84513 638.25446,82.303087 C 641.41084,74.74873 637.57361,66.026973 630.14927,63.880744 C 628.38339,63.370258 585.44862,63.201051 494.30071,63.345337 L 361.03399,63.556287 L 358.39567,65.342001 C 355.26402,67.461594 352.20359,73.111651 352.22596,76.732244 C 352.24509,79.827787 354.31117,84.566987 356.59327,86.750037 C 360.49334,90.480858 352.81784,90.285187 495.7817,90.298358 C 623.55207,90.310123 629.11274,90.257008 631.85313,88.998623 L 631.85313,88.998616 z"
       id="path2662" />
    <path
       style="opacity:0.4;fill:#666666;fill-opacity:1;stroke:none;stroke-width:21.39999962;stroke-miterlimit:4;stroke-dasharray:none"
       d="M 354.35313,546.56696 C 347.70296,545.33549 344.51193,544.12654 343.28392,542.37331 C 342.34647,541.0349 342.21027,532.03989 342.21027,471.46724 C 342.21027,405.76326 342.27777,402.03294 343.48642,400.93913 C 345.51106,399.10685 349.24288,397.84625 355.7817,396.78582 C 360.78616,395.97423 385.32646,395.80184 495.42456,395.80491 C 619.06707,395.80834 629.41382,395.89992 634.61693,397.0368 C 637.70845,397.71229 641.40484,398.83561 642.8312,399.53308 L 645.42456,400.80118 L 645.60656,471.67776 L 645.78863,542.55434 L 643.10656,543.92256 C 641.63149,544.67506 637.66737,545.80739 634.29747,546.43883 C 628.79677,547.46953 614.41114,547.57871 493.58318,547.50681 C 392.01885,547.44636 357.85679,547.21576 354.35313,546.56696 z M 623.37613,539.45614 C 627.35666,538.92984 631.85666,537.89216 633.37614,537.15021 L 636.13884,535.80119 L 636.3223,486.39279 C 636.48594,442.31346 636.38492,436.86358 635.38563,435.8643 C 633.48422,433.9629 627.28647,432.63251 616.85313,431.88619 C 603.44084,430.92678 382.38839,430.92628 369.08274,431.88562 C 359.85622,432.55086 353.33782,433.81278 350.7817,435.42857 C 349.84944,436.01788 349.68519,442.46702 349.51722,485.08056 C 349.38701,518.10854 349.56703,534.50906 350.07004,535.44896 C 350.94517,537.08411 356.12927,538.72485 363.2817,539.63034 C 366.0317,539.97846 424.04956,540.29703 492.21027,540.33821 C 592.03692,540.39854 617.54637,540.22697 623.37614,539.45615 L 623.37613,539.45614 z M 630.31059,426.87261 C 633.44497,424.75118 636.49599,419.11388 636.49599,415.44404 C 636.49599,411.77418 633.44497,406.13691 630.31058,404.01547 L 627.67222,402.22976 L 494.40553,402.01977 C 403.37045,401.87631 360.32067,402.04598 358.55699,402.55517 C 351.13362,404.69838 347.29531,413.42201 350.4518,420.97656 C 351.93104,424.51689 353.45342,426.11018 356.85313,427.67608 C 359.60077,428.94166 364.84553,428.98569 493.69127,428.82521 L 627.67227,428.65833 L 630.31059,426.87261 z"
       id="path2673" />
    <path
       style="opacity:0.4;fill:#666666;fill-opacity:1;stroke:none;stroke-width:21.39999962;stroke-miterlimit:4;stroke-dasharray:none"
       d="M 354.35313,546.56696 C 347.70296,545.33549 344.51193,544.12654 343.28392,542.37331 C 342.34647,541.0349 342.21027,532.03989 342.21027,471.46724 C 342.21027,405.76326 342.27777,402.03294 343.48642,400.93913 C 345.51106,399.10685 349.24288,397.84625 355.7817,396.78582 C 360.78616,395.97423 385.32646,395.80184 495.42456,395.80491 C 619.06707,395.80834 629.41382,395.89992 634.61693,397.0368 C 637.70845,397.71229 641.40484,398.83561 642.8312,399.53308 L 645.42456,400.80118 L 645.60656,471.67776 L 645.78863,542.55434 L 643.10656,543.92256 C 641.63149,544.67506 637.66737,545.80739 634.29747,546.43883 C 628.79677,547.46953 614.41114,547.57871 493.58318,547.50681 C 392.01885,547.44636 357.85679,547.21576 354.35313,546.56696 z M 623.37613,539.45614 C 627.35666,538.92984 631.85666,537.89216 633.37614,537.15021 L 636.13884,535.80119 L 636.3223,486.39279 C 636.48594,442.31346 636.38492,436.86358 635.38563,435.8643 C 633.48422,433.9629 627.28647,432.63251 616.85313,431.88619 C 603.44084,430.92678 382.38839,430.92628 369.08274,431.88562 C 359.85622,432.55086 353.33782,433.81278 350.7817,435.42857 C 349.84944,436.01788 349.68519,442.46702 349.51722,485.08056 C 349.38701,518.10854 349.56703,534.50906 350.07004,535.44896 C 350.94517,537.08411 356.12927,538.72485 363.2817,539.63034 C 366.0317,539.97846 424.04956,540.29703 492.21027,540.33821 C 592.03692,540.39854 617.54637,540.22697 623.37614,539.45615 L 623.37613,539.45614 z M 630.31059,426.87261 C 633.44497,424.75118 636.49599,419.11388 636.49599,415.44404 C 636.49599,411.77418 633.44497,406.13691 630.31058,404.01547 L 627.67222,402.22976 L 494.40553,402.01977 C 403.37045,401.87631 360.32067,402.04598 358.55699,402.55517 C 351.13362,404.69838 347.29531,413.42201 350.4518,420.97656 C 351.93104,424.51689 353.45342,426.11018 356.85313,427.67608 C 359.60077,428.94166 364.84553,428.98569 493.69127,428.82521 L 627.67227,428.65833 L 630.31059,426.87261 z"
       id="path2675" />
    <path
       style="opacity:0.4;fill:#cccccc;fill-opacity:1;stroke:none;stroke-width:21.39999962;stroke-miterlimit:4;stroke-dasharray:none"
       d="M 365.7817,742.70606 C 355.69432,741.94253 349.87042,740.28643 346.31742,737.17116 C 345.14021,736.13898 345.06742,731.17157 345.06742,651.86769 L 345.06742,567.66021 L 346.76463,565.963 C 347.69809,565.02953 350.67131,563.51736 353.37177,562.60261 L 358.2817,560.93943 L 494.35313,560.74136 C 616.43892,560.56365 631.00564,560.66011 636.07817,561.67985 C 641.83549,562.83726 646.27134,564.66171 647.7967,566.49967 C 648.44292,567.27833 648.60156,587.63649 648.4632,652.05916 L 648.2817,736.59687 L 645.84484,738.23906 C 642.09206,740.768 636.96266,742.00473 627.21027,742.73196 C 616.83567,743.50561 376.02962,743.48173 365.7817,742.70605 L 365.7817,742.70606 z M 620.70436,729.86521 C 624.78684,729.49726 629.9297,728.67571 632.13294,728.03951 C 639.34182,725.95792 638.63884,732.8353 638.63884,664.38966 L 638.63884,604.13273 L 636.40003,602.77123 C 635.1687,602.0224 631.39192,600.90147 628.00718,600.28027 C 622.54222,599.27727 607.69672,599.15376 495.42456,599.17718 C 365.46213,599.20431 363.14398,599.24937 356.42826,601.8796 C 351.89965,603.65326 352.21027,599.03688 352.21027,664.56188 C 352.21027,722.80231 352.24203,724.18548 353.61072,725.55416 C 355.50745,727.4509 361.27089,729.03034 369.00511,729.7729 C 377.84789,730.62191 611.35842,730.70752 620.70437,729.86521 L 620.70436,729.86521 z M 630.55662,592.6797 C 632.98274,591.76306 636.28711,588.74086 637.53572,586.29658 C 640.05174,581.37123 638.99518,573.98779 635.26278,570.41276 C 630.65621,566.00042 640.71588,566.29507 495.26893,566.31226 C 367.78077,566.32733 362.45517,566.37976 359.71027,567.64661 C 354.54514,570.03046 352.14713,573.88768 352.10067,579.8867 C 352.0867,581.68825 352.55461,584.30943 353.14044,585.71154 C 354.2699,588.41473 358.26867,592.05849 360.95517,592.83252 C 363.85774,593.66879 628.33555,593.51889 630.55663,592.67971 L 630.55662,592.6797 z"
       id="path2687" />
    <path
       style="opacity:0.4;fill:#b3b3b3;fill-opacity:1;stroke:none;stroke-width:21.39999962;stroke-miterlimit:4;stroke-dasharray:none"
       d="M 677.5033,287.98628 C 671.00235,286.90303 665.70511,284.68753 663.2195,282.01228 L 660.89807,279.51373 L 660.89807,172.38524 L 660.89807,65.256758 L 663.084,62.767101 C 665.64842,59.846408 670.52617,57.843373 677.82061,56.715551 C 681.4497,56.154451 721.21357,55.92133 813.29349,55.92133 C 952.93679,55.92133 949.59365,55.840515 957.666,59.411315 C 959.4285,60.190923 961.68022,61.638573 962.67,62.628308 L 964.4695,64.427823 L 964.4695,172.3499 L 964.4695,280.27196 L 962.67,282.07149 C 961.68022,283.06123 959.3865,284.52744 957.57279,285.32973 C 949.76015,288.78563 952.06979,288.73251 812.32665,288.67005 C 740.23736,288.63783 679.56686,288.33014 677.5033,287.98629 L 677.5033,287.98628 z M 944.14529,275.11301 C 948.56265,273.7301 950.767,272.61606 952.86236,270.70756 L 954.4695,269.24374 L 954.4695,185.56419 L 954.4695,101.88464 L 952.78365,100.30089 C 950.22379,97.89598 944.5075,96.021223 937.16257,95.177665 C 932.64629,94.658987 891.25107,94.493865 806.9695,94.658373 C 698.2017,94.870658 682.92744,95.031744 679.4695,96.002958 C 673.70166,97.622937 669.51528,99.99363 668.71765,102.09159 C 668.27862,103.2463 668.09223,134.38106 668.21071,186.77304 L 668.39807,269.62834 L 670.4741,271.28362 C 672.82297,273.15645 678.52341,275.11354 683.99365,275.92519 C 686.02324,276.22632 744.57665,276.42067 814.11236,276.35705 C 927.12115,276.25367 940.9235,276.12161 944.14529,275.11299 L 944.14529,275.11301 z M 948.00922,87.366073 C 956.90915,82.825673 957.358,69.733737 948.81115,63.974044 L 946.40107,62.349901 L 811.79324,62.349901 C 687.97635,62.349901 676.98554,62.444744 674.69228,63.532965 C 669.89997,65.807051 667.12697,72.61123 668.34544,79.106265 C 668.91357,82.134744 672.49528,86.46178 675.52765,87.783065 C 677.28361,88.548187 702.51458,88.727744 811.46225,88.750515 C 943.349,88.778087 945.27986,88.758501 948.00922,87.366073 z"
       id="path2708" />
    <path
       style="opacity:0.4;fill:#666666;fill-opacity:1;stroke:none;stroke-width:21.39999962;stroke-miterlimit:4;stroke-dasharray:none"
       d="M 678.04093,532.00402 C 671.29712,530.90335 665.25689,528.42655 662.97309,525.82546 L 660.88408,523.44619 L 661.06967,418.1968 C 661.25322,314.08255 661.27062,312.93036 662.68379,311.36791 C 664.56595,309.28691 668.06757,307.57111 673.75522,305.94291 C 678.19179,304.67285 684.14226,304.60374 807.68379,304.38751 C 893.4695,304.23736 939.3005,304.41012 943.8975,304.90097 C 952.60429,305.83066 959.415,308.02535 962.27722,310.82374 L 964.4695,312.96706 L 964.4695,418.28641 C 964.4695,488.40141 964.22636,524.0601 963.74207,524.96497 C 962.73986,526.83764 957.81315,529.57812 952.68379,531.11612 C 948.63057,532.33144 941.17143,532.40779 815.18379,532.52319 C 739.23193,532.59277 680.2808,532.36958 678.04093,532.00401 L 678.04093,532.00402 z M 943.34386,515.41829 C 946.06407,514.74601 949.59979,513.47329 951.201,512.59 L 954.11236,510.98404 L 954.29415,433.91488 C 954.46543,361.30267 954.40343,356.76429 953.22272,355.43735 C 951.56115,353.57004 948.403,352.29004 942.27879,351.00179 C 934.59393,349.38524 688.53393,349.4056 680.84304,351.02343 C 674.40782,352.37712 669.82467,354.37071 668.8163,356.25485 C 668.27268,357.27063 668.04093,380.29944 668.04093,433.30596 C 668.04093,517.95777 667.58379,511.01956 673.32338,513.47984 C 676.23549,514.7281 683.43512,516.16459 689.11236,516.63007 C 690.68379,516.75889 747.41593,516.81399 815.18379,516.75246 C 928.835,516.64927 938.78193,516.54573 943.34386,515.41828 L 943.34386,515.41829 z M 945.63443,339.07322 C 955.1155,333.88256 955.28007,319.72677 945.91493,314.94901 C 943.08922,313.50746 942.45707,313.50165 808.53862,313.6849 L 674.00106,313.86899 L 671.29323,315.93438 C 667.60313,318.74902 665.647,323.33165 666.05183,328.21341 C 666.53252,334.01001 670.00585,338.20269 675.78567,339.96325 C 676.82963,340.28125 737.4695,340.48656 810.54093,340.41949 C 934.5285,340.30572 943.54736,340.21583 945.63443,339.07322 z"
       id="path2719" />
    <path
       style="opacity:0.4;fill:#e6e6e6;fill-opacity:1;stroke:none;stroke-width:21.39999962;stroke-miterlimit:4;stroke-dasharray:none"
       d="M 675.41677,741.9167 C 668.49091,740.66012 662.52388,737.8728 661.60915,735.46686 C 661.15056,734.26065 660.89807,700.78991 660.89807,641.19791 L 660.89807,548.7992 L 662.70393,546.65307 C 664.80266,544.15887 670.81453,541.93931 678.39807,540.85884 C 685.22345,539.88641 940.14315,539.88629 946.9695,540.85873 C 953.76565,541.82686 958.7205,543.32723 961.65722,545.30626 L 964.11236,546.96076 L 964.29357,641.26964 L 964.47472,735.57851 L 962.80622,737.14602 C 960.74372,739.0836 954.75193,741.23821 948.6915,742.22153 C 941.36315,743.41061 682.05642,743.12134 675.41679,741.9167 L 675.41677,741.9167 z M 943.6035,730.6354 C 946.46643,729.99175 950.0825,728.74931 951.63922,727.87441 L 954.4695,726.28368 L 954.4695,658.6106 L 954.4695,590.93752 L 950.7195,589.15261 C 942.82972,585.39726 945.79757,585.47531 810.89807,585.47531 C 692.44523,585.47531 685.20935,585.54678 679.52062,586.77288 C 672.72574,588.2374 669.8476,589.5056 668.77639,591.50718 C 667.72447,593.47268 667.75974,723.97239 668.81271,725.93988 C 670.23506,728.59761 677.22351,730.67115 687.68379,731.53916 C 691.2195,731.83256 749.07665,732.01254 816.25522,731.93912 C 926.50615,731.81863 938.90486,731.69169 943.6035,730.63538 L 943.6035,730.6354 z M 945.755,574.82888 C 949.99486,572.6229 953.054,567.41936 953.02522,562.46254 C 952.99543,557.32391 949.40479,551.85033 944.95872,550.16575 C 943.56057,549.63601 902.2795,549.40388 809.4695,549.40388 C 716.65952,549.40388 675.37842,549.63601 673.98029,550.16575 C 664.03466,553.93403 663.24935,568.67588 672.68379,574.50348 C 674.7501,575.77984 679.63077,575.82721 809.3264,575.82978 C 923.45157,575.83206 944.11836,575.68043 945.755,574.82889 L 945.755,574.82888 z"
       id="path2730" />
  </g>
  <g
     inkscape:groupmode="layer"
     id="layer3"
     inkscape:label="index"
     style="display:inline"
     sodipodi:insensitive="true">
    <text
       xml:space="preserve"
       style="font-size:10px;font-style:normal;font-variant:normal;font-weight:normal;font-stretch:normal;text-align:center;line-height:100%;writing-mode:lr-tb;text-anchor:middle;opacity:1;fill:#000000;fill-opacity:1;fill-rule:nonzero;stroke:none;stroke-width:1px;stroke-linecap:butt;stroke-linejoin:miter;marker:none;marker-start:none;marker-mid:none;marker-end:none;stroke-miterlimit:4;stroke-dasharray:none;stroke-dashoffset:0;stroke-opacity:1;visibility:visible;display:inline;overflow:visible;enable-background:accumulate;font-family:Hobo Std;-inkscape-font-specification:Hobo Std"
       x="373.69553"
       y="334.73593"
       id="text4964"
       sodipodi:linespacing="100%"><tspan
         sodipodi:role="line"
         id="tspan4966"
         x="373.69553"
         y="334.73593">4</tspan></text>
    <text
       xml:space="preserve"
       style="font-size:10px;font-style:normal;font-variant:normal;font-weight:normal;font-stretch:normal;text-align:center;line-height:100%;writing-mode:lr-tb;text-anchor:middle;opacity:1;fill:#000000;fill-opacity:1;fill-rule:nonzero;stroke:none;stroke-width:1px;stroke-linecap:butt;stroke-linejoin:miter;marker:none;marker-start:none;marker-mid:none;marker-end:none;stroke-miterlimit:4;stroke-dasharray:none;stroke-dashoffset:0;stroke-opacity:1;visibility:visible;display:inline;overflow:visible;enable-background:accumulate;font-family:Hobo Std;-inkscape-font-specification:Hobo Std"
       x="360.62448"
       y="512.46185"
       id="text4968"
       sodipodi:linespacing="100%"><tspan
         sodipodi:role="line"
         id="tspan4970"
         x="360.62448"
         y="512.46185">5</tspan></text>
    <text
       xml:space="preserve"
       style="font-size:10px;font-style:normal;font-variant:normal;font-weight:normal;font-stretch:normal;text-align:center;line-height:100%;writing-mode:lr-tb;text-anchor:middle;opacity:1;fill:#000000;fill-opacity:1;fill-rule:nonzero;stroke:none;stroke-width:1px;stroke-linecap:butt;stroke-linejoin:miter;marker:none;marker-start:none;marker-mid:none;marker-end:none;stroke-miterlimit:4;stroke-dasharray:none;stroke-dashoffset:0;stroke-opacity:1;visibility:visible;display:inline;overflow:visible;enable-background:accumulate;font-family:Hobo Std;-inkscape-font-specification:Hobo Std"
       x="688.2605"
       y="232.64961"
       id="text4976"
       sodipodi:linespacing="100%"><tspan
         sodipodi:role="line"
         id="tspan4978"
         x="688.2605"
         y="232.64961">7</tspan></text>
    <text
       xml:space="preserve"
       style="font-size:10px;font-style:normal;font-variant:normal;font-weight:normal;font-stretch:normal;text-align:center;line-height:100%;writing-mode:lr-tb;text-anchor:middle;fill:#000000;fill-opacity:1;fill-rule:nonzero;stroke:none;stroke-width:1px;stroke-linecap:butt;stroke-linejoin:miter;marker:none;marker-start:none;marker-mid:none;marker-end:none;stroke-miterlimit:4;stroke-dasharray:none;stroke-dashoffset:0;stroke-opacity:1;visibility:visible;display:inline;overflow:visible;enable-background:accumulate;font-family:Hobo Std;-inkscape-font-specification:Hobo Std"
       x="360.62445"
       y="717.52283"
       id="text4972"
       sodipodi:linespacing="100%"><tspan
         sodipodi:role="line"
         id="tspan4974"
         x="360.62445"
         y="717.52283">6</tspan></text>
    <text
       xml:space="preserve"
       style="font-size:10px;font-style:normal;font-variant:normal;font-weight:normal;font-stretch:normal;text-align:center;line-height:100%;writing-mode:lr-tb;text-anchor:middle;fill:#000000;fill-opacity:1;fill-rule:nonzero;stroke:none;stroke-width:1px;stroke-linecap:butt;stroke-linejoin:miter;marker:none;marker-start:none;marker-mid:none;marker-end:none;stroke-miterlimit:4;stroke-dasharray:none;stroke-dashoffset:0;stroke-opacity:1;visibility:visible;display:inline;overflow:visible;enable-background:accumulate;font-family:Hobo Std;-inkscape-font-specification:Hobo Std"
       x="49.274117"
       y="716.51263"
       id="text4960"
       sodipodi:linespacing="100%"><tspan
         sodipodi:role="line"
         id="tspan4962"
         x="49.274117"
         y="716.51263">3</tspan></text>
    <text
       xml:space="preserve"
       style="font-size:10px;font-style:normal;font-variant:normal;font-weight:normal;font-stretch:normal;text-align:center;line-height:100%;writing-mode:lr-tb;text-anchor:middle;fill:#000000;fill-opacity:1;fill-rule:nonzero;stroke:none;stroke-width:1px;stroke-linecap:butt;stroke-linejoin:miter;marker:none;marker-start:none;marker-mid:none;marker-end:none;stroke-miterlimit:4;stroke-dasharray:none;stroke-dashoffset:0;stroke-opacity:1;visibility:visible;display:inline;overflow:visible;enable-background:accumulate;font-family:Hobo Std;-inkscape-font-specification:Hobo Std"
       x="48.284271"
       y="364.93896"
       id="text4956"
       sodipodi:linespacing="100%"><tspan
         sodipodi:role="line"
         id="tspan4958"
         x="48.284271"
         y="364.93896">2</tspan></text>
    <text
       xml:space="preserve"
       style="font-size:10px;font-style:normal;font-variant:normal;font-weight:normal;font-stretch:normal;text-align:center;line-height:100%;writing-mode:lr-tb;text-anchor:middle;fill:#000000;fill-opacity:1;fill-rule:nonzero;stroke:none;stroke-width:1px;stroke-linecap:butt;stroke-linejoin:miter;marker:none;marker-start:none;marker-mid:none;marker-end:none;stroke-miterlimit:4;stroke-dasharray:none;stroke-dashoffset:0;stroke-opacity:1;visibility:visible;display:inline;overflow:visible;enable-background:accumulate;font-family:Hobo Std;-inkscape-font-specification:Hobo Std"
       x="40.284271"
       y="133.59375"
       id="text4952"
       sodipodi:linespacing="100%"><tspan
         sodipodi:role="line"
         id="tspan4954"
         x="40.284271"
         y="133.59375">1</tspan></text>
    <text
       xml:space="preserve"
       style="font-size:10px;font-style:normal;font-variant:normal;font-weight:normal;font-stretch:normal;text-align:center;line-height:100%;writing-mode:lr-tb;text-anchor:middle;fill:#000000;fill-opacity:1;fill-rule:nonzero;stroke:none;stroke-width:1px;stroke-linecap:butt;stroke-linejoin:miter;marker:none;marker-start:none;marker-mid:none;marker-end:none;stroke-miterlimit:4;stroke-dasharray:none;stroke-dashoffset:0;stroke-opacity:1;visibility:visible;display:inline;overflow:visible;enable-background:accumulate;font-family:Hobo Std;-inkscape-font-specification:Hobo Std"
       x="686.06689"
       y="489.47345"
       id="text4980"
       sodipodi:linespacing="100%"><tspan
         sodipodi:role="line"
         id="tspan4982"
         x="686.06689"
         y="489.47345">8</tspan></text>
    <text
       xml:space="preserve"
       style="font-size:10px;font-style:normal;font-variant:normal;font-weight:normal;font-stretch:normal;text-align:center;line-height:100%;writing-mode:lr-tb;text-anchor:middle;fill:#000000;fill-opacity:1;fill-rule:nonzero;stroke:none;stroke-width:1px;stroke-linecap:butt;stroke-linejoin:miter;marker:none;marker-start:none;marker-mid:none;marker-end:none;stroke-miterlimit:4;stroke-dasharray:none;stroke-dashoffset:0;stroke-opacity:1;visibility:visible;display:inline;overflow:visible;enable-background:accumulate;font-family:Hobo Std;-inkscape-font-specification:Hobo Std"
       x="687.49542"
       y="714.52209"
       id="text4984"
       sodipodi:linespacing="100%"><tspan
         sodipodi:role="line"
         id="tspan4986"
         x="687.49542"
         y="714.52209">9</tspan></text>
  </g>
  <g
     inkscape:label="Layer 1"
     inkscape:groupmode="layer"
     id="layer1"
     style="display:inline">
    <text
       xml:space="preserve"
       style="font-size:14px;font-style:normal;font-variant:normal;font-weight:normal;font-stretch:normal;text-align:start;line-height:125%;writing-mode:lr-tb;text-anchor:start;fill:#000000;fill-opacity:1;stroke:none;stroke-width:1px;stroke-linecap:butt;stroke-linejoin:miter;stroke-opacity:1;font-family:Bitstream Vera Sans;-inkscape-font-specification:Bitstream Vera Sans"
       x="-75.761444"
       y="-59.284477"
       id="text6566"
       sodipodi:linespacing="125%"><tspan
         sodipodi:role="line"
         id="tspan6568"
         x="-75.761444"
         y="-59.284477" /></text>
  </g>
</svg>
