<?xml version="1.0" encoding="UTF-8" standalone="no"?>
<!-- Created with Inkscape (http://www.inkscape.org/) -->
<svg
   xmlns:dc="http://purl.org/dc/elements/1.1/"
   xmlns:cc="http://creativecommons.org/ns#"
   xmlns:rdf="http://www.w3.org/1999/02/22-rdf-syntax-ns#"
   xmlns:svg="http://www.w3.org/2000/svg"
   xmlns="http://www.w3.org/2000/svg"
   xmlns:xlink="http://www.w3.org/1999/xlink"
   xmlns:sodipodi="http://sodipodi.sourceforge.net/DTD/sodipodi-0.dtd"
   xmlns:inkscape="http://www.inkscape.org/namespaces/inkscape"
   width="990"
   height="765"
   id="svg2407"
   sodipodi:version="0.32"
   inkscape:version="0.46"
   version="1.0"
   sodipodi:docname="template_form2.svg"
   inkscape:output_extension="org.inkscape.output.svg.inkscape"
   inkscape:export-filename="I:\_wip\src\notebook\digital\0219\template_form2.png"
   inkscape:export-xdpi="90"
   inkscape:export-ydpi="90">
  <defs
     id="defs2409">
    <inkscape:perspective
       sodipodi:type="inkscape:persp3d"
       inkscape:vp_x="0 : 526.18109 : 1"
       inkscape:vp_y="0 : 1000 : 0"
       inkscape:vp_z="744.09448 : 526.18109 : 1"
       inkscape:persp3d-origin="372.04724 : 350.78739 : 1"
       id="perspective2415" />
    <linearGradient
       y2="140.45406"
       y1="17.152563"
       xlink:href="#linearGradient8301"
       x2="146.39938"
       x1="22.029089"
       id="linearGradient9086"
       gradientUnits="userSpaceOnUse"
       gradientTransform="scale(0.855373,1.169081)" />
    <linearGradient
       y2="18.728254"
       y1="146.6171"
       xlink:href="#linearGradient8301"
       x2="36.519855"
       x1="138.23376"
       id="linearGradient8318"
       gradientUnits="userSpaceOnUse"
       gradientTransform="scale(0.854242,1.170628)" />
    <linearGradient
       y2="128.69501"
       y1="63.099518"
       xlink:href="#linearGradient2060"
       x2="109"
       x1="2"
       id="linearGradient6794"
       gradientUnits="userSpaceOnUse"
       gradientTransform="translate(0,-1)" />
    <linearGradient
       y2="128.69501"
       y1="63.099518"
       xlink:href="#linearGradient2060"
       x2="109"
       x1="2"
       id="linearGradient6792"
       gradientUnits="userSpaceOnUse"
       gradientTransform="translate(0,-1)" />
    <linearGradient
       y2="128.69501"
       y1="63.099518"
       xlink:href="#linearGradient2060"
       x2="109"
       x1="2"
       id="linearGradient6790"
       gradientUnits="userSpaceOnUse"
       gradientTransform="translate(0,-1)" />
    <linearGradient
       y2="128.69501"
       y1="63.099518"
       xlink:href="#linearGradient2060"
       x2="109"
       x1="2"
       id="linearGradient6788"
       gradientUnits="userSpaceOnUse"
       gradientTransform="translate(0,-1)" />
    <linearGradient
       y2="128.69501"
       y1="63.099518"
       xlink:href="#linearGradient2060"
       x2="109"
       x1="2"
       id="linearGradient4853"
       gradientUnits="userSpaceOnUse"
       gradientTransform="translate(0,-1)" />
    <linearGradient
       id="linearGradient2060">
      <stop
         style="stop-color:#ebf0d0;stop-opacity:1.0000000;"
         offset="0.0000000"
         id="stop2062" />
      <stop
         style="stop-color:#ffffeb;stop-opacity:1.0000000;"
         offset="1.0000000"
         id="stop2064" />
    </linearGradient>
    <linearGradient
       id="linearGradient8301">
      <stop
         style="stop-color:#000086;stop-opacity:1.0000000;"
         offset="0.0000000"
         id="stop8314" />
      <stop
         style="stop-color:#005aff;stop-opacity:1.0000000;"
         offset="1.0000000"
         id="stop8316" />
    </linearGradient>
    <inkscape:perspective
       id="perspective3084"
       inkscape:persp3d-origin="70 : 63.333333 : 1"
       inkscape:vp_z="140 : 95 : 1"
       inkscape:vp_y="0 : 1000 : 0"
       inkscape:vp_x="0 : 95 : 1"
       sodipodi:type="inkscape:persp3d" />
    <inkscape:perspective
       id="perspective3489"
       inkscape:persp3d-origin="372.04724 : 350.78739 : 1"
       inkscape:vp_z="744.09448 : 526.18109 : 1"
       inkscape:vp_y="0 : 1000 : 0"
       inkscape:vp_x="0 : 526.18109 : 1"
       sodipodi:type="inkscape:persp3d" />
    <inkscape:perspective
       id="perspective3520"
       inkscape:persp3d-origin="372.04724 : 350.78739 : 1"
       inkscape:vp_z="744.09448 : 526.18109 : 1"
       inkscape:vp_y="0 : 1000 : 0"
       inkscape:vp_x="0 : 526.18109 : 1"
       sodipodi:type="inkscape:persp3d" />
    <inkscape:perspective
       id="perspective3603"
       inkscape:persp3d-origin="372.04724 : 350.78739 : 1"
       inkscape:vp_z="744.09448 : 526.18109 : 1"
       inkscape:vp_y="0 : 1000 : 0"
       inkscape:vp_x="0 : 526.18109 : 1"
       sodipodi:type="inkscape:persp3d" />
    <inkscape:perspective
       sodipodi:type="inkscape:persp3d"
       inkscape:vp_x="0 : 526.18109 : 1"
       inkscape:vp_y="0 : 1000 : 0"
       inkscape:vp_z="744.09448 : 526.18109 : 1"
       inkscape:persp3d-origin="372.04724 : 350.78739 : 1"
       id="perspective2390" />
    <inkscape:perspective
       id="perspective10"
       inkscape:persp3d-origin="372.04724 : 350.78739 : 1"
       inkscape:vp_z="744.09448 : 526.18109 : 1"
       inkscape:vp_y="0 : 1000 : 0"
       inkscape:vp_x="0 : 526.18109 : 1"
       sodipodi:type="inkscape:persp3d" />
    <inkscape:perspective
       sodipodi:type="inkscape:persp3d"
       inkscape:vp_x="0 : 526.18109 : 1"
       inkscape:vp_y="0 : 1000 : 0"
       inkscape:vp_z="744.09448 : 526.18109 : 1"
       inkscape:persp3d-origin="372.04724 : 350.78739 : 1"
       id="perspective2657" />
    <inkscape:perspective
       id="perspective3605"
       inkscape:persp3d-origin="372.04724 : 350.78739 : 1"
       inkscape:vp_z="744.09448 : 526.18109 : 1"
       inkscape:vp_y="0 : 1000 : 0"
       inkscape:vp_x="0 : 526.18109 : 1"
       sodipodi:type="inkscape:persp3d" />
    <inkscape:perspective
       id="perspective4358"
       inkscape:persp3d-origin="375.01401 : 101.93025 : 1"
       inkscape:vp_z="750.02802 : 152.89537 : 1"
       inkscape:vp_y="0 : 1000 : 0"
       inkscape:vp_x="0 : 152.89537 : 1"
       sodipodi:type="inkscape:persp3d" />
    <inkscape:perspective
       id="perspective4618"
       inkscape:persp3d-origin="372.04724 : 350.78739 : 1"
       inkscape:vp_z="744.09448 : 526.18109 : 1"
       inkscape:vp_y="0 : 1000 : 0"
       inkscape:vp_x="0 : 526.18109 : 1"
       sodipodi:type="inkscape:persp3d" />
  </defs>
  <sodipodi:namedview
     id="base"
     pagecolor="#ffffff"
     bordercolor="#666666"
     borderopacity="1.0"
     gridtolerance="10000"
     guidetolerance="10"
     objecttolerance="10"
     inkscape:pageopacity="0.0"
     inkscape:pageshadow="2"
     inkscape:zoom="0.49497475"
     inkscape:cx="856.56979"
     inkscape:cy="295.70237"
     inkscape:document-units="px"
     inkscape:current-layer="layer1"
     showgrid="false"
     inkscape:window-width="1213"
     inkscape:window-height="743"
     inkscape:window-x="59"
     inkscape:window-y="88"
     showguides="true"
     inkscape:guide-bbox="true" />
  <metadata
     id="metadata2412">
    <rdf:RDF>
      <cc:Work
         rdf:about="">
        <dc:format>image/svg+xml</dc:format>
        <dc:type
           rdf:resource="http://purl.org/dc/dcmitype/StillImage" />
      </cc:Work>
    </rdf:RDF>
  </metadata>
  <g
     inkscape:groupmode="layer"
     id="layer5"
     inkscape:label="backbackground"
     sodipodi:insensitive="true"
     style="display:none">
    <path
       d="M 0,0 L 0,765 M 20,0 L 20,765 M 40,0 L 40,765 M 60,0 L 60,765 M 80,0 L 80,765 M 100,0 L 100,765 M 120,0 L 120,765 M 140,0 L 140,765 M 160,0 L 160,765 M 180,0 L 180,765 M 200,0 L 200,765 M 220,0 L 220,765 M 240,0 L 240,765 M 260,0 L 260,765 M 280,0 L 280,765 M 300,0 L 300,765 M 320,0 L 320,765 M 340,0 L 340,765 M 360,0 L 360,765 M 380,0 L 380,765 M 400,0 L 400,765 M 420,0 L 420,765 M 440,0 L 440,765 M 460,0 L 460,765 M 480,0 L 480,765 M 500,0 L 500,765 M 520,0 L 520,765 M 540,0 L 540,765 M 560,0 L 560,765 M 580,0 L 580,765 M 600,0 L 600,765 M 620,0 L 620,765 M 640,0 L 640,765 M 660,0 L 660,765 M 680,0 L 680,765 M 700,0 L 700,765 M 720,0 L 720,765 M 740,0 L 740,765 M 760,0 L 760,765 M 780,0 L 780,765 M 800,0 L 800,765 M 820,0 L 820,765 M 840,0 L 840,765 M 860,0 L 860,765 M 880,0 L 880,765 M 900,0 L 900,765 M 920,0 L 920,765 M 940,0 L 940,765 M 960,0 L 960,765 M 980,0 L 980,765 M 0,0 L 990,0 M 0,20 L 990,20 M 0,40 L 990,40 M 0,60 L 990,60 M 0,80 L 990,80 M 0,100 L 990,100 M 0,120 L 990,120 M 0,140 L 990,140 M 0,160 L 990,160 M 0,180 L 990,180 M 0,200 L 990,200 M 0,220 L 990,220 M 0,240 L 990,240 M 0,260 L 990,260 M 0,280 L 990,280 M 0,300 L 990,300 M 0,320 L 990,320 M 0,340 L 990,340 M 0,360 L 990,360 M 0,380 L 990,380 M 0,400 L 990,400 M 0,420 L 990,420 M 0,440 L 990,440 M 0,460 L 990,460 M 0,480 L 990,480 M 0,500 L 990,500 M 0,520 L 990,520 M 0,540 L 990,540 M 0,560 L 990,560 M 0,580 L 990,580 M 0,600 L 990,600 M 0,620 L 990,620 M 0,640 L 990,640 M 0,660 L 990,660 M 0,680 L 990,680 M 0,700 L 990,700 M 0,720 L 990,720 M 0,740 L 990,740 M 0,760 L 990,760"
       style="fill:none;fill-opacity:0.75;fill-rule:evenodd;stroke:#cccccc;stroke-width:1pt;stroke-linecap:butt;stroke-linejoin:miter;stroke-opacity:1;display:inline"
       id="path3207" />
  </g>
  <g
     inkscape:groupmode="layer"
     id="layer2"
     inkscape:label="background"
     style="display:inline"
     sodipodi:insensitive="true">
    <path
       id="path2907"
       d="M 372.40528,548.67501 L 621.5848,548.67501 C 637.03046,548.67501 649.46504,552.70465 649.46504,557.71007 L 649.46504,733.89391 C 649.46504,738.89933 637.03046,742.92898 621.5848,742.92898 L 372.40528,742.92898 C 356.95963,742.92898 344.52504,738.89933 344.52504,733.89391 L 344.52504,557.71007 C 344.52504,552.70465 356.95963,548.67501 372.40528,548.67501 z"
       style="fill:none;fill-opacity:1;stroke:#000000;stroke-width:0.98293191;stroke-miterlimit:4;stroke-opacity:1;display:inline" />
    <rect
       ry="26.795979"
       rx="11.819449"
       y="556.76758"
       x="352.68253"
       height="26.795979"
       width="285.77231"
       id="rect2911"
       style="fill:#ffffff;fill-opacity:1;stroke:#000000;stroke-width:0.98293191;stroke-miterlimit:4;stroke-dasharray:none;stroke-opacity:1;display:inline" />
    <g
       style="display:inline"
       id="g2913"
       transform="matrix(0.1909655,0,0,0.2096697,353.96917,558.48909)">
      <path
         d="M 60.446161,55.537231 C 60.446161,27.526618 37.739073,4.8195294 9.72846,4.8195294 C -18.282153,4.8195294 -40.989241,27.526618 -40.989241,55.537231 C -40.989241,83.547844 -18.282153,106.25493 9.72846,106.25493 C 37.739073,106.25493 60.446161,83.547844 60.446161,55.537231 L 60.446161,55.537231 z"
         id="path2915"
         style="fill-rule:evenodd;stroke:#000000;stroke-width:13.88094711"
         transform="matrix(0.954661,0,0,0.954661,47.02084,1.929386)" />
      <path
         d="M 57.3715,27.76321 C 49.69117,25.62996 48.27614,16.50681 56.48014,13.50082 C 68.22353,9.197998 73.63102,25.58189 66.1294,32.73964 C 57.38492,41.0833 41.21971,37.37122 38.47127,25.13077 C 37.22,19.55833 40.95759,12.22084 45.27893,9.055252 C 17.7102,16.41563 7.337985,40.73051 9.391875,60.2298 C 12.98337,55.02586 15.41195,50.13405 21.57747,47.37701 C 36.6158,40.65247 51.64266,52.4292 66.31929,42.12036 C 80.16084,32.39799 76.41115,9.797058 57.3715,9.985504 C 44.42328,10.11368 37.36764,30.57243 52.00588,32.8405 C 57.15351,33.63808 63.35098,31.9133 65.54874,26.80649 C 67.50783,22.25441 63.57308,16.19102 58.28362,16.80077 C 51.38996,17.59552 55.05321,24.64157 57.3715,27.76321 z"
         id="path2917"
         style="fill:#ffffff" />
      <path
         d="M 73.21464,10.89928 C 77.74805,14.1714 80.42045,20.02633 80.47395,24.9172 C 80.67065,42.8764 60.99718,52.12807 63.90473,71.4234 C 66.31206,87.39919 88.1272,93.00941 96.24566,77.55283 C 102.8299,65.01756 85.59602,50.32248 77.06655,63.56403 C 74.50263,67.54426 74.445,73.95325 78.15746,77.28678 C 81.56236,80.3442 88.30049,79.50556 89.90167,74.85135 C 92.13784,68.35171 84.5868,68.29205 80.63764,69.66845 C 84.77122,64.559 93.61197,65.26835 93.96583,73.17835 C 94.61852,87.77012 72.32053,84.58696 70.97307,71.4234 C 69.28597,52.07086 97.28015,46.83149 100.916,70.22293 C 108.7892,47.28788 98.12712,20.79383 73.21464,10.89928 z"
         id="path2919"
         style="fill:#ffffff" />
      <path
         d="M 29.79359,66.77673 C 34.27921,71.15189 29.57453,77.80548 23.53313,77.01401 C 8.920531,75.09941 17.30264,52.59209 31.58329,56.81641 C 43.57895,60.36484 48.46471,74.61052 37.39976,83.49686 C 31.42313,87.61887 24.52385,88.34091 19.38784,84.34715 C 34.87921,104.6796 67.82317,109.126 88.45577,89.39819 C 82.29923,91.25076 70.82304,91.62292 63.89178,84.31274 C 53.66991,73.53203 54.40986,58.2621 38.7421,51.81976 C 22.14915,44.99695 4.387553,63.22281 17.01503,78.01872 C 25.81356,88.32817 45.7911,78.62679 37.19615,65.91278 C 34.452,61.85356 28.61131,59.10461 23.69876,61.16386 C 19.93976,62.73964 18.52474,69.37241 21.50933,72.267 C 25.89338,76.51901 29.50285,70.54565 29.79359,66.77673 z"
         id="path2921"
         style="fill:#ffffff" />
    </g>
    <rect
       style="fill:#ffffff;fill-opacity:1;stroke:#000000;stroke-width:0.98293191;stroke-miterlimit:4;stroke-dasharray:none;stroke-opacity:1;display:inline"
       id="rect2925"
       width="285.07239"
       height="137.03284"
       x="353.09613"
       y="590.93817"
       ry="6.37362"
       rx="26.063765" />
    <path
       id="path2866"
       d="M 53.19709,548.67501 L 302.37661,548.67501 C 317.82227,548.67501 330.25685,552.70465 330.25685,557.71007 L 330.25685,733.89391 C 330.25685,738.89933 317.82227,742.92898 302.37661,742.92898 L 53.19709,742.92898 C 37.75144,742.92898 25.31685,738.89933 25.31685,733.89391 L 25.31685,557.71007 C 25.31685,552.70465 37.75144,548.67501 53.19709,548.67501 z"
       style="fill:none;fill-opacity:1;stroke:#000000;stroke-width:0.98293191;stroke-miterlimit:4;stroke-opacity:1;display:inline" />
    <rect
       ry="26.795979"
       rx="11.819449"
       y="556.76758"
       x="33.474327"
       height="26.795979"
       width="285.77231"
       id="rect2868"
       style="fill:#ffffff;fill-opacity:1;stroke:#000000;stroke-width:0.98293191;stroke-miterlimit:4;stroke-dasharray:none;stroke-opacity:1;display:inline" />
    <g
       style="display:inline"
       id="g2870"
       transform="matrix(0.1909655,0,0,0.2096697,34.76098,558.48909)">
      <path
         d="M 60.446161,55.537231 C 60.446161,27.526618 37.739073,4.8195294 9.72846,4.8195294 C -18.282153,4.8195294 -40.989241,27.526618 -40.989241,55.537231 C -40.989241,83.547844 -18.282153,106.25493 9.72846,106.25493 C 37.739073,106.25493 60.446161,83.547844 60.446161,55.537231 L 60.446161,55.537231 z"
         id="path2872"
         style="fill-rule:evenodd;stroke:#000000;stroke-width:13.88094711"
         transform="matrix(0.954661,0,0,0.954661,47.02084,1.929386)" />
      <path
         d="M 57.3715,27.76321 C 49.69117,25.62996 48.27614,16.50681 56.48014,13.50082 C 68.22353,9.197998 73.63102,25.58189 66.1294,32.73964 C 57.38492,41.0833 41.21971,37.37122 38.47127,25.13077 C 37.22,19.55833 40.95759,12.22084 45.27893,9.055252 C 17.7102,16.41563 7.337985,40.73051 9.391875,60.2298 C 12.98337,55.02586 15.41195,50.13405 21.57747,47.37701 C 36.6158,40.65247 51.64266,52.4292 66.31929,42.12036 C 80.16084,32.39799 76.41115,9.797058 57.3715,9.985504 C 44.42328,10.11368 37.36764,30.57243 52.00588,32.8405 C 57.15351,33.63808 63.35098,31.9133 65.54874,26.80649 C 67.50783,22.25441 63.57308,16.19102 58.28362,16.80077 C 51.38996,17.59552 55.05321,24.64157 57.3715,27.76321 z"
         id="path2874"
         style="fill:#ffffff" />
      <path
         d="M 73.21464,10.89928 C 77.74805,14.1714 80.42045,20.02633 80.47395,24.9172 C 80.67065,42.8764 60.99718,52.12807 63.90473,71.4234 C 66.31206,87.39919 88.1272,93.00941 96.24566,77.55283 C 102.8299,65.01756 85.59602,50.32248 77.06655,63.56403 C 74.50263,67.54426 74.445,73.95325 78.15746,77.28678 C 81.56236,80.3442 88.30049,79.50556 89.90167,74.85135 C 92.13784,68.35171 84.5868,68.29205 80.63764,69.66845 C 84.77122,64.559 93.61197,65.26835 93.96583,73.17835 C 94.61852,87.77012 72.32053,84.58696 70.97307,71.4234 C 69.28597,52.07086 97.28015,46.83149 100.916,70.22293 C 108.7892,47.28788 98.12712,20.79383 73.21464,10.89928 z"
         id="path2876"
         style="fill:#ffffff" />
      <path
         d="M 29.79359,66.77673 C 34.27921,71.15189 29.57453,77.80548 23.53313,77.01401 C 8.920531,75.09941 17.30264,52.59209 31.58329,56.81641 C 43.57895,60.36484 48.46471,74.61052 37.39976,83.49686 C 31.42313,87.61887 24.52385,88.34091 19.38784,84.34715 C 34.87921,104.6796 67.82317,109.126 88.45577,89.39819 C 82.29923,91.25076 70.82304,91.62292 63.89178,84.31274 C 53.66991,73.53203 54.40986,58.2621 38.7421,51.81976 C 22.14915,44.99695 4.387553,63.22281 17.01503,78.01872 C 25.81356,88.32817 45.7911,78.62679 37.19615,65.91278 C 34.452,61.85356 28.61131,59.10461 23.69876,61.16386 C 19.93976,62.73964 18.52474,69.37241 21.50933,72.267 C 25.89338,76.51901 29.50285,70.54565 29.79359,66.77673 z"
         id="path2878"
         style="fill:#ffffff" />
    </g>
    <rect
       style="fill:#ffffff;fill-opacity:1;stroke:#000000;stroke-width:0.98293191;stroke-miterlimit:4;stroke-dasharray:none;stroke-opacity:1;display:inline"
       id="rect2880"
       width="285.07239"
       height="137.03284"
       x="33.887932"
       y="590.93817"
       ry="6.37362"
       rx="26.063765" />
    <path
       id="path2886"
       d="M 689.90118,548.67501 L 939.0807,548.67501 C 954.52636,548.67501 966.96094,552.70465 966.96094,557.71007 L 966.96094,733.89391 C 966.96094,738.89933 954.52636,742.92898 939.0807,742.92898 L 689.90118,742.92898 C 674.45553,742.92898 662.02094,738.89933 662.02094,733.89391 L 662.02094,557.71007 C 662.02094,552.70465 674.45553,548.67501 689.90118,548.67501 z"
       style="fill:none;fill-opacity:1;stroke:#000000;stroke-width:0.98293191;stroke-miterlimit:4;stroke-opacity:1;display:inline" />
    <rect
       ry="26.795979"
       rx="11.819449"
       y="556.76758"
       x="670.17841"
       height="26.795979"
       width="285.77231"
       id="rect2888"
       style="fill:#ffffff;fill-opacity:1;stroke:#000000;stroke-width:0.98293191;stroke-miterlimit:4;stroke-dasharray:none;stroke-opacity:1;display:inline" />
    <g
       style="display:inline"
       id="g2890"
       transform="matrix(0.1909655,0,0,0.2096697,671.46507,558.48909)">
      <path
         d="M 60.446161,55.537231 C 60.446161,27.526618 37.739073,4.8195294 9.72846,4.8195294 C -18.282153,4.8195294 -40.989241,27.526618 -40.989241,55.537231 C -40.989241,83.547844 -18.282153,106.25493 9.72846,106.25493 C 37.739073,106.25493 60.446161,83.547844 60.446161,55.537231 L 60.446161,55.537231 z"
         id="path2892"
         style="fill-rule:evenodd;stroke:#000000;stroke-width:13.88094711"
         transform="matrix(0.954661,0,0,0.954661,47.02084,1.929386)" />
      <path
         d="M 57.3715,27.76321 C 49.69117,25.62996 48.27614,16.50681 56.48014,13.50082 C 68.22353,9.197998 73.63102,25.58189 66.1294,32.73964 C 57.38492,41.0833 41.21971,37.37122 38.47127,25.13077 C 37.22,19.55833 40.95759,12.22084 45.27893,9.055252 C 17.7102,16.41563 7.337985,40.73051 9.391875,60.2298 C 12.98337,55.02586 15.41195,50.13405 21.57747,47.37701 C 36.6158,40.65247 51.64266,52.4292 66.31929,42.12036 C 80.16084,32.39799 76.41115,9.797058 57.3715,9.985504 C 44.42328,10.11368 37.36764,30.57243 52.00588,32.8405 C 57.15351,33.63808 63.35098,31.9133 65.54874,26.80649 C 67.50783,22.25441 63.57308,16.19102 58.28362,16.80077 C 51.38996,17.59552 55.05321,24.64157 57.3715,27.76321 z"
         id="path2894"
         style="fill:#ffffff" />
      <path
         d="M 73.21464,10.89928 C 77.74805,14.1714 80.42045,20.02633 80.47395,24.9172 C 80.67065,42.8764 60.99718,52.12807 63.90473,71.4234 C 66.31206,87.39919 88.1272,93.00941 96.24566,77.55283 C 102.8299,65.01756 85.59602,50.32248 77.06655,63.56403 C 74.50263,67.54426 74.445,73.95325 78.15746,77.28678 C 81.56236,80.3442 88.30049,79.50556 89.90167,74.85135 C 92.13784,68.35171 84.5868,68.29205 80.63764,69.66845 C 84.77122,64.559 93.61197,65.26835 93.96583,73.17835 C 94.61852,87.77012 72.32053,84.58696 70.97307,71.4234 C 69.28597,52.07086 97.28015,46.83149 100.916,70.22293 C 108.7892,47.28788 98.12712,20.79383 73.21464,10.89928 z"
         id="path2896"
         style="fill:#ffffff" />
      <path
         d="M 29.79359,66.77673 C 34.27921,71.15189 29.57453,77.80548 23.53313,77.01401 C 8.920531,75.09941 17.30264,52.59209 31.58329,56.81641 C 43.57895,60.36484 48.46471,74.61052 37.39976,83.49686 C 31.42313,87.61887 24.52385,88.34091 19.38784,84.34715 C 34.87921,104.6796 67.82317,109.126 88.45577,89.39819 C 82.29923,91.25076 70.82304,91.62292 63.89178,84.31274 C 53.66991,73.53203 54.40986,58.2621 38.7421,51.81976 C 22.14915,44.99695 4.387553,63.22281 17.01503,78.01872 C 25.81356,88.32817 45.7911,78.62679 37.19615,65.91278 C 34.452,61.85356 28.61131,59.10461 23.69876,61.16386 C 19.93976,62.73964 18.52474,69.37241 21.50933,72.267 C 25.89338,76.51901 29.50285,70.54565 29.79359,66.77673 z"
         id="path2898"
         style="fill:#ffffff" />
    </g>
    <rect
       style="fill:#ffffff;fill-opacity:1;stroke:#000000;stroke-width:0.98293191;stroke-miterlimit:4;stroke-dasharray:none;stroke-opacity:1;display:inline"
       id="rect2900"
       width="285.07239"
       height="137.03284"
       x="670.59204"
       y="590.93817"
       ry="6.37362"
       rx="26.063765" />
    <g
       id="g3099"
       transform="translate(4.0406105,28.246731)">
      <path
         style="fill:none;fill-opacity:1;stroke:#000000;stroke-width:0.85003895;stroke-miterlimit:4;stroke-opacity:1;display:inline"
         d="M 49.102184,37.145776 L 298.3903,37.145776 C 313.84269,37.145776 326.28269,40.158143 326.28269,43.899956 L 326.28269,175.60658 C 326.28269,179.34839 313.84269,182.36077 298.3903,182.36077 L 49.102184,182.36077 C 33.649803,182.36077 21.209793,179.34839 21.209793,175.60658 L 21.209793,43.899956 C 21.209793,40.158143 33.649803,37.145776 49.102184,37.145776 z"
         id="path2966" />
      <rect
         rx="26.07621"
         ry="4.6322761"
         y="71.590897"
         x="29.778673"
         height="99.593925"
         width="285.2085"
         id="rect2980"
         style="fill:#ffffff;fill-opacity:1;stroke:#000000;stroke-width:0.83816826;stroke-miterlimit:4;stroke-dasharray:none;stroke-opacity:1;display:inline" />
      <rect
         style="fill:#ffffff;fill-opacity:1;stroke:#000000;stroke-width:0.98293191;stroke-miterlimit:4;stroke-dasharray:none;stroke-opacity:1;display:inline"
         id="rect3023"
         width="285.77231"
         height="26.795979"
         x="26.401054"
         y="40.720753"
         rx="11.819449"
         ry="26.795979" />
      <g
         transform="matrix(0.1909655,0,0,0.2096697,28.401993,41.727976)"
         id="g3025"
         style="display:inline">
        <path
           transform="matrix(0.954661,0,0,0.954661,47.02084,1.929386)"
           style="fill-rule:evenodd;stroke:#000000;stroke-width:13.88094711"
           id="path3027"
           d="M 60.446161,55.537231 C 60.446161,27.526618 37.739073,4.8195294 9.72846,4.8195294 C -18.282153,4.8195294 -40.989241,27.526618 -40.989241,55.537231 C -40.989241,83.547844 -18.282153,106.25493 9.72846,106.25493 C 37.739073,106.25493 60.446161,83.547844 60.446161,55.537231 L 60.446161,55.537231 z" />
        <path
           style="fill:#ffffff"
           id="path3029"
           d="M 57.3715,27.76321 C 49.69117,25.62996 48.27614,16.50681 56.48014,13.50082 C 68.22353,9.197998 73.63102,25.58189 66.1294,32.73964 C 57.38492,41.0833 41.21971,37.37122 38.47127,25.13077 C 37.22,19.55833 40.95759,12.22084 45.27893,9.055252 C 17.7102,16.41563 7.337985,40.73051 9.391875,60.2298 C 12.98337,55.02586 15.41195,50.13405 21.57747,47.37701 C 36.6158,40.65247 51.64266,52.4292 66.31929,42.12036 C 80.16084,32.39799 76.41115,9.797058 57.3715,9.985504 C 44.42328,10.11368 37.36764,30.57243 52.00588,32.8405 C 57.15351,33.63808 63.35098,31.9133 65.54874,26.80649 C 67.50783,22.25441 63.57308,16.19102 58.28362,16.80077 C 51.38996,17.59552 55.05321,24.64157 57.3715,27.76321 z" />
        <path
           style="fill:#ffffff"
           id="path3031"
           d="M 73.21464,10.89928 C 77.74805,14.1714 80.42045,20.02633 80.47395,24.9172 C 80.67065,42.8764 60.99718,52.12807 63.90473,71.4234 C 66.31206,87.39919 88.1272,93.00941 96.24566,77.55283 C 102.8299,65.01756 85.59602,50.32248 77.06655,63.56403 C 74.50263,67.54426 74.445,73.95325 78.15746,77.28678 C 81.56236,80.3442 88.30049,79.50556 89.90167,74.85135 C 92.13784,68.35171 84.5868,68.29205 80.63764,69.66845 C 84.77122,64.559 93.61197,65.26835 93.96583,73.17835 C 94.61852,87.77012 72.32053,84.58696 70.97307,71.4234 C 69.28597,52.07086 97.28015,46.83149 100.916,70.22293 C 108.7892,47.28788 98.12712,20.79383 73.21464,10.89928 z" />
        <path
           style="fill:#ffffff"
           id="path3033"
           d="M 29.79359,66.77673 C 34.27921,71.15189 29.57453,77.80548 23.53313,77.01401 C 8.920531,75.09941 17.30264,52.59209 31.58329,56.81641 C 43.57895,60.36484 48.46471,74.61052 37.39976,83.49686 C 31.42313,87.61887 24.52385,88.34091 19.38784,84.34715 C 34.87921,104.6796 67.82317,109.126 88.45577,89.39819 C 82.29923,91.25076 70.82304,91.62292 63.89178,84.31274 C 53.66991,73.53203 54.40986,58.2621 38.7421,51.81976 C 22.14915,44.99695 4.387553,63.22281 17.01503,78.01872 C 25.81356,88.32817 45.7911,78.62679 37.19615,65.91278 C 34.452,61.85356 28.61131,59.10461 23.69876,61.16386 C 19.93976,62.73964 18.52474,69.37241 21.50933,72.267 C 25.89338,76.51901 29.50285,70.54565 29.79359,66.77673 z" />
      </g>
      <path
         id="path3097"
         d="M 41.657762,181.25147 C 30.224205,180.39862 23.092133,178.42705 22.101462,175.84542 C 21.34369,173.87072 21.587033,44.844239 22.351212,43.416353 C 22.732605,42.703718 24.25939,41.638753 25.744069,41.049782 C 33.428169,38.00151 32.51079,38.020275 173.80062,38.020275 C 316.40192,38.020275 314.61808,37.981253 322.19348,41.266353 L 325.22919,42.582803 L 325.22919,109.80228 L 325.22919,177.02174 L 322.61414,178.1144 C 314.2774,181.5977 319.07994,181.48021 179.15776,181.62365 C 107.2649,181.69733 45.389905,181.52987 41.657762,181.25148 L 41.657762,181.25147 z M 308.37041,170.32684 C 316.7452,168.27915 315.94348,173.45025 315.94348,121.481 C 315.94348,69.602575 316.64391,74.35866 308.74594,72.608453 C 304.8686,71.749225 283.74013,71.591703 172.37205,71.591703 C 61.003969,71.591703 39.875483,71.749232 35.998155,72.608453 C 28.10019,74.358653 28.800619,69.602589 28.800619,121.481 C 28.800619,163.67162 28.88504,166.80278 30.050619,167.84312 C 31.68309,169.30017 36.12459,170.45212 42.942383,171.1867 C 45.96799,171.51269 105.81848,171.72362 175.94348,171.65545 C 292.86,171.54178 303.85245,171.43149 308.3704,170.32682 L 308.37041,170.32684 z M 304.9016,67.034796 C 315.45064,62.243039 315.40509,45.820239 304.82978,41.142275 C 301.86434,39.830539 297.88957,39.796603 168.32373,39.97716 C 41.978647,40.153225 34.748262,40.23076 32.547569,41.433053 C 31.269112,42.131503 29.34054,44.036603 28.261855,45.666603 C 26.552469,48.249668 26.300619,49.331553 26.300619,54.091703 C 26.300619,58.885003 26.546712,59.925046 28.312147,62.592796 C 29.577797,64.505325 31.431812,66.135532 33.312147,66.989232 C 36.213633,68.306539 40.167905,68.346046 169.15776,68.346046 C 296.52774,68.346039 302.13413,68.291889 304.9016,67.034803 L 304.9016,67.034796 z"
         style="fill:#f2f2f2" />
    </g>
    <g
       style="display:inline"
       id="g3110"
       transform="translate(322.39266,28.246731)">
      <path
         style="fill:none;fill-opacity:1;stroke:#000000;stroke-width:0.85003895;stroke-miterlimit:4;stroke-opacity:1;display:inline"
         d="M 49.102184,37.145776 L 298.3903,37.145776 C 313.84269,37.145776 326.28269,40.158143 326.28269,43.899956 L 326.28269,175.60658 C 326.28269,179.34839 313.84269,182.36077 298.3903,182.36077 L 49.102184,182.36077 C 33.649803,182.36077 21.209793,179.34839 21.209793,175.60658 L 21.209793,43.899956 C 21.209793,40.158143 33.649803,37.145776 49.102184,37.145776 z"
         id="path3112" />
      <rect
         rx="26.07621"
         ry="4.6322761"
         y="71.590897"
         x="29.778673"
         height="99.593925"
         width="285.2085"
         id="rect3114"
         style="fill:#ffffff;fill-opacity:1;stroke:#000000;stroke-width:0.83816826;stroke-miterlimit:4;stroke-dasharray:none;stroke-opacity:1;display:inline" />
      <rect
         style="fill:#ffffff;fill-opacity:1;stroke:#000000;stroke-width:0.98293191;stroke-miterlimit:4;stroke-dasharray:none;stroke-opacity:1;display:inline"
         id="rect3116"
         width="285.77231"
         height="26.795979"
         x="26.401054"
         y="40.720753"
         rx="11.819449"
         ry="26.795979" />
      <g
         transform="matrix(0.1909655,0,0,0.2096697,28.401993,41.727976)"
         id="g3118"
         style="display:inline">
        <path
           transform="matrix(0.954661,0,0,0.954661,47.02084,1.929386)"
           style="fill-rule:evenodd;stroke:#000000;stroke-width:13.88094711"
           id="path3120"
           d="M 60.446161,55.537231 C 60.446161,27.526618 37.739073,4.8195294 9.72846,4.8195294 C -18.282153,4.8195294 -40.989241,27.526618 -40.989241,55.537231 C -40.989241,83.547844 -18.282153,106.25493 9.72846,106.25493 C 37.739073,106.25493 60.446161,83.547844 60.446161,55.537231 L 60.446161,55.537231 z" />
        <path
           style="fill:#ffffff"
           id="path3122"
           d="M 57.3715,27.76321 C 49.69117,25.62996 48.27614,16.50681 56.48014,13.50082 C 68.22353,9.197998 73.63102,25.58189 66.1294,32.73964 C 57.38492,41.0833 41.21971,37.37122 38.47127,25.13077 C 37.22,19.55833 40.95759,12.22084 45.27893,9.055252 C 17.7102,16.41563 7.337985,40.73051 9.391875,60.2298 C 12.98337,55.02586 15.41195,50.13405 21.57747,47.37701 C 36.6158,40.65247 51.64266,52.4292 66.31929,42.12036 C 80.16084,32.39799 76.41115,9.797058 57.3715,9.985504 C 44.42328,10.11368 37.36764,30.57243 52.00588,32.8405 C 57.15351,33.63808 63.35098,31.9133 65.54874,26.80649 C 67.50783,22.25441 63.57308,16.19102 58.28362,16.80077 C 51.38996,17.59552 55.05321,24.64157 57.3715,27.76321 z" />
        <path
           style="fill:#ffffff"
           id="path3124"
           d="M 73.21464,10.89928 C 77.74805,14.1714 80.42045,20.02633 80.47395,24.9172 C 80.67065,42.8764 60.99718,52.12807 63.90473,71.4234 C 66.31206,87.39919 88.1272,93.00941 96.24566,77.55283 C 102.8299,65.01756 85.59602,50.32248 77.06655,63.56403 C 74.50263,67.54426 74.445,73.95325 78.15746,77.28678 C 81.56236,80.3442 88.30049,79.50556 89.90167,74.85135 C 92.13784,68.35171 84.5868,68.29205 80.63764,69.66845 C 84.77122,64.559 93.61197,65.26835 93.96583,73.17835 C 94.61852,87.77012 72.32053,84.58696 70.97307,71.4234 C 69.28597,52.07086 97.28015,46.83149 100.916,70.22293 C 108.7892,47.28788 98.12712,20.79383 73.21464,10.89928 z" />
        <path
           style="fill:#ffffff"
           id="path3126"
           d="M 29.79359,66.77673 C 34.27921,71.15189 29.57453,77.80548 23.53313,77.01401 C 8.920531,75.09941 17.30264,52.59209 31.58329,56.81641 C 43.57895,60.36484 48.46471,74.61052 37.39976,83.49686 C 31.42313,87.61887 24.52385,88.34091 19.38784,84.34715 C 34.87921,104.6796 67.82317,109.126 88.45577,89.39819 C 82.29923,91.25076 70.82304,91.62292 63.89178,84.31274 C 53.66991,73.53203 54.40986,58.2621 38.7421,51.81976 C 22.14915,44.99695 4.387553,63.22281 17.01503,78.01872 C 25.81356,88.32817 45.7911,78.62679 37.19615,65.91278 C 34.452,61.85356 28.61131,59.10461 23.69876,61.16386 C 19.93976,62.73964 18.52474,69.37241 21.50933,72.267 C 25.89338,76.51901 29.50285,70.54565 29.79359,66.77673 z" />
      </g>
      <path
         id="path3128"
         d="M 41.657762,181.25147 C 30.224205,180.39862 23.092133,178.42705 22.101462,175.84542 C 21.34369,173.87072 21.587033,44.844239 22.351212,43.416353 C 22.732605,42.703718 24.25939,41.638753 25.744069,41.049782 C 33.428169,38.00151 32.51079,38.020275 173.80062,38.020275 C 316.40192,38.020275 314.61808,37.981253 322.19348,41.266353 L 325.22919,42.582803 L 325.22919,109.80228 L 325.22919,177.02174 L 322.61414,178.1144 C 314.2774,181.5977 319.07994,181.48021 179.15776,181.62365 C 107.2649,181.69733 45.389905,181.52987 41.657762,181.25148 L 41.657762,181.25147 z M 308.37041,170.32684 C 316.7452,168.27915 315.94348,173.45025 315.94348,121.481 C 315.94348,69.602575 316.64391,74.35866 308.74594,72.608453 C 304.8686,71.749225 283.74013,71.591703 172.37205,71.591703 C 61.003969,71.591703 39.875483,71.749232 35.998155,72.608453 C 28.10019,74.358653 28.800619,69.602589 28.800619,121.481 C 28.800619,163.67162 28.88504,166.80278 30.050619,167.84312 C 31.68309,169.30017 36.12459,170.45212 42.942383,171.1867 C 45.96799,171.51269 105.81848,171.72362 175.94348,171.65545 C 292.86,171.54178 303.85245,171.43149 308.3704,170.32682 L 308.37041,170.32684 z M 304.9016,67.034796 C 315.45064,62.243039 315.40509,45.820239 304.82978,41.142275 C 301.86434,39.830539 297.88957,39.796603 168.32373,39.97716 C 41.978647,40.153225 34.748262,40.23076 32.547569,41.433053 C 31.269112,42.131503 29.34054,44.036603 28.261855,45.666603 C 26.552469,48.249668 26.300619,49.331553 26.300619,54.091703 C 26.300619,58.885003 26.546712,59.925046 28.312147,62.592796 C 29.577797,64.505325 31.431812,66.135532 33.312147,66.989232 C 36.213633,68.306539 40.167905,68.346046 169.15776,68.346046 C 296.52774,68.346039 302.13413,68.291889 304.9016,67.034803 L 304.9016,67.034796 z"
         style="fill:#ececec" />
    </g>
    <path
       id="path3132"
       d="M 689.84689,65.392507 L 939.13501,65.392507 C 954.5874,65.392507 967.0274,68.404874 967.0274,72.146687 L 967.0274,203.85331 C 967.0274,207.59512 954.5874,210.6075 939.13501,210.6075 L 689.84689,210.6075 C 674.39451,210.6075 661.9545,207.59512 661.9545,203.85331 L 661.9545,72.146687 C 661.9545,68.404874 674.39451,65.392507 689.84689,65.392507 z"
       style="fill:none;fill-opacity:1;stroke:#000000;stroke-width:0.85003895;stroke-miterlimit:4;stroke-opacity:1;display:inline" />
    <rect
       style="fill:#ffffff;fill-opacity:1;stroke:#000000;stroke-width:0.83816826;stroke-miterlimit:4;stroke-dasharray:none;stroke-opacity:1;display:inline"
       id="rect3134"
       width="285.2085"
       height="99.593925"
       x="670.52338"
       y="99.837631"
       ry="4.6322761"
       rx="26.07621" />
    <rect
       ry="26.795979"
       rx="11.819449"
       y="68.967484"
       x="667.14575"
       height="26.795979"
       width="285.77231"
       id="rect3136"
       style="fill:#ffffff;fill-opacity:1;stroke:#000000;stroke-width:0.98293191;stroke-miterlimit:4;stroke-dasharray:none;stroke-opacity:1;display:inline" />
    <g
       style="display:inline"
       id="g3138"
       transform="matrix(0.1909655,0,0,0.2096697,669.1467,69.974707)">
      <path
         d="M 60.446161,55.537231 C 60.446161,27.526618 37.739073,4.8195294 9.72846,4.8195294 C -18.282153,4.8195294 -40.989241,27.526618 -40.989241,55.537231 C -40.989241,83.547844 -18.282153,106.25493 9.72846,106.25493 C 37.739073,106.25493 60.446161,83.547844 60.446161,55.537231 L 60.446161,55.537231 z"
         id="path3140"
         style="fill-rule:evenodd;stroke:#000000;stroke-width:13.88094711"
         transform="matrix(0.954661,0,0,0.954661,47.02084,1.929386)" />
      <path
         d="M 57.3715,27.76321 C 49.69117,25.62996 48.27614,16.50681 56.48014,13.50082 C 68.22353,9.197998 73.63102,25.58189 66.1294,32.73964 C 57.38492,41.0833 41.21971,37.37122 38.47127,25.13077 C 37.22,19.55833 40.95759,12.22084 45.27893,9.055252 C 17.7102,16.41563 7.337985,40.73051 9.391875,60.2298 C 12.98337,55.02586 15.41195,50.13405 21.57747,47.37701 C 36.6158,40.65247 51.64266,52.4292 66.31929,42.12036 C 80.16084,32.39799 76.41115,9.797058 57.3715,9.985504 C 44.42328,10.11368 37.36764,30.57243 52.00588,32.8405 C 57.15351,33.63808 63.35098,31.9133 65.54874,26.80649 C 67.50783,22.25441 63.57308,16.19102 58.28362,16.80077 C 51.38996,17.59552 55.05321,24.64157 57.3715,27.76321 z"
         id="path3142"
         style="fill:#ffffff" />
      <path
         d="M 73.21464,10.89928 C 77.74805,14.1714 80.42045,20.02633 80.47395,24.9172 C 80.67065,42.8764 60.99718,52.12807 63.90473,71.4234 C 66.31206,87.39919 88.1272,93.00941 96.24566,77.55283 C 102.8299,65.01756 85.59602,50.32248 77.06655,63.56403 C 74.50263,67.54426 74.445,73.95325 78.15746,77.28678 C 81.56236,80.3442 88.30049,79.50556 89.90167,74.85135 C 92.13784,68.35171 84.5868,68.29205 80.63764,69.66845 C 84.77122,64.559 93.61197,65.26835 93.96583,73.17835 C 94.61852,87.77012 72.32053,84.58696 70.97307,71.4234 C 69.28597,52.07086 97.28015,46.83149 100.916,70.22293 C 108.7892,47.28788 98.12712,20.79383 73.21464,10.89928 z"
         id="path3144"
         style="fill:#ffffff" />
      <path
         d="M 29.79359,66.77673 C 34.27921,71.15189 29.57453,77.80548 23.53313,77.01401 C 8.920531,75.09941 17.30264,52.59209 31.58329,56.81641 C 43.57895,60.36484 48.46471,74.61052 37.39976,83.49686 C 31.42313,87.61887 24.52385,88.34091 19.38784,84.34715 C 34.87921,104.6796 67.82317,109.126 88.45577,89.39819 C 82.29923,91.25076 70.82304,91.62292 63.89178,84.31274 C 53.66991,73.53203 54.40986,58.2621 38.7421,51.81976 C 22.14915,44.99695 4.387553,63.22281 17.01503,78.01872 C 25.81356,88.32817 45.7911,78.62679 37.19615,65.91278 C 34.452,61.85356 28.61131,59.10461 23.69876,61.16386 C 19.93976,62.73964 18.52474,69.37241 21.50933,72.267 C 25.89338,76.51901 29.50285,70.54565 29.79359,66.77673 z"
         id="path3146"
         style="fill:#ffffff" />
    </g>
    <path
       style="fill-rule:evenodd;stroke:#000000;stroke-width:2.65163398"
       id="path3162"
       d="M 122.36917,37.176458 C 122.36917,31.569755 118.2295,27.024625 113.12296,27.024625 C 108.01642,27.024625 103.87675,31.569755 103.87675,37.176458 C 103.87675,42.78316 108.01642,47.32829 113.12296,47.32829 C 118.2295,47.32829 122.36917,42.78316 122.36917,37.176458 L 122.36917,37.176458 z" />
    <path
       style="fill:#ffffff"
       id="path3164"
       d="M 113.32601,31.476501 C 111.85933,31.029223 111.58911,29.116375 113.15579,28.48611 C 115.39837,27.583938 116.43101,31.019144 114.99846,32.519907 C 113.32857,34.26932 110.24157,33.491009 109.71672,30.924558 C 109.47777,29.756186 110.19152,28.217737 111.01674,27.554009 C 105.75207,29.097257 103.77133,34.195351 104.16355,38.283761 C 104.84941,37.192653 105.31318,36.166988 106.49058,35.58892 C 109.36238,34.178988 112.232,36.648212 115.03473,34.48676 C 117.67798,32.448274 116.96192,27.709543 113.32601,27.749055 C 110.85334,27.775929 109.50596,32.065509 112.30136,32.541055 C 113.28438,32.708283 114.46788,32.346649 114.88758,31.275906 C 115.2617,30.321472 114.5103,29.050163 113.50019,29.178009 C 112.18374,29.344644 112.88329,30.821988 113.32601,31.476501 z" />
    <path
       style="fill:#ffffff"
       id="path3166"
       d="M 116.3515,27.940646 C 117.21723,28.62671 117.72756,29.854312 117.73778,30.879779 C 117.77534,34.645279 114.01839,36.585074 114.57363,40.63072 C 115.03335,43.980359 119.19928,45.156652 120.74963,41.915876 C 122.00699,39.287609 118.71592,36.206496 117.08708,38.982848 C 116.59746,39.817382 116.58646,41.161153 117.29541,41.860093 C 117.94563,42.501141 119.23238,42.325304 119.53815,41.349457 C 119.96518,39.98668 118.52319,39.974171 117.76904,40.26276 C 118.55841,39.191463 120.24669,39.340192 120.31426,40.99868 C 120.4389,44.058132 116.18076,43.39072 115.92344,40.63072 C 115.60126,36.573079 120.94718,35.474541 121.6415,40.379018 C 123.14501,35.570233 121.10892,30.015233 116.3515,27.940646 z" />
    <path
       style="fill-rule:evenodd;stroke:#000000;stroke-width:2.65163398"
       id="path3183"
       d="M 505.23622,37.176458 C 505.23622,31.569755 501.09655,27.024625 495.99001,27.024625 C 490.88347,27.024625 486.7438,31.569755 486.7438,37.176458 C 486.7438,42.78316 490.88347,47.32829 495.99001,47.32829 C 501.09655,47.32829 505.23622,42.78316 505.23622,37.176458 L 505.23622,37.176458 z" />
    <path
       style="fill:#ffffff"
       id="path3185"
       d="M 496.19306,31.476501 C 494.72638,31.029223 494.45616,29.116375 496.02284,28.48611 C 498.26542,27.583938 499.29806,31.019144 497.86551,32.519907 C 496.19562,34.26932 493.10862,33.491009 492.58377,30.924558 C 492.34482,29.756186 493.05857,28.217737 493.88379,27.554009 C 488.61912,29.097257 486.63838,34.195351 487.0306,38.283761 C 487.71646,37.192653 488.18023,36.166988 489.35763,35.58892 C 492.22943,34.178988 495.09905,36.648212 497.90178,34.48676 C 500.54503,32.448274 499.82897,27.709543 496.19306,27.749055 C 493.72039,27.775929 492.37301,32.065509 495.16841,32.541055 C 496.15143,32.708283 497.33493,32.346649 497.75463,31.275906 C 498.12875,30.321472 497.37735,29.050163 496.36724,29.178009 C 495.05079,29.344644 495.75034,30.821988 496.19306,31.476501 z" />
    <path
       style="fill:#ffffff"
       id="path3187"
       d="M 499.21855,27.940646 C 500.08428,28.62671 500.59461,29.854312 500.60483,30.879779 C 500.64239,34.645279 496.88544,36.585074 497.44068,40.63072 C 497.9004,43.980359 502.06633,45.156652 503.61668,41.915876 C 504.87404,39.287609 501.58297,36.206496 499.95413,38.982848 C 499.46451,39.817382 499.45351,41.161153 500.16246,41.860093 C 500.81268,42.501141 502.09943,42.325304 502.4052,41.349457 C 502.83223,39.98668 501.39024,39.974171 500.63609,40.26276 C 501.42546,39.191463 503.11374,39.340192 503.18131,40.99868 C 503.30595,44.058132 499.04781,43.39072 498.79049,40.63072 C 498.46831,36.573079 503.81423,35.474541 504.50855,40.379018 C 506.01206,35.570233 503.97597,30.015233 499.21855,27.940646 z" />
    <path
       style="fill-rule:evenodd;stroke:#000000;stroke-width:2.65163398"
       id="path3193"
       d="M 888.10329,37.176458 C 888.10329,31.569755 883.96362,27.024625 878.85708,27.024625 C 873.75054,27.024625 869.61087,31.569755 869.61087,37.176458 C 869.61087,42.78316 873.75054,47.32829 878.85708,47.32829 C 883.96362,47.32829 888.10329,42.78316 888.10329,37.176458 L 888.10329,37.176458 z" />
    <path
       style="fill:#ffffff"
       id="path3195"
       d="M 879.06013,31.476501 C 877.59345,31.029223 877.32323,29.116375 878.88991,28.48611 C 881.13249,27.583938 882.16513,31.019144 880.73258,32.519907 C 879.06269,34.26932 875.97569,33.491009 875.45084,30.924558 C 875.21189,29.756186 875.92564,28.217737 876.75086,27.554009 C 871.48619,29.097257 869.50545,34.195351 869.89767,38.283761 C 870.58353,37.192653 871.0473,36.166988 872.2247,35.58892 C 875.0965,34.178988 877.96612,36.648212 880.76885,34.48676 C 883.4121,32.448274 882.69604,27.709543 879.06013,27.749055 C 876.58746,27.775929 875.24008,32.065509 878.03548,32.541055 C 879.0185,32.708283 880.202,32.346649 880.6217,31.275906 C 880.99582,30.321472 880.24442,29.050163 879.23431,29.178009 C 877.91786,29.344644 878.61741,30.821988 879.06013,31.476501 z" />
    <path
       style="fill:#ffffff"
       id="path3197"
       d="M 882.08562,27.940646 C 882.95135,28.62671 883.46168,29.854312 883.4719,30.879779 C 883.50946,34.645279 879.75251,36.585074 880.30775,40.63072 C 880.76747,43.980359 884.9334,45.156652 886.48375,41.915876 C 887.74111,39.287609 884.45004,36.206496 882.8212,38.982848 C 882.33158,39.817382 882.32058,41.161153 883.02953,41.860093 C 883.67975,42.501141 884.9665,42.325304 885.27227,41.349457 C 885.6993,39.98668 884.25731,39.974171 883.50316,40.26276 C 884.29253,39.191463 885.98081,39.340192 886.04838,40.99868 C 886.17302,44.058132 881.91488,43.39072 881.65756,40.63072 C 881.33538,36.573079 886.6813,35.474541 887.37562,40.379018 C 888.87913,35.570233 886.84304,30.015233 882.08562,27.940646 z" />
    <rect
       style="fill:#ffffff;fill-opacity:1;stroke:#000000;stroke-width:0.8933903;stroke-miterlimit:4;stroke-dasharray:none;stroke-opacity:1;display:inline"
       id="rect4905"
       width="215.85088"
       height="174.4111"
       x="32.569763"
       y="321.07507"
       ry="8.1121445"
       rx="19.73494" />
    <rect
       style="fill:none;fill-opacity:1;stroke:#000000;stroke-width:0.89339036;stroke-miterlimit:4;stroke-dasharray:none;stroke-opacity:1;display:inline"
       id="rect4907"
       width="230.89423"
       height="238.27135"
       x="25.272079"
       y="273.96503"
       ry="11.082387"
       rx="21.110331" />
    <rect
       ry="26.91148"
       rx="9.16539"
       y="282.11566"
       x="29.110308"
       height="26.91148"
       width="221.6021"
       id="rect2790"
       style="fill:#ffffff;fill-opacity:1;stroke:#000000;stroke-width:0.86742967;stroke-miterlimit:4;stroke-dasharray:none;stroke-opacity:1;display:inline" />
    <g
       style="display:inline"
       id="g2792"
       transform="matrix(0.1909655,0,0,0.2096697,30.587003,284.05037)">
      <path
         d="M 60.446161,55.537231 C 60.446161,27.526618 37.739073,4.8195294 9.72846,4.8195294 C -18.282153,4.8195294 -40.989241,27.526618 -40.989241,55.537231 C -40.989241,83.547844 -18.282153,106.25493 9.72846,106.25493 C 37.739073,106.25493 60.446161,83.547844 60.446161,55.537231 L 60.446161,55.537231 z"
         id="path2794"
         style="fill-rule:evenodd;stroke:#000000;stroke-width:13.88094711"
         transform="matrix(0.954661,0,0,0.954661,47.02084,1.929386)" />
      <path
         d="M 57.3715,27.76321 C 49.69117,25.62996 48.27614,16.50681 56.48014,13.50082 C 68.22353,9.197998 73.63102,25.58189 66.1294,32.73964 C 57.38492,41.0833 41.21971,37.37122 38.47127,25.13077 C 37.22,19.55833 40.95759,12.22084 45.27893,9.055252 C 17.7102,16.41563 7.337985,40.73051 9.391875,60.2298 C 12.98337,55.02586 15.41195,50.13405 21.57747,47.37701 C 36.6158,40.65247 51.64266,52.4292 66.31929,42.12036 C 80.16084,32.39799 76.41115,9.797058 57.3715,9.985504 C 44.42328,10.11368 37.36764,30.57243 52.00588,32.8405 C 57.15351,33.63808 63.35098,31.9133 65.54874,26.80649 C 67.50783,22.25441 63.57308,16.19102 58.28362,16.80077 C 51.38996,17.59552 55.05321,24.64157 57.3715,27.76321 z"
         id="path2796"
         style="fill:#ffffff" />
      <path
         d="M 73.21464,10.89928 C 77.74805,14.1714 80.42045,20.02633 80.47395,24.9172 C 80.67065,42.8764 60.99718,52.12807 63.90473,71.4234 C 66.31206,87.39919 88.1272,93.00941 96.24566,77.55283 C 102.8299,65.01756 85.59602,50.32248 77.06655,63.56403 C 74.50263,67.54426 74.445,73.95325 78.15746,77.28678 C 81.56236,80.3442 88.30049,79.50556 89.90167,74.85135 C 92.13784,68.35171 84.5868,68.29205 80.63764,69.66845 C 84.77122,64.559 93.61197,65.26835 93.96583,73.17835 C 94.61852,87.77012 72.32053,84.58696 70.97307,71.4234 C 69.28597,52.07086 97.28015,46.83149 100.916,70.22293 C 108.7892,47.28788 98.12712,20.79383 73.21464,10.89928 z"
         id="path2798"
         style="fill:#ffffff" />
      <path
         d="M 29.79359,66.77673 C 34.27921,71.15189 29.57453,77.80548 23.53313,77.01401 C 8.920531,75.09941 17.30264,52.59209 31.58329,56.81641 C 43.57895,60.36484 48.46471,74.61052 37.39976,83.49686 C 31.42313,87.61887 24.52385,88.34091 19.38784,84.34715 C 34.87921,104.6796 67.82317,109.126 88.45577,89.39819 C 82.29923,91.25076 70.82304,91.62292 63.89178,84.31274 C 53.66991,73.53203 54.40986,58.2621 38.7421,51.81976 C 22.14915,44.99695 4.387553,63.22281 17.01503,78.01872 C 25.81356,88.32817 45.7911,78.62679 37.19615,65.91278 C 34.452,61.85356 28.61131,59.10461 23.69876,61.16386 C 19.93976,62.73964 18.52474,69.37241 21.50933,72.267 C 25.89338,76.51901 29.50285,70.54565 29.79359,66.77673 z"
         id="path2800"
         style="fill:#ffffff" />
    </g>
    <rect
       style="fill:#ffffff;fill-opacity:1;stroke:#000000;stroke-width:0.8933903;stroke-miterlimit:4;stroke-dasharray:none;stroke-opacity:1;display:inline"
       id="rect2833"
       width="215.85088"
       height="174.4111"
       x="743.40918"
       y="321.07507"
       ry="8.1121445"
       rx="19.73494" />
    <rect
       style="fill:none;fill-opacity:1;stroke:#000000;stroke-width:0.89339036;stroke-miterlimit:4;stroke-dasharray:none;stroke-opacity:1;display:inline"
       id="rect2835"
       width="230.89423"
       height="238.27135"
       x="736.11151"
       y="273.96503"
       ry="11.082387"
       rx="21.110331" />
    <rect
       ry="26.91148"
       rx="9.16539"
       y="282.11566"
       x="739.94971"
       height="26.91148"
       width="221.6021"
       id="rect2837"
       style="fill:#ffffff;fill-opacity:1;stroke:#000000;stroke-width:0.86742967;stroke-miterlimit:4;stroke-dasharray:none;stroke-opacity:1;display:inline" />
    <g
       style="display:inline"
       id="g2839"
       transform="matrix(0.1909655,0,0,0.2096697,741.42641,284.05037)">
      <path
         d="M 60.446161,55.537231 C 60.446161,27.526618 37.739073,4.8195294 9.72846,4.8195294 C -18.282153,4.8195294 -40.989241,27.526618 -40.989241,55.537231 C -40.989241,83.547844 -18.282153,106.25493 9.72846,106.25493 C 37.739073,106.25493 60.446161,83.547844 60.446161,55.537231 L 60.446161,55.537231 z"
         id="path2841"
         style="fill-rule:evenodd;stroke:#000000;stroke-width:13.88094711"
         transform="matrix(0.954661,0,0,0.954661,47.02084,1.929386)" />
      <path
         d="M 57.3715,27.76321 C 49.69117,25.62996 48.27614,16.50681 56.48014,13.50082 C 68.22353,9.197998 73.63102,25.58189 66.1294,32.73964 C 57.38492,41.0833 41.21971,37.37122 38.47127,25.13077 C 37.22,19.55833 40.95759,12.22084 45.27893,9.055252 C 17.7102,16.41563 7.337985,40.73051 9.391875,60.2298 C 12.98337,55.02586 15.41195,50.13405 21.57747,47.37701 C 36.6158,40.65247 51.64266,52.4292 66.31929,42.12036 C 80.16084,32.39799 76.41115,9.797058 57.3715,9.985504 C 44.42328,10.11368 37.36764,30.57243 52.00588,32.8405 C 57.15351,33.63808 63.35098,31.9133 65.54874,26.80649 C 67.50783,22.25441 63.57308,16.19102 58.28362,16.80077 C 51.38996,17.59552 55.05321,24.64157 57.3715,27.76321 z"
         id="path2843"
         style="fill:#ffffff" />
      <path
         d="M 73.21464,10.89928 C 77.74805,14.1714 80.42045,20.02633 80.47395,24.9172 C 80.67065,42.8764 60.99718,52.12807 63.90473,71.4234 C 66.31206,87.39919 88.1272,93.00941 96.24566,77.55283 C 102.8299,65.01756 85.59602,50.32248 77.06655,63.56403 C 74.50263,67.54426 74.445,73.95325 78.15746,77.28678 C 81.56236,80.3442 88.30049,79.50556 89.90167,74.85135 C 92.13784,68.35171 84.5868,68.29205 80.63764,69.66845 C 84.77122,64.559 93.61197,65.26835 93.96583,73.17835 C 94.61852,87.77012 72.32053,84.58696 70.97307,71.4234 C 69.28597,52.07086 97.28015,46.83149 100.916,70.22293 C 108.7892,47.28788 98.12712,20.79383 73.21464,10.89928 z"
         id="path2845"
         style="fill:#ffffff" />
      <path
         d="M 29.79359,66.77673 C 34.27921,71.15189 29.57453,77.80548 23.53313,77.01401 C 8.920531,75.09941 17.30264,52.59209 31.58329,56.81641 C 43.57895,60.36484 48.46471,74.61052 37.39976,83.49686 C 31.42313,87.61887 24.52385,88.34091 19.38784,84.34715 C 34.87921,104.6796 67.82317,109.126 88.45577,89.39819 C 82.29923,91.25076 70.82304,91.62292 63.89178,84.31274 C 53.66991,73.53203 54.40986,58.2621 38.7421,51.81976 C 22.14915,44.99695 4.387553,63.22281 17.01503,78.01872 C 25.81356,88.32817 45.7911,78.62679 37.19615,65.91278 C 34.452,61.85356 28.61131,59.10461 23.69876,61.16386 C 19.93976,62.73964 18.52474,69.37241 21.50933,72.267 C 25.89338,76.51901 29.50285,70.54565 29.79359,66.77673 z"
         id="path2847"
         style="fill:#ffffff" />
    </g>
    <path
       id="rect2674"
       d="M 308.15618,219.90004 L 685.36933,219.90004 C 708.75129,219.90004 727.57503,226.39435 727.57503,234.46128 L 727.57503,518.40562 C 727.57503,526.47255 708.75129,532.96686 685.36933,532.96686 L 308.15618,532.96686 C 284.77424,532.96686 265.9505,526.47255 265.9505,518.40562 L 265.9505,234.46128 C 265.9505,226.39435 284.77424,219.90004 308.15618,219.90004 z"
       style="fill:none;fill-opacity:1;stroke:#000000;stroke-width:1.15299606;stroke-miterlimit:4;stroke-opacity:1" />
    <rect
       style="fill:#ffffff;fill-opacity:1;stroke:#000000;stroke-width:1.12014639;stroke-miterlimit:4;stroke-dasharray:none;stroke-opacity:1"
       id="rect2731"
       width="433.51379"
       height="250.07037"
       x="279.30804"
       y="270.44135"
       ry="11.63118"
       rx="39.635551" />
    <rect
       ry="26.566988"
       rx="18.122892"
       y="229.14275"
       x="276.36044"
       height="26.566988"
       width="438.17789"
       id="rect3011"
       style="fill:#ffffff;fill-opacity:1;stroke:#000000;stroke-width:1.21192276;stroke-miterlimit:4;stroke-dasharray:none;stroke-opacity:1;display:inline" />
    <g
       style="display:inline"
       id="g3013"
       transform="matrix(0.1909655,0,0,0.2096697,283.5935,230.74977)">
      <path
         d="M 60.446161,55.537231 C 60.446161,27.526618 37.739073,4.8195294 9.72846,4.8195294 C -18.282153,4.8195294 -40.989241,27.526618 -40.989241,55.537231 C -40.989241,83.547844 -18.282153,106.25493 9.72846,106.25493 C 37.739073,106.25493 60.446161,83.547844 60.446161,55.537231 L 60.446161,55.537231 z"
         id="path3015"
         style="fill-rule:evenodd;stroke:#000000;stroke-width:13.88094711"
         transform="matrix(0.954661,0,0,0.954661,47.02084,1.929386)" />
      <path
         d="M 57.3715,27.76321 C 49.69117,25.62996 48.27614,16.50681 56.48014,13.50082 C 68.22353,9.197998 73.63102,25.58189 66.1294,32.73964 C 57.38492,41.0833 41.21971,37.37122 38.47127,25.13077 C 37.22,19.55833 40.95759,12.22084 45.27893,9.055252 C 17.7102,16.41563 7.337985,40.73051 9.391875,60.2298 C 12.98337,55.02586 15.41195,50.13405 21.57747,47.37701 C 36.6158,40.65247 51.64266,52.4292 66.31929,42.12036 C 80.16084,32.39799 76.41115,9.797058 57.3715,9.985504 C 44.42328,10.11368 37.36764,30.57243 52.00588,32.8405 C 57.15351,33.63808 63.35098,31.9133 65.54874,26.80649 C 67.50783,22.25441 63.57308,16.19102 58.28362,16.80077 C 51.38996,17.59552 55.05321,24.64157 57.3715,27.76321 z"
         id="path3017"
         style="fill:#ffffff" />
      <path
         d="M 73.21464,10.89928 C 77.74805,14.1714 80.42045,20.02633 80.47395,24.9172 C 80.67065,42.8764 60.99718,52.12807 63.90473,71.4234 C 66.31206,87.39919 88.1272,93.00941 96.24566,77.55283 C 102.8299,65.01756 85.59602,50.32248 77.06655,63.56403 C 74.50263,67.54426 74.445,73.95325 78.15746,77.28678 C 81.56236,80.3442 88.30049,79.50556 89.90167,74.85135 C 92.13784,68.35171 84.5868,68.29205 80.63764,69.66845 C 84.77122,64.559 93.61197,65.26835 93.96583,73.17835 C 94.61852,87.77012 72.32053,84.58696 70.97307,71.4234 C 69.28597,52.07086 97.28015,46.83149 100.916,70.22293 C 108.7892,47.28788 98.12712,20.79383 73.21464,10.89928 z"
         id="path3019"
         style="fill:#ffffff" />
      <path
         d="M 29.79359,66.77673 C 34.27921,71.15189 29.57453,77.80548 23.53313,77.01401 C 8.920531,75.09941 17.30264,52.59209 31.58329,56.81641 C 43.57895,60.36484 48.46471,74.61052 37.39976,83.49686 C 31.42313,87.61887 24.52385,88.34091 19.38784,84.34715 C 34.87921,104.6796 67.82317,109.126 88.45577,89.39819 C 82.29923,91.25076 70.82304,91.62292 63.89178,84.31274 C 53.66991,73.53203 54.40986,58.2621 38.7421,51.81976 C 22.14915,44.99695 4.387553,63.22281 17.01503,78.01872 C 25.81356,88.32817 45.7911,78.62679 37.19615,65.91278 C 34.452,61.85356 28.61131,59.10461 23.69876,61.16386 C 19.93976,62.73964 18.52474,69.37241 21.50933,72.267 C 25.89338,76.51901 29.50285,70.54565 29.79359,66.77673 z"
         id="path3021"
         style="fill:#ffffff" />
    </g>
    <path
       style="opacity:1;fill:#cccccc;fill-opacity:1;stroke:none;stroke-width:21.39999962;stroke-miterlimit:4;stroke-dasharray:none"
       d="M 294.47695,530.7073 C 282.92307,529.12983 275.3318,526.76708 271.08524,523.42673 L 267.3205,520.46543 L 267.68444,375.98841 L 268.04838,231.5114 L 272.57675,228.45977 C 283.17221,221.3197 280.6885,221.39774 497.3341,221.39774 C 664.76334,221.39774 700.82624,221.73731 707.3341,223.37516 C 715.99701,225.55536 723.19384,228.79377 724.81222,231.23993 C 725.3895,232.11244 725.87162,297.84167 725.88365,377.30487 L 725.90552,521.78344 L 722.3715,524.09898 C 720.42784,525.37254 715.12427,527.52396 710.58582,528.87991 C 702.95781,531.15893 687.21811,531.3617 502.3341,531.56266 C 392.3341,531.6822 298.79838,531.29731 294.47695,530.7073 z M 685.71125,520.6535 C 700.26977,519.12007 710.49142,515.46117 712.92621,510.91174 C 714.54755,507.88221 715.23481,287.22241 713.64137,281.28848 C 713.20324,279.65696 710.9207,277.18547 708.56901,275.7963 C 697.93538,269.51488 692.6433,269.35457 495.90552,269.35457 C 297.52515,269.35456 291.95657,269.53173 283.12652,276.12403 L 279.47695,278.8487 L 279.11144,395.4963 L 278.74592,512.14386 L 283.27317,514.89701 C 287.2698,517.32751 297.71491,519.71001 310.90552,521.19987 C 321.93118,522.44521 673.56735,521.93261 685.71124,520.65351 L 685.71125,520.6535 z M 708.86251,253.1576 C 717.99721,247.0017 717.51045,237.46646 707.73447,231.0605 C 704.11334,228.68767 691.9212,228.51584 498.8258,228.11646 C 359.06244,227.82738 292.11835,228.16836 288.59895,229.18727 C 280.00607,231.67504 275.90552,235.80333 275.90552,241.9667 C 275.90552,247.37144 278.61208,251.09183 285.19124,254.73063 C 287.24104,255.86436 346.8233,256.32314 496.05141,256.3543 L 704.05441,256.39774 L 708.86251,253.1576 z"
       id="path2584" />
    <path
       style="opacity:1;fill:#808080;fill-opacity:1;stroke:none;stroke-width:21.39999962;stroke-miterlimit:4;stroke-dasharray:none"
       d="M 79.213666,274.24642 C 65.506937,274.53853 51.696752,273.80201 38.052952,275.09464 C 33.152252,276.12502 27.471373,278.62909 25.618752,283.44285 C 25.682837,355.07133 24.961966,426.70573 25.732937,498.3305 C 25.075809,502.46957 26.68713,506.68279 30.709202,508.37589 C 39.545202,513.1915 50.110145,510.81903 59.74938,511.59017 C 121.28067,511.71257 182.82295,511.5718 244.34759,511.4116 C 249.58114,509.15459 257.25874,505.98139 255.79849,498.93392 C 255.79849,426.76874 255.79849,354.60356 255.79849,282.43839 C 251.65247,276.92156 244.66239,274.21984 237.80804,274.81936 C 184.95094,274.06634 132.07613,274.32693 79.213666,274.24642 z M 140.28509,282.17053 C 174.95772,282.17053 209.63033,282.17053 244.30295,282.17053 C 251.74762,288.00321 253.20355,300.88397 245.99938,307.43839 C 241.54984,309.75719 235.94265,308.27639 231.06681,308.87991 C 166.12043,309.36643 101.17045,309.03701 36.222595,309.13481 C 27.710345,303.75635 26.715437,289.18201 34.860987,283.19731 C 47.837345,281.57929 61.08978,282.5761 74.169016,282.20573 C 96.207673,282.16286 118.2464,282.17076 140.28509,282.17053 z M 120.97706,321.23303 C 159.83873,321.26697 198.70027,321.38378 237.56188,321.45624 C 241.43584,323.30679 247.67452,324.60671 248.47706,329.38035 C 248.47706,382.54255 248.47706,435.70476 248.47706,488.86696 C 243.50874,494.65034 235.72189,495.13551 228.63424,494.92187 C 168.25096,495.45296 107.85624,495.51371 47.472595,494.93839 C 42.017595,494.74301 36.108109,493.13865 32.584202,488.68839 C 32.679959,435.74381 31.85138,382.7878 32.760073,329.85034 C 32.359759,325.20121 38.238552,323.90664 41.557416,322.54999 C 50.996287,320.48451 60.86098,321.84719 70.463516,321.30632 C 87.301237,321.22994 104.13919,321.23046 120.97706,321.23303 z"
       id="path2590" />
    <path
       style="opacity:1;fill:#b3b3b3;fill-opacity:1;stroke:none;stroke-width:21.39999962;stroke-miterlimit:4;stroke-dasharray:none"
       d="M 49.59298,742.12947 C 39.605202,741.67485 30.95962,739.40521 27.812798,736.41171 L 25.854395,734.54873 L 25.854395,645.77913 L 25.854395,557.00952 L 27.495893,555.37298 C 29.227279,553.64681 32.936963,552.05217 38.445325,550.66626 C 41.482677,549.90206 53.091138,549.81798 175.25417,549.67542 C 291.65446,549.53958 309.39032,549.61627 313.79231,550.27447 C 319.739,551.16363 325.222,552.96109 327.65996,554.82061 L 329.40523,556.1518 L 329.40523,645.6891 L 329.40523,735.22638 L 328.26373,736.29878 C 325.18354,739.19246 317.71876,741.21329 307.34768,741.96107 C 301.17145,742.40641 59.150902,742.56451 49.59298,742.12947 L 49.59298,742.12947 z M 299.95886,728.31232 C 310.81499,727.53397 318.25387,725.28431 319.3299,722.45414 C 319.64027,721.63774 319.77194,698.20074 319.68835,658.63953 L 319.55625,596.11518 L 318.29356,595.06555 C 317.03982,594.02338 313.28789,592.62235 308.44457,591.38779 C 306.44003,590.87684 279.77281,590.71022 179.14504,590.57993 C 65.784008,590.43316 51.791622,590.50007 46.895832,591.2124 C 40.890399,592.0862 36.326086,593.54131 34.566961,595.14287 L 33.430539,596.1775 L 33.430539,659.44044 C 33.430539,718.72364 33.485471,722.75834 34.303775,723.57665 C 36.542279,725.81514 43.452096,727.64461 52.118361,728.29331 C 60.293601,728.90527 291.44148,728.92297 299.95887,728.31231 L 299.95886,728.31232 z M 310.49946,583.64155 C 317.61589,581.51842 321.6045,572.87911 319.03704,565.14923 C 317.89935,561.72401 313.93373,557.60761 310.91135,556.71462 C 309.3023,556.23921 278.89461,556.10039 176.36712,556.10039 C 73.839641,556.10039 43.431958,556.23921 41.822896,556.71462 C 38.924026,557.57111 34.864026,561.70264 33.772117,564.90722 C 31.178267,572.51975 34.761132,581.07941 41.511759,583.3977 C 44.206922,584.32327 48.217879,584.35217 176.14918,584.36817 C 290.78128,584.3825 308.33411,584.28758 310.49947,583.64155 L 310.49946,583.64155 z"
       id="path2629" />
    <path
       style="opacity:1;fill:#4d4d4d;fill-opacity:1;stroke:none;stroke-width:21.39999962;stroke-miterlimit:4;stroke-dasharray:none"
       d="M 363.12229,741.70427 C 355.5987,740.80726 348.74154,738.50571 346.53447,736.13671 L 345.44462,734.96688 L 345.44462,645.75812 L 345.44462,556.54935 L 346.83358,555.22464 C 348.35791,553.77082 351.51982,552.30369 355.04107,551.41634 C 356.29113,551.10133 358.45033,550.56178 359.83929,550.21735 C 363.20345,549.38312 620.4862,548.95392 629.06114,549.76824 C 638.33921,550.64933 644.91648,552.75996 647.47896,555.67847 L 648.99546,557.40567 L 648.988,645.65016 C 648.98211,715.59907 648.84863,734.15646 648.34422,735.15736 C 646.99918,737.82627 639.46487,740.64128 630.82596,741.70262 C 625.76725,742.32413 368.33452,742.32568 363.12229,741.70426 L 363.12229,741.70427 z M 628.53987,727.23565 C 633.28576,726.11321 635.92592,725.10963 637.63124,723.77985 C 638.63052,723.00062 638.64282,722.31341 638.77345,659.95477 C 638.90484,597.22872 638.90042,596.91095 637.87807,595.61123 C 636.65424,594.05541 632.7947,592.53001 627.12268,591.36044 C 623.31815,590.57594 613.0147,590.49233 499.49288,590.32471 C 411.51572,590.19482 374.40397,590.30346 370.4459,590.70252 C 361.30289,591.62433 355.62652,593.22271 353.326,595.52323 C 352.59094,596.25828 352.51569,602.19621 352.51569,659.45612 L 352.51569,722.5787 L 353.82413,723.7913 C 354.54377,724.45825 356.57428,725.4837 358.33639,726.07009 C 365.7971,728.55285 362.83987,728.50334 497.72512,728.40386 L 623.99418,728.31075 L 628.53987,727.23565 z M 631.76996,582.80863 C 636.67571,580.364 639.16627,575.49027 638.7942,569.06301 C 638.53463,564.57908 637.16167,561.58537 634.23188,559.11498 C 630.3511,555.8427 642.5866,556.10782 495.45227,556.10782 C 364.32958,556.10782 361.82315,556.12591 359.88808,557.08603 C 357.20688,558.41635 354.62395,561.10191 353.34284,563.89136 C 351.70744,567.45226 351.83986,573.44525 353.62944,576.86142 C 355.08895,579.6475 357.83662,582.34827 360.30512,583.42314 C 361.59118,583.98313 384.93275,584.10343 495.47938,584.11979 L 629.09914,584.13956 L 631.76996,582.80863 z"
       id="path2640" />
    <path
       style="opacity:1;fill:#b3b3b3;fill-opacity:1;stroke:none;stroke-width:21.39999962;stroke-miterlimit:4;stroke-dasharray:none"
       d="M 679.4413,741.58838 C 675.37958,741.05498 669.17322,739.34988 666.69905,738.08766 C 665.63447,737.54456 664.28741,736.49499 663.70557,735.7553 L 662.64767,734.41041 L 662.64767,645.65885 L 662.64767,556.90729 L 663.91315,555.54182 C 666.61486,552.62661 673.75725,550.51811 683.72969,549.69178 C 691.81961,549.02145 937.10211,549.02774 945.19886,549.6985 C 955.29259,550.53469 963.41317,553.00789 965.40574,555.8527 C 966.11876,556.87069 966.19851,565.93488 966.19851,645.9658 L 966.19851,734.94708 L 964.47216,736.46283 C 962.59949,738.10704 958.83172,739.67703 953.60758,740.99 C 950.56819,741.7539 939.01374,741.83168 816.4434,741.91355 C 742.82853,741.96272 681.17759,741.81639 679.4413,741.58838 L 679.4413,741.58838 z M 942.71246,727.72684 C 948.80426,726.81872 953.67182,725.19368 955.21266,723.55362 L 956.34952,722.34357 L 956.48312,660.13352 C 956.58044,614.81625 956.46195,597.54878 956.04678,596.54353 C 954.87221,593.69969 948.15515,591.53925 937.6617,590.63026 C 929.3074,589.90658 697.0134,589.90657 688.6591,590.63026 C 678.30313,591.52735 671.23672,593.74412 670.22154,596.41425 C 669.89775,597.26586 669.71874,619.83033 669.71874,659.78947 L 669.71874,721.84222 L 670.99566,723.35977 C 672.54353,725.1993 676.72383,726.69019 683.12113,727.68428 C 690.15437,728.77719 935.39677,728.81739 942.71246,727.72684 z M 948.77338,583.07429 C 954.89983,580.2316 957.94784,572.75931 955.88101,565.64973 C 954.88376,562.21921 951.8398,558.60037 948.77338,557.19971 C 946.83323,556.3135 941.44727,556.27645 813.01734,556.2658 L 679.2816,556.25471 L 676.80434,557.51003 C 667.31141,562.32046 667.37501,578.24783 676.90597,582.96557 L 679.06265,584.0331 L 812.90786,584.02241 C 942.21717,584.01208 946.82154,583.97995 948.77338,583.07429 L 948.77338,583.07429 z"
       id="path2651" />
    <path
       style="opacity:1;fill:#b3b3b3;fill-opacity:1;stroke:none;stroke-width:21.39999962;stroke-miterlimit:4;stroke-dasharray:none"
       d="M 751.79363,511.1395 C 745.41786,510.21283 739.71505,507.48504 737.88762,504.48793 C 736.91239,502.88849 736.89763,501.22573 736.89577,392.85991 L 736.89388,282.85549 L 739.32283,280.42653 C 741.86717,277.88221 745.43891,276.19735 750.20409,275.29366 C 753.53435,274.66209 949.55806,274.66209 952.88831,275.29366 C 957.52155,276.17234 961.17048,277.87151 963.73743,280.3457 L 966.19851,282.71789 L 966.19664,392.79111 C 966.19477,501.22527 966.17997,502.8885 965.20477,504.48793 C 963.29119,507.62637 957.72176,510.2025 950.75555,511.17142 C 946.03099,511.82855 756.32503,511.79813 751.79363,511.13951 L 751.79363,511.1395 z M 947.67568,495.32076 C 952.63735,494.37143 956.06996,492.85477 958.17704,490.68087 L 959.88506,488.91865 L 959.88506,408.42407 L 959.88506,327.9295 L 958.83364,326.50348 C 957.35417,324.49701 953.46404,322.48517 949.02592,321.43129 C 945.46391,320.58546 939.63141,320.53178 851.29366,320.53178 C 779.70737,320.53178 756.73692,320.6768 754.7756,321.14112 C 750.12843,322.24128 746.4568,323.88198 744.69148,325.6473 L 742.9548,327.38399 L 742.9548,408.16178 L 742.9548,488.93958 L 744.46636,490.66113 C 746.24793,492.69024 749.88143,494.36206 754.51782,495.28596 C 759.70283,496.31918 942.2855,496.35207 947.67569,495.32076 L 947.67568,495.32076 z M 955.22931,308.97723 C 964.10669,305.17886 964.36993,286.94159 955.61115,282.52479 L 953.35757,281.38837 L 851.00946,281.38837 C 776.05495,281.38837 748.20185,281.54169 746.94451,281.96118 C 744.53122,282.76635 742.21046,285.12096 740.84746,288.14717 C 739.1707,291.86997 739.16482,299.22633 740.83568,302.85411 C 742.21078,305.83975 744.14184,308.02122 746.23779,308.95677 C 748.52862,309.9793 952.84059,309.99931 955.22932,308.97723 L 955.22931,308.97723 z"
       id="path2653" />
    <path
       style="opacity:1;fill:#808080;fill-opacity:1;stroke:none;stroke-width:21.39999962;stroke-miterlimit:4;stroke-dasharray:none"
       d="M 722.08883,66.096774 C 706.90638,66.324084 691.67999,65.787658 676.52585,66.715473 C 671.77559,67.493245 666.59205,68.146935 662.71081,71.052835 C 662.7731,114.89867 662.20996,158.75081 662.81735,202.5927 C 662.03165,206.24672 666.34329,206.95348 668.87956,207.77958 C 681.93908,211.25824 695.5974,209.53346 708.94106,210.07883 C 787.51124,210.27326 866.08507,210.4784 944.65345,209.88242 C 951.4532,209.4775 958.74874,209.08749 964.81758,205.78312 C 967.57303,204.12938 965.48782,199.95193 966.13538,197.21142 C 966.07214,155.09298 966.26164,112.91008 966.04067,70.831865 C 959.63035,67.16893 952.06835,65.806628 944.73277,66.276405 C 870.51815,66.199916 796.30351,66.02321 722.08883,66.096774 z M 834.89446,68.385401 C 871.27965,68.511125 907.67789,68.251273 944.05407,68.922045 C 950.61341,71.048765 954.25974,78.432384 953.01918,85.068702 C 952.36625,90.19656 948.21465,95.085466 943.15441,96.054707 C 855.32407,95.994057 767.49135,96.438631 679.66263,95.840004 C 674.92606,96.776264 670.9528,93.247796 668.53497,89.661739 C 666.3978,85.907184 667.03305,81.189373 667.57216,77.082183 C 669.52232,72.235285 674.42843,67.974976 679.99381,68.818929 C 731.6241,68.295841 783.2619,68.403109 834.89446,68.385401 z M 813.66548,99.463376 C 855.57533,99.596716 897.49321,99.151739 939.39748,99.894489 C 944.93769,100.17245 950.73412,100.76138 955.65504,103.44085 C 955.73924,134.23998 955.82339,165.03911 955.90758,195.83824 C 947.99122,199.81727 938.66417,199.28524 930.02243,199.55077 C 849.26913,199.95989 768.51299,199.74521 687.75952,199.50647 C 682.07639,198.88333 675.80997,198.89388 670.82359,195.82246 C 669.41086,191.8282 670.32388,187.19468 669.96696,182.9746 C 669.84554,156.75827 669.93652,130.54131 669.90814,104.32473 C 674.47226,100.02532 681.55471,100.50678 687.44243,99.983761 C 729.50679,99.113585 771.59381,99.609919 813.66548,99.463376 z"
       id="path2668" />
  </g>
  <g
     inkscape:groupmode="layer"
     id="layer3"
     inkscape:label="index"
     style="display:inline"
     sodipodi:insensitive="true">
    <text
       xml:space="preserve"
       style="font-size:10px;font-style:normal;font-variant:normal;font-weight:normal;font-stretch:normal;text-align:center;line-height:100%;writing-mode:lr-tb;text-anchor:middle;opacity:1;fill:#000000;fill-opacity:1;fill-rule:nonzero;stroke:none;stroke-width:1px;stroke-linecap:butt;stroke-linejoin:miter;marker:none;marker-start:none;marker-mid:none;marker-end:none;stroke-miterlimit:4;stroke-dasharray:none;stroke-dashoffset:0;stroke-opacity:1;visibility:visible;display:inline;overflow:visible;enable-background:accumulate;font-family:Hobo Std;-inkscape-font-specification:Hobo Std"
       x="45.124092"
       y="477.59305"
       id="text4964"
       sodipodi:linespacing="100%"><tspan
         sodipodi:role="line"
         id="tspan4966"
         x="45.124092"
         y="477.59305">4</tspan></text>
    <text
       xml:space="preserve"
       style="font-size:10px;font-style:normal;font-variant:normal;font-weight:normal;font-stretch:normal;text-align:center;line-height:100%;writing-mode:lr-tb;text-anchor:middle;opacity:1;fill:#000000;fill-opacity:1;fill-rule:nonzero;stroke:none;stroke-width:1px;stroke-linecap:butt;stroke-linejoin:miter;marker:none;marker-start:none;marker-mid:none;marker-end:none;stroke-miterlimit:4;stroke-dasharray:none;stroke-dashoffset:0;stroke-opacity:1;visibility:visible;display:inline;overflow:visible;enable-background:accumulate;font-family:Hobo Std;-inkscape-font-specification:Hobo Std"
       x="299.19592"
       y="503.89044"
       id="text4968"
       sodipodi:linespacing="100%"><tspan
         sodipodi:role="line"
         id="tspan4970"
         x="299.19592"
         y="503.89044">5</tspan></text>
    <text
       xml:space="preserve"
       style="font-size:10px;font-style:normal;font-variant:normal;font-weight:normal;font-stretch:normal;text-align:center;line-height:100%;writing-mode:lr-tb;text-anchor:middle;opacity:1;fill:#000000;fill-opacity:1;fill-rule:nonzero;stroke:none;stroke-width:1px;stroke-linecap:butt;stroke-linejoin:miter;marker:none;marker-start:none;marker-mid:none;marker-end:none;stroke-miterlimit:4;stroke-dasharray:none;stroke-dashoffset:0;stroke-opacity:1;visibility:visible;display:inline;overflow:visible;enable-background:accumulate;font-family:Hobo Std;-inkscape-font-specification:Hobo Std"
       x="51.117649"
       y="712.6496"
       id="text4976"
       sodipodi:linespacing="100%"><tspan
         sodipodi:role="line"
         id="tspan4978"
         x="51.117649"
         y="712.6496">7</tspan></text>
    <text
       xml:space="preserve"
       style="font-size:10px;font-style:normal;font-variant:normal;font-weight:normal;font-stretch:normal;text-align:center;line-height:100%;writing-mode:lr-tb;text-anchor:middle;fill:#000000;fill-opacity:1;fill-rule:nonzero;stroke:none;stroke-width:1px;stroke-linecap:butt;stroke-linejoin:miter;marker:none;marker-start:none;marker-mid:none;marker-end:none;stroke-miterlimit:4;stroke-dasharray:none;stroke-dashoffset:0;stroke-opacity:1;visibility:visible;display:inline;overflow:visible;enable-background:accumulate;font-family:Hobo Std;-inkscape-font-specification:Hobo Std"
       x="757.95294"
       y="481.58087"
       id="text4972"
       sodipodi:linespacing="100%"><tspan
         sodipodi:role="line"
         id="tspan4974"
         x="757.95294"
         y="481.58087">6</tspan></text>
    <text
       xml:space="preserve"
       style="font-size:10px;font-style:normal;font-variant:normal;font-weight:normal;font-stretch:normal;text-align:center;line-height:100%;writing-mode:lr-tb;text-anchor:middle;fill:#000000;fill-opacity:1;fill-rule:nonzero;stroke:none;stroke-width:1px;stroke-linecap:butt;stroke-linejoin:miter;marker:none;marker-start:none;marker-mid:none;marker-end:none;stroke-miterlimit:4;stroke-dasharray:none;stroke-dashoffset:0;stroke-opacity:1;visibility:visible;display:inline;overflow:visible;enable-background:accumulate;font-family:Hobo Std;-inkscape-font-specification:Hobo Std"
       x="686.41699"
       y="187.94121"
       id="text4960"
       sodipodi:linespacing="100%"><tspan
         sodipodi:role="line"
         id="tspan4962"
         x="686.41699"
         y="187.94121">3</tspan></text>
    <text
       xml:space="preserve"
       style="font-size:10px;font-style:normal;font-variant:normal;font-weight:normal;font-stretch:normal;text-align:center;line-height:100%;writing-mode:lr-tb;text-anchor:middle;fill:#000000;fill-opacity:1;fill-rule:nonzero;stroke:none;stroke-width:1px;stroke-linecap:butt;stroke-linejoin:miter;marker:none;marker-start:none;marker-mid:none;marker-end:none;stroke-miterlimit:4;stroke-dasharray:none;stroke-dashoffset:0;stroke-opacity:1;visibility:visible;display:inline;overflow:visible;enable-background:accumulate;font-family:Hobo Std;-inkscape-font-specification:Hobo Std"
       x="366.14142"
       y="183.51039"
       id="text4956"
       sodipodi:linespacing="100%"><tspan
         sodipodi:role="line"
         id="tspan4958"
         x="366.14142"
         y="183.51039">2</tspan></text>
    <text
       xml:space="preserve"
       style="font-size:10px;font-style:normal;font-variant:normal;font-weight:normal;font-stretch:normal;text-align:center;line-height:100%;writing-mode:lr-tb;text-anchor:middle;fill:#000000;fill-opacity:1;fill-rule:nonzero;stroke:none;stroke-width:1px;stroke-linecap:butt;stroke-linejoin:miter;marker:none;marker-start:none;marker-mid:none;marker-end:none;stroke-miterlimit:4;stroke-dasharray:none;stroke-dashoffset:0;stroke-opacity:1;visibility:visible;display:inline;overflow:visible;enable-background:accumulate;font-family:Hobo Std;-inkscape-font-specification:Hobo Std"
       x="367.49548"
       y="713.75916"
       id="text4980"
       sodipodi:linespacing="100%"><tspan
         sodipodi:role="line"
         id="tspan4982"
         x="367.49548"
         y="713.75916">8</tspan></text>
    <text
       xml:space="preserve"
       style="font-size:10px;font-style:normal;font-variant:normal;font-weight:normal;font-stretch:normal;text-align:center;line-height:100%;writing-mode:lr-tb;text-anchor:middle;fill:#000000;fill-opacity:1;fill-rule:nonzero;stroke:none;stroke-width:1px;stroke-linecap:butt;stroke-linejoin:miter;marker:none;marker-start:none;marker-mid:none;marker-end:none;stroke-miterlimit:4;stroke-dasharray:none;stroke-dashoffset:0;stroke-opacity:1;visibility:visible;display:inline;overflow:visible;enable-background:accumulate;font-family:Hobo Std;-inkscape-font-specification:Hobo Std"
       x="687.49542"
       y="714.52209"
       id="text4984"
       sodipodi:linespacing="100%"><tspan
         sodipodi:role="line"
         id="tspan4986"
         x="687.49542"
         y="714.52209">9</tspan></text>
    <text
       xml:space="preserve"
       style="font-size:10px;font-style:normal;font-variant:normal;font-weight:normal;font-stretch:normal;text-align:center;line-height:100%;writing-mode:lr-tb;text-anchor:middle;fill:#000000;fill-opacity:1;fill-rule:nonzero;stroke:none;stroke-width:1px;stroke-linecap:butt;stroke-linejoin:miter;marker:none;marker-start:none;marker-mid:none;marker-end:none;stroke-miterlimit:4;stroke-dasharray:none;stroke-dashoffset:0;stroke-opacity:1;visibility:visible;display:inline;overflow:visible;enable-background:accumulate;font-family:Hobo Std;-inkscape-font-specification:Hobo Std"
       x="42.28614"
       y="182.76814"
       id="text3220"
       sodipodi:linespacing="100%"><tspan
         sodipodi:role="line"
         id="tspan3222"
         x="42.28614"
         y="182.76814">1</tspan></text>
  </g>
  <g
     inkscape:label="Layer 1"
     inkscape:groupmode="layer"
     id="layer1"
     style="display:inline">
    <text
       xml:space="preserve"
       style="font-size:14px;font-style:normal;font-variant:normal;font-weight:normal;font-stretch:normal;text-align:start;line-height:125%;writing-mode:lr-tb;text-anchor:start;fill:#000000;fill-opacity:1;stroke:none;stroke-width:1px;stroke-linecap:butt;stroke-linejoin:miter;stroke-opacity:1;font-family:Bitstream Vera Sans;-inkscape-font-specification:Bitstream Vera Sans"
       x="-75.761444"
       y="-59.284477"
       id="text6566"
       sodipodi:linespacing="125%"><tspan
         sodipodi:role="line"
         id="tspan6568"
         x="-75.761444"
         y="-59.284477" /></text>
  </g>
</svg>
